<?xml version="1.0" standalone="no"?>
<!DOCTYPE svg PUBLIC "-//W3C//DTD SVG 20010904//EN"
 "http://www.w3.org/TR/2001/REC-SVG-20010904/DTD/svg10.dtd">
<svg version="1.0" xmlns="http://www.w3.org/2000/svg"
 width="736.000000pt" height="736.000000pt" viewBox="0 0 736.000000 736.000000"
 preserveAspectRatio="xMidYMid meet">
<metadata>
Created by potrace 1.11, written by Peter Selinger 2001-2013
</metadata>
<g transform="translate(0.000000,736.000000) scale(0.100000,-0.100000)"
fill="#000000" stroke="none">
<path d="M4238 7345 c-2 -2 -48 -6 -103 -10 -55 -4 -116 -9 -135 -11 -19 -2
-48 -6 -65 -8 -85 -10 -142 -18 -155 -21 -8 -3 -34 -7 -57 -10 -23 -2 -64 -10
-90 -16 -26 -6 -59 -13 -73 -15 -25 -5 -211 -49 -245 -58 -5 -1 -30 -8 -55
-15 -138 -37 -458 -151 -565 -200 -22 -11 -62 -29 -90 -41 -99 -44 -321 -158
-389 -198 -37 -23 -69 -42 -71 -42 -2 0 -40 -25 -85 -55 -45 -30 -85 -55 -90
-55 -5 0 -10 -3 -12 -7 -1 -5 -23 -21 -48 -38 -25 -16 -56 -40 -70 -52 -14
-13 -28 -23 -32 -23 -3 0 -13 -6 -20 -13 -7 -7 -33 -28 -58 -47 -56 -42 -226
-185 -261 -220 -190 -182 -269 -263 -364 -375 -33 -38 -62 -72 -65 -75 -3 -3
-33 -41 -68 -85 -34 -44 -68 -87 -77 -96 -8 -9 -15 -19 -15 -23 0 -4 -4 -12
-10 -19 -42 -52 -67 -86 -132 -187 -41 -63 -90 -142 -109 -175 -19 -33 -39
-69 -46 -80 -6 -11 -20 -36 -29 -55 -10 -19 -22 -38 -27 -41 -5 -3 -8 -10 -8
-15 0 -5 -17 -43 -38 -84 -21 -41 -62 -129 -91 -195 -28 -66 -59 -135 -67
-153 -8 -19 -12 -36 -9 -39 3 -4 2 -11 -3 -17 -17 -22 -139 -406 -157 -494 -2
-12 -14 -62 -25 -110 -12 -48 -23 -100 -25 -117 -3 -16 -7 -41 -11 -55 -3 -14
-7 -34 -8 -45 -1 -11 -6 -40 -10 -65 -4 -25 -9 -61 -11 -80 -1 -19 -3 -35 -4
-35 -5 0 -16 -103 -28 -250 -14 -186 -7 -684 12 -805 2 -14 7 -51 11 -84 4
-32 8 -68 11 -80 2 -11 6 -37 8 -56 9 -67 42 -240 50 -268 3 -9 8 -30 11 -47
5 -27 31 -135 39 -160 1 -5 6 -23 11 -40 4 -16 16 -58 27 -93 11 -34 21 -68
22 -75 1 -6 4 -16 7 -22 4 -5 19 -48 34 -95 16 -47 35 -101 43 -120 9 -19 16
-40 18 -46 3 -17 103 -242 137 -309 17 -33 31 -62 32 -65 1 -6 40 -80 67 -128
11 -20 32 -57 46 -82 14 -25 40 -69 59 -98 18 -29 33 -57 33 -62 0 -6 4 -10 9
-10 5 0 14 -13 21 -29 6 -16 19 -37 28 -48 9 -10 22 -26 27 -35 52 -79 110
-158 116 -158 5 0 9 -5 9 -10 0 -6 32 -51 71 -100 l72 -91 224 227 c223 224
225 227 212 253 -8 14 -24 37 -37 51 -57 63 -239 338 -310 470 -95 176 -131
251 -233 495 -12 30 -70 198 -74 215 -2 8 -4 15 -5 15 -1 0 -3 7 -6 15 -2 8
-11 40 -19 70 -9 30 -18 62 -20 70 -1 8 -8 35 -15 60 -15 56 -20 76 -40 175
-20 96 -21 101 -35 195 -8 60 -17 133 -21 180 -2 25 -6 72 -10 105 -9 80 -9
460 -1 560 11 126 16 177 23 220 10 73 34 220 39 245 4 14 8 36 11 50 3 14 10
45 15 70 6 25 12 52 14 60 12 59 103 352 123 400 9 19 17 44 19 55 2 11 8 22
13 23 6 2 10 8 10 14 0 17 100 238 158 348 84 159 252 433 282 460 3 3 17 21
30 40 122 178 409 484 620 661 134 113 378 289 399 289 6 0 11 4 11 9 0 5 14
14 30 21 17 7 30 16 30 20 0 4 10 10 23 14 12 3 34 16 50 30 15 13 42 30 60
37 17 7 34 16 37 19 7 9 245 124 311 150 30 12 65 27 79 33 14 6 27 11 30 11
3 1 10 4 15 7 9 6 104 39 130 46 6 1 37 12 70 23 61 22 336 95 390 105 17 2
41 7 55 10 47 9 141 26 168 30 174 23 177 23 302 31 146 9 373 10 515 1 109
-7 148 -11 235 -23 25 -3 61 -8 80 -10 19 -2 60 -9 90 -15 30 -6 69 -13 85
-15 17 -3 58 -12 93 -21 35 -8 68 -16 75 -17 41 -7 323 -98 437 -141 176 -66
184 -69 192 -80 4 -5 8 -6 8 -2 0 5 15 0 33 -11 17 -12 36 -21 40 -21 8 0 193
-92 257 -128 113 -64 283 -173 288 -185 2 -4 8 -8 14 -8 5 0 26 -12 46 -27 20
-16 41 -31 47 -35 5 -4 24 -19 41 -33 18 -14 36 -25 42 -25 5 0 12 -7 16 -15
3 -8 11 -15 18 -15 7 0 115 103 240 229 l227 228 -32 26 c-18 15 -45 37 -62
49 -38 29 -45 34 -75 59 -14 11 -37 28 -52 37 -16 9 -28 20 -28 24 0 4 -6 8
-14 8 -8 0 -16 3 -18 8 -4 9 -142 101 -267 177 -114 69 -381 206 -506 259 -49
22 -106 46 -125 54 -86 37 -380 139 -412 142 -4 1 -29 7 -55 16 -41 12 -137
35 -208 49 -11 2 -42 9 -70 15 -27 6 -61 13 -75 16 -14 2 -36 7 -50 10 -25 6
-53 10 -120 19 -34 4 -79 11 -150 21 -19 2 -57 7 -85 9 -27 3 -70 8 -95 11
-46 6 -596 14 -602 9z"/>
<path d="M4437 6064 c-1 -1 -58 -4 -127 -8 -131 -7 -175 -11 -225 -20 -16 -3
-57 -8 -90 -11 -33 -4 -62 -8 -65 -10 -3 -2 -26 -6 -50 -10 -57 -9 -250 -58
-360 -92 -47 -15 -87 -27 -90 -28 -3 -1 -14 -5 -25 -10 -11 -4 -49 -19 -85
-32 -193 -74 -422 -193 -615 -323 -55 -37 -80 -55 -85 -60 -3 -3 -21 -16 -40
-29 -140 -98 -560 -504 -560 -541 0 -5 -4 -10 -8 -12 -5 -1 -28 -30 -53 -63
-24 -33 -47 -62 -50 -65 -13 -11 -109 -160 -109 -169 0 -5 -4 -11 -9 -13 -10
-3 -123 -204 -163 -288 -75 -159 -181 -430 -192 -492 -1 -7 -10 -38 -19 -68
-9 -30 -18 -66 -21 -80 -5 -23 -8 -36 -22 -92 -3 -13 -7 -39 -9 -58 -2 -19 -4
-35 -5 -35 -3 0 -21 -101 -26 -150 -2 -16 -5 -50 -8 -75 -26 -224 -27 -644 -2
-728 3 -9 8 -42 11 -72 6 -63 11 -95 26 -165 15 -77 51 -228 57 -245 3 -8 6
-18 7 -22 2 -5 4 -11 5 -15 1 -5 2 -12 1 -17 -1 -4 2 -13 7 -20 5 -6 15 -33
22 -61 7 -27 17 -54 21 -60 4 -5 8 -14 9 -20 9 -42 99 -254 158 -373 77 -154
226 -394 300 -481 l27 -32 221 223 c121 123 223 228 227 235 4 7 -20 54 -55
110 -35 54 -69 107 -75 118 -21 32 -115 223 -115 232 0 4 -5 14 -11 22 -18 22
-126 339 -141 416 -4 17 -8 39 -10 50 -2 11 -9 38 -14 60 -6 22 -13 60 -16 84
-3 25 -8 63 -11 85 -3 23 -7 58 -9 78 -3 21 -7 42 -11 48 -3 5 -1 10 5 10 6 0
9 4 6 8 -22 36 -23 369 -2 482 3 14 7 47 11 75 3 27 7 57 10 65 2 8 7 31 9 50
19 141 148 525 218 645 6 11 26 47 43 80 140 266 399 580 620 750 21 17 46 37
56 47 40 38 276 190 364 233 22 11 42 23 45 26 5 6 265 117 290 124 25 6 59
18 75 25 44 20 408 103 432 99 4 -1 10 0 13 1 40 16 426 30 448 16 6 -3 13 -2
17 4 4 6 11 8 16 4 9 -5 65 -12 160 -18 25 -2 50 -5 55 -8 5 -2 25 -5 44 -7
19 -2 82 -14 140 -27 58 -14 114 -27 124 -29 36 -8 121 -37 153 -51 17 -8 33
-14 36 -14 3 0 18 -5 34 -12 15 -6 33 -12 39 -13 42 -9 374 -174 405 -201 8
-8 19 -14 23 -14 10 0 100 -63 104 -72 2 -5 8 -8 14 -8 5 0 114 104 240 232
230 232 231 232 207 248 -13 8 -43 30 -66 48 -24 17 -47 32 -52 32 -5 0 -11 4
-13 8 -5 13 -236 151 -242 145 -3 -4 -6 -2 -6 3 0 14 -323 168 -368 175 -4 0
-18 7 -32 14 -49 26 -164 62 -320 99 -8 2 -42 11 -75 20 -56 14 -75 18 -150
31 -16 3 -43 8 -60 12 -32 6 -38 7 -130 18 -33 4 -69 9 -80 11 -34 7 -372 22
-378 18z"/>
<path d="M4339 4776 c-2 -2 -31 -6 -64 -9 -33 -4 -70 -8 -81 -11 -12 -2 -39
-7 -60 -10 -75 -12 -164 -36 -251 -67 -48 -17 -97 -33 -107 -36 -11 -4 -56
-24 -100 -46 -45 -23 -84 -40 -88 -39 -5 1 -8 -2 -8 -8 0 -5 -5 -10 -10 -10
-10 0 -139 -78 -150 -90 -3 -3 -18 -14 -35 -24 -99 -63 -273 -228 -380 -361
-31 -38 -63 -78 -71 -88 -8 -9 -14 -20 -14 -23 0 -3 -12 -24 -27 -47 -16 -23
-34 -51 -41 -62 -6 -11 -39 -74 -71 -140 -63 -128 -111 -260 -141 -390 -18
-77 -22 -104 -37 -210 -9 -64 -10 -396 -1 -455 19 -122 19 -122 43 -230 26
-114 88 -285 147 -403 23 -45 44 -84 47 -87 3 -3 15 -22 25 -42 11 -21 22 -38
26 -38 3 0 112 107 243 239 l236 238 -31 73 c-34 83 -63 183 -72 250 -3 25 -9
59 -12 75 -3 17 -6 82 -6 145 -1 166 7 216 66 415 24 81 97 221 166 316 52 74
195 229 209 229 4 0 22 15 43 33 31 28 194 131 208 132 3 0 10 3 15 7 31 19
171 68 250 87 252 60 519 41 750 -52 l79 -32 238 240 c164 166 234 243 228
251 -10 11 -271 144 -293 148 -7 2 -25 8 -40 14 -16 7 -34 12 -41 12 -6 0 -16
4 -22 9 -10 10 -227 66 -294 76 -25 4 -61 9 -80 12 -42 6 -386 14 -391 9z"/>
<path d="M3890 2106 l0 -1332 985 1 985 0 0 156 0 156 -766 -1 c-421 -1 -770
2 -776 5 -6 4 -9 439 -9 1176 l0 1170 -210 0 -209 0 0 -1331z"/>
<path d="M4493 2248 c0 -549 3 -999 6 -999 3 -1 41 -2 84 -3 l77 -1 0 650 c1
357 0 738 0 845 -1 183 2 218 14 160 16 -87 37 -180 81 -370 20 -85 37 -164
39 -175 2 -11 11 -50 19 -86 17 -70 23 -100 32 -146 3 -16 8 -39 11 -53 3 -14
6 -26 5 -27 0 -2 5 -17 10 -35 5 -18 12 -44 14 -58 7 -36 32 -149 43 -190 5
-19 9 -38 10 -43 1 -4 4 -17 7 -30 3 -12 7 -33 9 -47 5 -27 31 -142 46 -205 5
-22 12 -51 15 -65 15 -77 22 -108 28 -116 3 -6 40 -10 83 -9 60 0 78 4 80 15
4 28 12 65 23 110 16 64 27 112 35 155 2 11 9 38 14 60 6 22 13 51 15 65 3 14
11 45 17 70 7 25 14 52 15 60 1 8 17 78 34 155 18 77 34 148 36 158 2 9 11 45
20 80 9 34 19 73 21 87 8 44 56 255 62 270 3 8 6 20 6 25 2 9 15 71 31 140 2
11 9 38 15 60 5 22 13 55 16 74 3 19 9 43 13 54 4 11 7 -352 7 -806 -1 -545 2
-827 9 -828 31 -4 132 -6 145 -3 13 3 15 123 15 1001 l0 998 -117 1 -117 1
-11 -46 c-6 -25 -13 -55 -16 -66 -3 -11 -7 -31 -10 -45 -2 -14 -8 -43 -14 -65
-5 -22 -16 -69 -24 -105 -8 -36 -22 -96 -31 -135 -9 -38 -18 -78 -20 -88 -2
-10 -6 -26 -9 -35 -3 -9 -7 -28 -10 -42 -3 -14 -7 -34 -10 -45 -2 -11 -18 -83
-36 -160 -17 -77 -40 -178 -51 -225 -12 -47 -22 -92 -24 -100 -2 -8 -15 -67
-29 -130 -15 -63 -41 -181 -58 -262 -27 -125 -40 -164 -44 -130 0 4 -4 18 -7
32 -4 14 -9 36 -11 50 -5 27 -12 59 -22 105 -4 17 -8 39 -10 50 -1 11 -3 21
-4 23 -4 4 -22 94 -22 109 0 5 -4 15 -8 23 -4 8 -11 33 -14 55 -4 22 -8 47
-11 55 -2 8 -6 26 -9 40 -3 14 -15 68 -26 120 -36 160 -52 232 -66 299 -3 12
-12 53 -20 90 -9 36 -18 77 -20 91 -3 14 -9 41 -14 60 -5 19 -11 46 -13 60
-11 62 -80 368 -89 391 l-9 26 -128 -1 -129 -1 1 -997z"/>
</g>
</svg>
