<svg viewBox="0 0 64 64" xmlns="http://www.w3.org/2000/svg" aria-labelledby="title"
aria-describedby="desc" role="img" xmlns:xlink="http://www.w3.org/1999/xlink">
  <title>Hot Coffee</title>
  <desc>A line styled icon from Orion Icon Library.</desc>
  <path stroke-width="3"
  stroke-linejoin="round" stroke-linecap="butt" stroke="#000000" fill="none"
  d="M52 17.965v22.857c0 9.467-9.582 17.143-19.049 17.143h-1.9C21.58 57.965 12 50.289 12 40.822V17.965zM52 22h1.016A8.984 8.984 0 0 1 62 30.982a8.982 8.982 0 0 1-8.982 8.982H52"
  data-name="layer2"></path>
  <path d="M32 13.998v-12m-12.002 12V8.002m24.004 5.996V8.002M62 60a2 2 0 0 1-2 2H4a2 2 0 0 1-2-2 2 2 0 0 1 2-2h56a2 2 0 0 1 2 2z"
  stroke-width="3" stroke-linejoin="round" stroke-linecap="butt" stroke="#000000"
  fill="none" data-name="layer1"></path>
</svg>