<svg xmlns="http://www.w3.org/2000/svg" viewBox="0 0 64 64" aria-labelledby="title"
aria-describedby="desc" role="img" xmlns:xlink="http://www.w3.org/1999/xlink">
  <title>Pizza</title>
  <desc>A line styled icon from Orion Icon Library.</desc>
  <path data-name="layer2"
  d="M28.1 20v-6a24.1 24.1 0 1 0 21.8 13.9l-5.4 2.5m10.3-12.2l5-2.4A24 24 0 0 0 38.1 2l-.8 5"
  fill="none" stroke="#000000" stroke-linecap="butt" stroke-linejoin="round"
  stroke-width="3"></path>
  <path data-name="layer1" d="M10.1 38a18 18 0 1 0 34.3-7.6L28.1 38V20a18 18 0 0 0-18 18z"
  fill="none" stroke="#000000" stroke-linecap="butt" stroke-linejoin="round"
  stroke-width="3"></path>
  <circle data-name="layer1" cx="21.1" cy="35" r="2" fill="none"
  stroke="#000000" stroke-linecap="butt" stroke-linejoin="round" stroke-width="3"></circle>
  <circle data-name="layer1" cx="25.1" cy="47" r="1" fill="none"
  stroke="#000000" stroke-linecap="butt" stroke-linejoin="round" stroke-width="3"></circle>
  <circle data-name="layer1" cx="35.1" cy="43" r="3" fill="none"
  stroke="#000000" stroke-linecap="butt" stroke-linejoin="round" stroke-width="3"></circle>
  <path data-name="layer1" d="M38.1 7h-.8l-3.2 21 20.7-9.8A18 18 0 0 0 38.1 7z"
  fill="none" stroke="#000000" stroke-linecap="butt" stroke-linejoin="round"
  stroke-width="3"></path>
</svg>