<svg xmlns="http://www.w3.org/2000/svg" viewBox="0 0 64 64" aria-labelledby="title"
aria-describedby="desc" role="img" xmlns:xlink="http://www.w3.org/1999/xlink">
  <title>Add to Wishlist</title>
  <desc>A color styled icon from Orion Icon Library.</desc>
  <path data-name="layer2"
  fill="#fc6" d="M46 54.9L36.1 62l3.8-11.5L30 44h12.2L46 32l3.8 12H62l-9.9 6.5L55.9 62 46 54.9z"></path>
  <path data-name="layer1" fill="#c3d6f9" d="M29.9 44h12.3l3.7-12 3.8 12h3.8l4.4-22H6l6 30h27.1l.3-.2.5-1.3-10-6.5z"></path>
  <path fill="#000064" d="M36.9 44h5.3l.5-1.5L40 34l-3.1 10zm2.5 7.8l.5-1.3L33 46h-9l9.1 6h6l.3-.2z"
  opacity=".15"></path>
  <path data-name="stroke" fill="none" stroke="#2e4369" stroke-linecap="round"
  stroke-linejoin="round" stroke-width="2" d="M53.6 44L58 22M6.1 22L12 52h27.2M26 2L8.1 22M38 2l18 20M2 22h60"></path>
  <path data-name="stroke" fill="none" stroke="#2e4369" stroke-linecap="round"
  stroke-linejoin="round" stroke-width="2" d="M46 54.9L36.1 62l3.8-11.5L30 44h12.2L46 32l3.8 12H62l-9.9 6.5L55.9 62 46 54.9z"></path>
</svg>