<svg xmlns="http://www.w3.org/2000/svg" viewBox="0 0 64 64" aria-labelledby="title"
aria-describedby="desc" role="img" xmlns:xlink="http://www.w3.org/1999/xlink">
  <title>ATM</title>
  <desc>A color styled icon from Orion Icon Library.</desc>
  <path data-name="layer3"
  d="M14 56H5a3 3 0 0 1-3-3V5a3 3 0 0 1 3-3h54a3 3 0 0 1 3 3v48a3 3 0 0 1-3 3H34"
  fill="#c3d6f9"></path>
  <path data-name="layer2" fill="#b1c19f" d="M10 10h26v26H10z"></path>
  <path data-name="opacity" d="M2 5v48a3 3 0 0 0 3 3h54a3 3 0 0 0 3-3H30l-16-9-8 8V2H5a3 3 0 0 0-3 3z"
  fill="#000064" opacity=".15"></path>
  <path data-name="layer1" fill="#e0eafc" d="M14 44h20v18H14z"></path>
  <path data-name="stroke" fill="none" stroke="#2e4369" stroke-linecap="round"
  stroke-linejoin="round" stroke-width="2" d="M10 10h26v26H10z"></path>
  <path data-name="stroke" d="M14 56H5a3 3 0 0 1-3-3V5a3 3 0 0 1 3-3h54a3 3 0 0 1 3 3v48a3 3 0 0 1-3 3H34M10 44h28"
  fill="none" stroke="#2e4369" stroke-linecap="round" stroke-linejoin="round"
  stroke-width="2"></path>
  <path data-name="stroke" fill="none" stroke="#2e4369" stroke-linecap="round"
  stroke-linejoin="round" stroke-width="2" d="M14 44h20v18H14zm28-28h14m-12 8h2m6 0h2m-10 8h2m6 0h2"></path>
</svg>