<svg xmlns="http://www.w3.org/2000/svg" viewBox="0 0 64 64" aria-labelledby="title"
aria-describedby="desc" role="img" xmlns:xlink="http://www.w3.org/1999/xlink">
  <title>Auction</title>
  <desc>A color styled icon from Orion Icon Library.</desc>
  <path data-name="layer1"
  fill="#c96" d="M36.5 53h26v8h-26zM17.384 14.336l9.9-9.9 18.384 18.385-9.9 9.9z"></path>
  <path data-name="layer2" fill="#d9b28c" d="M38.5 53v-6h22v6"></path>
  <path fill="#000064" d="M36.5 53h6v8h-6zm2-6h6v6h-6z" opacity=".15"></path>
  <path fill="#fff" d="M52.5 53h6v8h-6zm-2-6h6v6h-6z" opacity=".2"></path>
  <path data-name="layer1" d="M28.8 26L6.6 48.2A3 3 0 1 1 2.4 44l22.1-22.2z"
  fill="#c96"></path>
  <path data-name="opacity" fill="#000064" opacity=".15" d="M39 29.5L20.6 11.1l-3.2 3.2 7.3 7.3-5.8 5.8 4.2 4.2 5.8-5.7 6.9 6.8 3.2-3.2z"></path>
  <path data-name="stroke" fill="none" stroke="#2e4369" stroke-linecap="round"
  stroke-linejoin="round" stroke-width="2" d="M36.5 53h26v8h-26zM17.384 14.336l9.9-9.9 18.384 18.385-9.9 9.9zM28.7 3L16 15.7m31.1 5.7L34.3 34.1M28.8 26L6.6 48.2A3 3 0 1 1 2.4 44l22.1-22.2m14 31.2v-6h22v6"></path>
</svg>