<svg xmlns="http://www.w3.org/2000/svg" viewBox="0 0 64 64" aria-labelledby="title"
aria-describedby="desc" role="img" xmlns:xlink="http://www.w3.org/1999/xlink">
  <title>Bill</title>
  <desc>A color styled icon from Orion Icon Library.</desc>
  <path data-name="layer1"
  fill="#e0eafc" d="M53 8l-6.1-6L41 6l-6-4-6 4-6-4-6 4-6-4v54.1l6.1 5.9 5.9-4 6 4 6-4 6 4 6-4 6 4V8z"></path>
  <path data-name="opacity" fill="#000064" opacity=".15" d="M11 2v54.1l6 5.8V6l-6-4z"></path>
  <path data-name="stroke" fill="none" stroke="#2e4369" stroke-linecap="round"
  stroke-linejoin="round" stroke-width="2" d="M19 20h10M19 36h8m-8-8h8m-8 16h4m0-42zm12 0zm11.9 0zM53 8l-6.1-6L41 6l-6-4-6 4-6-4-6 4-6-4v54l6.1 6 5.9-4 6 4 6-4 6 4 6-4 6 4V8zM41 62zm-12 0zm-11.9 0z"></path>
  <path data-name="stroke" d="M44.9 22.7a5 5 0 0 0-4.9-4.2c-2.8 0-5 1.8-5 4.6s2.5 4 5 4.6"
  fill="none" stroke="#2e4369" stroke-linecap="round" stroke-linejoin="round"
  stroke-width="2"></path>
  <path data-name="stroke" d="M35 32.5a5 5 0 0 0 5 5 5.2 5.2 0 0 0 5-5.2c0-2.8-2.5-4-5-4.6m0-9.2V16m0 24v-2.5"
  fill="none" stroke="#2e4369" stroke-linecap="round" stroke-linejoin="round"
  stroke-width="2"></path>
</svg>