<svg xmlns="http://www.w3.org/2000/svg" viewBox="0 0 64 64" aria-labelledby="title"
aria-describedby="desc" role="img" xmlns:xlink="http://www.w3.org/1999/xlink">
  <title>Bill</title>
  <desc>A color styled icon from Orion Icon Library.</desc>
  <path data-name="layer1"
  fill="#9cc4a4" d="M2 14h60v36H2z"></path>
  <circle data-name="opacity" cx="32" cy="32" r="8" fill="#000064"
  opacity=".15"></circle>
  <path d="M2 40v10h10A9.7 9.7 0 0 0 2 40zm10-26H2v10a10 10 0 0 0 10-10zm40 36h10V40a9.7 9.7 0 0 0-10 10zm0-36a10 10 0 0 0 10 10V14z"
  fill="#fff" data-name="opacity" opacity=".25"></path>
  <path data-name="stroke" fill="none" stroke="#2e4369" stroke-linecap="round"
  stroke-linejoin="round" stroke-width="2" d="M2 14h60v36H2z"></path>
  <circle data-name="stroke" cx="32" cy="32" r="8" fill="none" stroke="#2e4369"
  stroke-linecap="round" stroke-linejoin="round" stroke-width="2"></circle>
  <path data-name="stroke" fill="none" stroke="#2e4369" stroke-linecap="round"
  stroke-linejoin="round" stroke-width="2" d="M12 32h4m32 0h4M12 14A10 10 0 0 1 2 24m60 0a10 10 0 0 1-10-10M2 40a10 10 0 0 1 10 10m40 0a10 10 0 0 1 10-10"></path>
</svg>