<svg xmlns="http://www.w3.org/2000/svg" viewBox="0 0 64 64" aria-labelledby="title"
aria-describedby="desc" role="img" xmlns:xlink="http://www.w3.org/1999/xlink">
  <title>Bills</title>
  <desc>A color styled icon from Orion Icon Library.</desc>
  <path data-name="layer1"
  fill="#9cc4a4" d="M18 10h44v28H18z"></path>
  <path data-name="layer1" fill="#9cc4a4" d="M18 18h-8v8H2v28h44v-8h8v-8H18V18z"></path>
  <circle data-name="opacity" cx="40" cy="24" r="6" fill="#000064"
  opacity=".15"></circle>
  <path data-name="opacity" fill="#000064" opacity=".15" d="M18 18h-8v28h44v-8H18V18z"></path>
  <path data-name="opacity" fill="#000064" opacity=".25" d="M10 26H2v28h44v-8H10V26z"></path>
  <path data-name="stroke" fill="none" stroke="#2e4369" stroke-linecap="round"
  stroke-linejoin="round" stroke-width="2" d="M18 10h44v27.99H18z"></path>
  <circle data-name="stroke" cx="40" cy="24" r="6" fill="none" stroke="#2e4369"
  stroke-linecap="round" stroke-linejoin="round" stroke-width="2"></circle>
  <path data-name="stroke" fill="none" stroke="#2e4369" stroke-linecap="round"
  stroke-linejoin="round" stroke-width="2" d="M18 18h-8v28h44v-8"></path>
  <path data-name="stroke" fill="none" stroke="#2e4369" stroke-linecap="round"
  stroke-linejoin="round" stroke-width="2" d="M10 26H2v28h44v-8M26 18h2m24 12h2"></path>
</svg>