<svg xmlns="http://www.w3.org/2000/svg" viewBox="0 0 64 64" aria-labelledby="title"
aria-describedby="desc" role="img" xmlns:xlink="http://www.w3.org/1999/xlink">
  <title>Bitcoin Unit</title>
  <desc>A color styled icon from Orion Icon Library.</desc>
  <path data-name="layer1"
  d="M54 32a8 8 0 0 1 8-8V14H2v10a8 8 0 1 1 0 16v10h60V40a8 8 0 0 1-8-8z"
  fill="#efbc8b"></path>
  <path d="M54.2 33.5A8 8 0 0 0 62 43v-3a8 8 0 0 1-7.8-6.5zM2 14h60v3H2z"
  fill="#fff" opacity=".25"></path>
  <path data-name="stroke" d="M26 31h7a4.5 4.5 0 0 0 4.7-4.4 4.6 4.6 0 0 0-4.6-4.6H26v20h8a4.7 4.7 0 0 0 5-5 5.8 5.8 0 0 0-6-6m-5-9v-4m6 4v-4m-6 28v-4m6 4v-4"
  fill="none" stroke="#2e4369" stroke-linecap="round" stroke-linejoin="round"
  stroke-width="2"></path>
  <path data-name="stroke" d="M54 32a8 8 0 0 1 8-8V14H2v10a8 8 0 1 1 0 16v10h60V40a8 8 0 0 1-8-8z"
  fill="none" stroke="#2e4369" stroke-linecap="round" stroke-linejoin="round"
  stroke-width="2"></path>
</svg>