<svg xmlns="http://www.w3.org/2000/svg" viewBox="0 0 64 64" aria-labelledby="title"
aria-describedby="desc" role="img" xmlns:xlink="http://www.w3.org/1999/xlink">
  <title>Bitcoin</title>
  <desc>A color styled icon from Orion Icon Library.</desc>
  <path data-name="layer1"
  d="M49 41.6a14.4 14.4 0 0 0-7-12.3 12.6 12.6 0 0 0-7-21.1V4h-6v4h-4V4h-6v4h-4v48h4v4h6v-4h4v4h6v-4a14.2 14.2 0 0 0 14-14.4zm-9.5-21a6.6 6.6 0 0 1-6.6 6.6H21V14h11.9a6.6 6.6 0 0 1 6.6 6.6zM34.6 50H21V33.2h14a8.6 8.6 0 0 1 8.2 8.4 8.6 8.6 0 0 1-8.6 8.4z"
  fill="#c3d6f9"></path>
  <path data-name="stroke" d="M49 41.6a14.4 14.4 0 0 0-7-12.3 12.6 12.6 0 0 0-7-21.1V4h-6v4h-4V4h-6v4h-4v48h4v4h6v-4h4v4h6v-4a14.2 14.2 0 0 0 14-14.4zm-9.5-21a6.6 6.6 0 0 1-6.6 6.6H21V14h11.9a6.6 6.6 0 0 1 6.6 6.6zM34.6 50H21V33.2h14a8.6 8.6 0 0 1 8.2 8.4 8.6 8.6 0 0 1-8.6 8.4z"
  fill="none" stroke="#2e4369" stroke-linecap="round" stroke-linejoin="round"
  stroke-width="2"></path>
</svg>