<svg xmlns="http://www.w3.org/2000/svg" viewBox="0 0 64 64" aria-labelledby="title"
aria-describedby="desc" role="img" xmlns:xlink="http://www.w3.org/1999/xlink">
  <title>Box</title>
  <desc>A color styled icon from Orion Icon Library.</desc>
  <path data-name="layer1"
  fill="#fc9" d="M2 62V20L14 2h36l12 18v42H2z"></path>
  <path data-name="opacity" fill="#000064" opacity=".15" d="M7 20H2v42h60v-5H7V20z"></path>
  <path data-name="opacity" fill="#fff" opacity=".25" d="M14 2L2 20h60L50 2H14z"></path>
  <path data-name="opacity" d="M46 34a4 4 0 0 1-4 4H22a4 4 0 0 1-4-4 4 4 0 0 1 4-4h20a4 4 0 0 1 4 4z"
  fill="#000064" opacity=".4"></path>
  <path data-name="stroke" fill="none" stroke="#2e4369" stroke-linecap="round"
  stroke-linejoin="round" stroke-width="2" d="M2 62V20L14 2h36l12 18v42H2zm0-42h60"></path>
  <path data-name="stroke" d="M46 34a4 4 0 0 1-4 4H22a4 4 0 0 1-4-4 4 4 0 0 1 4-4h20a4 4 0 0 1 4 4z"
  fill="none" stroke="#2e4369" stroke-linecap="round" stroke-linejoin="round"
  stroke-width="2"></path>
</svg>