<svg xmlns="http://www.w3.org/2000/svg" viewBox="0 0 64 64" aria-labelledby="title"
aria-describedby="desc" role="img" xmlns:xlink="http://www.w3.org/1999/xlink">
  <title>British Pound Bill</title>
  <desc>A color styled icon from Orion Icon Library.</desc>
  <path data-name="layer1"
  d="M54 32a8 8 0 0 1 8-8V14H2v10a8 8 0 1 1 0 16v10h60V40a8 8 0 0 1-8-8z"
  fill="#efbc8b"></path>
  <path d="M54.2 33.5A8 8 0 0 0 62 43v-3a8 8 0 0 1-7.8-6.5zM2 14h60v3H2z"
  fill="#fff" opacity=".25"></path>
  <path data-name="stroke" d="M54 32a8 8 0 0 1 8-8V14H2v10a8 8 0 1 1 0 16v10h60V40a8 8 0 0 1-8-8zM24 42h14m-14-8h14"
  fill="none" stroke="#2e4369" stroke-linecap="round" stroke-linejoin="round"
  stroke-width="2"></path>
  <path data-name="stroke" d="M38 27a5 5 0 0 0-10 0v11c0 2-.7 4-4 4"
  fill="none" stroke="#2e4369" stroke-linecap="round" stroke-linejoin="round"
  stroke-width="2"></path>
</svg>