<svg xmlns="http://www.w3.org/2000/svg" viewBox="0 0 64 64" aria-labelledby="title"
aria-describedby="desc" role="img" xmlns:xlink="http://www.w3.org/1999/xlink">
  <title>British Pound</title>
  <desc>A color styled icon from Orion Icon Library.</desc>
  <path data-name="layer1"
  d="M25.5 48.1V36.9h22v-6h-22V18.4A10.3 10.3 0 0 1 36 8.1a10.6 10.6 0 0 1 10.5 10.8h6C52.5 8.9 45 2.1 36 2.1a16.4 16.4 0 0 0-16.6 16.4v12.4h-7.9v6h7.9v11.2c0 5.6-2.2 7.8-7.8 7.8h-.2v6h36v-6H23.7a15.7 15.7 0 0 0 1.8-7.8z"
  fill="#c3d6f9"></path>
  <path data-name="stroke" d="M25.5 48.1V36.9h22v-6h-22V18.4A10.3 10.3 0 0 1 36 8.1a10.6 10.6 0 0 1 10.5 10.8h6C52.5 8.9 45 2.1 36 2.1a16.4 16.4 0 0 0-16.6 16.4v12.4h-7.9v6h7.9v11.2c0 5.6-2.2 7.8-7.8 7.8h-.2v6h36v-6H23.7a15.7 15.7 0 0 0 1.8-7.8z"
  fill="none" stroke="#2e4369" stroke-linecap="round" stroke-linejoin="round"
  stroke-width="2"></path>
</svg>