<svg xmlns="http://www.w3.org/2000/svg" viewBox="0 0 64 64" aria-labelledby="title"
aria-describedby="desc" role="img" xmlns:xlink="http://www.w3.org/1999/xlink">
  <title>Calc</title>
  <desc>A color styled icon from Orion Icon Library.</desc>
  <path data-name="layer1"
  d="M32 4H12a8 8 0 0 0-8 8v20h28zm28 28V12a8 8 0 0 0-8-8H32v28z" fill="#ffae63"></path>
  <path data-name="layer2" d="M32 32v28h20a8 8 0 0 0 8-8V32z" fill="#c3d6f9"></path>
  <path data-name="layer1" d="M4 32v20a8 8 0 0 0 8 8h20V32z" fill="#ffae63"></path>
  <path data-name="opacity" d="M56 56H16a8 8 0 0 1-8-8V8a8 8 0 0 1 .7-3.3A8 8 0 0 0 4 12v40a8 8 0 0 0 8 8h40a8 8 0 0 0 7.3-4.7 8 8 0 0 1-3.3.7z"
  fill="#000064" opacity=".15"></path>
  <path data-name="stroke" fill="none" stroke="#2e4369" stroke-linecap="round"
  stroke-linejoin="round" stroke-width="2" d="M18 12v12m-6-6h12m-2 24l-8 8m0-8l8 8m18-32h12M42 42h8m-8 8h8"></path>
  <rect data-name="stroke" x="4" y="4" width="56" height="56" rx="8"
  ry="8" fill="none" stroke="#2e4369" stroke-linecap="round" stroke-linejoin="round"
  stroke-width="2"></rect>
  <path data-name="stroke" fill="none" stroke="#2e4369" stroke-linecap="round"
  stroke-linejoin="round" stroke-width="2" d="M32 4v56M4 32h56"></path>
</svg>