<svg xmlns="http://www.w3.org/2000/svg" viewBox="0 0 64 64" aria-labelledby="title"
aria-describedby="desc" role="img" xmlns:xlink="http://www.w3.org/1999/xlink">
  <title>Cash Dispenser</title>
  <desc>A color styled icon from Orion Icon Library.</desc>
  <path data-name="layer2"
  d="M14 26H5a3 3 0 0 1-3-3V5a3 3 0 0 1 3-3h54a3 3 0 0 1 3 3v18a3 3 0 0 1-3 3h-9"
  fill="#8fa9d8"></path>
  <path data-name="opacity" fill="#000064" opacity=".3" d="M14 18h-4v-8h44v8h-4"></path>
  <path data-name="layer1" fill="#9cc4a4" d="M50 10v44H14V10m1 44v8h34v-8"></path>
  <path data-name="opacity" fill="#000064" opacity=".15" d="M15 54v8h34v-8M14 10h36v5H14z"></path>
  <path data-name="stroke" d="M14 26H5a3 3 0 0 1-3-3V5a3 3 0 0 1 3-3h54a3 3 0 0 1 3 3v18a3 3 0 0 1-3 3h-9"
  fill="none" stroke="#2e4369" stroke-linecap="round" stroke-linejoin="round"
  stroke-width="2"></path>
  <path data-name="stroke" fill="none" stroke="#2e4369" stroke-linecap="round"
  stroke-linejoin="round" stroke-width="2" d="M14 18h-4v-8h44v8h-4"></path>
  <path data-name="stroke" fill="none" stroke="#2e4369" stroke-linecap="round"
  stroke-linejoin="round" stroke-width="2" d="M50 10v44H14V10m26 44a10 10 0 0 1 10-10m-36 0a10 10 0 0 1 10 10m-9 0v8h34v-8"></path>
  <path data-name="stroke" d="M36.9 21.3a5 5 0 0 0-4.9-4.1c-2.8 0-5 1.8-5 4.6s2.5 4 5 4.6"
  fill="none" stroke="#2e4369" stroke-linecap="round" stroke-linejoin="round"
  stroke-width="2"></path>
  <path data-name="stroke" d="M27 30.5a5 5 0 0 0 5 5c2.8 0 5-1.8 5-4.6s-2.5-4-5-4.6m0-9.1v-2.5M32 38v-2.5"
  fill="none" stroke="#2e4369" stroke-linecap="round" stroke-linejoin="round"
  stroke-width="2"></path>
</svg>