<svg xmlns="http://www.w3.org/2000/svg" viewBox="0 0 64 64" aria-labelledby="title"
aria-describedby="desc" role="img" xmlns:xlink="http://www.w3.org/1999/xlink">
  <title>Cash Register Till</title>
  <desc>A color styled icon from Orion Icon Library.</desc>
  <path data-name="layer2"
  fill="#7b8baf" d="M32 4h16v8H32z"></path>
  <path data-name="layer1" d="M52 34V20a2 2 0 0 0-2-2H14a2 2 0 0 0-2 2v14L2 52v8h60v-8z"
  fill="#c3d6f9"></path>
  <path data-name="opacity" fill="#000064" opacity=".14" d="M2 52h60v8H2zm10-18V20a2 2 0 0 1 2-2h36a2 2 0 0 1 2 2v14"></path>
  <path data-name="stroke" fill="none" stroke="#2e4369" stroke-linecap="round"
  stroke-linejoin="round" stroke-width="2" d="M32 4h16v8H32zm8 14v-6m4 14H20M2 52l10-18h40l10 18M2 52h60v8H2zm10-18V20a2 2 0 0 1 2-2h36a2 2 0 0 1 2 2v14m-20 6h16m-16 6h20"></path>
</svg>