<svg xmlns="http://www.w3.org/2000/svg" viewBox="0 0 64 64" aria-labelledby="title"
aria-describedby="desc" role="img" xmlns:xlink="http://www.w3.org/1999/xlink">
  <title>Conference Desk</title>
  <desc>A color styled icon from Orion Icon Library.</desc>
  <path data-name="layer3"
  d="M40 8V4a2 2 0 0 0-2-2h-8a2 2 0 0 0-2 2v4z" fill="#ff7e63"></path>
  <path data-name="layer2" fill="#fc9" d="M60 42L48 18H16L4 42h56z"></path>
  <path data-name="layer1" fill="#e0eafc" d="M38 24H20l-4.8 10H42l-4-10z"></path>
  <path data-name="opacity" fill="#000064" opacity=".15" d="M60 42l-2-4H6l-2 4h56z"></path>
  <path data-name="stroke" fill="none" stroke="#2e4369" stroke-linecap="round"
  stroke-linejoin="round" stroke-width="2" d="M32 42v20m-8 0h16m20-20L48 18H16L4 42m-2 0h60"></path>
  <path data-name="stroke" fill="none" stroke="#2e4369" stroke-linecap="round"
  stroke-linejoin="round" stroke-width="2" d="M44 20V8.1L40 6m-2 18H20l-4.8 10H42l-4-10zm2-16V4a2 2 0 0 0-2-2h-8a2 2 0 0 0-2 2v4z"></path>
</svg>