<svg xmlns="http://www.w3.org/2000/svg" viewBox="0 0 64 64" aria-labelledby="title"
aria-describedby="desc" role="img" xmlns:xlink="http://www.w3.org/1999/xlink">
  <title>Credit Card</title>
  <desc>A color styled icon from Orion Icon Library.</desc>
  <path data-name="layer2"
  d="M62 16a3 3 0 0 0-3-3H5a3 3 0 0 0-3 3v7h60z" fill="#7b8baf"></path>
  <path data-name="layer1" d="M2 23v25a3 3 0 0 0 3 3h54a3 3 0 0 0 3-3V23"
  fill="#78d1f4"></path>
  <path d="M20 13l38 38h1a3 3 0 0 0 3-3v-1L28 13zm42 26.1v-15L50.8 13H35.6L62 39.1z"
  fill="#fff" data-name="opacity" opacity=".2"></path>
  <path data-name="stroke" d="M62 16a3 3 0 0 0-3-3H5a3 3 0 0 0-3 3v7h60zM2 23v25a3 3 0 0 0 3 3h54a3 3 0 0 0 3-3V23m-52 8h20m18 0h6m-44 8h8"
  fill="none" stroke="#2e4369" stroke-linecap="round" stroke-linejoin="round"
  stroke-width="2"></path>
</svg>