<svg xmlns="http://www.w3.org/2000/svg" viewBox="0 0 64 64" aria-labelledby="title"
aria-describedby="desc" role="img" xmlns:xlink="http://www.w3.org/1999/xlink">
  <title>Delivery Time</title>
  <desc>A color styled icon from Orion Icon Library.</desc>
  <circle data-name="layer4"
  cx="24" cy="54" r="4" fill="#a6b1c9"></circle>
  <circle data-name="layer4" cx="54" cy="54" r="4" fill="#a6b1c9"></circle>
  <circle data-name="layer3" cx="14" cy="18" r="12" fill="#78d1f4"></circle>
  <path data-name="layer2" d="M62 46H16v8h4a4 4 0 0 1 8 0h22a4 4 0 0 1 8 0h4z"
  fill="#7b8baf"></path>
  <path data-name="layer1" d="M24.5 24l-.3.2a12 12 0 0 1-8.2 5.6V46h30V24z"
  fill="#c3d6f9"></path>
  <path data-name="opacity" d="M28.9 24h-4.4l-.3.2a12 12 0 0 1-8.2 5.6v5.1h1A12 12 0 0 0 28.9 24z"
  fill="#000064" opacity=".15"></path>
  <path data-name="layer1" fill="#c3d6f9" d="M62 46v-5l-8-7h-8v12h16z"></path>
  <path data-name="stroke" fill="none" stroke="#2e4369" stroke-linecap="round"
  stroke-linejoin="round" stroke-width="2" d="M62 46v-5l-8-7h-8"></path>
  <circle data-name="stroke" cx="24" cy="54" r="4" fill="none" stroke="#2e4369"
  stroke-linecap="round" stroke-linejoin="round" stroke-width="2"></circle>
  <circle data-name="stroke" cx="54" cy="54" r="4" fill="none"
  stroke="#2e4369" stroke-linecap="round" stroke-linejoin="round" stroke-width="2"></circle>
  <path data-name="stroke" fill="none" stroke="#2e4369" stroke-linecap="round"
  stroke-linejoin="round" stroke-width="2" d="M50 54H28m-8 0h-4v-8h46v8h-4M24.5 24H46v22m-30 0V29.8M2 38h6m-2 8h2"></path>
  <circle data-name="stroke" cx="14" cy="18" r="12" fill="none" stroke="#2e4369"
  stroke-linecap="round" stroke-linejoin="round" stroke-width="2"></circle>
  <path data-name="stroke" fill="none" stroke="#2e4369" stroke-linecap="round"
  stroke-linejoin="round" stroke-width="2" d="M14 12v8h6"></path>
</svg>