<svg xmlns="http://www.w3.org/2000/svg" viewBox="0 0 64 64" aria-labelledby="title"
aria-describedby="desc" role="img" xmlns:xlink="http://www.w3.org/1999/xlink">
  <title>Delivery Time</title>
  <desc>A color styled icon from Orion Icon Library.</desc>
  <circle data-name="layer3"
  cx="20" cy="56" r="4" fill="#a6b1c9"></circle>
  <circle data-name="layer3" cx="46" cy="56" r="4" fill="#a6b1c9"></circle>
  <circle data-name="layer2" cx="46" cy="20" r="16" fill="#78d1f4"></circle>
  <path data-name="layer1" d="M30.5 24H12l6 24h32l5-14.6a17.7 17.7 0 0 1-8.9 2.6 16 16 0 0 1-15.6-12z"
  fill="#c3d6f9"></path>
  <path data-name="opacity" d="M42 40a16 16 0 0 0 12.9-6.5 17.6 17.6 0 0 1-8.8 2.5 16 16 0 0 1-15.6-12H26a16 16 0 0 0 16 16z"
  fill="#000064" opacity=".15"></path>
  <path data-name="stroke" fill="none" stroke="#2e4369" stroke-linecap="round"
  stroke-linejoin="round" stroke-width="2" d="M30.5 24H12M2 8h6l10 40h32l4.7-14.6"></path>
  <circle data-name="stroke" cx="20" cy="56" r="4" fill="none" stroke="#2e4369"
  stroke-linecap="round" stroke-linejoin="round" stroke-width="2"></circle>
  <circle data-name="stroke" cx="46" cy="56" r="4" fill="none"
  stroke="#2e4369" stroke-linecap="round" stroke-linejoin="round" stroke-width="2"></circle>
  <circle data-name="stroke" cx="46" cy="20" r="16" fill="none"
  stroke="#2e4369" stroke-linecap="round" stroke-linejoin="round" stroke-width="2"></circle>
  <path data-name="stroke" fill="none" stroke="#2e4369" stroke-linecap="round"
  stroke-linejoin="round" stroke-width="2" d="M46 12v10h8"></path>
</svg>