<svg xmlns="http://www.w3.org/2000/svg" viewBox="0 0 64 64" aria-labelledby="title"
aria-describedby="desc" role="img" xmlns:xlink="http://www.w3.org/1999/xlink">
  <title>Delivery Address</title>
  <desc>A color styled icon from Orion Icon Library.</desc>
  <path data-name="layer2"
  d="M50 28a12 12 0 0 0-12 12 12.2 12.2 0 0 0 .1 1.5C39.2 51.4 50 62 50 62s10.8-10.6 11.9-20.5A12.2 12.2 0 0 0 62 40a12 12 0 0 0-12-12zm0 14a2 2 0 1 1 2-2 2 2 0 0 1-2 2z"
  fill="#f27e7c"></path>
  <path data-name="layer1" d="M37.9 40a12 12 0 0 1 18.4-10.2h.1l1.5-7.8H6l6 30h30a26 26 0 0 1-4-10.5 12.2 12.2 0 0 1-.1-1.5z"
  fill="#c3d6f9"></path>
  <path data-name="opacity" d="M32 42a12.2 12.2 0 0 0 .1 1.5A24 24 0 0 0 35 52h7a26 26 0 0 1-4-10.5 12.2 12.2 0 0 1-.1-1.5 12 12 0 0 1 5.3-10A12 12 0 0 0 32 42z"
  fill="#000064" opacity=".15"></path>
  <path data-name="stroke" fill="none" stroke="#2e4369" stroke-linecap="round"
  stroke-linejoin="round" stroke-width="2" d="M56.4 29.7L58 22M6.1 22L12 52h30.1M26 2L8.1 22M38 2l18 20M2 22h60"></path>
  <path data-name="stroke" d="M61.9 41.5A12.2 12.2 0 0 0 62 40a12 12 0 1 0-24 0 12.2 12.2 0 0 0 .1 1.5C39.2 51.4 50 62 50 62s10.8-10.6 11.9-20.5z"
  fill="none" stroke="#2e4369" stroke-linecap="round" stroke-linejoin="round"
  stroke-width="2"></path>
  <circle data-name="stroke" cx="50" cy="40" r="2" fill="none" stroke="#2e4369"
  stroke-linecap="round" stroke-linejoin="round" stroke-width="2"></circle>
</svg>