<svg xmlns="http://www.w3.org/2000/svg" viewBox="0 0 64 64" aria-labelledby="title"
aria-describedby="desc" role="img" xmlns:xlink="http://www.w3.org/1999/xlink">
  <title>Delivery</title>
  <desc>A color styled icon from Orion Icon Library.</desc>
  <path data-name="layer3"
  d="M24.8 44a6.9 6.9 0 0 1-6.2 5c-2.7 0-4.2-2.2-3.4-5a6.9 6.9 0 0 1 6.2-5c2.6 0 4.2 2.2 3.4 5zm24 0a6.9 6.9 0 0 1-6.2 5c-2.7 0-4.2-2.2-3.4-5a6.9 6.9 0 0 1 6.2-5c2.6 0 4.2 2.2 3.4 5z"
  fill="#a6b1c9"></path>
  <path data-name="layer2" d="M55.1 31l-4 2H41s3.1-12.7 3.7-14.9.6-3.1-1.7-3.1H17L9 43h6.6a6.9 6.9 0 0 1 5.8-4 3.5 3.5 0 0 1 3.6 4h14.6a6.9 6.9 0 0 1 5.8-4 3.5 3.5 0 0 1 3.6 4h8c1.5 0 2-.7 2-2v-8z"
  fill="#c3d6f9"></path>
  <path data-name="layer1" d="M51.1 33l4-2-6.1-8h-5.5L41 33z" fill="#e0eafc"></path>
  <path data-name="stroke" d="M17 15h26c2.3 0 2.1 1.6 1.7 3.1S41 33 41 33h10.1l4-2 3.9 2v8c0 1.3-.5 2-2 2h-8M9 43h6.6m9.4 0h14.6"
  fill="none" stroke="#2e4369" stroke-linecap="round" stroke-linejoin="round"
  stroke-width="2"></path>
  <path data-name="stroke" d="M43.6 23H49l6.1 8M31 23H9m18 8H5m19.8 13a6.9 6.9 0 0 1-6.2 5c-2.7 0-4.2-2.2-3.4-5a6.9 6.9 0 0 1 6.2-5c2.6 0 4.2 2.2 3.4 5zm24 0a6.9 6.9 0 0 1-6.2 5c-2.7 0-4.2-2.2-3.4-5a6.9 6.9 0 0 1 6.2-5c2.6 0 4.2 2.2 3.4 5z"
  fill="none" stroke="#2e4369" stroke-linecap="round" stroke-linejoin="round"
  stroke-width="2"></path>
</svg>