<svg xmlns="http://www.w3.org/2000/svg" viewBox="0 0 64 64" aria-labelledby="title"
aria-describedby="desc" role="img" xmlns:xlink="http://www.w3.org/1999/xlink">
  <title>Delivery Truck</title>
  <desc>A color styled icon from Orion Icon Library.</desc>
  <path data-name="layer4"
  fill="#78d1f4" d="M2 43V7h36v36"></path>
  <path data-name="opacity" fill="#000064" opacity=".15" d="M7 7H2v36h36v-3H7V7z"></path>
  <circle data-name="layer3" cx="14" cy="51" r="6" fill="#a6b1c9"></circle>
  <circle data-name="layer3" cx="50" cy="51" r="6" fill="#a6b1c9"></circle>
  <path data-name="layer2" d="M2 43v8h6a6 6 0 0 1 12 0h24a6 6 0 0 1 12 0h6v-8z"
  fill="#7b8baf"></path>
  <path data-name="layer1" fill="#c3d6f9" d="M62 43v-8l-4-4-6-12H38v24h24z"></path>
  <path data-name="stroke" fill="none" stroke="#2e4369" stroke-linecap="round"
  stroke-linejoin="round" stroke-width="2" d="M38 19h14l6 12 4 4v8M2 43V7h36v36"></path>
  <circle data-name="stroke" cx="14" cy="51" r="6" fill="none" stroke="#2e4369"
  stroke-linecap="round" stroke-linejoin="round" stroke-width="2"></circle>
  <circle data-name="stroke" cx="50" cy="51" r="6" fill="none"
  stroke="#2e4369" stroke-linecap="round" stroke-linejoin="round" stroke-width="2"></circle>
  <path data-name="stroke" fill="none" stroke="#2e4369" stroke-linecap="round"
  stroke-linejoin="round" stroke-width="2" d="M44 51H20M8 51H2v-8h60v8h-6"></path>
</svg>