<svg xmlns="http://www.w3.org/2000/svg" viewBox="0 0 64 64" aria-labelledby="title"
aria-describedby="desc" role="img" xmlns:xlink="http://www.w3.org/1999/xlink">
  <title>Euro</title>
  <desc>A color styled icon from Orion Icon Library.</desc>
  <path data-name="layer1"
  d="M47.3 8H51V2h-3.7a30.2 30.2 0 0 0-29.2 23H13v6h4.3v1c0 .3.1 2 .1 3H16v6h2.7a30.3 30.3 0 0 0 28.6 21H51v-6h-3.7a23.7 23.7 0 0 1-22.2-15H42v-6H23.5a24.7 24.7 0 0 1-.2-3v-1H45v-6H24.3a23.8 23.8 0 0 1 23-17z"
  fill="#c3d6f9"></path>
  <path data-name="stroke" d="M47.3 8H51V2h-3.7a30.2 30.2 0 0 0-29.2 23H13v6h4.3v1c0 .3.1 2 .1 3H16v6h2.7a30.3 30.3 0 0 0 28.6 21H51v-6h-3.7a23.7 23.7 0 0 1-22.2-15H42v-6H23.5a24.7 24.7 0 0 1-.2-3v-1H45v-6H24.3a23.8 23.8 0 0 1 23-17z"
  fill="none" stroke="#2e4369" stroke-linecap="round" stroke-linejoin="round"
  stroke-width="2"></path>
</svg>