<svg xmlns="http://www.w3.org/2000/svg" viewBox="0 0 64 64" aria-labelledby="title"
aria-describedby="desc" role="img" xmlns:xlink="http://www.w3.org/1999/xlink">
  <title>Forklift</title>
  <desc>A color styled icon from Orion Icon Library.</desc>
  <circle data-name="layer3"
  cx="11" cy="49.9" r="5" fill="#a6b1c9"></circle>
  <circle data-name="layer3" cx="32" cy="46.9" r="8" fill="#a6b1c9"></circle>
  <path data-name="layer2" d="M28 40l-8-9H5a2.9 2.9 0 0 0-3 2.9V51h4.1a3.5 3.5 0 0 1-.1-1 5 5 0 1 1 10 0 3.4 3.4 0 0 1-.1 1h9.2a7.6 7.6 0 0 1-1.1-4 8.1 8.1 0 0 1 4-7z"
  fill="#fc6"></path>
  <path data-name="opacity" d="M2 33.9V51h4.1a3.5 3.5 0 0 1-.1-1 5 5 0 0 1 2-4H7V31H5a2.9 2.9 0 0 0-3 2.9zM19 46h-5a5 5 0 0 1 2 4 3.4 3.4 0 0 1-.1 1h9.2a7.6 7.6 0 0 1-1.1-4 8 8 0 0 1 3.9-7c-7.1.6-8.9 6-8.9 6z"
  fill="#000064" opacity=".15"></path>
  <path data-name="layer1" d="M20 13H8v17.9h12l8 9a8 8 0 0 1 12 6.9 8.1 8.1 0 0 1-1 4h3V32.9C42 11.6 20 13 20 13z"
  fill="#fff"></path>
  <circle data-name="stroke" cx="11" cy="50" r="5" fill="none" stroke="#2e4369"
  stroke-linecap="round" stroke-linejoin="round" stroke-width="2"></circle>
  <path data-name="stroke" fill="none" stroke="#2e4369" stroke-linecap="round"
  stroke-linejoin="round" stroke-width="2" d="M48 9v44h14M48 43h8"></path>
  <circle data-name="stroke" cx="32" cy="47" r="8" fill="none" stroke="#2e4369"
  stroke-linecap="round" stroke-linejoin="round" stroke-width="2"></circle>
  <path data-name="stroke" d="M6 51H2V34a3 3 0 0 1 3-3h15l8 9.1M16 51h9.3"
  fill="none" stroke="#2e4369" stroke-linecap="round" stroke-linejoin="round"
  stroke-width="2"></path>
  <path data-name="stroke" d="M8 31V13h12s22-1.3 22 20v18h-3m3-10L32 29"
  fill="none" stroke="#2e4369" stroke-linecap="round" stroke-linejoin="round"
  stroke-width="2"></path>
</svg>