<svg xmlns="http://www.w3.org/2000/svg" viewBox="0 0 64 64" aria-labelledby="title"
aria-describedby="desc" role="img" xmlns:xlink="http://www.w3.org/1999/xlink">
  <title>Fragile</title>
  <desc>A color styled icon from Orion Icon Library.</desc>
  <path data-name="layer1"
  d="M47.9 26.9a17.6 17.6 0 0 0-.3-2.3C46.4 16.6 42 2 42 2H22s-4.4 14.6-5.7 22.6a17.6 17.6 0 0 0-.3 2.3c0 .4-.1.8-.1 1.1 0 8.8 7.2 14 16 14s16-5.2 16-14c.1-.3.1-.7 0-1.1z"
  fill="#c3d6f9"></path>
  <path data-name="opacity" d="M45 26.9a20.8 20.8 0 0 0-.2-2.3C43.6 16.6 39.9 2 39.9 2h-4.8s3.6 14.6 4.6 22.6a21.7 21.7 0 0 1 .2 2.3V28c0 7.9-4.7 12.9-10.8 13.8l2.3.2C39 42 45 36.8 45 28v-1.1z"
  fill="#fff" opacity=".25"></path>
  <path data-name="opacity" d="M21 28c0-.3 0-.7.1-1.1a17.6 17.6 0 0 1 .3-2.3C22.6 16.6 27 2 27 2h-5s-4.4 14.6-5.7 22.6a17.6 17.6 0 0 0-.3 2.3c0 .4-.1.8-.1 1.1 0 8.8 7.2 14 16 14l2.5-.2C26.9 41 21 36 21 28z"
  fill="#000064" opacity=".15"></path>
  <path data-name="stroke" fill="none" stroke="#2e4369" stroke-linecap="round"
  stroke-linejoin="round" stroke-width="2" d="M24 62h16M30 2l2 4.1-2 5.9 4 4-4 12m2 34V42"></path>
  <path data-name="stroke" d="M47.9 26.9a17.6 17.6 0 0 0-.3-2.3C46.4 16.6 42 2 42 2H22s-4.4 14.6-5.7 22.6a17.6 17.6 0 0 0-.3 2.3c0 .4-.1.8-.1 1.1 0 8.8 7.2 14 16 14s16-5.2 16-14c.1-.3.1-.7 0-1.1z"
  fill="none" stroke="#2e4369" stroke-linecap="round" stroke-linejoin="round"
  stroke-width="2"></path>
</svg>