<svg xmlns="http://www.w3.org/2000/svg" viewBox="0 0 64 64" aria-labelledby="title"
aria-describedby="desc" role="img" xmlns:xlink="http://www.w3.org/1999/xlink">
  <title>Grocery Cart</title>
  <desc>A color styled icon from Orion Icon Library.</desc>
  <circle data-name="layer2"
  cx="23" cy="54" r="4" fill="#a6b1c9"></circle>
  <circle data-name="layer2" cx="49" cy="54" r="4" fill="#a6b1c9"></circle>
  <path data-name="layer1" d="M51 38H23a4 4 0 0 1 0-8h34a4 4 0 0 0 3-1.4l1-2.6a4 4 0 0 0-4-4H15l4 24h32a4 4 0 0 0 0-8z"
  fill="#c3d6f9"></path>
  <path d="M19 26h38a4 4 0 0 1 3.3 1.8L61 26a4 4 0 0 0-4-4H15l.7 4zm32 12H23a4 4 0 0 1-3.4-2 4 4 0 0 0-.6 2 4 4 0 0 0 4 4h28a4 4 0 0 1 3.4 2 4 4 0 0 0 .6-2 4 4 0 0 0-4-4z"
  fill="#000064" opacity=".15"></path>
  <path data-name="stroke" d="M3 6h8l4 16h42a4 4 0 0 1 4 4 4 4 0 0 1-4 4H23a4 4 0 0 0-4 4 4 4 0 0 0 4 4h28a4 4 0 0 1 4 4 4 4 0 0 1-4 4H19"
  fill="none" stroke="#2e4369" stroke-linecap="round" stroke-linejoin="round"
  stroke-width="2"></path>
  <circle data-name="stroke" cx="23" cy="54" r="4" fill="none" stroke="#2e4369"
  stroke-linecap="round" stroke-linejoin="round" stroke-width="2"></circle>
  <circle data-name="stroke" cx="49" cy="54" r="4" fill="none"
  stroke="#2e4369" stroke-linecap="round" stroke-linejoin="round" stroke-width="2"></circle>
</svg>