<svg xmlns="http://www.w3.org/2000/svg" viewBox="0 0 64 64" aria-labelledby="title"
aria-describedby="desc" role="img" xmlns:xlink="http://www.w3.org/1999/xlink">
  <title>Hand Purse</title>
  <desc>A color styled icon from Orion Icon Library.</desc>
  <path data-name="layer1"
  d="M54 22H10S4 44 4 50a12 12 0 0 0 12 12h32a12 12 0 0 0 12-12c0-6-6-28-6-28z"
  fill="#f27e7c"></path>
  <path data-name="opacity" d="M56 58H24a12 12 0 0 1-12-12c0-4.4 3.2-17.4 4.9-24H10S4 44 4 50a12 12 0 0 0 12 12h32a12 12 0 0 0 9-4z"
  fill="#000064" opacity=".15"></path>
  <path data-name="stroke" d="M14 22v-2a18 18 0 0 1 36 0v2m4 0H10S4 44 4 50a12 12 0 0 0 12 12h32a12 12 0 0 0 12-12c0-6-6-28-6-28z"
  fill="none" stroke="#2e4369" stroke-linecap="round" stroke-linejoin="round"
  stroke-width="2"></path>
  <path data-name="stroke" fill="none" stroke="#2e4369" stroke-linecap="round"
  stroke-linejoin="round" stroke-width="2" d="M16 32h32v6"></path>
</svg>