<svg xmlns="http://www.w3.org/2000/svg" viewBox="0 0 64 64" aria-labelledby="title"
aria-describedby="desc" role="img" xmlns:xlink="http://www.w3.org/1999/xlink">
  <title>Invoice</title>
  <desc>A color styled icon from Orion Icon Library.</desc>
  <path data-name="layer1"
  fill="#e0eafc" d="M53 8l-6.1-6L41 6l-6-4-6 4-6-4-6 4-6-4v54.1l6.1 5.9 5.9-4 6 4 6-4 6 4 6-4 6 4V8z"></path>
  <path data-name="opacity" fill="#000064" opacity=".15" d="M11 2v54.1l6 5.8V6l-6-4z"></path>
  <path data-name="stroke" fill="none" stroke="#2e4369" stroke-linecap="round"
  stroke-linejoin="round" stroke-width="2" d="M19 20h16M19 36h16m-16-8h12M19 44h12m12-24h2m-2 16h2m-2-8h2m-2 16h2M23 2zm12 0zm11.9 0zM53 7.9L46.9 2 41 6l-6-4-6 4-6-4-6 4-6-4v54l6.1 6 5.9-4 6 4 6-4 6 4 6-4 6 4V7.9zM41 62zm-12 0zm-11.9 0z"></path>
</svg>