<svg xmlns="http://www.w3.org/2000/svg" viewBox="0 0 64 64" aria-labelledby="title"
aria-describedby="desc" role="img" xmlns:xlink="http://www.w3.org/1999/xlink">
  <title>Merchandise Bag</title>
  <desc>A color styled icon from Orion Icon Library.</desc>
  <path data-name="layer2"
  fill="#78d1f4" d="M50 26l2 34H4l2-40h39.9"></path>
  <path data-name="layer1" fill="#fc6" d="M60 24l-6 6-8-8v-6h6l8 8z"></path>
  <path fill="#000064" d="M18 20v8l-3-3-1 35H4l2-40h12zm32 12L38 20v8l-8-8h16l4 6v6z"
  opacity=".15"></path>
  <path data-name="stroke" fill="none" stroke="#2e4369" stroke-linecap="round"
  stroke-linejoin="round" stroke-width="2" d="M50 26l2 34H4l2-40h39.9"></path>
  <path data-name="stroke" fill="none" stroke="#2e4369" stroke-linecap="round"
  stroke-linejoin="round" stroke-width="2" d="M60 24l-6 6-8-8v-6h6l8 8zM15.9 38h24m-24 10h24M18 28V14A10 10 0 0 1 28 4a10 10 0 0 1 10 10v14"></path>
</svg>