<svg xmlns="http://www.w3.org/2000/svg" viewBox="0 0 64 64" aria-labelledby="title"
aria-describedby="desc" role="img" xmlns:xlink="http://www.w3.org/1999/xlink">
  <title>Money</title>
  <desc>A color styled icon from Orion Icon Library.</desc>
  <path data-name="layer1"
  d="M2 49.5V16.2S6 12 18 12s15.2 6 28 6a63.4 63.4 0 0 0 16-2.5v34S57.6 52 48 52s-17.2-6-28-6a44.8 44.8 0 0 0-18 3.5z"
  fill="#9cc4a4"></path>
  <path data-name="opacity" d="M41.9 31.6c1 5.5-2.7 10-8.1 10s-10.6-4.5-11.6-10 2.7-10 8.1-10S41 26 41.9 31.6z"
  fill="#fff" opacity=".25"></path>
  <path data-name="opacity" d="M2 16.2v33.3a40 40 0 0 1 10-2.9V12.4c-7.4 1.1-10 3.8-10 3.8z"
  fill="#000064" opacity=".15"></path>
  <path data-name="opacity" d="M18 12v34h2a36.9 36.9 0 0 1 11 1.9V14.7A33 33 0 0 0 18 12z"
  fill="#fff" opacity=".25"></path>
  <path data-name="opacity" d="M62 15.5a67.3 67.3 0 0 1-8 1.8v34.3c5.4-.7 8-2.1 8-2.1z"
  fill="#000064" opacity=".15"></path>
  <path data-name="stroke" d="M2 49.5V16.2S6 12 18 12s15.2 6 28 6a63.4 63.4 0 0 0 16-2.5v34S57.6 52 48 52s-17.2-6-28-6a44.8 44.8 0 0 0-18 3.5z"
  fill="none" stroke="#2e4369" stroke-linecap="round" stroke-linejoin="round"
  stroke-width="2"></path>
  <path data-name="stroke" d="M41.9 31.6c1 5.5-2.7 10-8.1 10s-10.6-4.5-11.6-10 2.7-10 8.1-10S41 26 41.9 31.6zm-30-19.2A10 10 0 0 1 2 24m0 14a10 10 0 0 1 9.9 8.7M62 26a10 10 0 0 1-9.9-8.4m.1 34.2A10.1 10.1 0 0 1 52 50a10 10 0 0 1 10-10"
  fill="none" stroke="#2e4369" stroke-linecap="round" stroke-linejoin="round"
  stroke-width="2"></path>
</svg>