<svg xmlns="http://www.w3.org/2000/svg" viewBox="0 0 64 64" aria-labelledby="title"
aria-describedby="desc" role="img" xmlns:xlink="http://www.w3.org/1999/xlink">
  <title>On Sale Sticker</title>
  <desc>A color styled icon from Orion Icon Library.</desc>
  <path data-name="layer2"
  d="M32 2a30 30 0 1 0 30 30" fill="#f27e7c"></path>
  <path data-name="opacity" d="M62 32s-18.5 16.5-33 2 3-32 3-32z"
  fill="#000064" opacity=".15"></path>
  <path data-name="layer1" d="M62 32L32 2c-4 22 8 34 30 30z" fill="#fc6"></path>
  <path data-name="opacity" d="M62 32L32 2c-4 22 8 34 30 30z" fill="#fff"
  opacity=".2"></path>
  <path data-name="stroke" d="M32 2a30 30 0 1 0 30 30" fill="none"
  stroke="#2e4369" stroke-linecap="round" stroke-linejoin="round" stroke-width="2"></path>
  <circle data-name="stroke" cx="23" cy="23" r="5" fill="none" stroke="#2e4369"
  stroke-linecap="round" stroke-linejoin="round" stroke-width="2"></circle>
  <circle data-name="stroke" cx="41" cy="41" r="5" fill="none"
  stroke="#2e4369" stroke-linecap="round" stroke-linejoin="round" stroke-width="2"></circle>
  <path data-name="stroke" fill="none" stroke="#2e4369" stroke-linecap="round"
  stroke-linejoin="round" stroke-width="2" d="M37.3 26.8L18 46m44-14L32 2c-4 22 8 34 30 30z"></path>
</svg>