<svg viewBox="0 0 64 64" xmlns="http://www.w3.org/2000/svg" aria-labelledby="title"
aria-describedby="desc" role="img" xmlns:xlink="http://www.w3.org/1999/xlink">
  <title>Open 24 Hours</title>
  <desc>A color styled icon from Orion Icon Library.</desc>
  <path d="M53.949 43.883L58 24.001H6.066l5.95 30H52l1.949-10.118z"
  fill="#c3d6f9" data-name="layer1"></path>
  <path d="M14 28h43.185L58 24.001H6.066l5.95 30h7.14L14 28z" opacity=".15"
  fill="#000064" data-name="opacity"></path>
  <path d="M56.418 31.908L58 24M6.068 24l5.952 30H26m0-50L8.068 24M38 4l18 20M2 24h60m-7.996 16l-6 14H62m-3.996-6v12M32 41.55a6 6 0 0 1 8.637 8.277L32 60h12"
  stroke-width="2" stroke-linejoin="round" stroke-linecap="round" stroke="#2e4369"
  fill="none" data-name="stroke"></path>
</svg>