<svg xmlns="http://www.w3.org/2000/svg" viewBox="0 0 64 64" aria-labelledby="title"
aria-describedby="desc" role="img" xmlns:xlink="http://www.w3.org/1999/xlink">
  <title>Open Box</title>
  <desc>A color styled icon from Orion Icon Library.</desc>
  <path data-name="layer1"
  d="M54 23l8-9.5L40.3 2 32 11.4 23.7 2 2 13.5l8 9.7-8 9.7 8.5 5.1H10v11.9l22 11.6 22-11.6V38h-.4l8.4-5.1z"
  fill="#fc9"></path>
  <path data-name="opacity" fill="#fff" opacity=".25" d="M54 23.5L32 35l9.7 10L62 33.2l-8-9.7zm-44-.3l-8-9.7L23.7 2l8.2 9.4L10 23.2z"></path>
  <path data-name="opacity" fill="#000064" opacity=".25" d="M31.9 11.9L10 23.7 32 35l22-11.5-22.1-11.6z"></path>
  <path fill="#000064" d="M40.3 2l-8.4 9.4L54 23l8-9.6L40.3 2zM10 23.2l-8 9.5 8 4.6v12.6L32 62V35h-.5l.5-.5-22-11.3z"
  opacity=".15"></path>
  <path data-name="stroke" fill="none" stroke="#2e4369" stroke-linecap="round"
  stroke-linejoin="round" stroke-width="2" d="M10 38.1v12.3L32 62l22-11.6V38.1"></path>
  <path data-name="stroke" fill="none" stroke="#2e4369" stroke-linecap="round"
  stroke-linejoin="round" stroke-width="2" d="M32 62V35l-9.6 9.9L2 33.2l8-9.5L2 14 23.7 2.5l8.2 9.4 8.4-9.4L62 13.9l-8 9.6 8 9.7L41.7 45 32 35"></path>
  <path data-name="stroke" fill="none" stroke="#2e4369" stroke-linecap="round"
  stroke-linejoin="round" stroke-width="2" d="M31.9 11.9L10 23.7 32 35l22-11.5-22.1-11.6z"></path>
</svg>