<svg xmlns="http://www.w3.org/2000/svg" viewBox="0 0 64 64" aria-labelledby="title"
aria-describedby="desc" role="img" xmlns:xlink="http://www.w3.org/1999/xlink">
  <title>Order Completed</title>
  <desc>A color styled icon from Orion Icon Library.</desc>
  <path data-name="layer2"
  d="M34 30h22.3l1.7-8H6.1L12 52h24.8A21.9 21.9 0 0 1 34 41.8z" fill="#c3d6f9"></path>
  <path data-name="layer1" d="M34 30h28v11.8A22.4 22.4 0 0 1 48 62a22.4 22.4 0 0 1-14-20.2z"
  fill="#fc6"></path>
  <path data-name="opacity" d="M26 45.8a20.7 20.7 0 0 0 1 6.2h9.7A21.9 21.9 0 0 1 34 41.8V34h-8z"
  fill="#000064" opacity=".15"></path>
  <path data-name="opacity" d="M34 30v11.8A22.4 22.4 0 0 0 48 62V30z"
  fill="#000064" opacity=".1"></path>
  <path data-name="stroke" fill="none" stroke="#2e4369" stroke-linecap="round"
  stroke-linejoin="round" stroke-width="2" d="M56.3 30l1.7-8M6.1 22L12 52h24.7M26 2L8.1 22M38 2l18 20M2 22h60"></path>
  <path data-name="stroke" d="M34 30h28v11.8A22.4 22.4 0 0 1 48 62a22.4 22.4 0 0 1-14-20.2z"
  fill="none" stroke="#2e4369" stroke-linecap="round" stroke-linejoin="round"
  stroke-width="2"></path>
  <path data-name="stroke" fill="none" stroke="#2e4369" stroke-linecap="round"
  stroke-linejoin="round" stroke-width="2" d="M42 43l5 5 9-9"></path>
</svg>