<svg xmlns="http://www.w3.org/2000/svg" viewBox="0 0 64 64" aria-labelledby="title"
aria-describedby="desc" role="img" xmlns:xlink="http://www.w3.org/1999/xlink">
  <title>POS Terminal</title>
  <desc>A color styled icon from Orion Icon Library.</desc>
  <rect data-name="layer1"
  x="2" y="2" width="38" height="60" rx="3" ry="3" fill="#7b8baf"></rect>
  <path data-name="opacity" d="M6 56V2H5a3 3 0 0 0-3 3v54a3 3 0 0 0 3 3h32a3 3 0 0 0 3-3H9a3 3 0 0 1-3-3z"
  fill="#000064" opacity=".15"></path>
  <path data-name="layer3" fill="#b1c19f" d="M10 10h22v16H10z"></path>
  <path data-name="layer2" fill="#78d1f4" d="M40 18h14v36H40z"></path>
  <path data-name="layer1" d="M59 18h-5v36h5a3 3 0 0 0 3-3V21a3 3 0 0 0-3-3z"
  fill="#7b8baf"></path>
  <path data-name="opacity" fill="#000064" opacity=".15" d="M40 18h5v36h-5z"></path>
  <path data-name="opacity" fill="#fff" opacity=".2" d="M17 10l15 15V10H17z"></path>
  <path data-name="stroke" d="M40 18h19a3 3 0 0 1 3 3v30a3 3 0 0 1-3 3H40m14-36v36"
  fill="none" stroke="#2e4369" stroke-linecap="round" stroke-linejoin="round"
  stroke-width="2"></path>
  <rect data-name="stroke" x="2" y="2" width="38" height="60" rx="3"
  ry="3" fill="none" stroke="#2e4369" stroke-linecap="round" stroke-linejoin="round"
  stroke-width="2"></rect>
  <path data-name="stroke" fill="none" stroke="#2e4369" stroke-linecap="round"
  stroke-linejoin="round" stroke-width="2" d="M10 10h22v16H10zm0 26h2m8 0h2m8 0h2m-22 8h2m8 0h2m8 0h2m-22 8h2m8 0h2m8 0h2"></path>
</svg>