<svg xmlns="http://www.w3.org/2000/svg" viewBox="0 0 64 64" aria-labelledby="title"
aria-describedby="desc" role="img" xmlns:xlink="http://www.w3.org/1999/xlink">
  <title>Price</title>
  <desc>A color styled icon from Orion Icon Library.</desc>
  <path data-name="layer1"
  fill="#c3d6f9" d="M53.9 42.9L58 23H6.1L12 53h40l1.9-10.1z"></path>
  <path data-name="opacity" fill="#000064" opacity=".15" d="M14 27h43.2l.8-4H6.1L12 53h7.2L14 27z"></path>
  <path data-name="stroke" d="M55 40c-1.1-3.8-3.5-5-7-5s-7 1.8-7 5 2.2 3.9 7.7 5.7S56 48.9 56 52s-3.3 5-8 5-6.7-3.1-7-6m7-20v4m0 26v-4m8.4-26l1.6-8M6.1 23L12 53h20.8M26 3L8.1 23M38 3l18 20M2 23h60"
  fill="none" stroke="#2e4369" stroke-linecap="round" stroke-linejoin="round"
  stroke-width="2"></path>
</svg>