<svg xmlns="http://www.w3.org/2000/svg" viewBox="0 0 64 64" aria-labelledby="title"
aria-describedby="desc" role="img" xmlns:xlink="http://www.w3.org/1999/xlink">
  <title>Price Calculator</title>
  <desc>A color styled icon from Orion Icon Library.</desc>
  <path data-name="layer1"
  d="M56 6a4 4 0 0 0-4-4H12a4 4 0 0 0-4 4v8h48z" fill="#c3d6f9"></path>
  <path data-name="layer2" d="M8 38v20a4 4 0 0 0 4 4h20V38zm0-24v24h24V14v24h24V14H8z"
  fill="#ffae63"></path>
  <path data-name="layer1" d="M32 62h20a4 4 0 0 0 4-4V38H32z" fill="#c3d6f9"></path>
  <path data-name="opacity" d="M12 54V2a4 4 0 0 0-4 4v52a4 4 0 0 0 4 4h40a4 4 0 0 0 4-4H16a4 4 0 0 1-4-4z"
  fill="#000064" opacity=".15"></path>
  <rect data-name="stroke" x="8" y="2" width="48" height="60" rx="4"
  ry="4" fill="none" stroke="#2e4369" stroke-linecap="round" stroke-linejoin="round"
  stroke-width="2"></rect>
  <path data-name="stroke" fill="none" stroke="#2e4369" stroke-linecap="round"
  stroke-linejoin="round" stroke-width="2" d="M56 14H8m24 0v48M8 38h48M14 26h12m12 0h12M40 48h8m-8 6h8M20 32V20m-4 26l8 8m-8 0l8-8"></path>
</svg>