<svg xmlns="http://www.w3.org/2000/svg" viewBox="0 0 64 64" aria-labelledby="title"
aria-describedby="desc" role="img" xmlns:xlink="http://www.w3.org/1999/xlink">
  <title>Purse</title>
  <desc>A color styled icon from Orion Icon Library.</desc>
  <path data-name="layer1"
  d="M56 22H8c0 8-6 12-6 26a12 12 0 0 0 12 12h36a12 12 0 0 0 12-12c0-14-6-14-6-26z"
  fill="#ff7e63"></path>
  <path data-name="opacity" d="M10 52c0-14 6-18 6-26h40.3a28.7 28.7 0 0 1-.3-4H8c0 8-6 12-6 26a12 12 0 0 0 11 12 11.9 11.9 0 0 1-3-8z"
  fill="#000064" opacity=".15"></path>
  <path data-name="stroke" d="M36 4a4 4 0 0 0-4 4v4h4a4 4 0 0 0 0-8zm-8 0a4 4 0 0 1 4 4v4h-4a4 4 0 0 1 0-8zM3 18a4 4 0 0 1 4-4h50a4 4 0 0 1 4 4m-5 4H8c0 8-6 12-6 26a12 12 0 0 0 12 12h36a12 12 0 0 0 12-12c0-14-6-14-6-26z"
  fill="none" stroke="#2e4369" stroke-linecap="round" stroke-linejoin="round"
  stroke-width="2"></path>
</svg>