<svg xmlns="http://www.w3.org/2000/svg" viewBox="0 0 64 64" aria-labelledby="title"
aria-describedby="desc" role="img" xmlns:xlink="http://www.w3.org/1999/xlink">
  <title>Receipt</title>
  <desc>A color styled icon from Orion Icon Library.</desc>
  <path data-name="layer1"
  fill="#e0eafc" d="M20.1 60L14 56l-6 4V4h48v56l-6-4-6 4-6-4-6 4-6-4-5.9 4"></path>
  <path data-name="opacity" fill="#000064" opacity=".15" d="M8 4h48v9H8z"></path>
  <path data-name="stroke" fill="none" stroke="#2e4369" stroke-linecap="round"
  stroke-linejoin="round" stroke-width="2" d="M18 14h16M18 34h16M18 22h12M18 42h12m12-28h4m-4 20h4m-4-12h4m-4 20h4M20.1 60l5.9-4 6 4 6-4 6 4 6-4 6 4V4M20.1 60L14 56l-6 4V4m36 56zm-12 0zm-11.9 0zM2 4h60"></path>
</svg>