<svg viewBox="0 0 64 64" xmlns="http://www.w3.org/2000/svg" aria-labelledby="title"
aria-describedby="desc" role="img" xmlns:xlink="http://www.w3.org/1999/xlink">
  <title>Refresh Shopping Cart</title>
  <desc>A color styled icon from Orion Icon Library.</desc>
  <path d="M53.949 41.883L58 22.001H6.066l5.95 30H52l1.949-10.118z"
  fill="#c3d6f9" data-name="layer1"></path>
  <path d="M14 26h43.185L58 22.001H6.066l5.95 30h7.14L14 26z" opacity=".15"
  fill="#000064" data-name="opacity"></path>
  <path d="M52.402 50l4.797 4.847L62 50" stroke-width="2" stroke-linejoin="round"
  stroke-linecap="round" stroke="#2e4369" fill="none" data-name="stroke"></path>
  <path stroke-width="2" stroke-linejoin="round" stroke-linecap="round"
  stroke="#2e4369" fill="none" d="M45.656 62a12.005 12.005 0 1 1 11.657-12 12.234 12.234 0 0 1-.738 4.214m-2.626-12.645L58 22"
  data-name="stroke"></path>
  <path d="M6.068 22l5.95 30h21.984M26 2L8.068 22M38 2l18 20M2 22h60"
  stroke-width="2" stroke-linejoin="round" stroke-linecap="round" stroke="#2e4369"
  fill="none" data-name="stroke"></path>
</svg>