<svg xmlns="http://www.w3.org/2000/svg" viewBox="0 0 64 64" aria-labelledby="title"
aria-describedby="desc" role="img" xmlns:xlink="http://www.w3.org/1999/xlink">
  <title>Retail Bag</title>
  <desc>A color styled icon from Orion Icon Library.</desc>
  <path data-name="layer2"
  fill="#c3d6f9" d="M52 29.7V62H4V22h42"></path>
  <path data-name="layer1" fill="#fc6" d="M60 26l-6 6-8-8v-6h6l8 8z"></path>
  <path fill="#000064" d="M18 22v4l-6-3v39H4V22h14zm34 17L39 26h-2l-6-4h15v2l6 6v9z"
  opacity=".15"></path>
  <path data-name="stroke" fill="none" stroke="#2e4369" stroke-linecap="round"
  stroke-linejoin="round" stroke-width="2" d="M52 29.7V62H4V22h42"></path>
  <path data-name="stroke" fill="none" stroke="#2e4369" stroke-linecap="round"
  stroke-linejoin="round" stroke-width="2" d="M60 26l-6 6-8-8v-6h6l8 8zM16 38h24M16 48h24M18 26V12A10 10 0 0 1 28 2a10 10 0 0 1 10 10v14"></path>
</svg>