<svg xmlns="http://www.w3.org/2000/svg" viewBox="0 0 64 64" aria-labelledby="title"
aria-describedby="desc" role="img" xmlns:xlink="http://www.w3.org/1999/xlink">
  <title>Ribbon</title>
  <desc>A color styled icon from Orion Icon Library.</desc>
  <path data-name="layer1"
  d="M60 11c-13.7 0-21.4 7.3-21.4 7.3a8 8 0 0 0-13.3 0S17.7 11 4 11C-.5 23.2 4 35 4 35s11.7-2 19.3-5.5L16 49l10 4 6.1-17.2h.1L38 53l10-4-7.9-19.8C47.6 32.9 60 35 60 35s4.5-11.8 0-24z"
  fill="#f27e7c"></path>
  <path data-name="opacity" d="M32 15a8 8 0 0 0-6.8 3.7 8 8 0 0 1 11 11A8 8 0 0 0 32 15z"
  fill="#fff" opacity=".25"></path>
  <path data-name="opacity" d="M37.3 28.8a8 8 0 0 1-11.8-10.7v.2l-.6-.5a10 10 0 0 0-6.5 13.7 49.3 49.3 0 0 0 5.1-2l-2.1 5.7a10 10 0 0 0 10.8 1.1l.2-.5h.1v.2a10 10 0 0 0 4.8-7.2z"
  opacity=".15"></path>
  <path data-name="opacity" d="M25 20a5.6 5.6 0 0 1 .3-1.7C25.2 18.1 17.6 11 4 11a32.4 32.4 0 0 0-1.7 6.9c4.8-.1 15.8-.2 22.7 2.1zm14-2l1 2s11.3-3.5 21.5-3.5A32 32 0 0 0 60 11c-12 0-19.3 5.6-21 7z"
  fill="#fff" opacity=".25"></path>
  <path data-name="stroke" fill="none" stroke="#2e4369" stroke-linecap="round"
  stroke-linejoin="round" stroke-width="2" d="M34 30.5L26 53l-10-4 7.3-19.5m8.9 6.4L38 53l10-4-8-20"></path>
  <path data-name="stroke" d="M25.4 18.3S17.7 11 4 11C-.5 23.2 4 35 4 35s14.9-2.5 22-7m12.6-9.7S46.3 11 60 11c4.5 12.2 0 24 0 24s-14.9-2.5-22-7"
  fill="none" stroke="#2e4369" stroke-linecap="round" stroke-linejoin="round"
  stroke-width="2"></path>
  <circle data-name="stroke" cx="32" cy="22.8" r="8" fill="none"
  stroke="#2e4369" stroke-linecap="round" stroke-linejoin="round" stroke-width="2"></circle>
</svg>