<svg xmlns="http://www.w3.org/2000/svg" viewBox="0 0 64 64" aria-labelledby="title"
aria-describedby="desc" role="img" xmlns:xlink="http://www.w3.org/1999/xlink">
  <title>Sales Performance Down</title>
  <desc>A color styled icon from Orion Icon Library.</desc>
  <path data-name="layer1"
  fill="#c3d6f9" d="M4 21h8v38.01H4z"></path>
  <path data-name="opacity" opacity=".2" d="M4 21h8v38.01H4z"></path>
  <path data-name="layer1" fill="#c3d6f9" d="M20 31h8v28.01h-8zm16 10h8v18h-8z"></path>
  <path data-name="opacity" fill="#fff" opacity=".2" d="M36 41h8v18h-8z"></path>
  <path data-name="layer1" fill="#c3d6f9" d="M52 51h8v8h-8z"></path>
  <path data-name="opacity" fill="#fff" opacity=".4" d="M52 51h8v8h-8z"></path>
  <path data-name="stroke" fill="none" stroke="#2e4369" stroke-linecap="round"
  stroke-linejoin="round" stroke-width="2" d="M52 41l10-2-.9-10M12 59V21H4v38m24 0V31h-8v28m24 0V41h-8v18m24 0v-8h-8v8M2 59h60M14 5l48 34"></path>
</svg>