<svg xmlns="http://www.w3.org/2000/svg" viewBox="0 0 64 64" aria-labelledby="title"
aria-describedby="desc" role="img" xmlns:xlink="http://www.w3.org/1999/xlink">
  <title>Sales Performance Up</title>
  <desc>A color styled icon from Orion Icon Library.</desc>
  <path data-name="layer1"
  fill="#c3d6f9" d="M52 24h8v38.01h-8z"></path>
  <path data-name="opacity" opacity=".2" d="M52 24h8v38.01h-8z"></path>
  <path data-name="layer1" fill="#c3d6f9" d="M36 34h8v28.01h-8zM20 44h8v18h-8z"></path>
  <path data-name="opacity" fill="#fff" opacity=".2" d="M20 44h8v18h-8z"></path>
  <path data-name="layer1" fill="#c3d6f9" d="M4 54h8v8H4z"></path>
  <path data-name="opacity" fill="#fff" opacity=".4" d="M4 54h8v8H4z"></path>
  <path data-name="stroke" fill="none" stroke="#2e4369" stroke-linecap="round"
  stroke-linejoin="round" stroke-width="2" d="M46 2l10 2-.9 10M52 62V24h8v38m-24 0V34h8v28m-24 0V44h8v18M4 62v-8h8v8m50 0H2M56 4L8 42"></path>
</svg>