<svg xmlns="http://www.w3.org/2000/svg" viewBox="0 0 64 64" aria-labelledby="title"
aria-describedby="desc" role="img" xmlns:xlink="http://www.w3.org/1999/xlink">
  <title>Satchel Bag</title>
  <desc>A color styled icon from Orion Icon Library.</desc>
  <path data-name="layer2"
  d="M62 36a10 10 0 0 0-10-10H12A10 10 0 0 0 2 36v2h60z" fill="#d6958a"></path>
  <path data-name="layer1" d="M2 38v19a5 5 0 0 0 5 5h50a5 5 0 0 0 5-5V38z"
  fill="#ff7e63"></path>
  <path data-name="opacity" d="M15 58a5 5 0 0 1-5-5V32a9.9 9.9 0 0 1 2-6A10 10 0 0 0 2 36v21a5 5 0 0 0 5 5h50a5 5 0 0 0 4.9-4z"
  fill="#000064" opacity=".15"></path>
  <path data-name="stroke" d="M62 57a5 5 0 0 1-5 5H7a5 5 0 0 1-5-5V36a10 10 0 0 1 10-10h40a10 10 0 0 1 10 10z"
  fill="none" stroke="#2e4369" stroke-linecap="round" stroke-linejoin="round"
  stroke-width="2"></path>
  <path data-name="stroke" d="M20 30V14A12 12 0 0 1 32 2a12 12 0 0 1 12 12v16M2 38h60"
  fill="none" stroke="#2e4369" stroke-linecap="round" stroke-linejoin="round"
  stroke-width="2"></path>
</svg>