<svg xmlns="http://www.w3.org/2000/svg" viewBox="0 0 64 64" aria-labelledby="title"
aria-describedby="desc" role="img" xmlns:xlink="http://www.w3.org/1999/xlink">
  <title>Search Product</title>
  <desc>A color styled icon from Orion Icon Library.</desc>
  <circle data-name="layer3"
  cx="20" cy="54" r="4" fill="#a6b1c9"></circle>
  <circle data-name="layer3" cx="46" cy="54" r="4" fill="#a6b1c9"></circle>
  <circle data-name="layer2" cx="46" cy="16" r="10" fill="#fff"></circle>
  <path data-name="layer1" d="M54 22a10 10 0 0 1-16 0H12l6 24h32l8-24z"
  fill="#c3d6f9"></path>
  <path data-name="opacity" d="M42 30a10 10 0 0 0 8.8-5.2A9.9 9.9 0 0 1 38 22h-5.8a10 10 0 0 0 9.8 8z"
  fill="#000064" opacity=".15"></path>
  <path data-name="stroke" fill="none" stroke="#2e4369" stroke-linecap="round"
  stroke-linejoin="round" stroke-width="2" d="M38 22H12M2 6h6l10 40h32l4.1-12"></path>
  <circle data-name="stroke" cx="20" cy="54" r="4" fill="none" stroke="#2e4369"
  stroke-linecap="round" stroke-linejoin="round" stroke-width="2"></circle>
  <circle data-name="stroke" cx="46" cy="54" r="4" fill="none"
  stroke="#2e4369" stroke-linecap="round" stroke-linejoin="round" stroke-width="2"></circle>
  <circle data-name="stroke" cx="46" cy="16" r="10" fill="none"
  stroke="#2e4369" stroke-linecap="round" stroke-linejoin="round" stroke-width="2"></circle>
  <path data-name="stroke" fill="none" stroke="#2e4369" stroke-linecap="round"
  stroke-linejoin="round" stroke-width="2" d="M53.2 23.2L62 32"></path>
</svg>