<svg xmlns="http://www.w3.org/2000/svg" viewBox="0 0 64 64" aria-labelledby="title"
aria-describedby="desc" role="img" xmlns:xlink="http://www.w3.org/1999/xlink">
  <title>Search Cart</title>
  <desc>A color styled icon from Orion Icon Library.</desc>
  <circle data-name="layer2"
  cx="46" cy="46" r="10" fill="#fff"></circle>
  <path data-name="layer1" d="M46 36a10 10 0 0 1 8.4 4.6L58 22H6.1l6 30H38a10 10 0 0 1 8-16z"
  fill="#c3d6f9"></path>
  <path data-name="opacity" d="M30 48a10 10 0 0 0 .8 4H38a10 10 0 0 1 2-14 10 10 0 0 0-10 10z"
  fill="#000064" opacity=".15"></path>
  <path data-name="stroke" fill="none" stroke="#2e4369" stroke-linecap="round"
  stroke-linejoin="round" stroke-width="2" d="M54.4 40.6L58 22M6.1 22L12 52h26M26 2L8.1 22M38 2l18 20M2 22h60"></path>
  <circle data-name="stroke" cx="46" cy="46" r="10" fill="none" stroke="#2e4369"
  stroke-linecap="round" stroke-linejoin="round" stroke-width="2"></circle>
  <path data-name="stroke" fill="none" stroke="#2e4369" stroke-linecap="round"
  stroke-linejoin="round" stroke-width="2" d="M53.1 53.1L62 62"></path>
</svg>