<svg xmlns="http://www.w3.org/2000/svg" viewBox="0 0 64 64" aria-labelledby="title"
aria-describedby="desc" role="img" xmlns:xlink="http://www.w3.org/1999/xlink">
  <title>Secure E-commerce</title>
  <desc>A color styled icon from Orion Icon Library.</desc>
  <path data-name="layer2"
  fill="#c3d6f9" d="M38 52H12L6.1 22H58l-2.3 11.3L51 52H38z"></path>
  <path data-name="opacity" d="M51 52l1-4h-2V38a6 6 0 0 0-12 0v10h-6v4h19z"
  fill="#000064" opacity=".15"></path>
  <path data-name="layer1" fill="#fc6" d="M38 46h24v16H38z"></path>
  <path data-name="stroke" fill="none" stroke="#2e4369" stroke-linecap="round"
  stroke-linejoin="round" stroke-width="2" d="M55.7 33.3L58 22M6.1 22L12 52h26M26 2L8.1 22M38 2l18 20M2 22h60M38 46h24v16H38z"></path>
  <path data-name="stroke" d="M44 46V36a6 6 0 0 1 6-6 6 6 0 0 1 6 6v10m-6 6v4"
  fill="none" stroke="#2e4369" stroke-linecap="round" stroke-linejoin="round"
  stroke-width="2"></path>
</svg>