<svg xmlns="http://www.w3.org/2000/svg" viewBox="0 0 64 64" aria-labelledby="title"
aria-describedby="desc" role="img" xmlns:xlink="http://www.w3.org/1999/xlink">
  <title>Secure Shopping</title>
  <desc>A color styled icon from Orion Icon Library.</desc>
  <circle data-name="layer3"
  cx="20" cy="54" r="4" fill="#a6b1c9"></circle>
  <circle data-name="layer3" cx="46" cy="54" r="4" fill="#a6b1c9"></circle>
  <path data-name="layer2" d="M34 6h28v11.8A22.4 22.4 0 0 1 48 38a22.4 22.4 0 0 1-14-20.2z"
  fill="#fc6"></path>
  <path data-name="layer1" d="M34.5 22H12l6 24h32l3.7-11.3A22.7 22.7 0 0 1 48 38a22.4 22.4 0 0 1-13.5-16z"
  fill="#c3d6f9"></path>
  <path data-name="opacity" d="M34.5 22H30a22.4 22.4 0 0 0 14 20 22.2 22.2 0 0 0 9.3-7.1A22.6 22.6 0 0 1 48 38a22.4 22.4 0 0 1-13.5-16z"
  fill="#000064" opacity=".15"></path>
  <path data-name="opacity" d="M34 6v11.8A22.4 22.4 0 0 0 48 38V6z"
  fill="#000064" opacity=".1"></path>
  <path data-name="stroke" fill="none" stroke="#2e4369" stroke-linecap="round"
  stroke-linejoin="round" stroke-width="2" d="M34.5 22H12M2 6h6l10 40h32l3.7-11.3"></path>
  <circle data-name="stroke" cx="20" cy="54" r="4" fill="none" stroke="#2e4369"
  stroke-linecap="round" stroke-linejoin="round" stroke-width="2"></circle>
  <circle data-name="stroke" cx="46" cy="54" r="4" fill="none"
  stroke="#2e4369" stroke-linecap="round" stroke-linejoin="round" stroke-width="2"></circle>
  <path data-name="stroke" d="M34 6h28v11.8A22.4 22.4 0 0 1 48 38a22.4 22.4 0 0 1-14-20.2z"
  fill="none" stroke="#2e4369" stroke-linecap="round" stroke-linejoin="round"
  stroke-width="2"></path>
  <path data-name="stroke" fill="none" stroke="#2e4369" stroke-linecap="round"
  stroke-linejoin="round" stroke-width="2" d="M42 19l5 5 9-9"></path>
</svg>