<svg xmlns="http://www.w3.org/2000/svg" viewBox="0 0 64 64" aria-labelledby="title"
aria-describedby="desc" role="img" xmlns:xlink="http://www.w3.org/1999/xlink">
  <title>Settings</title>
  <desc>A color styled icon from Orion Icon Library.</desc>
  <circle data-name="layer2"
  cx="20" cy="56" r="4" fill="#a6b1c9"></circle>
  <circle data-name="layer2" cx="46" cy="56" r="4" fill="#a6b1c9"></circle>
  <path data-name="layer2" d="M58.6 21.1a11.8 11.8 0 0 0 .2-2.1 11.9 11.9 0 0 0-.2-2.3l3.1-1.7-4-7-3.2 1.8A11.1 11.1 0 0 0 51 7.7V4h-8v3.7a13 13 0 0 0-3.9 2.1L36 8l-4 7 3 1.7a11.7 11.7 0 0 0-.2 2.3 11.9 11.9 0 0 0 .2 2.1L31.7 23l4 6.9 3.3-1.8a13 13 0 0 0 4 2.2V34h8v-3.7a11.2 11.2 0 0 0 3.7-2.3l3.3 2 4-7zM47 24a5 5 0 1 1 5-5 5 5 0 0 1-5 5z"
  fill="#a6b1c9"></path>
  <path data-name="layer1" d="M51 30.3V34h-8v-3.7a20.5 20.5 0 0 1-4-2.2L35.7 30l-3.4-6H12l6 24h32l6.4-18.7v-.2L54.7 28a18.7 18.7 0 0 1-3.7 2.3z"
  fill="#c3d6f9"></path>
  <path d="M56.5 29.1L54.7 28a18.7 18.7 0 0 1-3.7 2.3v2.5l1-.8 2.9 1.7 1.5-4.4zM29 27l4 7 3.3-1.9a13 13 0 0 0 4 2.2V38h8v-3.7l.7-.3h-6v-3.7a20.5 20.5 0 0 1-4-2.2L35.7 30l-3.4-6h-.1c0 .4.1.8.1 1.1z"
  fill="#000064" opacity=".15"></path>
  <path data-name="stroke" fill="none" stroke="#2e4369" stroke-linecap="round"
  stroke-linejoin="round" stroke-width="2" d="M32.2 24H12M2 8h6l10 40h32l6.4-18.7"></path>
  <circle data-name="stroke" cx="20" cy="56" r="4" fill="none" stroke="#2e4369"
  stroke-linecap="round" stroke-linejoin="round" stroke-width="2"></circle>
  <circle data-name="stroke" cx="46" cy="56" r="4" fill="none"
  stroke="#2e4369" stroke-linecap="round" stroke-linejoin="round" stroke-width="2"></circle>
  <circle data-name="stroke" cx="47" cy="19" r="5" fill="none"
  stroke="#2e4369" stroke-linecap="round" stroke-linejoin="round" stroke-width="2"></circle>
  <path data-name="stroke" d="M62 23l-3.4-2a11.8 11.8 0 0 0 .2-2.1 11.9 11.9 0 0 0-.2-2.3l3.1-1.6-4-7-3.2 1.8A11.1 11.1 0 0 0 51 7.7V4h-8v3.7a13 13 0 0 0-3.9 2.1L36 8l-4 7 3 1.7a11.7 11.7 0 0 0-.2 2.3 11.9 11.9 0 0 0 .2 2.1L31.7 23l4 6.9 3.3-1.8a13 13 0 0 0 4 2.2V34h8v-3.7a11.2 11.2 0 0 0 3.7-2.3l3.3 2z"
  fill="none" stroke="#2e4369" stroke-linecap="round" stroke-linejoin="round"
  stroke-width="2"></path>
</svg>