<svg xmlns="http://www.w3.org/2000/svg" viewBox="0 0 64 64" aria-labelledby="title"
aria-describedby="desc" role="img" xmlns:xlink="http://www.w3.org/1999/xlink">
  <title>Settings E-commerce</title>
  <desc>A color styled icon from Orion Icon Library.</desc>
  <path data-name="layer2"
  d="M58.6 49.1a11.8 11.8 0 0 0 .2-2.1 11.9 11.9 0 0 0-.2-2.3l3.1-1.7-4-6.9-3.1 1.8a11 11 0 0 0-3.6-2.2V32h-8v3.7a13 13 0 0 0-3.9 2.1L36 36l-4 7 3 1.7a11.7 11.7 0 0 0-.2 2.3 11.9 11.9 0 0 0 .2 2.1L31.7 51l4 6.9 3.3-1.8a12.3 12.3 0 0 0 4 1.9v4h8v-4a10.5 10.5 0 0 0 3.7-2l3.3 2 4-7zM47 52a5 5 0 1 1 5-5 5 5 0 0 1-5 5z"
  fill="#a6b1c9"></path>
  <path data-name="layer1" d="M35 49.1a11.9 11.9 0 0 1-.2-2.1 11.7 11.7 0 0 1 .2-2.3L32 43l4-7 3.1 1.8a13 13 0 0 1 3.9-2.1V32h8v3.7a11 11 0 0 1 3.5 2.1l.4-.3L58 22H6.1L12 52h20.2l-.5-.9z"
  fill="#c3d6f9"></path>
  <path d="M37 36.6l2.1 1.2a13 13 0 0 1 3.9-2.1V34h-6zm-4.8 15.3l-.5-.9 3.3-1.9a11.9 11.9 0 0 1-.2-2.1 11.7 11.7 0 0 1 .2-2.3L32 43l2.3-4-1.2.8L30 38l-4 7 3 1.7a11.7 11.7 0 0 0-.2 2.3 11.9 11.9 0 0 0 .2 2.1l-1.5.9h4.7z"
  fill="#000064" opacity=".15"></path>
  <path data-name="stroke" fill="none" stroke="#2e4369" stroke-linecap="round"
  stroke-linejoin="round" stroke-width="2" d="M55 37.6L58 22M6.1 22L12 52h20M26 2L8.1 22M38 2l18 20M2 22h60"></path>
  <circle data-name="stroke" cx="47" cy="47" r="5" fill="none" stroke="#2e4369"
  stroke-linecap="round" stroke-linejoin="round" stroke-width="2"></circle>
  <path data-name="stroke" d="M62 51l-3.4-2a11.8 11.8 0 0 0 .2-2.1 11.9 11.9 0 0 0-.2-2.3l3.1-1.6-4-6.9-3.1 1.8a11 11 0 0 0-3.6-2.2V32h-8v3.7a13 13 0 0 0-3.9 2.1L36 36l-4 7 3 1.7a11.7 11.7 0 0 0-.2 2.3 11.9 11.9 0 0 0 .2 2.1L31.7 51l4 6.9 3.3-1.8a12.3 12.3 0 0 0 4 1.9v4h8v-4a10.5 10.5 0 0 0 3.7-2l3.3 2z"
  fill="none" stroke="#2e4369" stroke-linecap="round" stroke-linejoin="round"
  stroke-width="2"></path>
</svg>