<svg xmlns="http://www.w3.org/2000/svg" viewBox="0 0 64 64" aria-labelledby="title"
aria-describedby="desc" role="img" xmlns:xlink="http://www.w3.org/1999/xlink">
  <title>Shipping Truck</title>
  <desc>A color styled icon from Orion Icon Library.</desc>
  <circle data-name="layer5"
  cx="14" cy="48" r="6" fill="#a6b1c9"></circle>
  <circle data-name="layer5" cx="52" cy="48" r="6" fill="#a6b1c9"></circle>
  <path data-name="layer4" d="M42 40H2v8h6a6 6 0 0 1 12 0h22z"
  fill="#7b8baf"></path>
  <path data-name="layer3" fill="#f27e7c" d="M2 20h16v19.99H2z"></path>
  <path data-name="layer2" fill="#78d1f4" d="M18 40V10h24v30H18z"></path>
  <path data-name="layer1" d="M52 18H42v30h4a6 6 0 0 1 12 0h4V32z"
  fill="#c3d6f9"></path>
  <path data-name="opacity" fill="#000064" opacity=".15" d="M12 20h6v20h-6zm24-10h6v30h-6z"></path>
  <path data-name="stroke" fill="none" stroke="#2e4369" stroke-linecap="round"
  stroke-linejoin="round" stroke-width="2" d="M2 40V20h16m0 20V10h24v8m0 22V18h10l10 14v16h-4"></path>
  <circle data-name="stroke" cx="14" cy="48" r="6" fill="none" stroke="#2e4369"
  stroke-linecap="round" stroke-linejoin="round" stroke-width="2"></circle>
  <circle data-name="stroke" cx="52" cy="48" r="6" fill="none"
  stroke="#2e4369" stroke-linecap="round" stroke-linejoin="round" stroke-width="2"></circle>
  <path data-name="stroke" fill="none" stroke="#2e4369" stroke-linecap="round"
  stroke-linejoin="round" stroke-width="2" d="M8 48H2v-8h40v8H20m22 0h4"></path>
</svg>