<svg xmlns="http://www.w3.org/2000/svg" viewBox="0 0 64 64" aria-labelledby="title"
aria-describedby="desc" role="img" xmlns:xlink="http://www.w3.org/1999/xlink">
  <title>Shipping Address</title>
  <desc>A color styled icon from Orion Icon Library.</desc>
  <circle data-name="layer3"
  cx="22" cy="56" r="4" fill="#a6b1c9"></circle>
  <circle data-name="layer3" cx="48" cy="56" r="4" fill="#a6b1c9"></circle>
  <path data-name="layer2" d="M54.1 24C50.8 32.3 44 40.4 44 40.4S37.2 32.3 33.9 24H14l6 24h32l8-24z"
  fill="#c3d6f9"></path>
  <path data-name="layer1" d="M44 4a12 12 0 0 0-12 12 12.2 12.2 0 0 0 .1 1.5C33.2 27.4 44 40.4 44 40.4s10.8-13 11.9-22.9A12.2 12.2 0 0 0 56 16 12 12 0 0 0 44 4zm0 14a2 2 0 1 1 2-2 2 2 0 0 1-2 2z"
  fill="#f27e7c"></path>
  <path data-name="opacity" d="M43.1 39.3A71 71 0 0 1 33.9 24h-5.1C31.5 33.2 40 43.4 40 43.4s1.3-1.6 3.1-4.1z"
  fill="#000064" opacity=".15"></path>
  <path data-name="stroke" fill="none" stroke="#2e4369" stroke-linecap="round"
  stroke-linejoin="round" stroke-width="2" d="M34 24H14M4 8h6l10 40h32l8-24h-5.9"></path>
  <circle data-name="stroke" cx="22" cy="56" r="4" fill="none" stroke="#2e4369"
  stroke-linecap="round" stroke-linejoin="round" stroke-width="2"></circle>
  <circle data-name="stroke" cx="48" cy="56" r="4" fill="none"
  stroke="#2e4369" stroke-linecap="round" stroke-linejoin="round" stroke-width="2"></circle>
  <path data-name="stroke" d="M55.9 17.5A12.2 12.2 0 0 0 56 16a12 12 0 0 0-24 0 12.2 12.2 0 0 0 .1 1.5C33.2 27.4 44 40.4 44 40.4s10.8-13 11.9-22.9z"
  fill="none" stroke="#2e4369" stroke-linecap="round" stroke-linejoin="round"
  stroke-width="2"></path>
  <circle data-name="stroke" cx="44" cy="16" r="2" fill="none" stroke="#2e4369"
  stroke-linecap="round" stroke-linejoin="round" stroke-width="2"></circle>
</svg>