<svg viewBox="0 0 64 64" xmlns="http://www.w3.org/2000/svg" aria-labelledby="title"
aria-describedby="desc" role="img" xmlns:xlink="http://www.w3.org/1999/xlink">
  <title>Shop Sign</title>
  <desc>A color styled icon from Orion Icon Library.</desc>
  <path fill="#fc9" d="M61.883 40.426a3 3 0 0 1-2.055 3.7L11.871 57.883a3 3 0 0 1-3.7-2.054l-6.051-21.1a2.99 2.99 0 0 1 2.053-3.7L52.129 17.27a2.994 2.994 0 0 1 3.7 2.054z"
  data-name="layer1"></path>
  <path opacity=".2" d="M10.168 51.829L4.2 31.016l-.03.009a2.99 2.99 0 0 0-2.053 3.7l6.051 21.1a3 3 0 0 0 3.7 2.054l47.961-13.75a3 3 0 0 0 2.055-3.7l-.083-.289-47.93 13.743a3 3 0 0 1-3.703-2.054z"
  data-name="opacity"></path>
  <path d="M8.001 29.929l13.998-23.93 25.907 12.414m13.977 22.016a3 3 0 0 1-2.055 3.7L11.87 57.886a3 3 0 0 1-3.7-2.054l-6.051-21.1a2.99 2.99 0 0 1 2.053-3.7l47.96-13.755a2.994 2.994 0 0 1 3.7 2.054z"
  stroke-width="2" stroke-linejoin="round" stroke-linecap="round" stroke="#2e4369"
  fill="none" data-name="stroke"></path>
</svg>