<svg xmlns="http://www.w3.org/2000/svg" viewBox="0 0 64 64" aria-labelledby="title"
aria-describedby="desc" role="img" xmlns:xlink="http://www.w3.org/1999/xlink">
  <title>Shopping Bag</title>
  <desc>A color styled icon from Orion Icon Library.</desc>
  <path data-name="layer2"
  fill="#78d1f4" d="M2 14h44v48H2z"></path>
  <path data-name="layer1" fill="#20b3ed" d="M46 14h16v48H46z"></path>
  <path data-name="opacity" fill="#000064" opacity=".15" d="M54 54V14h8v48l-8-8"></path>
  <path data-name="stroke" d="M16 14V8a6 6 0 0 1 6-6h6a6 6 0 0 1 6 6v6m4-12h2a6 6 0 0 1 6 6v6M2 14h60v48H2zm44 48V14m8 0v40m0 0l8 8"
  fill="none" stroke="#2e4369" stroke-linecap="round" stroke-linejoin="round"
  stroke-width="2"></path>
</svg>