<svg xmlns="http://www.w3.org/2000/svg" viewBox="0 0 64 64" aria-labelledby="title"
aria-describedby="desc" role="img" xmlns:xlink="http://www.w3.org/1999/xlink">
  <title>Shopping Cart Error</title>
  <desc>A color styled icon from Orion Icon Library.</desc>
  <path data-name="layer2"
  fill="#fc6" d="M30 62l16-30 16 30H30z"></path>
  <path data-name="layer1" fill="#c3d6f9" d="M53.2 45.5L58 22H6.1L12 52h23.1l.3-.1L46 32l7.2 13.5z"></path>
  <path data-name="opacity" fill="#000064" opacity=".15" d="M35.4 51.9L42 39.6 39 34l-9.6 18h5.7l.3-.1z"></path>
  <path data-name="stroke" fill="none" stroke="#2e4369" stroke-linecap="round"
  stroke-linejoin="round" stroke-width="2" d="M53.2 45.5L58 22M6.1 22L12 52h23.1M26 2L8.1 22M38 2l18 20M2 22h60M30 62l16-30 16 30H30zm16-18v6"></path>
  <circle data-name="stroke" cx="46" cy="56" r="1" fill="none" stroke="#2e4369"
  stroke-linecap="round" stroke-linejoin="round" stroke-width="2"></circle>
</svg>