<svg xmlns="http://www.w3.org/2000/svg" viewBox="0 0 64 64" aria-labelledby="title"
aria-describedby="desc" role="img" xmlns:xlink="http://www.w3.org/1999/xlink">
  <title>SSL E-commerce</title>
  <desc>A color styled icon from Orion Icon Library.</desc>
  <circle data-name="layer3"
  cx="20" cy="57" r="4" fill="#a6b1c9"></circle>
  <circle data-name="layer3" cx="46" cy="57" r="4" fill="#a6b1c9"></circle>
  <path data-name="layer2" fill="#fc6" d="M38 19h24v16H38z"></path>
  <path data-name="layer1" fill="#c3d6f9" d="M38 25H12l6 24h32l4.8-14H38V25z"></path>
  <path data-name="opacity" fill="#000064" opacity=".15" d="M38 35V25h-4v14h19.4l1.4-4H38z"></path>
  <path data-name="stroke" fill="none" stroke="#2e4369" stroke-linecap="round"
  stroke-linejoin="round" stroke-width="2" d="M38 25H12M2 9h6l10 40h32l4.8-14"></path>
  <circle data-name="stroke" cx="20" cy="57" r="4" fill="none" stroke="#2e4369"
  stroke-linecap="round" stroke-linejoin="round" stroke-width="2"></circle>
  <circle data-name="stroke" cx="46" cy="57" r="4" fill="none"
  stroke="#2e4369" stroke-linecap="round" stroke-linejoin="round" stroke-width="2"></circle>
  <path data-name="stroke" fill="none" stroke="#2e4369" stroke-linecap="round"
  stroke-linejoin="round" stroke-width="2" d="M38 19h24v16H38zm6 0V9a6 6 0 0 1 6-6 6 6 0 0 1 6 6v10m-6 6v4"></path>
</svg>