<svg xmlns="http://www.w3.org/2000/svg" viewBox="0 0 64 64" aria-labelledby="title"
aria-describedby="desc" role="img" xmlns:xlink="http://www.w3.org/1999/xlink">
  <title>Store Helpline</title>
  <desc>A color styled icon from Orion Icon Library.</desc>
  <path data-name="layer2"
  d="M55.3 50.1a2.4 2.4 0 0 0-3.3.6c-1.2 1.5-1.7 3.4-7.2-2.1s-4-6.5-2.6-7.7a2.4 2.4 0 0 0 .6-3.3l-3.4-5.2c-.4-.7-1.1-1.7-2.5-1.5a7.2 7.2 0 0 0-5 6.8c0 4.5 3.5 10 8.4 14.8S50.7 61 55.2 61a7.2 7.2 0 0 0 6.8-5c.2-1.4-.9-2-1.5-2.5z"
  fill="#7b8baf"></path>
  <path data-name="layer1" d="M31.9 37.8A7.2 7.2 0 0 1 37 31c1.4-.2 2 .9 2.5 1.5l3.4 5.2a2.4 2.4 0 0 1-.6 3.3c-1.5 1.2-2.9 2.2 2.6 7.7s5.8 3.5 7 2.1.3-.3.3-.4L57.9 23H6l6 30h28.7l-.4-.4c-4.8-4.8-8.4-10.3-8.4-14.8z"
  fill="#c3d6f9"></path>
  <path data-name="opacity" d="M40.7 53l-.4-.4c-4.8-4.8-8.4-10.3-8.4-14.8a6.8 6.8 0 0 1 1.2-3.8 2.1 2.1 0 0 0-2.1-1 7.2 7.2 0 0 0-5 6.8c0 4 2.8 8.8 6.8 13.2h7.9z"
  fill="#000064" opacity=".15"></path>
  <path data-name="stroke" fill="none" stroke="#2e4369" stroke-linecap="round"
  stroke-linejoin="round" stroke-width="2" d="M52.4 50.3L58 23M6.1 23L12 53h28.5M26 3L8.1 23M38 3l18 20M2 23h60m-6.7 27.1a2.4 2.4 0 0 0-3.3.6c-1.2 1.5-1.7 3.4-7.2-2.1s-4-6.5-2.6-7.7a2.4 2.4 0 0 0 .6-3.3l-3.4-5.2c-.4-.7-1.1-1.7-2.5-1.5a7.2 7.2 0 0 0-5 6.8c0 4.5 3.5 10 8.4 14.8S50.7 61 55.2 61a7.2 7.2 0 0 0 6.8-5c.2-1.4-.9-2-1.5-2.5z"></path>
</svg>