<svg xmlns="http://www.w3.org/2000/svg" viewBox="0 0 64 64" aria-labelledby="title"
aria-describedby="desc" role="img" xmlns:xlink="http://www.w3.org/1999/xlink">
  <title>Store Sign</title>
  <desc>A color styled icon from Orion Icon Library.</desc>
  <rect data-name="layer2"
  x="2" y="25" width="60" height="36" rx="3" ry="3" fill="#f27e7c"></rect>
  <path data-name="opacity" d="M59 25H5a3 3 0 0 0-3 3v3a3 3 0 0 1 3-3h54a3 3 0 0 1 3 3v-3a3 3 0 0 0-3-3z"
  fill="#fff" opacity=".2"></path>
  <path data-name="layer1" fill="#e0eafc" d="M10 33h44v20H10z"></path>
  <path data-name="opacity" opacity=".2" d="M10 33v3h41v17h3V33H10z"></path>
  <path data-name="stroke" fill="none" stroke="#2e4369" stroke-linecap="round"
  stroke-linejoin="round" stroke-width="2" d="M8 24.9L32 3l24 22"></path>
  <rect data-name="stroke" x="2" y="25" width="60" height="36" rx="3"
  ry="3" fill="none" stroke="#2e4369" stroke-linecap="round" stroke-linejoin="round"
  stroke-width="2"></rect>
  <path data-name="stroke" fill="none" stroke="#2e4369" stroke-linecap="round"
  stroke-linejoin="round" stroke-width="2" d="M10 33h44v20H10z"></path>
</svg>