<svg xmlns="http://www.w3.org/2000/svg" viewBox="0 0 64 64" aria-labelledby="title"
aria-describedby="desc" role="img" xmlns:xlink="http://www.w3.org/1999/xlink">
  <title>Store Sale</title>
  <desc>A color styled icon from Orion Icon Library.</desc>
  <path data-name="layer2"
  fill="#c3d6f9" d="M20 46h32l8-24H14l6 24z"></path>
  <path data-name="opacity" fill="#000064" opacity=".15" d="M26 42l-5-20h-7l6 24h32l1.3-4H26z"></path>
  <circle data-name="layer1" cx="22" cy="54" r="4" fill="#a6b1c9"></circle>
  <circle data-name="layer1" cx="48" cy="54" r="4" fill="#a6b1c9"></circle>
  <path data-name="stroke" fill="none" stroke="#2e4369" stroke-linecap="round"
  stroke-linejoin="round" stroke-width="2" d="M32 22H14M4 6h6l10 40h32l4-10"></path>
  <circle data-name="stroke" cx="22" cy="54" r="4" fill="none" stroke="#2e4369"
  stroke-linecap="round" stroke-linejoin="round" stroke-width="2"></circle>
  <circle data-name="stroke" cx="48" cy="54" r="4" fill="none"
  stroke="#2e4369" stroke-linecap="round" stroke-linejoin="round" stroke-width="2"></circle>
  <path data-name="stroke" d="M53 15c-1.1-3.8-3.5-5-7-5s-7 1.8-7 5 2.2 3.9 7.7 5.7S54 23.9 54 27s-3.3 5-8 5-7.1-3.1-7.5-6M46 6v4m0 26v-4"
  fill="none" stroke="#2e4369" stroke-linecap="round" stroke-linejoin="round"
  stroke-width="2"></path>
</svg>