<svg viewBox="0 0 64 64" xmlns="http://www.w3.org/2000/svg" aria-labelledby="title"
aria-describedby="desc" role="img" xmlns:xlink="http://www.w3.org/1999/xlink">
  <title>Suitcase</title>
  <desc>A color styled icon from Orion Icon Library.</desc>
  <path fill="#d6958a"
  d="M6 18a4 4 0 0 0-4 4v32a4 4 0 0 0 4 4h12V18zm52 0H46v40h12a4 4 0 0 0 4-4V22a4 4 0 0 0-4-4z"
  data-name="layer2"></path>
  <path d="M18 18h28v40H18z" fill="#ff7e63" data-name="layer1"></path>
  <path opacity=".15" fill="#000064" d="M26 54H14a4 4 0 0 1-4-4V18H6a4 4 0 0 0-4 4v32a4 4 0 0 0 4 4h52a4 4 0 0 0 4-4H26z"
  data-name="opacity"></path>
  <path stroke-width="2" stroke-linejoin="round" stroke-linecap="round"
  stroke="#2e4369" fill="none" d="M22 18v-4a8 8 0 0 1 8-8h4a8 8 0 0 1 8 8v3.916"
  data-name="stroke"></path>
  <rect stroke-width="2" stroke-linejoin="round" stroke-linecap="round"
  stroke="#2e4369" fill="none" ry="4" rx="4" height="40" width="60" y="18"
  x="2" data-name="stroke"></rect>
  <path d="M46 18v40m-28 0V18" stroke-width="2" stroke-linejoin="round"
  stroke-linecap="round" stroke="#2e4369" fill="none" data-name="stroke"></path>
</svg>