<svg xmlns="http://www.w3.org/2000/svg" viewBox="0 0 64 64" aria-labelledby="title"
aria-describedby="desc" role="img" xmlns:xlink="http://www.w3.org/1999/xlink">
  <title>Total Cart</title>
  <desc>A color styled icon from Orion Icon Library.</desc>
  <path data-name="layer2"
  d="M21.4 31a16 16 0 1 1 21.2 0" fill="#fc6"></path>
  <path data-name="opacity" d="M32 3a16 16 0 0 0-12.5 6 16 16 0 0 1 22.9 22h.2A16 16 0 0 0 32 3z"
  fill="#fff" opacity=".2"></path>
  <path data-name="layer1" fill="#c3d6f9" d="M58 31l-6 30H12L6.1 31H58z"></path>
  <path data-name="opacity" fill="#000064" opacity=".15" d="M13.1 35h44l.8-4H6l6 30h6.2l-5.1-26z"></path>
  <path data-name="stroke" d="M21.4 31a16 16 0 1 1 21.2 0M6.1 31L12 61h40l6-30M2 31h60"
  fill="none" stroke="#2e4369" stroke-linecap="round" stroke-linejoin="round"
  stroke-width="2"></path>
  <path data-name="stroke" d="M36.8 15.2a4.7 4.7 0 0 0-4.8-3.7c-2.3 0-4.6 1.3-4.6 3.4s1.3 2.7 5 3.9 4.5 2 4.5 4.1-1.8 3.6-5 3.6a4.8 4.8 0 0 1-5-4.1M32 9v2.5M32 29v-2.5"
  fill="none" stroke="#2e4369" stroke-linecap="round" stroke-linejoin="round"
  stroke-width="2"></path>
</svg>