<svg xmlns="http://www.w3.org/2000/svg" viewBox="0 0 64 64" aria-labelledby="title"
aria-describedby="desc" role="img" xmlns:xlink="http://www.w3.org/1999/xlink">
  <title>Tribunal</title>
  <desc>A color styled icon from Orion Icon Library.</desc>
  <path data-name="layer1"
  fill="#c3d6f9" d="M4 25L32 3l28 22H4zm58 36H2v-5h2v-2.9h56V56h2v5zM3 25h57v7H3zm25 28.1V32h8v21.1m12 0V32h8v21.1m-48 0V32h8v21.1"></path>
  <path fill="#000064" d="M3 29v3h5v6h8v-6h12v6h8v-6h12v6h8v-6h4v-3H3zm46-4L32 10v4l13 11h4zM4 53h56v4H4z"
  opacity=".15"></path>
  <path data-name="stroke" fill="none" stroke="#2e4369" stroke-linecap="round"
  stroke-linejoin="round" stroke-width="2" d="M4 25L32 3l28 22H4zm24 7v21.1M36 32v21.1M48 32v21.1M56 32v21.1M8 32v21.1M16 32v21.1M62 61H2v-5h2v-2.9h56V56h2v5zM3 25h57v7H3z"></path>
</svg>