<svg xmlns="http://www.w3.org/2000/svg" viewBox="0 0 64 64" aria-labelledby="title"
aria-describedby="desc" role="img" xmlns:xlink="http://www.w3.org/1999/xlink">
  <title>Truck</title>
  <desc>A color styled icon from Orion Icon Library.</desc>
  <circle data-name="layer4"
  cx="14" cy="50" r="6" fill="#a6b1c9"></circle>
  <circle data-name="layer4" cx="50" cy="50" r="6" fill="#a6b1c9"></circle>
  <path data-name="layer3" d="M42 8H2v42h4c0-8 8-8 8-8h28V8z" fill="#f27e7c"></path>
  <path data-name="layer2" d="M52 18H42v24h20V28a10 10 0 0 0-10-10z"
  fill="#c3d6f9"></path>
  <path data-name="opacity" d="M8 8H2v42h4a7.6 7.6 0 0 1 2-5.5V8z"
  fill="#000064" opacity=".15"></path>
  <path data-name="layer1" d="M42 42H14s-8 0-8 8h2a6 6 0 0 1 11.7-1.9h24.6A6 6 0 0 1 56 50h6v-8z"
  fill="#7b8baf"></path>
  <circle data-name="stroke" cx="14" cy="50" r="6" fill="none" stroke="#2e4369"
  stroke-linecap="round" stroke-linejoin="round" stroke-width="2"></circle>
  <circle data-name="stroke" cx="50" cy="50" r="6" fill="none"
  stroke="#2e4369" stroke-linecap="round" stroke-linejoin="round" stroke-width="2"></circle>
  <path data-name="stroke" fill="none" stroke="#2e4369" stroke-linecap="round"
  stroke-linejoin="round" stroke-width="2" d="M44 48H20m42-6v8h-6M42 8H2v42h4c0-8 8-8 8-8h28V8zm10 10H42v24h20V28a10 10 0 0 0-10-10z"></path>
</svg>