<svg xmlns="http://www.w3.org/2000/svg" viewBox="0 0 64 64" aria-labelledby="title"
aria-describedby="desc" role="img" xmlns:xlink="http://www.w3.org/1999/xlink">
  <title>Update Shopping Cart</title>
  <desc>A color styled icon from Orion Icon Library.</desc>
  <path data-name="layer1"
  fill="#c3d6f9" d="M53.9 41.9L58 22H6.1L12 52h40l1.9-10.1z"></path>
  <path data-name="opacity" fill="#000064" opacity=".15" d="M14 26h43.2l.8-4H6.1L12 52h7.2L14 26z"></path>
  <path data-name="stroke" fill="none" stroke="#2e4369" stroke-linecap="round"
  stroke-linejoin="round" stroke-width="2" d="M52.4 50l4.6 5 5-5m-24 0l-5-5-4.6 5"></path>
  <path data-name="stroke" d="M50.9 60.6a11.8 11.8 0 0 1-14.1-2.1A12.1 12.1 0 0 1 34 46m5.6-6.6a11.8 11.8 0 0 1 14.1 2.1A12.1 12.1 0 0 1 56.4 54m-2.5-12.1L58 22M6.1 22L12 52h10m4-50L8.1 22M38 2l18 20M2 22h60"
  fill="none" stroke="#2e4369" stroke-linecap="round" stroke-linejoin="round"
  stroke-width="2"></path>
</svg>