<svg xmlns="http://www.w3.org/2000/svg" viewBox="0 0 64 64" aria-labelledby="title"
aria-describedby="desc" role="img" xmlns:xlink="http://www.w3.org/1999/xlink">
  <title>Upload Package</title>
  <desc>A color styled icon from Orion Icon Library.</desc>
  <circle data-name="layer2"
  cx="46" cy="46" r="16" fill="#78d1f4"></circle>
  <path data-name="layer1" d="M46 30a16 16 0 0 1 4 .5V16.4L40.4 2H11.6L2 16.4V50h28.5A15.9 15.9 0 0 1 46 30z"
  fill="#fc9"></path>
  <path data-name="opacity" fill="#fff" opacity=".25" d="M40.4 2H11.6L2.3 16h47.4L40.4 2z"></path>
  <path data-name="opacity" d="M30.5 50a15.9 15.9 0 0 1 11-19.3 16 16 0 0 0-20 19.3h9z"
  fill="#000064" opacity=".15"></path>
  <path data-name="stroke" fill="none" stroke="#2e4369" stroke-linecap="round"
  stroke-linejoin="round" stroke-width="2" d="M30.5 50H2V16.4L11.6 2h28.8L50 16.4v14.1M2.3 16h47.4M26 2v14"></path>
  <circle data-name="stroke" cx="46" cy="46" r="16" fill="none" stroke="#2e4369"
  stroke-linecap="round" stroke-linejoin="round" stroke-width="2"></circle>
  <path data-name="stroke" fill="none" stroke="#2e4369" stroke-linecap="round"
  stroke-linejoin="round" stroke-width="2" d="M40 44l6-6 6 6m-6-6v16"></path>
</svg>