<svg xmlns="http://www.w3.org/2000/svg" viewBox="0 0 64 64" aria-labelledby="title"
aria-describedby="desc" role="img" xmlns:xlink="http://www.w3.org/1999/xlink">
  <title>US Dollar</title>
  <desc>A color styled icon from Orion Icon Library.</desc>
  <path data-name="layer1"
  d="M45.8 41.9c0-3.7-1.7-10.2-13.1-12.8-8.5-1.9-8.5-5.7-8.5-7 0-4.7 4-6.9 7.8-6.9a7.8 7.8 0 0 1 7.7 6.5 3 3 0 0 0 5.9-1A13.7 13.7 0 0 0 35 9.5V5a3 3 0 0 0-6 0v4.5c-6.3 1.2-10.8 6.2-10.8 12.6 0 3.7 1.7 10.2 13.1 12.8 5.6 1.3 8.5 3.6 8.5 7s-4 6.9-7.8 6.9a7.8 7.8 0 0 1-7.8-7.8 3 3 0 0 0-6 0A13.8 13.8 0 0 0 29 54.5V59a3 3 0 0 0 6 0v-4.5c6.3-1.2 10.8-6.2 10.8-12.6z"
  fill="#fc6"></path>
  <path data-name="stroke" d="M45.8 41.9c0-3.7-1.7-10.2-13.1-12.8-8.5-1.9-8.5-5.7-8.5-7 0-4.7 4-6.9 7.8-6.9a7.8 7.8 0 0 1 7.7 6.5 3 3 0 0 0 5.9-1A13.7 13.7 0 0 0 35 9.5V5a3 3 0 0 0-6 0v4.5c-6.3 1.2-10.8 6.2-10.8 12.6 0 3.7 1.7 10.2 13.1 12.8 5.6 1.3 8.5 3.6 8.5 7s-4 6.9-7.8 6.9a7.8 7.8 0 0 1-7.8-7.8 3 3 0 0 0-6 0A13.8 13.8 0 0 0 29 54.5V59a3 3 0 0 0 6 0v-4.5c6.3-1.2 10.8-6.2 10.8-12.6z"
  fill="none" stroke="#2e4369" stroke-miterlimit="10" stroke-width="2" stroke-linejoin="round"
  stroke-linecap="round"></path>
</svg>