<svg xmlns="http://www.w3.org/2000/svg" viewBox="0 0 64 64" aria-labelledby="title"
aria-describedby="desc" role="img" xmlns:xlink="http://www.w3.org/1999/xlink">
  <title>Wallet</title>
  <desc>A color styled icon from Orion Icon Library.</desc>
  <path data-name="layer2"
  d="M62 41a5.4 5.4 0 0 1-3 5L24 59.6c-3 1.3-4-1-4-2.6V23a5.2 5.2 0 0 1 3-5L57 4.8c2.2-.8 5 .5 5 2.2z"
  fill="#d6958a"></path>
  <path data-name="layer2" d="M23 18L56.9 4.8c2.2-.8 5 .5 5 2.2a3 3 0 0 0-3-3H5a3 3 0 0 0-3 3v36a3 3 0 0 0 3 3h15V23a5.2 5.2 0 0 1 3-5z"
  fill="#d6958a"></path>
  <path data-name="opacity" d="M23 18L56.9 4.8c2.2-.8 5 .5 5 2.2a3 3 0 0 0-3-3H5a3 3 0 0 0-3 3v36a3 3 0 0 0 3 3h15V23a5.2 5.2 0 0 1 3-5z"
  fill="#000064" opacity=".15"></path>
  <circle data-name="layer1" cx="32" cy="36.2" r="4" fill="#fc6"></circle>
  <path data-name="stroke" d="M20.2 46H5a3 3 0 0 1-3-3V7a3 3 0 0 1 3-3h54a3 3 0 0 1 3 3m-50 7h21.3M12 26h8"
  fill="none" stroke="#2e4369" stroke-linecap="round" stroke-linejoin="round"
  stroke-width="2"></path>
  <path data-name="stroke" d="M62 41a5.4 5.4 0 0 1-3 5L24 59.6c-3 1.3-4-1-4-2.6V23a5.2 5.2 0 0 1 3-5L57 4.8c2.2-.8 5 .5 5 2.2z"
  fill="none" stroke="#2e4369" stroke-linecap="round" stroke-linejoin="round"
  stroke-width="2"></path>
  <circle data-name="stroke" cx="32" cy="36.2" r="4" fill="none"
  stroke="#2e4369" stroke-linecap="round" stroke-linejoin="round" stroke-width="2"></circle>
</svg>