<svg xmlns="http://www.w3.org/2000/svg" viewBox="0 0 64 64" aria-labelledby="title"
aria-describedby="desc" role="img" xmlns:xlink="http://www.w3.org/1999/xlink">
  <title>Wallet</title>
  <desc>A color styled icon from Orion Icon Library.</desc>
  <path data-name="layer1"
  d="M54 14V9a3 3 0 0 0-3-3H6a4 4 0 0 0-4 4 4 4 0 0 0 4 4z" fill="#d6958a"></path>
  <path data-name="opacity" d="M54 14V9a3 3 0 0 0-3-3H6a4 4 0 0 0-4 4 4 4 0 0 0 4 4z"
  fill="#000064" opacity=".15"></path>
  <rect data-name="layer1" x="42" y="30" width="20" height="12" rx="2"
  ry="2" fill="#d6958a"></rect>
  <rect data-name="opacity" x="42" y="30" width="20" height="12"
  rx="2" ry="2" fill="#fff" opacity=".2"></rect>
  <circle data-name="layer2" cx="49" cy="36" r="1" fill="#efbc8b"></circle>
  <path data-name="layer1" d="M42 40v-8a2 2 0 0 1 2-2h14V17a3 3 0 0 0-3-3H6a4 4 0 0 1-4-4v45a3 3 0 0 0 3 3h50a3 3 0 0 0 3-3V42H44a2 2 0 0 1-2-2z"
  fill="#d6958a"></path>
  <path data-name="opacity" d="M7 14H6a4 4 0 0 1-4-4v45a3 3 0 0 0 3 3h2.8a3 3 0 0 1-.8-2zm37 28a2 2 0 0 1-2-2v-6a2 2 0 0 0-2 2v8a2 2 0 0 0 2 2h16v-4z"
  fill="#000064" opacity=".15"></path>
  <path data-name="stroke" d="M58 42v13a3 3 0 0 1-3 3H5a3 3 0 0 1-3-3V10"
  fill="none" stroke="#2e4369" stroke-linecap="round" stroke-linejoin="round"
  stroke-width="2"></path>
  <path data-name="stroke" d="M54 14V9a3 3 0 0 0-3-3H6a4 4 0 0 0-4 4 4 4 0 0 0 4 4h49a3 3 0 0 1 3 3v13"
  fill="none" stroke="#2e4369" stroke-linecap="round" stroke-linejoin="round"
  stroke-width="2"></path>
  <rect data-name="stroke" x="42" y="30" width="20" height="12" rx="2"
  ry="2" fill="none" stroke="#2e4369" stroke-linecap="round" stroke-linejoin="round"
  stroke-width="2"></rect>
  <path data-name="stroke" fill="none" stroke="#2e4369" stroke-linecap="round"
  stroke-linejoin="round" stroke-width="2" d="M12 20h2m8 0h2m8 0h2m8 0h2M16 52h2m8 0h2m8 0h2m8 0h2"></path>
  <circle data-name="stroke" cx="49" cy="36" r="1" fill="none" stroke="#2e4369"
  stroke-linecap="round" stroke-linejoin="round" stroke-width="2"></circle>
</svg>