<svg xmlns="http://www.w3.org/2000/svg" viewBox="0 0 64 64" aria-labelledby="title"
aria-describedby="desc" role="img" xmlns:xlink="http://www.w3.org/1999/xlink">
  <title>Wishlist</title>
  <desc>A color styled icon from Orion Icon Library.</desc>
  <circle data-name="layer3"
  cx="20" cy="56" r="4" fill="#a6b1c9"></circle>
  <circle data-name="layer3" cx="46" cy="56" r="4" fill="#a6b1c9"></circle>
  <path data-name="layer2" fill="#fc6" d="M46 26.9L36.1 34l3.8-11.5L30 16h12.2L46 4l3.8 12H62l-9.9 6.5L55.9 34 46 26.9z"></path>
  <path data-name="layer1" fill="#c3d6f9" d="M36.1 34l3.3-10H12l6 24h32l4.9-14.7-8.9-6.4-9.9 7.1zM58 24h-5.6l2.6 8.2 3-8.2z"></path>
  <path data-name="opacity" fill="#000064" opacity=".15" d="M32.1 38l9.9-7.1 9.9 7.1-3-9-2.9-2.1-9.9 7.1 3.3-10h-7.3l3.8 2.5L32.1 38z"></path>
  <path data-name="stroke" fill="none" stroke="#2e4369" stroke-linecap="round"
  stroke-linejoin="round" stroke-width="2" d="M39.3 24H12m43.3 8.2L58 24h-5.4M2 8h6l10 40h32l4.9-14.7"></path>
  <circle data-name="stroke" cx="20" cy="56" r="4" fill="none" stroke="#2e4369"
  stroke-linecap="round" stroke-linejoin="round" stroke-width="2"></circle>
  <circle data-name="stroke" cx="46" cy="56" r="4" fill="none"
  stroke="#2e4369" stroke-linecap="round" stroke-linejoin="round" stroke-width="2"></circle>
  <path data-name="stroke" fill="none" stroke="#2e4369" stroke-linecap="round"
  stroke-linejoin="round" stroke-width="2" d="M46 26.9L36.1 34l3.8-11.5L30 16h12.2L46 4l3.8 12H62l-9.9 6.5L55.9 34 46 26.9z"></path>
</svg>