<svg xmlns="http://www.w3.org/2000/svg" viewBox="0 0 64 64" aria-labelledby="title"
aria-describedby="desc" role="img" xmlns:xlink="http://www.w3.org/1999/xlink">
  <title>Woman Bag</title>
  <desc>A color styled icon from Orion Icon Library.</desc>
  <rect data-name="layer1"
  x="2" y="30" width="60" height="32" rx="2" ry="2" fill="#d6958a"></rect>
  <path data-name="opacity" d="M60 30H4a2 2 0 0 0-2 2v3a2 2 0 0 1 2-2h56a2 2 0 0 1 2 2v-3a2 2 0 0 0-2-2z"
  fill="#fff" opacity=".2"></path>
  <path data-name="opacity" d="M30 54L2 46v14a2 2 0 0 0 2 2h56a2 2 0 0 0 2-2V46l-28 8z"
  fill="#000064" opacity=".15"></path>
  <path data-name="stroke" d="M2 32A30 30 0 0 1 32 2a30 30 0 0 1 30 30"
  fill="none" stroke="#2e4369" stroke-linecap="round" stroke-linejoin="round"
  stroke-width="2"></path>
  <rect data-name="stroke" x="2" y="30" width="60" height="32" rx="2"
  ry="2" fill="none" stroke="#2e4369" stroke-linecap="round" stroke-linejoin="round"
  stroke-width="2"></rect>
  <path data-name="stroke" fill="none" stroke="#2e4369" stroke-linecap="round"
  stroke-linejoin="round" stroke-width="2" d="M2 46l28 8h4l28-8"></path>
</svg>