<svg xmlns="http://www.w3.org/2000/svg" viewBox="0 0 64 64" aria-labelledby="title"
aria-describedby="desc" role="img" xmlns:xlink="http://www.w3.org/1999/xlink">
  <title>Woman Handbag</title>
  <desc>A color styled icon from Orion Icon Library.</desc>
  <path data-name="layer2"
  d="M6.6 34.5L10 58c.4 2 1.8 4 4 4h36c2.2 0 3.7-2 4-4l3.4-23.6" fill="#d6958a"></path>
  <path data-name="layer1" d="M54 26H10a4 4 0 0 0-4 4l.6 4.5 19.7 13.9a10.6 10.6 0 0 0 11.3 0l19.8-14L58 30c.3-2-1.8-4-4-4z"
  fill="#f27e7c"></path>
  <path data-name="opacity" d="M10 29h44a4.3 4.3 0 0 1 3.8 2.5L58 30c.3-2-1.8-4-4-4H10a4 4 0 0 0-4 4l.2 1.6A4.2 4.2 0 0 1 10 29z"
  fill="#fff" opacity=".2"></path>
  <path data-name="opacity" d="M26.3 48.4L6.6 34.5 10 58c.4 2 1.8 4 4 4h36c2.2 0 3.7-2 4-4l3.4-23.6-19.7 14a10.6 10.6 0 0 1-11.4 0z"
  fill="#000064" opacity=".15"></path>
  <path data-name="stroke" d="M14 26v-6A18 18 0 0 1 32 2a18 18 0 0 1 18 18v6M6.6 34.5L10 58c.4 2 1.8 4 4 4h36c2.2 0 3.7-2 4-4l3.4-23.6"
  fill="none" stroke="#2e4369" stroke-linecap="round" stroke-linejoin="round"
  stroke-width="2"></path>
  <path data-name="stroke" d="M54 26H10a4 4 0 0 0-4 4l.6 4.5 19.7 13.9a10.6 10.6 0 0 0 11.3 0l19.8-14L58 30c.3-2-1.8-4-4-4zM32 38v4"
  fill="none" stroke="#2e4369" stroke-linecap="round" stroke-linejoin="round"
  stroke-width="2"></path>
</svg>