<svg xmlns="http://www.w3.org/2000/svg" viewBox="0 0 64 64" aria-labelledby="title"
aria-describedby="desc" role="img" xmlns:xlink="http://www.w3.org/1999/xlink">
  <title>Add to Basket</title>
  <desc>A solid styled icon from Orion Icon Library.</desc>
  <path data-name="layer2"
  d="M57.6 24.5H60a2 2 0 0 0 0-4h-5.1L38.5 2.2a2 2 0 1 0-3 2.7l14 15.7h-35l14-15.7a2 2 0 0 0-3-2.7L9.2 20.5H4a2 2 0 1 0 0 4h53.6zm-.8 4h-2.1l1.9 1.1zm-19.5 0h-30l4.8 24h14.8a20 20 0 0 1 10.4-24z"
  fill="#202020"></path>
  <path data-name="layer1" d="M46 62.5a16 16 0 1 0-16-16 16 16 0 0 0 16 16zm-7.4-19.4l7.4-7.4 7.4 7.4a2 2 0 0 1-2.8 2.8L48 43.3v11.2a2 2 0 1 1-4 0V43.3l-2.6 2.6a2 2 0 0 1-2.8-2.8z"
  fill="#202020"></path>
</svg>