<svg xmlns="http://www.w3.org/2000/svg" viewBox="0 0 64 64" aria-labelledby="title"
aria-describedby="desc" role="img" xmlns:xlink="http://www.w3.org/1999/xlink">
  <title>Add Item To Cart</title>
  <desc>A solid styled icon from Orion Icon Library.</desc>
  <path data-name="layer2"
  d="M47 7a16 16 0 1 0 16 16A16 16 0 0 0 47 7zm7.4 19.4l-6 6-1.4 1.4-1.4-1.4-6-6a2 2 0 1 1 2.8-2.8l2.6 2.6V15a2 2 0 0 1 4 0v11.2l2.6-2.6a2 2 0 1 1 2.8 2.8z"
  fill="#202020"></path>
  <circle data-name="layer2" cx="21" cy="55" r="4" fill="#202020"></circle>
  <circle data-name="layer2" cx="47" cy="55" r="4" fill="#202020"></circle>
  <path data-name="layer1" d="M47 43a20 20 0 0 1-20-20H16.8L12.9 6.5A2 2 0 0 0 11 5H3a2 2 0 1 0 0 4h6.4l9 38h33l1.6-4.9a19.9 19.9 0 0 1-6 .9z"
  fill="#202020"></path>
</svg>