<svg xmlns="http://www.w3.org/2000/svg" viewBox="0 0 64 64" aria-labelledby="title"
aria-describedby="desc" role="img" xmlns:xlink="http://www.w3.org/1999/xlink">
  <title>Add to Wishlist</title>
  <desc>A solid styled icon from Orion Icon Library.</desc>
  <path data-name="layer1"
  d="M60 20.5h-5.1L38.5 2.2a2 2 0 0 0-3 2.7l14 15.7h-35l14-15.7a2 2 0 1 0-3-2.7L9.2 20.5H4a2 2 0 0 0 0 4h56a2 2 0 0 0 0-4z"
  fill="#202020"></path>
  <path data-name="layer2" fill="#202020" d="M46 55.4l-9.9 7.1L39.9 51 30 44.5h12.2l3.8-12 3.8 12H62L52.1 51l3.8 11.5-9.9-7.1z"></path>
  <path data-name="layer1" d="M49.8 31.3l2.9 9.2h1.7l2.4-12H46a4 4 0 0 1 3.8 2.8zm-22 16.5a4 4 0 0 1 2.2-7.3h9.3l2.9-9.2a4 4 0 0 1 3.8-2.8H7.3l4.8 24h22.8z"
  fill="#202020"></path>
</svg>