<svg xmlns="http://www.w3.org/2000/svg" viewBox="0 0 64 64" aria-labelledby="title"
aria-describedby="desc" role="img" xmlns:xlink="http://www.w3.org/1999/xlink">
  <title>Airport Trolley</title>
  <desc>A solid styled icon from Orion Icon Library.</desc>
  <path data-name="layer2"
  d="M60 42.5H19.6L12 8.1a2 2 0 0 0-2-1.6H4a2 2 0 0 0 0 4h4.4L16 44.9a2 2 0 0 0 2 1.6h42a2 2 0 0 0 0-4z"
  fill="#202020"></path>
  <circle data-name="layer1" cx="24" cy="56.5" r="5" fill="#202020"></circle>
  <circle data-name="layer1" cx="50" cy="56.5" r="5" fill="#202020"></circle>
  <path data-name="layer1" d="M44 28.5a2 2 0 1 1-4 0v-2H22v9a3 3 0 0 0 3 3h34a3 3 0 0 0 3-3v-9H44zm15-16h-9v-6a4 4 0 0 0-4-4h-8a4 4 0 0 0-4 4v6h-9a3 3 0 0 0-3 3v7h18a2 2 0 1 1 4 0h18v-7a3 3 0 0 0-3-3zm-21 0v-6h8v6z"
  fill="#202020"></path>
</svg>