<svg xmlns="http://www.w3.org/2000/svg" viewBox="0 0 64 64" aria-labelledby="title"
aria-describedby="desc" role="img" xmlns:xlink="http://www.w3.org/1999/xlink">
  <title>ATM</title>
  <desc>A solid styled icon from Orion Icon Library.</desc>
  <path data-name="layer2"
  fill="#202020" d="M14 44h20v18H14z"></path>
  <path data-name="layer1" d="M59 2H5a3 3 0 0 0-3 3v48a3 3 0 0 0 3 3h5V46a2 2 0 0 1 0-4h28a2 2 0 0 1 0 4v10h21a3 3 0 0 0 3-3V5a3 3 0 0 0-3-3zM36 36H10V10h26zm6-22h14v4H42zm4 20h-2a2 2 0 0 1 0-4h2a2 2 0 1 1 0 4zm0-8h-2a2 2 0 0 1 0-4h2a2 2 0 0 1 0 4zm8 8h-2a2 2 0 0 1 0-4h2a2 2 0 1 1 0 4zm0-8h-2a2 2 0 0 1 0-4h2a2 2 0 0 1 0 4z"
  fill="#202020"></path>
</svg>