<svg xmlns="http://www.w3.org/2000/svg" viewBox="0 0 64 64" aria-labelledby="title"
aria-describedby="desc" role="img" xmlns:xlink="http://www.w3.org/1999/xlink">
  <title>Auction</title>
  <desc>A solid styled icon from Orion Icon Library.</desc>
  <path data-name="layer1"
  fill="#202020" d="M34 51h30v12H34z"></path>
  <path data-name="layer2" d="M35.2 35.5l10.2-10.2 2.6-2.5a2 2 0 0 0-2.9-2.8L29.6 4.4a2 2 0 0 0-2.8-2.8L14 14.3a2 2 0 1 0 2.8 2.8l6.4 6.4L.6 46.1A2 2 0 1 0 3.4 49L26 26.3l6.4 6.4a2 2 0 1 0 2.8 2.8z"
  fill="#202020"></path>
  <path data-name="layer1" d="M36 47a2 2 0 0 0 2 2h22a2 2 0 0 0 0-4H38a2 2 0 0 0-2 2z"
  fill="#202020"></path>
</svg>