<svg xmlns="http://www.w3.org/2000/svg" viewBox="0 0 64 64" aria-labelledby="title"
aria-describedby="desc" role="img" xmlns:xlink="http://www.w3.org/1999/xlink">
  <title>Bank Check</title>
  <desc>A solid styled icon from Orion Icon Library.</desc>
  <path data-name="layer2"
  d="M26.1 19.8a2 2 0 0 0 1.4-.6l9.7-9.7a1.7 1.7 0 0 1 1.2-.5 1.7 1.7 0 0 1 1.2.5l1.3 1.2-6 6 5.3 5.3 8.7-8.7A3.8 3.8 0 0 0 43.7 8l-1.3-1.3a5.6 5.6 0 0 0-4-1.7 5.7 5.7 0 0 0-4 1.7l-9.7 9.7a2 2 0 0 0 1.4 3.4z"
  fill="#202020"></path>
  <path data-name="layer2" fill="#202020" d="M13.2 38.4L10 47l8.6-3.3 18.8-18.8-5.4-5.3-18.8 18.8z"></path>
  <path data-name="layer1" d="M42.9 25a4 4 0 0 1-1.7 1 4 4 0 0 1-1 1.8L21.4 46.5a4 4 0 0 1-1.4.9l-8.6 3.3-1.4.3a4 4 0 0 1-3.7-5.4L9.5 37a4 4 0 0 1 .9-1.4L21 25H2v34h60V25zM54 51H28.1a2 2 0 0 1 0-4H54a2 2 0 0 1 0 4zm0-8H38.1a2 2 0 0 1 0-4H54a2 2 0 0 1 0 4z"
  fill="#202020"></path>
</svg>