<svg xmlns="http://www.w3.org/2000/svg" viewBox="0 0 64 64" aria-labelledby="title"
aria-describedby="desc" role="img" xmlns:xlink="http://www.w3.org/1999/xlink">
  <title>Basket</title>
  <desc>A solid styled icon from Orion Icon Library.</desc>
  <path data-name="layer2"
  d="M60 25.5h-5.1L38.5 7.2a2 2 0 1 0-3 2.7l14 15.7h-35l14-15.7a2 2 0 1 0-3-2.7L9.2 25.5H4a2 2 0 0 0 0 4h56a2 2 0 0 0 0-4z"
  fill="#202020"></path>
  <path data-name="layer1" d="M46 49.5a2 2 0 1 1-4 0v-16h-8v16a2 2 0 1 1-4 0v-16h-8v16a2 2 0 1 1-4 0v-16H7.3l4.8 24H52l4.8-24H46z"
  fill="#202020"></path>
</svg>