<svg xmlns="http://www.w3.org/2000/svg" viewBox="0 0 64 64" aria-labelledby="title"
aria-describedby="desc" role="img" xmlns:xlink="http://www.w3.org/1999/xlink">
  <title>Bill</title>
  <desc>A solid styled icon from Orion Icon Library.</desc>
  <path data-name="layer1"
  d="M10 14H2v8a8 8 0 0 0 8-8zm52 8v-8h-8a8 8 0 0 0 8 8zM2 42v8h8a8 8 0 0 0-8-8z"
  fill="#202020"></path>
  <path data-name="layer2" d="M62 38V26a12 12 0 0 1-12-12H14A12 12 0 0 1 2 26v12a12 12 0 0 1 12 12h36a12 12 0 0 1 12-12zm-46-4h-4a2 2 0 0 1 0-4h4a2 2 0 0 1 0 4zm16 6a8 8 0 1 1 8-8 8 8 0 0 1-8 8zm20-6h-4a2 2 0 0 1 0-4h4a2 2 0 0 1 0 4z"
  fill="#202020"></path>
  <path data-name="layer1" d="M54 50h8v-8a8 8 0 0 0-8 8z" fill="#202020"></path>
</svg>