<svg xmlns="http://www.w3.org/2000/svg" viewBox="0 0 64 64" aria-labelledby="title"
aria-describedby="desc" role="img" xmlns:xlink="http://www.w3.org/1999/xlink">
  <title>Bitcoin</title>
  <desc>A solid styled icon from Orion Icon Library.</desc>
  <path data-name="layer1"
  d="M50 41.626a14.383 14.383 0 0 0-6.972-12.319A12.608 12.608 0 0 0 36 8.193V4h-6v4h-4V4h-6v4h-4v48h4v4h6v-4h4v4h6v-4.02a14.218 14.218 0 0 0 14-14.354zm-9.503-21.002a6.633 6.633 0 0 1-6.625 6.626L22 27.248V14h11.872a6.632 6.632 0 0 1 6.625 6.624zM35.62 50H22V33.248l12.061.001c.594 0 .939-.041 1.939-.12v.12a8.649 8.649 0 0 1 8.19 8.377A8.55 8.55 0 0 1 35.62 50z"
  fill="#202020"></path>
</svg>