<svg xmlns="http://www.w3.org/2000/svg" viewBox="0 0 64 64" aria-labelledby="title"
aria-describedby="desc" role="img" xmlns:xlink="http://www.w3.org/1999/xlink">
  <title>Bitcoin Unit</title>
  <desc>A solid styled icon from Orion Icon Library.</desc>
  <path data-name="layer1"
  d="M34.9 28.4a2.6 2.6 0 0 0-1.8-4.4H28v5.2h5.1a2.5 2.5 0 0 0 1.8-.8zm-1 4.8H28V40h5.9a3.4 3.4 0 0 0 0-6.8z"
  fill="#202020"></path>
  <path data-name="layer1" d="M62 24V14H2v10a8 8 0 0 1 0 16v10h60V40a8 8 0 0 1 0-16zM39.1 41.9a7.4 7.4 0 0 1-3.1 1.8V46h-4v-2h-2v2h-4v-2h-2V20h2v-2h4v2h2v-2h4v2.7a6.6 6.6 0 0 1 2.3 10 7.4 7.4 0 0 1 .8 11.2z"
  fill="#202020"></path>
</svg>