<svg xmlns="http://www.w3.org/2000/svg" viewBox="0 0 64 64" aria-labelledby="title"
aria-describedby="desc" role="img" xmlns:xlink="http://www.w3.org/1999/xlink">
  <title>Bitcoin Sign</title>
  <desc>A solid styled icon from Orion Icon Library.</desc>
  <path data-name="layer1"
  d="M40.7 23.3a5.3 5.3 0 0 0-5.4-5.3H26v10.7h9.3a5.3 5.3 0 0 0 5.4-5.4zm-4 9.4H26V46h10.7a6.7 6.7 0 1 0 0-13.3z"
  fill="#202020"></path>
  <path data-name="layer1" d="M32 2a30 30 0 1 0 30 30A30 30 0 0 0 32 2zm4.7 48H36v2a2 2 0 1 1-4 0v-2h-2v2a2 2 0 1 1-4 0v-2h-4V14h4v-2a2 2 0 1 1 4 0v2h2v-2a2 2 0 1 1 4 0v2a9.3 9.3 0 0 1 5.9 16 10.7 10.7 0 0 1-5.2 20z"
  fill="#202020"></path>
</svg>