<svg viewBox="0 0 64 64" xmlns="http://www.w3.org/2000/svg" aria-labelledby="title"
aria-describedby="desc" role="img" xmlns:xlink="http://www.w3.org/1999/xlink">
  <title>Briefcase</title>
  <desc>A solid styled icon from Orion Icon Library.</desc>
  <path d="M27.998 39.999h8v8h-8z"
  fill="#202020" data-name="layer2"></path>
  <path fill="#202020" d="M58 18H44v-4A10.012 10.012 0 0 0 34 4h-4a10.012 10.012 0 0 0-10 10v4H6a4 4 0 0 0-4 4v22h22v-8h16v8h22V22a4 4 0 0 0-4-4zm-34 0v-4a6.007 6.007 0 0 1 6-6h4a6.007 6.007 0 0 1 6 6v4z"></path>
  <path d="M40 51.999H24v-4H3.998v11.999h56V47.999H40v4z" fill="#202020"
  data-name="layer1"></path>
</svg>