<svg xmlns="http://www.w3.org/2000/svg" viewBox="0 0 64 64" aria-labelledby="title"
aria-describedby="desc" role="img" xmlns:xlink="http://www.w3.org/1999/xlink">
  <title>British Pound Sign</title>
  <desc>A solid styled icon from Orion Icon Library.</desc>
  <path data-name="layer1"
  d="M32 2a30 30 0 1 0 30 30A30 30 0 0 0 32 2zm10 22a2 2 0 0 1-2-2 6 6 0 0 0-12 0v8h12.9a2 2 0 0 1 0 4H28v5.6a10.1 10.1 0 0 1-.9 4.4h13.8a2 2 0 0 1 0 4H19.6a2 2 0 0 1 0-4c3.2 0 4.4-1.2 4.4-4.4V34h-4.4a2 2 0 0 1 0-4H24v-8a10 10 0 1 1 20 0 2 2 0 0 1-2 2z"
  fill="#202020"></path>
</svg>