<svg xmlns="http://www.w3.org/2000/svg" viewBox="0 0 64 64" aria-labelledby="title"
aria-describedby="desc" role="img" xmlns:xlink="http://www.w3.org/1999/xlink">
  <title>British Pound Bill</title>
  <desc>A solid styled icon from Orion Icon Library.</desc>
  <path data-name="layer1"
  d="M62 24V14H2v10a8 8 0 1 1 0 16v10h60V40a8 8 0 1 1 0-16zM38 36h-8v2a7.9 7.9 0 0 1-.3 2h7.6a2 2 0 0 1 0 4H24a2 2 0 0 1 0-4c1.7 0 2-.5 2-2v-2h-2a2 2 0 0 1 0-4h2v-5a7 7 0 1 1 14 0 2 2 0 1 1-4 0 3 3 0 0 0-6 0v5h8a2 2 0 0 1 0 4z"
  fill="#202020"></path>
</svg>