<svg xmlns="http://www.w3.org/2000/svg" viewBox="0 0 64 64" aria-labelledby="title"
aria-describedby="desc" role="img" xmlns:xlink="http://www.w3.org/1999/xlink">
  <title>Business Report</title>
  <desc>A solid styled icon from Orion Icon Library.</desc>
  <path data-name="layer2"
  d="M60 37H4a2 2 0 0 0 0 4h26v9.2l-9.4 9.4a2 2 0 1 0 2.8 2.8l8.6-8.6 8.6 8.6a2 2 0 1 0 2.8-2.8L34 50.2V41h26a2 2 0 0 0 0-4z"
  fill="#202020"></path>
  <path data-name="layer1" d="M58 1H6v18h9.2l5.4-5.4a2 2 0 0 1 3.2.5l4.6 9.1 4.1-5.4a2 2 0 0 1 3-.2l2.4 2.4 8.6-10.3a2 2 0 1 1 3.1 2.6l-10 12a2 2 0 0 1-3 .1L34.2 22l-4.6 6.2a2 2 0 0 1-1.6.8h-.2a2 2 0 0 1-1.6-1.1l-4.8-9.5-4 4a2 2 0 0 1-1.4.6H6v10h52z"
  fill="#202020"></path>
</svg>