<svg xmlns="http://www.w3.org/2000/svg" viewBox="0 0 64 64" aria-labelledby="title"
aria-describedby="desc" role="img" xmlns:xlink="http://www.w3.org/1999/xlink">
  <title>Buy</title>
  <desc>A solid styled icon from Orion Icon Library.</desc>
  <path data-name="layer2"
  d="M49.4 14.5a2 2 0 0 0-2.8 0L40 21.3V3a2 2 0 1 0-4 0v18.3l-6.6-6.7a2 2 0 1 0-2.9 2.8l10 10.2L38 29l1.4-1.4 10-10.2a2 2 0 0 0 0-2.9z"
  fill="#202020"></path>
  <circle data-name="layer2" cx="23.9" cy="59" r="4" fill="#202020"></circle>
  <circle data-name="layer2" cx="49.9" cy="59" r="4" fill="#202020"></circle>
  <path data-name="layer1" d="M45.6 27l-3.3 3.4-1.4 1.4-2.9 2.9-2.9-2.9-1.4-1.4-3.3-3.4H19.7l-3.8-16.5a2 2 0 0 0-2-1.5h-10a2 2 0 0 0 0 4h8.4l9 38h33L62 27z"
  fill="#202020"></path>
</svg>