<svg xmlns="http://www.w3.org/2000/svg" viewBox="0 0 64 64" aria-labelledby="title"
aria-describedby="desc" role="img" xmlns:xlink="http://www.w3.org/1999/xlink">
  <title>Calc</title>
  <desc>A solid styled icon from Orion Icon Library.</desc>
  <path data-name="layer2"
  d="M34 30h26V12a8 8 0 0 0-8-8H34zm7-14h12a2 2 0 0 1 0 4H41a2 2 0 0 1 0-4zM30 34H4v18a8 8 0 0 0 8 8h18zm-7.6 18.4a2 2 0 0 1-2.8 0L17 49.8l-2.6 2.6a2 2 0 1 1-2.8-2.8l2.6-2.6-2.6-2.6a2 2 0 1 1 2.8-2.8l2.6 2.6 2.6-2.6a2 2 0 0 1 2.8 2.8L19.8 47l2.6 2.6a2 2 0 0 1 0 2.8z"
  fill="#202020"></path>
  <path data-name="layer1" d="M30 30V4H12a8 8 0 0 0-8 8v18zM11 15h4v-4a2 2 0 1 1 4 0v4h4a2 2 0 0 1 0 4h-4v4a2 2 0 0 1-4 0v-4h-4a2 2 0 0 1 0-4zm23 19v26h18a8 8 0 0 0 8-8V34zm17 19h-8a2 2 0 0 1 0-4h8a2 2 0 0 1 0 4zm0-8h-8a2 2 0 0 1 0-4h8a2 2 0 0 1 0 4z"
  fill="#202020"></path>
</svg>