<svg xmlns="http://www.w3.org/2000/svg" viewBox="0 0 64 64" aria-labelledby="title"
aria-describedby="desc" role="img" xmlns:xlink="http://www.w3.org/1999/xlink">
  <title>Call Store</title>
  <desc>A solid styled icon from Orion Icon Library.</desc>
  <path data-name="layer2"
  d="M56.3 22.1a2.4 2.4 0 0 0-3.3.6c-1.2 1.5-1.7 3.4-7.2-2.1s-4-6.5-2.6-7.7a2.4 2.4 0 0 0 .6-3.3l-3.3-5.1C40 3.9 39.4 2.8 38 3a7.2 7.2 0 0 0-5 6.8c0 4.5 3.5 10 8.4 14.8S51.7 33 56.2 33a7.2 7.2 0 0 0 6.8-5c.2-1.4-.9-2-1.5-2.5z"
  fill="#202020"></path>
  <circle data-name="layer2" cx="21" cy="57" r="4" fill="#202020"></circle>
  <circle data-name="layer2" cx="47" cy="57" r="4" fill="#202020"></circle>
  <path data-name="layer1" d="M38.6 27.4L36.3 25H16.8L12.9 8.5A2 2 0 0 0 11 7H3a2 2 0 0 0 0 4h6.4l9 38h33l3.9-12c-6.7-.5-13.3-6.1-16.7-9.6z"
  fill="#202020"></path>
</svg>