<svg xmlns="http://www.w3.org/2000/svg" viewBox="0 0 64 64" aria-labelledby="title"
aria-describedby="desc" role="img" xmlns:xlink="http://www.w3.org/1999/xlink">
  <title>Cancel Cart</title>
  <desc>A solid styled icon from Orion Icon Library.</desc>
  <path data-name="layer2"
  d="M64 23a18 18 0 0 0-36 0H15.8L11.9 6.5A2 2 0 0 0 10 5H2a2 2 0 0 0 0 4h6.4l9 38h33l2.3-7.3A18 18 0 0 0 64 23zM46 9a13.9 13.9 0 0 1 8.4 2.8L34.8 31.4A14 14 0 0 1 46 9zm0 28a13.9 13.9 0 0 1-8.4-2.8l19.6-19.6A14 14 0 0 1 46 37z"
  fill="#202020"></path>
  <circle data-name="layer1" cx="20" cy="55" r="4" fill="#202020"></circle>
  <circle data-name="layer1" cx="46" cy="55" r="4" fill="#202020"></circle>
</svg>