<svg xmlns="http://www.w3.org/2000/svg" viewBox="0 0 64 64" aria-labelledby="title"
aria-describedby="desc" role="img" xmlns:xlink="http://www.w3.org/1999/xlink">
  <title>Cash Register</title>
  <desc>A solid styled icon from Orion Icon Library.</desc>
  <path data-name="layer1"
  d="M56.7 35H7.3L2.7 49h58.6zM19 47h-4v-4h4zm5-6h-4v-4h4zm5 6h-4v-4h4zm5-6h-4v-4h4zm5 6h-4v-4h4zm5-6h-4v-4h4zm5 6h-4v-4h4z"
  fill="#202020"></path>
  <path data-name="layer2" fill="#202020" d="M2 53h60v10H2z"></path>
  <path data-name="layer1" d="M56 23a4 4 0 0 0-4-4h-6v-6h3a5 5 0 0 0 5-5V6a5 5 0 0 0-5-5H39a5 5 0 0 0-5 5v2a5 5 0 0 0 5 5h3v6H32v6h-4V11H16v14h-4v-6a4 4 0 0 0-4 4v8h48zM39 9a1 1 0 0 1-1-1V6a1 1 0 0 1 1-1h10a1 1 0 0 1 1 1v2a1 1 0 0 1-1 1zm9 19H36a2 2 0 0 1 0-4h12a2 2 0 0 1 0 4z"
  fill="#202020"></path>
</svg>