<svg xmlns="http://www.w3.org/2000/svg" viewBox="0 0 64 64" aria-labelledby="title"
aria-describedby="desc" role="img" xmlns:xlink="http://www.w3.org/1999/xlink">
  <title>Cash Register Till</title>
  <desc>A solid styled icon from Orion Icon Library.</desc>
  <path data-name="layer2"
  fill="#202020" d="M2 55h60v6H2z"></path>
  <path data-name="layer1" d="M52 21a2 2 0 0 0-2-2h-8v-4h6a2 2 0 0 0 2-2V5a2 2 0 0 0-2-2H32a2 2 0 0 0-2 2v8a2 2 0 0 0 2 2h6v4H14a2 2 0 0 0-2 2v12h40zM34 7h12v4H34zm10 22H20v-4h24zm9.1 8H10.9L3.1 51h57.8zM52 46H32v-4h20z"
  fill="#202020"></path>
</svg>