<svg xmlns="http://www.w3.org/2000/svg" viewBox="0 0 64 64" aria-labelledby="title"
aria-describedby="desc" role="img" xmlns:xlink="http://www.w3.org/1999/xlink">
  <title>Cash Dispenser</title>
  <desc>A solid styled icon from Orion Icon Library.</desc>
  <path data-name="layer2"
  fill="#202020" d="M14 59h36v4H14zm0-6h8a8 8 0 0 0-8-8zm36 0v-8a8 8 0 0 0-8 8z"></path>
  <path data-name="layer2" d="M50 9H14v32a12 12 0 0 1 12 12h12a12 12 0 0 1 12-12zM34 36.2v.8a2 2 0 1 1-4 0v-.8a7 7 0 0 1-5-6.7 2 2 0 1 1 4 0 3 3 0 0 0 3 3c1.5 0 3-.8 3-2.6s0-1.9-3.4-2.6C25.8 26 25 22.6 25 20.7a6.5 6.5 0 0 1 5-6.3v-.8a2 2 0 1 1 4 0v.8a7 7 0 0 1 4.9 5.6 2 2 0 1 1-3.9.7 3 3 0 0 0-3-2.5c-1.5 0-3 .8-3 2.6s0 1.8 3.4 2.6c5.7 1.3 6.6 4.6 6.6 6.5a6.5 6.5 0 0 1-5 6.3z"
  fill="#202020"></path>
  <path data-name="layer1" d="M59 1H5a3 3 0 0 0-3 3v18a3 3 0 0 0 3 3h5V6h44v19h5a3 3 0 0 0 3-3V4a3 3 0 0 0-3-3z"
  fill="#202020"></path>
</svg>