<svg xmlns="http://www.w3.org/2000/svg" viewBox="0 0 64 64" aria-labelledby="title"
aria-describedby="desc" role="img" xmlns:xlink="http://www.w3.org/1999/xlink">
  <title>Chart</title>
  <desc>A solid styled icon from Orion Icon Library.</desc>
  <path data-name="layer1"
  d="M50.3 42.8l.3.4C56.9 39.9 61.1 35 62 29.5H37z" fill="#202020"></path>
  <path data-name="layer2" d="M32.1 47.5A42 42 0 0 0 46.7 45l-16-16-.2-.3V28a2 2 0 0 1 0-.4V7.5c-15.6.7-28 9.4-28 20s13 20 29.6 20z"
  fill="#202020"></path>
  <path data-name="layer2" d="M34.1 7.5v18h27.8c-1.4-9.7-13.2-17.3-27.8-18zM8.6 45a27.1 27.1 0 0 1-6.3-5.7C4.3 49 16.9 56.5 32 56.5A42 42 0 0 0 46.6 54v-4.8A46.5 46.5 0 0 1 32 51.5c-8.7 0-17-2.3-23.4-6.5z"
  fill="#202020"></path>
  <path data-name="layer1" d="M55.5 45a34.8 34.8 0 0 1-4.8 2.7v4.6c5.9-3.1 10-7.7 11.1-12.9a27.2 27.2 0 0 1-6.3 5.6z"
  fill="#202020"></path>
</svg>