<svg xmlns="http://www.w3.org/2000/svg" viewBox="0 0 64 64" aria-labelledby="title"
aria-describedby="desc" role="img" xmlns:xlink="http://www.w3.org/1999/xlink">
  <title>Clear Shopping Cart</title>
  <desc>A solid styled icon from Orion Icon Library.</desc>
  <path data-name="layer1"
  d="M60 20.5h-5.1L38.5 2.2a2 2 0 1 0-3 2.7l14 15.7h-35l14-15.7a2 2 0 1 0-3-2.7L9.2 20.5H4a2 2 0 0 0 0 4h56a2 2 0 0 0 0-4z"
  fill="#202020"></path>
  <path data-name="layer2" d="M34.7 35.2a16 16 0 1 0 22.6 0 16 16 0 0 0-22.6 0zm18.4 7.1l-4.2 4.2 4.2 4.2a2 2 0 0 1-2.8 2.8L46 49.3l-4.2 4.2a2 2 0 1 1-2.8-2.8l4.2-4.2-4.2-4.2a2 2 0 1 1 2.8-2.8l4.2 4.2 4.2-4.2a2 2 0 1 1 2.8 2.8z"
  fill="#202020"></path>
  <path data-name="layer1" d="M56.6 29.6l.2-1.1h-2.1zM26 46.5a20 20 0 0 1 11.3-18h-30l4.8 24h14.8a20 20 0 0 1-.9-6z"
  fill="#202020"></path>
</svg>