<svg xmlns="http://www.w3.org/2000/svg" viewBox="0 0 64 64" aria-labelledby="title"
aria-describedby="desc" role="img" xmlns:xlink="http://www.w3.org/1999/xlink">
  <title>Conference Desk</title>
  <desc>A solid styled icon from Orion Icon Library.</desc>
  <path data-name="layer1"
  d="M62 40h-3L48 18h-2V8.1a2 2 0 0 0-1.1-1.8L42 4.8V4a4 4 0 0 0-4-4h-8a4 4 0 0 0-4 4v6h16v-.7V18H16L5 40H2a2 2 0 0 0 0 4h28v16h-6a2 2 0 1 0 0 4h16a2 2 0 1 0 0-4h-6V44h28a2 2 0 0 0 0-4zM38 6h-8V4h8zM20 24h18l4 10H15.2z"
  fill="#202020"></path>
</svg>