<svg xmlns="http://www.w3.org/2000/svg" viewBox="0 0 64 64" aria-labelledby="title"
aria-describedby="desc" role="img" xmlns:xlink="http://www.w3.org/1999/xlink">
  <title>Credit Card</title>
  <desc>A solid styled icon from Orion Icon Library.</desc>
  <path data-name="layer2"
  d="M62 21v-5a3 3 0 0 0-3-3H5a3 3 0 0 0-3 3v5z" fill="#202020"></path>
  <path data-name="layer1" d="M2 25v23a3 3 0 0 0 3 3h54a3 3 0 0 0 3-3V25zm16 16h-8a2 2 0 0 1 0-4h8a2 2 0 0 1 0 4zm12-8H10a2 2 0 0 1 0-4h20a2 2 0 0 1 0 4zm24 0h-6a2 2 0 0 1 0-4h6a2 2 0 0 1 0 4z"
  fill="#202020"></path>
</svg>