<svg xmlns="http://www.w3.org/2000/svg" viewBox="0 0 64 64" aria-labelledby="title"
aria-describedby="desc" role="img" xmlns:xlink="http://www.w3.org/1999/xlink">
  <title>Currency</title>
  <desc>A solid styled icon from Orion Icon Library.</desc>
  <path data-name="layer1"
  d="M10 3H2v8a8 8 0 0 0 8-8zm44 0a8 8 0 0 0 8 8V3zM2 31v8h8a8 8 0 0 0-8-8z"
  fill="#202020"></path>
  <ellipse data-name="layer2" cx="42" cy="33" rx="12" ry="4" fill="#202020"></ellipse>
  <path data-name="layer2" d="M30 38.7v2.7h.1c.6 2 5.7 3.6 11.9 3.6s11.3-1.6 11.9-3.6h.1v-2.7c-3.1 1.6-7.6 2.3-12 2.3s-8.9-.7-12-2.3zm0 8v2.7h.1c.6 2 5.7 3.6 11.9 3.6s11.3-1.6 11.9-3.6h.1v-2.7c-3.1 1.6-7.6 2.3-12 2.3s-8.9-.7-12-2.3zm0 8v2.7h.1c.6 2 5.7 3.6 11.9 3.6s11.3-1.6 11.9-3.6h.1v-2.7c-3.1 1.6-7.6 2.3-12 2.3s-8.9-.7-12-2.3z"
  fill="#202020"></path>
  <path data-name="layer1" d="M50 3H14A12 12 0 0 1 2 15v12a12 12 0 0 1 12 12h12v-.3a4 4 0 0 1 1-2.6 5.5 5.5 0 0 1-1-3.1 5.8 5.8 0 0 1 2.6-4.8 8 8 0 1 1 10.3-3.1H42c7.7 0 16 2.1 16 8a5.5 5.5 0 0 1-1 3.1 4 4 0 0 1 1 2.6v.2h4V15A12 12 0 0 1 50 3zM16 23h-4a2 2 0 0 1 0-4h4a2 2 0 0 1 0 4zm36 0h-4a2 2 0 0 1 0-4h4a2 2 0 0 1 0 4z"
  fill="#202020"></path>
</svg>