<svg xmlns="http://www.w3.org/2000/svg" viewBox="0 0 64 64" aria-labelledby="title"
aria-describedby="desc" role="img" xmlns:xlink="http://www.w3.org/1999/xlink">
  <title>Delivery Time</title>
  <desc>A solid styled icon from Orion Icon Library.</desc>
  <path data-name="layer2"
  d="M27 18.1a12 12 0 1 0-12 12 12 12 0 0 0 12-12zm-6 4h-8v-10a2 2 0 1 1 4 0v6h4a2 2 0 0 1 0 4z"
  fill="#202020"></path>
  <circle data-name="layer1" cx="25" cy="53.9" r="4" fill="#202020"></circle>
  <circle data-name="layer1" cx="55" cy="53.9" r="4" fill="#202020"></circle>
  <path data-name="layer1" d="M9 35.9H3a2 2 0 0 0 0 4h6a2 2 0 0 0 0-4zm0 8H7a2 2 0 0 0 0 4h2a2 2 0 0 0 0-4zM63 41l-3.1-3.1-4.6-4H49v12h14V41zM33 53.9h14a8 8 0 0 1 2.7-6H30.3a8 8 0 0 1 2.7 6zm-16-4.6v4.6a8 8 0 0 1 2.7-6H17zm46 4.5v-6h-2.7a8 8 0 0 1 2.7 6zM17 34v11.9h28v-22H29.9A16 16 0 0 1 17 34z"
  fill="#202020"></path>
</svg>