<svg xmlns="http://www.w3.org/2000/svg" viewBox="0 0 64 64" aria-labelledby="title"
aria-describedby="desc" role="img" xmlns:xlink="http://www.w3.org/1999/xlink">
  <title>Delivery Truck</title>
  <desc>A solid styled icon from Orion Icon Library.</desc>
  <circle data-name="layer1"
  cx="14" cy="51" r="6" fill="#202020"></circle>
  <circle data-name="layer1" cx="50" cy="51" r="6" fill="#202020"></circle>
  <path data-name="layer1" fill="#202020" d="M62 35l-4-4-6-12H40v22h22v-6z"></path>
  <path data-name="layer2" fill="#202020" d="M2 7h34v34H2z"></path>
  <path data-name="layer1" d="M2 51h2a9.9 9.9 0 0 1 2-6H2zm22 0h16a9.9 9.9 0 0 1 2-6H22a9.9 9.9 0 0 1 2 6zm36 0h2v-6h-4a9.9 9.9 0 0 1 2 6z"
  fill="#202020"></path>
</svg>