<svg xmlns="http://www.w3.org/2000/svg" viewBox="0 0 64 64" aria-labelledby="title"
aria-describedby="desc" role="img" xmlns:xlink="http://www.w3.org/1999/xlink">
  <title>Delivery Time</title>
  <desc>A solid styled icon from Orion Icon Library.</desc>
  <path data-name="layer2"
  d="M47 4a16 16 0 1 0 16 16A16 16 0 0 0 47 4zm8 20H45V12a2 2 0 0 1 4 0v8h6a2 2 0 0 1 0 4z"
  fill="#202020"></path>
  <circle data-name="layer2" cx="21" cy="56" r="4" fill="#202020"></circle>
  <circle data-name="layer2" cx="47" cy="56" r="4" fill="#202020"></circle>
  <path data-name="layer1" d="M47 40a20 20 0 0 1-19.6-16H16.8L12.9 7.5A2 2 0 0 0 11 6H3a2 2 0 0 0 0 4h6.4l9 38h33l3-9.5A19.9 19.9 0 0 1 47 40z"
  fill="#202020"></path>
</svg>