<svg xmlns="http://www.w3.org/2000/svg" viewBox="0 0 64 64" aria-labelledby="title"
aria-describedby="desc" role="img" xmlns:xlink="http://www.w3.org/1999/xlink">
  <title>Delivery Address</title>
  <desc>A solid styled icon from Orion Icon Library.</desc>
  <path data-name="layer1"
  d="M60 20.5h-5.1L38.5 2.2a2 2 0 0 0-3 2.7l14 15.7h-35l14-15.7a2 2 0 1 0-3-2.7L9.2 20.5H4a2 2 0 0 0 0 4h56a2 2 0 0 0 0-4z"
  fill="#202020"></path>
  <path data-name="layer2" d="M50 28.5a12 12 0 0 0-12 12 12.2 12.2 0 0 0 .1 1.5C39.2 51.9 50 62.5 50 62.5S60.8 51.9 61.9 42a12.2 12.2 0 0 0 .1-1.5 12 12 0 0 0-12-12zm0 15a3 3 0 1 1 3-3 3 3 0 0 1-3 3z"
  fill="#202020"></path>
  <path data-name="layer1" d="M34.1 42.5a15.8 15.8 0 0 1 5.3-14H7.3l4.8 24h25.4a28.2 28.2 0 0 1-3.4-10z"
  fill="#202020"></path>
</svg>