<svg xmlns="http://www.w3.org/2000/svg" viewBox="0 0 64 64" aria-labelledby="title"
aria-describedby="desc" role="img" xmlns:xlink="http://www.w3.org/1999/xlink">
  <title>Dollar Sign</title>
  <desc>A solid styled icon from Orion Icon Library.</desc>
  <path data-name="layer1"
  d="M32 2a30 30 0 1 0 30 30A30 30 0 0 0 32 2zm2 46.5V52a2 2 0 1 1-4 0v-3.5a10 10 0 0 1-8-9.8 2 2 0 1 1 4 0 6 6 0 0 0 6 6c3.5 0 6-2.2 6-5.3S35.8 35 31.6 34c-7.9-1.8-9.6-6-9.6-9.3a9.3 9.3 0 0 1 8-9.2V12a2 2 0 1 1 4 0v3.5a10 10 0 0 1 7.9 8.1 2 2 0 0 1-3.9.7 6 6 0 0 0-5.9-5c-3.5 0-6 2.2-6 5.3 0 1 0 3.9 6.4 5.4 8.3 1.9 9.6 6.6 9.6 9.3a9.3 9.3 0 0 1-8.1 9.2z"
  fill="#202020"></path>
</svg>