<svg xmlns="http://www.w3.org/2000/svg" viewBox="0 0 64 64" aria-labelledby="title"
aria-describedby="desc" role="img" xmlns:xlink="http://www.w3.org/1999/xlink">
  <title>Dollar Bill</title>
  <desc>A solid styled icon from Orion Icon Library.</desc>
  <path data-name="layer1"
  d="M62 24V14H2v10a8 8 0 1 1 0 16v10h60V40a8 8 0 1 1 0-16zM34 42.9v.8a2 2 0 0 1-4 0v-.8a7 7 0 0 1-5-6.7 2 2 0 0 1 4 0 3 3 0 0 0 3 3c1.5 0 3-.8 3-2.6s0-1.9-3.4-2.6c-5.7-1.3-6.6-4.7-6.6-6.5a6.5 6.5 0 0 1 5-6.3v-.8a2 2 0 1 1 4 0v.8a7 7 0 0 1 4.9 5.5 2 2 0 1 1-3.9.7 3 3 0 0 0-3-2.5c-1.5 0-3 .8-3 2.6s0 1.8 3.4 2.6c5.7 1.3 6.6 4.6 6.6 6.5a6.5 6.5 0 0 1-5 6.3z"
  fill="#202020"></path>
</svg>