<svg xmlns="http://www.w3.org/2000/svg" viewBox="0 0 64 64" aria-labelledby="title"
aria-describedby="desc" role="img" xmlns:xlink="http://www.w3.org/1999/xlink">
  <title>Download Package</title>
  <desc>A solid styled icon from Orion Icon Library.</desc>
  <path data-name="layer2"
  d="M46 30a16 16 0 1 0 16 16 16 16 0 0 0-16-16zm7.4 19.4L46 56.8l-7.4-7.4a2 2 0 1 1 2.8-2.8l2.6 2.6V38a2 2 0 1 1 4 0v11.2l2.6-2.6a2 2 0 1 1 2.8 2.8z"
  fill="#202020"></path>
  <path data-name="layer1" fill="#202020" d="M40.4 2H28v12h20.4l-8-12zM24 2H11.6l-8 12H24V2zm22 24a20.1 20.1 0 0 1 4 .4V18H2v32h24.4A20 20 0 0 1 46 26z"></path>
</svg>