<svg xmlns="http://www.w3.org/2000/svg" viewBox="0 0 64 64" aria-labelledby="title"
aria-describedby="desc" role="img" xmlns:xlink="http://www.w3.org/1999/xlink">
  <title>E Commerce 3 Solid 10</title>
  <desc>A solid styled icon from Orion Icon Library.</desc>
  <path data-name="layer1"
  d="M24.03 48.235L24.017 37H46.1v-6H24.012L24 18.507A10.304 10.304 0 0 1 34.5 8.253 10.59 10.59 0 0 1 45 19h6C51 9 43.598 2.25 34.5 2.25A16.418 16.418 0 0 0 18 18.634L18.012 31H10.1v6h7.918l.011 11.237c0 5.591-2.176 7.763-7.761 7.763H10.1v6h36v-6H22.279a15.726 15.726 0 0 0 1.75-7.765z"
  fill="#202020"></path>
</svg>