<svg xmlns="http://www.w3.org/2000/svg" viewBox="0 0 64 64" aria-labelledby="title"
aria-describedby="desc" role="img" xmlns:xlink="http://www.w3.org/1999/xlink">
  <title>E-commerce Cart</title>
  <desc>A solid styled icon from Orion Icon Library.</desc>
  <path data-name="layer2"
  d="M61 19H17.342l-4-16H3a3 3 0 0 0 0 6h5.658l10 40H53a3 3 0 0 0 0-6H23.342l-4.5-18H61a3 3 0 0 0 0-6z"
  fill="#202020"></path>
  <circle data-name="layer2" cx="23" cy="57" r="7" fill="#202020"></circle>
  <circle data-name="layer2" cx="49" cy="57" r="7" fill="#202020"></circle>
  <path data-name="layer1" d="M58 27.044H25a3 3 0 0 0 0 6h33a3 3 0 1 0 0-6zm-3 7.988H27a3 3 0 0 0 0 6h28a3 3 0 0 0 0-6z"
  fill="#202020"></path>
</svg>