<svg xmlns="http://www.w3.org/2000/svg" viewBox="0 0 64 64" aria-labelledby="title"
aria-describedby="desc" role="img" xmlns:xlink="http://www.w3.org/1999/xlink">
  <title>Entrance</title>
  <desc>A solid styled icon from Orion Icon Library.</desc>
  <path data-name="layer1"
  d="M52.2 34.7a2 2 0 0 1-1.4-.6l-1.4-1.4a2 2 0 1 1 2.8-2.8l1.4 1.4a2 2 0 0 1 .2 2.6l8.2-8.2-7-7A6.9 6.9 0 0 1 45.3 9l-7-7-27.7 27.7a2 2 0 0 1 2.6.2l1.4 1.4a2 2 0 0 1-2.8 2.8l-1.4-1.4a2 2 0 0 1-.2-2.6L2 38.3l7 7a6.9 6.9 0 0 1 9.7 9.7l7 7 27.8-27.7a2 2 0 0 1-1.3.4zm-32.1 5a2 2 0 0 1-2.8 0l-1.4-1.4a2 2 0 1 1 2.8-2.8l1.4 1.4a2 2 0 0 1 .1 2.8zm5.6 5.6a2 2 0 0 1-2.8 0l-1.4-1.4a2 2 0 0 1 2.8-2.9l1.4 1.4a2 2 0 0 1 0 2.9zm5.6 5.6a2 2 0 0 1-2.8 0l-1.4-1.4a2 2 0 1 1 2.8-2.8l1.4 1.3a2 2 0 0 1 0 2.9zm5.6-33.5a2 2 0 0 1-2.8 0L32.7 16a2 2 0 1 1 2.8-2.8l1.4 1.4a2 2 0 0 1 0 2.8zm5.6 5.6a2 2 0 0 1-2.8 0l-1.4-1.4a2 2 0 1 1 2.8-2.8l1.4 1.4a2 2 0 0 1 0 2.7zm5.6 5.6a2 2 0 0 1-2.8 0l-1.4-1.4a2 2 0 1 1 2.8-2.8l1.4 1.4a2 2 0 0 1 0 2.7z"
  fill="#202020"></path>
</svg>