<svg xmlns="http://www.w3.org/2000/svg" viewBox="0 0 64 64" aria-labelledby="title"
aria-describedby="desc" role="img" xmlns:xlink="http://www.w3.org/1999/xlink">
  <title>Error Cart</title>
  <desc>A solid styled icon from Orion Icon Library.</desc>
  <path data-name="layer2"
  d="M47 3L31 33h32zm-2 12a2 2 0 1 1 4 0v6a2 2 0 1 1-4 0zm2 14a2 2 0 0 1-2-2 2 2 0 0 1 .6-1.4 2.1 2.1 0 0 1 2.8 0A2 2 0 0 1 49 27a2 2 0 0 1-2 2z"
  fill="#202020"></path>
  <circle data-name="layer2" cx="21" cy="57" r="4" fill="#202020"></circle>
  <circle data-name="layer2" cx="47" cy="57" r="4" fill="#202020"></circle>
  <path data-name="layer1" d="M31 37a4 4 0 0 1-3.5-5.9l3.2-6.1H16.8L12.9 8.5A2 2 0 0 0 11 7H3a2 2 0 0 0 0 4h6.4l9 38h33l3.8-12z"
  fill="#202020"></path>
</svg>