<svg xmlns="http://www.w3.org/2000/svg" viewBox="0 0 64 64" aria-labelledby="title"
aria-describedby="desc" role="img" xmlns:xlink="http://www.w3.org/1999/xlink">
  <title>Euro Bill</title>
  <desc>A solid styled icon from Orion Icon Library.</desc>
  <path data-name="layer1"
  d="M62 24V14H2v10a8 8 0 0 1 0 16v10h60V40a8 8 0 0 1 0-16zm-24 4a2 2 0 0 1 0 4h-9.9a8.9 8.9 0 0 0-.1 1 9.1 9.1 0 0 0 .1 1H36a2 2 0 0 1 0 4h-6.5a9 9 0 0 0 7.5 4h1.5a2 2 0 0 1 0 4H37a13 13 0 0 1-12-8h-1a2 2 0 0 1 0-4c0-.3-.1-.7-.1-1s0-.7.1-1h-2a2 2 0 0 1 0-4h3a13 13 0 0 1 12-8h1.5a2 2 0 0 1 0 4H37a9 9 0 0 0-7.5 4z"
  fill="#202020"></path>
</svg>