<svg xmlns="http://www.w3.org/2000/svg" viewBox="0 0 64 64" aria-labelledby="title"
aria-describedby="desc" role="img" xmlns:xlink="http://www.w3.org/1999/xlink">
  <title>Euro</title>
  <desc>A solid styled icon from Orion Icon Library.</desc>
  <path data-name="layer1"
  d="M45.3 8H49V2h-3.7a30.22 30.22 0 0 0-29.178 23H11v6h4.324c-.01 0-.024.658-.024.977 0 1.011.052 2.023.15 3.023H14v6h2.68A30.253 30.253 0 0 0 45.3 62H49v-6h-3.7a23.716 23.716 0 0 1-22.243-15H40v-6H21.494a24.747 24.747 0 0 1-.194-3.023c0-.32.012-.977.024-.977H43v-6H22.33A23.82 23.82 0 0 1 45.3 8z"
  fill="#202020"></path>
</svg>