<svg xmlns="http://www.w3.org/2000/svg" viewBox="0 0 64 64" aria-labelledby="title"
aria-describedby="desc" role="img" xmlns:xlink="http://www.w3.org/1999/xlink">
  <title>Euro Sign</title>
  <desc>A solid styled icon from Orion Icon Library.</desc>
  <path data-name="layer1"
  d="M32 2a30 30 0 1 0 30 30A30 30 0 0 0 32 2zm4 26a2 2 0 0 1 0 4H21.9a13.9 13.9 0 0 0 .2 2H32a2 2 0 0 1 0 4h-8.8a14 14 0 0 0 12.6 8H38a2 2 0 0 1 0 4h-2.1a18 18 0 0 1-17-12H18a2 2 0 0 1 0-4 18 18 0 0 1-.1-2H16a2 2 0 1 1 0-4h2.3a18 18 0 0 1 17.6-14H38a2 2 0 0 1 0 4h-2.1a14 14 0 0 0-13.4 10z"
  fill="#202020"></path>
</svg>