<svg xmlns="http://www.w3.org/2000/svg" viewBox="0 0 64 64" aria-labelledby="title"
aria-describedby="desc" role="img" xmlns:xlink="http://www.w3.org/1999/xlink">
  <title>Forklift</title>
  <desc>A solid styled icon from Orion Icon Library.</desc>
  <circle data-name="layer1"
  cx="9" cy="52" r="5" fill="#202020"></circle>
  <path data-name="layer2" d="M62 51H50v-6h6.1a2 2 0 0 0 0-4H50V9a2 2 0 1 0-4 0v46h16a2 2 0 0 0 0-4z"
  fill="#202020"></path>
  <circle data-name="layer1" cx="30" cy="49" r="8" fill="#202020"></circle>
  <path data-name="layer1" d="M.1 53a8.9 8.9 0 0 1-.1-1v1zM18 13H4v20H3a3 3 0 0 0-3 3v16a9 9 0 1 1 18 0 9.3 9.3 0 0 1-.1 1h.8a11.9 11.9 0 0 1 4.6-14L18 33H8V17h10.1c.1 0 9.3-.5 15 5 3.2 3 4.8 7.4 4.8 13v2.5l-6.5-7.8a2 2 0 0 0-3.1 2.6l4.2 5A12 12 0 0 1 40.4 55H42V35c0-6.7-2.1-12.1-6.1-15.9C29 12.6 19 12.9 18 13z"
  fill="#202020"></path>
</svg>