<svg xmlns="http://www.w3.org/2000/svg" viewBox="0 0 64 64" aria-labelledby="title"
aria-describedby="desc" role="img" xmlns:xlink="http://www.w3.org/1999/xlink">
  <title>Fragile</title>
  <desc>A solid styled icon from Orion Icon Library.</desc>
  <path data-name="layer1"
  d="M48 27c0-.3 0-.7-.1-1.1a17.6 17.6 0 0 0-.3-2.3C46.4 15.6 42 1 42 1h-9.8l1.9 4-1.9 5.5 4 4-4.3 13.1A2 2 0 0 1 30 29h-.6a2 2 0 0 1-1.3-2.5l3.6-10.8-4-4 2.1-6.3-1.6-3.5A2 2 0 0 1 28 1h-6s-4.4 14.6-5.7 22.6a17.6 17.6 0 0 0-.3 2.3c0 .4-.1.8-.1 1.1 0 8.2 6.1 13.2 14 13.9V59H24a2 2 0 0 0 0 4h16a2 2 0 0 0 0-4h-6V41c7.9-.8 14-5.8 14-14z"
  fill="#202020"></path>
</svg>