<svg xmlns="http://www.w3.org/2000/svg" viewBox="0 0 64 64" aria-labelledby="title"
aria-describedby="desc" role="img" xmlns:xlink="http://www.w3.org/1999/xlink">
  <title>Giftbox</title>
  <desc>A solid styled icon from Orion Icon Library.</desc>
  <path data-name="layer1"
  d="M50.6 18.5A10 10 0 0 0 44 1a9.4 9.4 0 0 0-7.8 3.7 27.1 27.1 0 0 0-4.2 8.2 27.1 27.1 0 0 0-4.2-8.2A9.3 9.3 0 0 0 20 1a10 10 0 0 0-6.6 17.5c2.7 2.4 8.3 4.1 12.6 5.2V35h12V23.7c4.3-1.1 9.9-2.8 12.6-5.2zM39.3 7.3h.1A5.4 5.4 0 0 1 44 5a6 6 0 0 1 4 10.5c-2.5 2.2-9.4 4.1-13.8 5 .7-5.2 3.3-11.2 5.1-13.2zM14 11a6 6 0 0 1 6-6 5.3 5.3 0 0 1 4.6 2.2h.1c1.8 2 4.4 8 5.1 13.2-4.4-1-11.3-2.8-13.8-5a6 6 0 0 1-2-4.4z"
  fill="#202020"></path>
  <path data-name="layer2" fill="#202020" d="M42 23h18v12H42zM4 23h18v12H4zm4 16h14v24H8zm34 0h14v24H42z"></path>
  <path data-name="layer1" fill="#202020" d="M26 39h12v24H26z"></path>
</svg>