<svg xmlns="http://www.w3.org/2000/svg" viewBox="0 0 64 64" aria-labelledby="title"
aria-describedby="desc" role="img" xmlns:xlink="http://www.w3.org/1999/xlink">
  <title>Grocery Cart</title>
  <desc>A solid styled icon from Orion Icon Library.</desc>
  <path data-name="layer1"
  d="M23 33h34a7 7 0 0 0 0-14H17.342l-4-16H3a3 3 0 0 0 0 6h5.658l4 16H57a1 1 0 0 1 0 2H23a7 7 0 0 0 0 14h28a1 1 0 0 1 0 2H19a3 3 0 0 0 0 6h32a7 7 0 0 0 0-14H23a1 1 0 0 1 0-2z"
  fill="#202020"></path>
  <circle data-name="layer1" cx="23" cy="57" r="7" fill="#202020"></circle>
  <circle data-name="layer1" cx="49" cy="57" r="7" fill="#202020"></circle>
</svg>