<svg xmlns="http://www.w3.org/2000/svg" viewBox="0 0 64 64" aria-labelledby="title"
aria-describedby="desc" role="img" xmlns:xlink="http://www.w3.org/1999/xlink">
  <title>Grocery Basket</title>
  <desc>A solid styled icon from Orion Icon Library.</desc>
  <path data-name="layer2"
  d="M58 6a4 4 0 0 0-4 4 3.9 3.9 0 0 0 .1 1L30.6 34.6a2 2 0 1 0 2.8 2.8L57 13.9h1a4 4 0 0 0 0-8z"
  fill="#202020"></path>
  <path data-name="layer1" d="M29.5 30l4-4H4a2 2 0 1 0 0 4h25.5zm6.7 10.2a6 6 0 0 1-9.8-6.2H7.3L12 58h40l4.8-24H42.5zM60 26h-9.5l-4 4H60a2 2 0 0 0 0-4z"
  fill="#202020"></path>
</svg>