<svg xmlns="http://www.w3.org/2000/svg" viewBox="0 0 64 64" aria-labelledby="title"
aria-describedby="desc" role="img" xmlns:xlink="http://www.w3.org/1999/xlink">
  <title>Hand Purse</title>
  <desc>A solid styled icon from Orion Icon Library.</desc>
  <path data-name="layer1"
  d="M54 23h-2v-2a20 20 0 0 0-40 0v2h-2S4 45 4 51a12 12 0 0 0 12 12h32a12 12 0 0 0 12-12c0-6-6-28-6-28zm-38-2a16 16 0 0 1 32 0v2H16zm34 18a2 2 0 0 1-4 0v-4H16a2 2 0 0 1 0-4h32a2 2 0 0 1 2 2z"
  fill="#202020"></path>
</svg>