<svg xmlns="http://www.w3.org/2000/svg" viewBox="0 0 64 64" aria-labelledby="title"
aria-describedby="desc" role="img" xmlns:xlink="http://www.w3.org/1999/xlink">
  <title>Hand Truck</title>
  <desc>A solid styled icon from Orion Icon Library.</desc>
  <path data-name="layer2"
  d="M61.6 41.5L55 39.3l-22.5 8a8 8 0 0 0-7.5-5.2v-.4L12.4 8.1H3a2 2 0 1 0 0 4h6.6l11.5 31a8 8 0 1 0 11.8 8.2h.7L55 43.5l5.3 1.8a2 2 0 0 0 1.3-3.8zm-35.2 10a2 2 0 0 1-1.4.6 2 2 0 0 1-1.4-3.4 2.1 2.1 0 0 1 2.8 0 2 2 0 0 1 0 2.8zM40.1 9.3l-3.6 1.3 3.6-1.3z"
  fill="#202020"></path>
  <path data-name="layer1" fill="#202020" d="M30.9 42.6L59 32.4 49.5 5.9l-9.4 3.4 4.6 13.1-9 3.4L31 12.6l5.5-2-15.1 5.5 9.5 26.5z"></path>
</svg>