<svg xmlns="http://www.w3.org/2000/svg" viewBox="0 0 64 64" aria-labelledby="title"
aria-describedby="desc" role="img" xmlns:xlink="http://www.w3.org/1999/xlink">
  <title>Label Tag</title>
  <desc>A solid styled icon from Orion Icon Library.</desc>
  <path data-name="layer1"
  d="M59.6 4.4L38.4 3 3 38.4 25.6 61 61 25.6zM29.9 42.6a2 2 0 0 1-2.8 0l-8.5-8.5a2 2 0 1 1 2.8-2.8l8.5 8.5a2 2 0 0 1 0 2.8zm2.8-8.5a2 2 0 0 1-2.8 0l-5.7-5.7a2 2 0 0 1 2.8-2.8l5.7 5.7a2 2 0 0 1 0 2.8zm11.3 0a2 2 0 0 1-2.8 0L29.9 22.8a2 2 0 0 1 2.8-2.8L44 31.3a2 2 0 0 1 0 2.8zm7.1-15.6a4 4 0 1 1 0-5.7 4 4 0 0 1 0 5.8z"
  fill="#202020"></path>
</svg>