<svg viewBox="0 0 64 64" xmlns="http://www.w3.org/2000/svg" aria-labelledby="title"
aria-describedby="desc" role="img" xmlns:xlink="http://www.w3.org/1999/xlink">
  <title>Law</title>
  <desc>A solid styled icon from Orion Icon Library.</desc>
  <path fill="#202020"
  d="M62.993 31.941a1.861 1.861 0 0 0-.022-.22c-.008-.06-.016-.121-.029-.181a1.7 1.7 0 0 0-.056-.18 1.776 1.776 0 0 0-.077-.2c-.008-.019-.012-.038-.02-.056l-10-20c-.006-.011-.015-.02-.02-.03a2.054 2.054 0 0 0-.28-.407c-.022-.024-.048-.044-.07-.067a2.005 2.005 0 0 0-.3-.251c-.041-.028-.081-.055-.125-.079s-.059-.042-.094-.06a1.942 1.942 0 0 0-.3-.11c-.021-.007-.04-.018-.062-.024a2.014 2.014 0 0 0-.5-.07C51.031 10 51.018 10 51 10H37.648a5.99 5.99 0 0 0-11.3 0H13c-.016 0-.03.006-.046.007a1.98 1.98 0 0 0-.492.069c-.023.007-.044.019-.066.025a1.94 1.94 0 0 0-.29.11c-.034.018-.061.041-.094.06s-.084.051-.125.079a2 2 0 0 0-.3.251c-.023.023-.049.043-.071.068a1.954 1.954 0 0 0-.279.405c-.006.012-.016.021-.021.031l-9.994 20c-.009.018-.013.037-.02.056a1.727 1.727 0 0 0-.077.2 1.651 1.651 0 0 0-.056.179 1.55 1.55 0 0 0-.029.181 1.859 1.859 0 0 0-.022.22c0 .02-.006.038-.006.058a12 12 0 1 0 24 0c0-.02 0-.037-.006-.057a1.958 1.958 0 0 0-.022-.226 1.685 1.685 0 0 0-.029-.174 1.655 1.655 0 0 0-.058-.187 1.93 1.93 0 0 0-.073-.193c-.009-.02-.013-.04-.022-.058L16.232 14H26.35A6.018 6.018 0 0 0 30 17.65V54h-8a2 2 0 0 0 0 4h20a2 2 0 0 0 0-4h-8V17.65A6.018 6.018 0 0 0 37.648 14h10.118L39.21 31.1c-.009.018-.013.038-.022.057a1.894 1.894 0 0 0-.075.2 1.8 1.8 0 0 0-.057.184 1.743 1.743 0 0 0-.029.177 1.9 1.9 0 0 0-.023.224c0 .02-.006.037-.006.057a12 12 0 1 0 24 0c.002-.019-.004-.038-.005-.058zM57.764 30H44.236L51 16.472zM13 16.472L19.764 30H6.236z"
  data-name="layer1"></path>
</svg>