<svg xmlns="http://www.w3.org/2000/svg" viewBox="0 0 64 64" aria-labelledby="title"
aria-describedby="desc" role="img" xmlns:xlink="http://www.w3.org/1999/xlink">
  <title>Merchandise Bag</title>
  <desc>A solid styled icon from Orion Icon Library.</desc>
  <path data-name="layer2"
  fill="#202020" d="M51.6 17h-5.7v5.7l8.5 8.4 5.6-5.6-8.4-8.5z"></path>
  <path data-name="layer1" d="M43.1 25.5l-1.2-1.2V21H40v-6a12 12 0 1 0-24 0v6H6L4 61h48l-1.7-28.3zM20 15a8 8 0 1 1 16 0v6H20zm19.9 36h-24a2 2 0 0 1 0-4h24a2 2 0 0 1 0 4zm0-10h-24a2 2 0 0 1 0-4h24a2 2 0 0 1 0 4z"
  fill="#202020"></path>
</svg>