<svg xmlns="http://www.w3.org/2000/svg" viewBox="0 0 64 64" aria-labelledby="title"
aria-describedby="desc" role="img" xmlns:xlink="http://www.w3.org/1999/xlink">
  <title>Money Bag Pound</title>
  <desc>A solid styled icon from Orion Icon Library.</desc>
  <path data-name="layer2"
  d="M52.2 12.7a2 2 0 0 0-2.8-.3A17.4 17.4 0 0 1 38.6 16a3.8 3.8 0 0 0 .4 4 21.2 21.2 0 0 0 12.9-4.5 2 2 0 0 0 .3-2.8zM57 24.4a10 10 0 0 0-8.3-4.4 2 2 0 0 0 0 4 6 6 0 0 1 5 2.6 2 2 0 0 0 3.3-2.2z"
  fill="#202020"></path>
  <path data-name="layer1" d="M39 20.1H22.4C17.6 24.6 6.7 36.4 6.7 52a10 10 0 0 0 10 10h28a10 10 0 0 0 10-10c0-15.5-10.8-27.4-15.7-31.9zM38.7 36a2 2 0 0 1-2-2 4 4 0 1 0-8 0v6h8a2 2 0 0 1 0 4h-8v3.2a8.6 8.6 0 0 1-.4 2.8h9.6a2 2 0 0 1 0 4h-16a2 2 0 0 1 0-4c2.1 0 2.8-.7 2.8-2.8V44h-2a2 2 0 0 1 0-4h2v-6a8 8 0 1 1 16 0 2 2 0 0 1-2 2zm6-29.9c-5.9 0-6.3-4.1-10-4.1s-4.3 4-10 4c-4 0-12-5.6-12-2s6.3 8.8 9.8 12h16.1c4.9-5.2 8.1-9.9 6.1-9.9z"
  fill="#202020"></path>
</svg>