<svg xmlns="http://www.w3.org/2000/svg" viewBox="0 0 64 64" aria-labelledby="title"
aria-describedby="desc" role="img" xmlns:xlink="http://www.w3.org/1999/xlink">
  <title>Money Bag Yen</title>
  <desc>A solid styled icon from Orion Icon Library.</desc>
  <path data-name="layer2"
  d="M52.2 12.7a2 2 0 0 0-2.8-.3A17.4 17.4 0 0 1 38.6 16a3.8 3.8 0 0 0 .4 4 21.2 21.2 0 0 0 12.9-4.5 2 2 0 0 0 .3-2.8zM57 24.4a10 10 0 0 0-8.3-4.4 2 2 0 0 0 0 4 6 6 0 0 1 5 2.6 2 2 0 0 0 3.3-2.2z"
  fill="#202020"></path>
  <path data-name="layer1" d="M39 20.1H22.4C17.6 24.6 6.7 36.4 6.7 52a10 10 0 0 0 10 10h28a10 10 0 0 0 10-10c0-15.5-10.8-27.4-15.7-31.9zm1.3 11.2l-7 8.8h2.9a2 2 0 0 1 0 4h-3.5v2h3.6a2 2 0 0 1 0 4h-3.6v4a2 2 0 1 1-4 0V50h-3.6a2 2 0 0 1 0-4h3.6v-2h-3.6a2 2 0 0 1 0-4H28l-6.9-8.8a2 2 0 1 1 3.1-2.5l6.4 8.1 6.5-8.2a2 2 0 0 1 3.1 2.5zm4.4-25.2c-5.9 0-6.3-4.1-10-4.1s-4.3 4-10 4c-4 0-12-5.6-12-2s6.3 8.8 9.8 12h16.1c4.9-5.2 8.1-9.9 6.1-9.9z"
  fill="#202020"></path>
</svg>