<svg xmlns="http://www.w3.org/2000/svg" viewBox="0 0 64 64" aria-labelledby="title"
aria-describedby="desc" role="img" xmlns:xlink="http://www.w3.org/1999/xlink">
  <title>Money</title>
  <desc>A solid styled icon from Orion Icon Library.</desc>
  <path data-name="layer1"
  d="M2 40v9.5a40.1 40.1 0 0 1 10.1-2.9l-2.2.3A8 8 0 0 0 2 40zm8-26a8.2 8.2 0 0 0-.1-1.2C4.1 14 2 16.2 2 16.2V22a8 8 0 0 0 8-8z"
  fill="#202020"></path>
  <path data-name="layer2" d="M50.1 17.9l2-.3a48 48 0 0 1-6.1.4c-12.8 0-16-6-28-6l-4.1.2A12.2 12.2 0 0 1 14 14 12 12 0 0 1 2 26v10a12 12 0 0 1 11.9 10.4A49.4 49.4 0 0 1 20 46c10.8 0 18.4 6 28 6h2.2a12.1 12.1 0 0 1-.2-2 12 12 0 0 1 12-12V28a11.9 11.9 0 0 1-11.9-10.1zM33.8 41.6c-5.4 0-10.6-4.5-11.6-10s2.7-10 8.1-10S41 26 41.9 31.6s-2.6 10-8.1 10z"
  fill="#202020"></path>
  <path data-name="layer1" d="M54.1 17.3A8 8 0 0 0 62 24v-8.5a67.3 67.3 0 0 1-7.9 1.8zM54 50a8.2 8.2 0 0 0 .1 1.5l-1.9.4c6.7-.6 9.8-2.3 9.8-2.3V42a8 8 0 0 0-8 8z"
  fill="#202020"></path>
</svg>