<svg xmlns="http://www.w3.org/2000/svg" viewBox="0 0 64 64" aria-labelledby="title"
aria-describedby="desc" role="img" xmlns:xlink="http://www.w3.org/1999/xlink">
  <title>Money Box</title>
  <desc>A solid styled icon from Orion Icon Library.</desc>
  <circle data-name="layer2"
  cx="35.5" cy="14" r="8" fill="#202020"></circle>
  <path data-name="layer1" d="M61.3 36.9c-.5 0-2.4-.3-2.8-.8s-1.5-4.9-3.7-8.2a11.7 11.7 0 0 1 4.1-5.2c-2.8-1.4-6.1-2.6-11.8-1.9l-1.5-.3a12.1 12.1 0 0 1-2.6 2.9 2 2 0 0 1-1.8 3.5 18.2 18.2 0 0 0-11.4.1h-.6a2 2 0 0 1-1.1-3.7 12.1 12.1 0 0 1-2.6-2.9 18 18 0 0 0-2.8 1.2c-7 3.7-8.8 9.5-9.1 14.4h-1.2l-2.7-.3a12.7 12.7 0 0 0-5.5-3.6 2 2 0 1 0-1.4 3.7l1.2.5a4.1 4.1 0 0 0-2.5 3.3 4.4 4.4 0 0 0 1.6 4.1 4.9 4.9 0 0 0 3 1 5.2 5.2 0 0 0 1.9-.4 5.3 5.3 0 0 0 3.1-4.6h2.4c.5 5.1 3.2 11.8 10.6 17.9h7.2v-3.3l8.9.2a20.1 20.1 0 0 0 2.6 3.5h6.7v-5.7s4.5-3.9 6-5.7c2.9.3 5.9-1.6 7-8.3.2-1.1-.7-1.4-1.2-1.4zM6.6 40.8a1 1 0 0 1-1-.1.4.4 0 0 1-.1-.4c0-.2.3-.5 1.7-.6a1.5 1.5 0 0 1-.6 1.1zM49.5 36a2 2 0 1 1 2-2 2 2 0 0 1-2 2z"
  fill="#202020"></path>
</svg>