<svg xmlns="http://www.w3.org/2000/svg" viewBox="0 0 64 64" aria-labelledby="title"
aria-describedby="desc" role="img" xmlns:xlink="http://www.w3.org/1999/xlink">
  <title>New Sticker</title>
  <desc>A solid styled icon from Orion Icon Library.</desc>
  <path data-name="layer2"
  d="M32 2c-3.5 19.2 5.2 30.8 22 30.8a44.5 44.5 0 0 0 8-.8L32 2z" fill="#202020"></path>
  <path data-name="layer1" d="M54 36.8h-3.2l-1 3.4h-3.4l-1.5-4.4L43 35l-1.8 5h-3.4l-2.6-9.7a22 22 0 0 1-2.1-2.2L32 26.7V28h-6v2h4v4h-4v2h6v4H22V24h8.3c-3-5.8-3.9-13.2-2.5-21.7a30 30 0 1 0 33.9 33.8 47.8 47.8 0 0 1-7.7.7zM20 40h-3.2L12 32.7V40H8V24h3.1l.6.9 4.3 6.6V24h4z"
  fill="#202020"></path>
</svg>