<svg xmlns="http://www.w3.org/2000/svg" viewBox="0 0 64 64" aria-labelledby="title"
aria-describedby="desc" role="img" xmlns:xlink="http://www.w3.org/1999/xlink">
  <title>Old Cash Register</title>
  <desc>A solid styled icon from Orion Icon Library.</desc>
  <path data-name="layer1"
  d="M59 46H2v13a3 3 0 0 0 3 3h54a3 3 0 0 0 3-3V49a3 3 0 0 0-3-3z" fill="#202020"></path>
  <path data-name="layer2" d="M14 20a6 6 0 1 0 4.2 10.3L32 36.4a4 4 0 1 0 1.6-3.7l-13.6-6a6 6 0 0 0-6-6.7zm0 8a2 2 0 1 1 2-2 2 2 0 0 1-2 2z"
  fill="#202020"></path>
  <path data-name="layer1" d="M28.8 39.3l-10.1-4.4A10 10 0 1 1 23.8 24l9.8 4.4A7.9 7.9 0 0 1 36 28a8 8 0 0 1 5.3 14h11.2l-.5-1.4 4.4-1.7.4 1.2a2 2 0 0 0 1.9 1.3h.7a2 2 0 0 0 1.2-2.6l-2.3-6.2a2 2 0 1 0-3.8 1.4l.5 1.2-4.5 1.7h-.1a33.9 33.9 0 0 0-3.8-5.9l5.1-4.1 1 1.2a2 2 0 1 0 3.1-2.6l-2.2-2.7-2.3-2.8a2 2 0 1 0-3.1 2.6l1 1.2-5.1 4.1H44a34.1 34.1 0 0 0-5.3-4.3l3.2-4.9 1.1.7a2 2 0 0 0 2.1-3.4l-5.7-3.5a2 2 0 0 0-2.1 3.4l1.2.7-3.2 4.9h-.1L32 20.2V5a3 3 0 0 0-3-3H5a3 3 0 0 0-3 3v37h28.7a8 8 0 0 1-1.9-2.7z"
  fill="#202020"></path>
</svg>