<svg xmlns="http://www.w3.org/2000/svg" viewBox="0 0 64 64" aria-labelledby="title"
aria-describedby="desc" role="img" xmlns:xlink="http://www.w3.org/1999/xlink">
  <title>On Sale Sticker</title>
  <desc>A solid styled icon from Orion Icon Library.</desc>
  <path data-name="layer2"
  d="M53.7 32.8h.4A44.7 44.7 0 0 0 62 32L32 2c-3.5 19 5.1 30.6 21.7 30.8z"
  fill="#202020"></path>
  <circle data-name="layer1" cx="23" cy="23" r="3" fill="#202020"></circle>
  <circle data-name="layer1" cx="41" cy="41" r="3" fill="#202020"></circle>
  <path data-name="layer1" d="M52.9 32.7zm-7.3 3.1a7 7 0 1 1-4.9-1.8 22.9 22.9 0 0 1-4.8-3.1L19.4 47.4a2 2 0 0 1-2.8-2.8l16.5-16.5a23 23 0 0 1-3.1-4.8 7 7 0 1 1-1.8-4.9 39.6 39.6 0 0 1-.3-16.1 30 30 0 1 0 33.8 33.8 47.9 47.9 0 0 1-7.7.7 34.1 34.1 0 0 1-8.4-1z"
  fill="#202020"></path>
</svg>