<svg xmlns="http://www.w3.org/2000/svg" viewBox="0 0 64 64" aria-labelledby="title"
aria-describedby="desc" role="img" xmlns:xlink="http://www.w3.org/1999/xlink">
  <title>Online Payment</title>
  <desc>A solid styled icon from Orion Icon Library.</desc>
  <path data-name="layer2"
  d="M60 18H31a3.9 3.9 0 0 0-4 3l-4 22a3 3 0 0 0 3 3h29a3.9 3.9 0 0 0 4-3l4-22a3 3 0 0 0-3-3z"
  fill="#202020"></path>
  <path data-name="layer1" d="M19 20H3a2 2 0 0 0 0 4h16a2 2 0 0 0 0-4zm-2 8H7a2 2 0 0 0 0 4h10a2 2 0 0 0 0-4zm-2 8h-4a2 2 0 0 0 0 4h4a2 2 0 0 0 0-4z"
  fill="#202020"></path>
</svg>