<svg xmlns="http://www.w3.org/2000/svg" viewBox="0 0 64 64" aria-labelledby="title"
aria-describedby="desc" role="img" xmlns:xlink="http://www.w3.org/1999/xlink">
  <title>Open Box</title>
  <desc>A solid styled icon from Orion Icon Library.</desc>
  <path data-name="layer2"
  d="M21.5 46.9L10 40.4v10.3l19.9 10.5V40.4l-6.1 6.2a2 2 0 0 1-2.3.3zm18.8-.3L34 40.3v20.9l20-10.5V40.4L42.7 47a2 2 0 0 1-2.4-.4z"
  fill="#202020"></path>
  <path data-name="layer1" d="M55.3 22.2l6.7-8L40.3 2.8l-7 7.9L54.9 22zM2 14.3l6.7 8.2.3-.2 21.6-11.6-6.9-7.9zm6.7 9.2l-6.7 8 20.4 11.7 8-8.2L9.1 23.8zm46.2 0L33.4 35l8.3 8.3L62 31.5l-6.7-8.2z"
  fill="#202020"></path>
</svg>