<svg xmlns="http://www.w3.org/2000/svg" viewBox="0 0 64 64" aria-labelledby="title"
aria-describedby="desc" role="img" xmlns:xlink="http://www.w3.org/1999/xlink">
  <title>Open 24</title>
  <desc>A solid styled icon from Orion Icon Library.</desc>
  <path data-name="layer2"
  d="M62 19h-2v-4a2 2 0 0 0-4 0v4h-5l4.8-11.2a2 2 0 1 0-3.7-1.6L45 23h11v4a2 2 0 0 0 4 0v-4h2a2 2 0 0 0 0-4z"
  fill="#202020"></path>
  <path data-name="layer2" d="M44 25h-7.7l5.9-6.9a8 8 0 0 0-11.5-11 2 2 0 1 0 2.7 3A4 4 0 0 1 40 13a3.9 3.9 0 0 1-.9 2.5L27.7 29H44a2 2 0 0 0 0-4z"
  fill="#202020"></path>
  <circle data-name="layer2" cx="20" cy="55" r="4" fill="#202020"></circle>
  <circle data-name="layer2" cx="46" cy="55" r="4" fill="#202020"></circle>
  <path data-name="layer1" d="M55.1 32.3A6 6 0 0 1 52 27h-2a6 6 0 0 1-6 6H27.7a4 4 0 0 1-3-6.6l2.8-3.4H15.8L11.9 6.5A2 2 0 0 0 10 5H2a2 2 0 0 0 0 4h6.4l9 38h33l1.6-4.9z"
  fill="#202020"></path>
</svg>