<svg xmlns="http://www.w3.org/2000/svg" viewBox="0 0 64 64" aria-labelledby="title"
aria-describedby="desc" role="img" xmlns:xlink="http://www.w3.org/1999/xlink">
  <title>Order Completed</title>
  <desc>A solid styled icon from Orion Icon Library.</desc>
  <path data-name="layer1"
  d="M60 20.5h-5.1L38.5 2.2a2 2 0 1 0-3 2.7l14 15.7h-35l14-15.7a2 2 0 0 0-3-2.7L9.2 20.5H4a2 2 0 0 0 0 4h56a2 2 0 0 0 0-4z"
  fill="#202020"></path>
  <path data-name="layer2" d="M34 30.5v11.8a22.4 22.4 0 0 0 14 20.2 22.4 22.4 0 0 0 14-20.2V30.5zm23 11l-10 10-6.3-6.3a2 2 0 0 1 2.8-2.8l3.4 3.4 7.2-7.2a2 2 0 0 1 2.9 2.9z"
  fill="#202020"></path>
  <path data-name="layer1" d="M43.5 42.4a2 2 0 0 0-2.8 0 2 2 0 0 1 2.8 0zM30 42.3V28.5H7.2l4.8 24h20.3A25.2 25.2 0 0 1 30 42.3z"
  fill="#202020"></path>
</svg>