<svg xmlns="http://www.w3.org/2000/svg" viewBox="0 0 64 64" aria-labelledby="title"
aria-describedby="desc" role="img" xmlns:xlink="http://www.w3.org/1999/xlink">
  <title>Out Of Stock</title>
  <desc>A solid styled icon from Orion Icon Library.</desc>
  <path data-name="layer1"
  d="M56.6 23.5H59a2 2 0 0 0 0-4h-5.1L37.5 1.2a2 2 0 1 0-3 2.7l14 15.7h-35l14-15.7a2 2 0 1 0-3-2.7L8.2 19.5H3a2 2 0 0 0 0 4h53.6zm-1.4 7.2l.6-3.2H6.3l4.8 24H28a18 18 0 1 0 27.2-20.8zm-10.2.8a13.9 13.9 0 0 1 8.4 2.8L33.8 53.9A14 14 0 0 1 45 31.5zm0 28a13.9 13.9 0 0 1-8.4-2.8l19.6-19.6A14 14 0 0 1 45 59.5z"
  fill="#202020"></path>
</svg>