<svg xmlns="http://www.w3.org/2000/svg" viewBox="0 0 64 64" aria-labelledby="title"
aria-describedby="desc" role="img" xmlns:xlink="http://www.w3.org/1999/xlink">
  <title>Pass</title>
  <desc>A solid styled icon from Orion Icon Library.</desc>
  <path data-name="layer1"
  d="M58 20.4L43.6 6a7.1 7.1 0 0 1-10.1 0L6 33.5a7.1 7.1 0 0 1 .2 9.9l14.4 14.4a7.1 7.1 0 0 1 9.9.2L58 30.5a7.1 7.1 0 0 1 0-10.1zM47.9 29L29.2 47.7a3.1 3.1 0 0 1-4.3 0l-8.6-8.6a3.1 3.1 0 0 1 0-4.3L35 16.1a3.1 3.1 0 0 1 4.3 0l8.6 8.6a3.1 3.1 0 0 1 0 4.3z"
  fill="#202020"></path>
</svg>