<svg xmlns="http://www.w3.org/2000/svg" viewBox="0 0 64 64" aria-labelledby="title"
aria-describedby="desc" role="img" xmlns:xlink="http://www.w3.org/1999/xlink">
  <title>Pay by Card</title>
  <desc>A solid styled icon from Orion Icon Library.</desc>
  <path data-name="layer2"
  d="M25.7 40.5l-7.2-7.2A9 9 0 0 1 28 18.5V2H14a2 2 0 0 0-2 2v38a2 2 0 0 0 2 2h11.8a17.5 17.5 0 0 1-.1-3.5zM40 4a2 2 0 0 0-2-2h-6v19.3l8 8z"
  fill="#202020"></path>
  <path data-name="layer1" d="M48.7 28.7L44 23.9v12.9l-1.2 1-14.4-14.3a5 5 0 1 0-7 7l8.6 8.6a12.9 12.9 0 0 0 1 8.9h-8.7a19.5 19.5 0 0 0 3 7.5C28.1 60 28 61.3 28 62h24s.1-13.4.1-22c-.1-5.8-.9-8.9-3.4-11.3z"
  fill="#202020"></path>
</svg>