<svg xmlns="http://www.w3.org/2000/svg" viewBox="0 0 64 64" aria-labelledby="title"
aria-describedby="desc" role="img" xmlns:xlink="http://www.w3.org/1999/xlink">
  <title>Percentage</title>
  <desc>A solid styled icon from Orion Icon Library.</desc>
  <path data-name="layer2"
  d="M26 16a12 12 0 1 0-12 11.999A12.014 12.014 0 0 0 26 16zM8 16a6 6 0 1 1 6 5.999A6.007 6.007 0 0 1 8 16zm42 20.398a12 12 0 1 0 12 12 12.014 12.014 0 0 0-12-12zm0 18a6 6 0 1 1 6-6 6.007 6.007 0 0 1-6 6z"
  fill="#202020"></path>
  <path data-name="layer1" fill="#202020" d="M8.194 53.564l43.2-46.8 4.409 4.07-43.2 46.8z"></path>
</svg>