<svg xmlns="http://www.w3.org/2000/svg" viewBox="0 0 64 64" aria-labelledby="title"
aria-describedby="desc" role="img" xmlns:xlink="http://www.w3.org/1999/xlink">
  <title>Price Tag</title>
  <desc>A solid styled icon from Orion Icon Library.</desc>
  <path data-name="layer1"
  d="M59.6 4.4L38.4 3 3 38.4 19.9 44l5.7 17L61 25.6zM38.4 34.1l-8.5 8.5a2 2 0 1 1-2.9-2.8l8.5-8.5a2 2 0 1 1 2.8 2.8zm0-11.3L24.2 37a2 2 0 0 1-2.8-2.8L35.5 20a2 2 0 1 1 2.8 2.8zm12.7-4.2a4 4 0 1 1 0-5.7 4 4 0 0 1 0 5.7z"
  fill="#202020"></path>
</svg>