<svg xmlns="http://www.w3.org/2000/svg" viewBox="0 0 64 64" aria-labelledby="title"
aria-describedby="desc" role="img" xmlns:xlink="http://www.w3.org/1999/xlink">
  <title>Price</title>
  <desc>A solid styled icon from Orion Icon Library.</desc>
  <path data-name="layer1"
  d="M60 20.5h-5.1L38.5 2.2a2 2 0 1 0-3 2.7l14 15.7h-35l14-15.7a2 2 0 0 0-3-2.7L9.2 20.5H4a2 2 0 0 0 0 4h56a2 2 0 0 0 0-4z"
  fill="#202020"></path>
  <path data-name="layer2" d="M57.5 51.3c0-4.8-3.9-6.7-8.1-8.1-5.9-1.9-6.2-2.4-6.2-3.9s2.5-3.1 4.9-3.1 4.5 1.3 5.3 4.1a2 2 0 0 0 3.8-1.1c-1.1-3.8-3.6-6.2-7.1-6.8v-2a2 2 0 1 0-4 0v2c-3.6.6-6.9 3-6.9 6.9s3.8 6.1 8.9 7.7 5.4 2.9 5.4 4.3-2.8 3.3-5.4 3.3-5.4-2.8-5.6-4.4a2 2 0 0 0-4 .5 9 9 0 0 0 7.5 7.7v2a2 2 0 1 0 4 0v-2c5.2-.6 7.5-3.8 7.5-7.1z"
  fill="#202020"></path>
  <path data-name="layer1" d="M40.3 48.5zm-5.7 2.7a6 6 0 0 1 1.2-4.4 6 6 0 0 1 1.4-1.3 9.7 9.7 0 0 1-2-6.2c0-4.4 2.7-8.1 7-9.9a5.9 5.9 0 0 1 .2-.9H7.3l4.8 24h22.7a12.3 12.3 0 0 1-.2-1.3zM54 29.5a12.3 12.3 0 0 1 2.3 1.4l.5-2.4h-3a6 6 0 0 1 .2 1z"
  fill="#202020"></path>
</svg>