<svg xmlns="http://www.w3.org/2000/svg" viewBox="0 0 64 64" aria-labelledby="title"
aria-describedby="desc" role="img" xmlns:xlink="http://www.w3.org/1999/xlink">
  <title>Price Calculator</title>
  <desc>A solid styled icon from Orion Icon Library.</desc>
  <path data-name="layer2"
  d="M30 40H8v18a4 4 0 0 0 4 4h18zm-5.6 16.4a2 2 0 0 1-2.8 0L19 53.8l-2.6 2.6a2 2 0 0 1-2.8-2.8l2.6-2.6-2.6-2.6a2 2 0 0 1 2.8-2.8l2.6 2.6 2.6-2.6a2 2 0 0 1 2.8 2.8L21.8 51l2.6 2.6a2 2 0 0 1 0 2.8z"
  fill="#202020"></path>
  <path data-name="layer1" d="M8 36h22V16H8zm5-12h4v-4a2 2 0 0 1 4 0v4h4a2 2 0 0 1 0 4h-4v4a2 2 0 1 1-4 0v-4h-4a2 2 0 1 1 0-4z"
  fill="#202020"></path>
  <path data-name="layer2" d="M56 36V16H34v20zM39 24h12a2 2 0 0 1 0 4H39a2 2 0 0 1 0-4z"
  fill="#202020"></path>
  <path data-name="layer1" d="M56 12V6a4 4 0 0 0-4-4H12a4 4 0 0 0-4 4v6zM34 40v22h18a4 4 0 0 0 4-4V40zm15 16h-8a2 2 0 0 1 0-4h8a2 2 0 0 1 0 4zm0-6h-8a2 2 0 0 1 0-4h8a2 2 0 1 1 0 4z"
  fill="#202020"></path>
</svg>