<svg xmlns="http://www.w3.org/2000/svg" viewBox="0 0 64 64" aria-labelledby="title"
aria-describedby="desc" role="img" xmlns:xlink="http://www.w3.org/1999/xlink">
  <title>Purchase Order</title>
  <desc>A solid styled icon from Orion Icon Library.</desc>
  <path data-name="layer2"
  d="M58 4h-1.6l-.5.3h-.2l-.5.4h-.1A4 4 0 0 0 54 8v2h8V8a4 4 0 0 0-4-4zM30 50H2v2a8 8 0 0 0 8 8h23.1a12 12 0 0 1-3.1-8z"
  fill="#202020"></path>
  <path data-name="layer1" d="M16 8v38h18v6a8 8 0 0 0 8 8 8 8 0 0 0 8-8V5.7l.2-.5.2-.6.3-.5H20A4 4 0 0 0 16 8zm9.1 2h16a2 2 0 0 1 0 4h-16a2 2 0 0 1 0-4zm0 8h12a2 2 0 0 1 0 4h-12a2 2 0 0 1 0-4zm0 8h16a2 2 0 0 1 0 4h-16a2 2 0 0 1 0-4zm0 8h12a2 2 0 0 1 0 4h-12a2 2 0 0 1 0-4z"
  fill="#202020"></path>
</svg>