<svg viewBox="0 0 64 64" xmlns="http://www.w3.org/2000/svg" aria-labelledby="title"
aria-describedby="desc" role="img" xmlns:xlink="http://www.w3.org/1999/xlink">
  <title>Purse</title>
  <desc>A solid styled icon from Orion Icon Library.</desc>
  <path fill="#202020"
  d="M57 14H40.459a5.989 5.989 0 0 0-8.451-8.466A5.989 5.989 0 0 0 23.557 14H7a6.007 6.007 0 0 0-6 6 2 2 0 0 0 4 0 2 2 0 0 1 2-2h50a2 2 0 0 1 2 2 2 2 0 1 0 4 0 6.007 6.007 0 0 0-6-6zM36 8a2 2 0 0 1 0 4h-1.984V9.9A2 2 0 0 1 36 8zm-6 4h-1.984A2 2 0 1 1 30 9.9z"
  data-name="layer2"></path>
  <path fill="#202020" d="M8 22c0 8-6 12-6 26a12 12 0 0 0 12 12h36a12 12 0 0 0 12-12c0-14-6-14-6-26z"
  data-name="layer1"></path>
</svg>