<svg xmlns="http://www.w3.org/2000/svg" viewBox="0 0 64 64" aria-labelledby="title"
aria-describedby="desc" role="img" xmlns:xlink="http://www.w3.org/1999/xlink">
  <title>Receipt</title>
  <desc>A solid styled icon from Orion Icon Library.</desc>
  <path data-name="layer1"
  d="M62 3H2a2 2 0 0 0 0 4h6v54l6-4 6.1 4 6-4 6 4 6-4 6 4 6-4 6 4V7h6a2 2 0 0 0 0-4zM30 43H18a2 2 0 1 1 0-4h12a2 2 0 0 1 0 4zm4-8H18a2 2 0 0 1 0-4h16a2 2 0 1 1 0 4zM16 21a2 2 0 0 1 2-2h12a2 2 0 0 1 0 4H18a2 2 0 0 1-2-2zm18-6H18a2 2 0 1 1 0-4h16a2 2 0 0 1 0 4zm12 28h-4a2 2 0 0 1 0-4h4a2 2 0 0 1 0 4zm0-8h-4a2 2 0 0 1 0-4h4a2 2 0 1 1 0 4zm0-12h-4a2 2 0 0 1 0-4h4a2 2 0 0 1 0 4zm0-8h-4a2 2 0 0 1 0-4h4a2 2 0 0 1 0 4z"
  fill="#202020"></path>
</svg>