<svg xmlns="http://www.w3.org/2000/svg" viewBox="0 0 64 64" aria-labelledby="title"
aria-describedby="desc" role="img" xmlns:xlink="http://www.w3.org/1999/xlink">
  <title>Refresh Cart</title>
  <desc>A solid styled icon from Orion Icon Library.</desc>
  <path data-name="layer2"
  d="M63.4 17.6a2 2 0 0 0-2.8 0l-1.3 1.3A13.7 13.7 0 1 0 32 19a13.8 13.8 0 0 0 13.7 14 2 2 0 0 0 0-4A9.8 9.8 0 0 1 36 19a9.7 9.7 0 1 1 19.3 0l-1.5-1.5a2 2 0 1 0-2.8 2.9l6.2 6.3 6.2-6.3a2 2 0 0 0 0-2.8z"
  fill="#202020"></path>
  <circle data-name="layer2" cx="20" cy="55" r="4" fill="#202020"></circle>
  <circle data-name="layer2" cx="46" cy="55" r="4" fill="#202020"></circle>
  <path data-name="layer1" d="M50.9 33.9a6 6 0 0 1-5.2 3.1 17.8 17.8 0 0 1-17.2-14H15.8L11.9 6.5A2 2 0 0 0 10 5H2a2 2 0 0 0 0 4h6.4l9 38h33l5.2-16.2a6.2 6.2 0 0 0-4.7 3.1z"
  fill="#202020"></path>
</svg>