<svg xmlns="http://www.w3.org/2000/svg" viewBox="0 0 64 64" aria-labelledby="title"
aria-describedby="desc" role="img" xmlns:xlink="http://www.w3.org/1999/xlink">
  <title>Refresh Shopping Cart</title>
  <desc>A solid styled icon from Orion Icon Library.</desc>
  <path data-name="layer1"
  d="M59 19.5h-5.1L37.5 1.2a2 2 0 0 0-3 2.7l14 15.7h-35l14-15.7a2 2 0 1 0-3-2.7L8.2 19.5H3a2 2 0 0 0 0 4h56a2 2 0 0 0 0-4z"
  fill="#202020"></path>
  <path data-name="layer2" d="M62.4 48.1a2 2 0 0 0-2.8 0l-1.3 1.3a13.7 13.7 0 1 0-13.6 14.1 2 2 0 0 0 0-4 10 10 0 1 1 9.7-10L52.9 48a2 2 0 1 0-2.9 2.9l6.2 6.3 6.2-6.3a2 2 0 0 0 0-2.8z"
  fill="#202020"></path>
  <path data-name="layer1" d="M27 49.5a17.9 17.9 0 0 1 17.7-18 17.3 17.3 0 0 1 9.7 3l1.4-7H6.3l4.8 24h16a18.3 18.3 0 0 1-.1-2zm24.2-2z"
  fill="#202020"></path>
</svg>