<svg xmlns="http://www.w3.org/2000/svg" viewBox="0 0 64 64" aria-labelledby="title"
aria-describedby="desc" role="img" xmlns:xlink="http://www.w3.org/1999/xlink">
  <title>Retail Bag</title>
  <desc>A solid styled icon from Orion Icon Library.</desc>
  <path data-name="layer2"
  fill="#202020" d="M51.6 19h-5.7v5.7l8.5 8.4 5.7-5.6-8.5-8.5z"></path>
  <path data-name="layer1" d="M43.1 27.5l-1.2-1.2V23h-2V13a12 12 0 1 0-24 0v10h-12v40h48V36.3l-.3-.3zM19.9 13a8 8 0 1 1 16 0v10h-16zm20 38h-24a2 2 0 0 1 0-4h24a2 2 0 0 1 0 4zm0-10h-24a2 2 0 0 1 0-4h24a2 2 0 0 1 0 4z"
  fill="#202020"></path>
</svg>