<svg xmlns="http://www.w3.org/2000/svg" viewBox="0 0 64 64" aria-labelledby="title"
aria-describedby="desc" role="img" xmlns:xlink="http://www.w3.org/1999/xlink">
  <title>Retail Bag</title>
  <desc>A solid styled icon from Orion Icon Library.</desc>
  <path data-name="layer2"
  fill="#202020" d="M58 10.7V3.3L51.9 7l6.1 3.7zM6 3.1v7.6l6.2-3.8L6 3.1z"></path>
  <path data-name="layer1" d="M4 15v48h56V15zm28 22a12 12 0 0 1-12-12 2 2 0 1 1 4 0 8 8 0 0 0 16 0 2 2 0 1 1 4 0 12 12 0 0 1-12 12zM13.2 11h37.6l-6.7-4 10-6H10.2l9.6 6-6.6 4z"
  fill="#202020"></path>
</svg>