<svg xmlns="http://www.w3.org/2000/svg" viewBox="0 0 64 64" aria-labelledby="title"
aria-describedby="desc" role="img" xmlns:xlink="http://www.w3.org/1999/xlink">
  <title>Return Purchase</title>
  <desc>A solid styled icon from Orion Icon Library.</desc>
  <path data-name="layer2"
  d="M29.121 19.121L34 14.243V35a3 3 0 0 0 6 0V14.243l4.879 4.878a3 3 0 1 0 4.242-4.242L37 2.757 24.879 14.88a3 3 0 0 0 4.242 4.242z"
  fill="#202020"></path>
  <path data-name="layer1" d="M59 42H19.406l-8-36H3a3 3 0 0 0 0 6h3.594l8 36H59a3 3 0 0 0 0-6z"
  fill="#202020"></path>
  <circle data-name="layer1" cx="23" cy="57" r="7" fill="#202020"></circle>
  <circle data-name="layer1" cx="49" cy="57" r="7" fill="#202020"></circle>
</svg>