<svg xmlns="http://www.w3.org/2000/svg" viewBox="0 0 64 64" aria-labelledby="title"
aria-describedby="desc" role="img" xmlns:xlink="http://www.w3.org/1999/xlink">
  <title>Ribbon</title>
  <desc>A solid styled icon from Orion Icon Library.</desc>
  <circle data-name="layer2"
  cx="32" cy="22.8" r="8" fill="#202020"></circle>
  <path data-name="layer2" d="M22.1 15.9A34.4 34.4 0 0 0 4 11C-.5 23.2 4 35 4 35s10.8-1.8 18.4-5.1a11.9 11.9 0 0 1-.2-13.9zm19.5 14C49.2 33.2 60 35 60 35s4.5-11.8 0-24a34.4 34.4 0 0 0-18.1 4.9 11.9 11.9 0 0 1-.2 13.9z"
  fill="#202020"></path>
  <path data-name="layer1" d="M22.9 30.6L16 49l10 4 6.5-18.3H32a12 12 0 0 1-9.1-4.1zm17.9.3a12 12 0 0 1-4.3 2.9L34 41.3 38 53l10-4z"
  fill="#202020"></path>
</svg>