<svg xmlns="http://www.w3.org/2000/svg" viewBox="0 0 64 64" aria-labelledby="title"
aria-describedby="desc" role="img" xmlns:xlink="http://www.w3.org/1999/xlink">
  <title>Safe</title>
  <desc>A solid styled icon from Orion Icon Library.</desc>
  <path data-name="layer2"
  d="M59 2H5a3 3 0 0 0-3 3v50a3 3 0 0 0 3 3h3v2a2 2 0 1 0 4 0v-2h40v2a2 2 0 1 0 4 0v-2h3a3 3 0 0 0 3-3V5a3 3 0 0 0-3-3zm-3 50H8V42a2 2 0 0 1 0-4V22a2 2 0 0 1 0-4V8h48z"
  fill="#202020"></path>
  <path data-name="layer1" d="M52 12H12v6a2 2 0 0 1 0 4v16a2 2 0 0 1 0 4v6h40zM34 44a14 14 0 0 1-12.1-7 2 2 0 0 1 3.5-2 10 10 0 1 0-1.1-7h6.4a4 4 0 1 1 0 4H18a2 2 0 0 1 0-4h2.2A14 14 0 1 1 34 44z"
  fill="#202020"></path>
</svg>