<svg xmlns="http://www.w3.org/2000/svg" viewBox="0 0 64 64" aria-labelledby="title"
aria-describedby="desc" role="img" xmlns:xlink="http://www.w3.org/1999/xlink">
  <title>Sales Performance Down</title>
  <desc>A solid styled icon from Orion Icon Library.</desc>
  <path data-name="layer2"
  d="M57.4 57h-2V47h-8v10h-6V37h-8v20h-6V27h-8v30h-6V17h-8v40h-2a2 2 0 0 0 0 4h54a2 2 0 0 0 0-4z"
  fill="#202020"></path>
  <path data-name="layer1" d="M11.3 6.6L55.5 38 50 39a2 2 0 0 0 .4 4h.4l11.8-2.4-1.1-11.8a2 2 0 1 0-4 .4l.5 5.7L13.6 3.4a2 2 0 1 0-2.3 3.3z"
  fill="#202020"></path>
</svg>