<svg xmlns="http://www.w3.org/2000/svg" viewBox="0 0 64 64" aria-labelledby="title"
aria-describedby="desc" role="img" xmlns:xlink="http://www.w3.org/1999/xlink">
  <title>Sales Down</title>
  <desc>A solid styled icon from Orion Icon Library.</desc>
  <path data-name="layer2"
  d="M58.3 58h-2V48h-8v10h-6V28h-8v30h-6V36h-8v22h-6V16h-8v42h-2a2 2 0 0 0 0 4h54a2 2 0 0 0 0-4z"
  fill="#202020"></path>
  <path data-name="layer1" d="M59.7 21.5a2 2 0 0 0-2 2v4.3l-15-13.3a2 2 0 0 0-2.2-.3l-10.7 5.4-17-17A2 2 0 0 0 10 5.4l18 18a2 2 0 0 0 2.3.4l10.8-5.4L54.2 30h-3a2 2 0 0 0 0 4h10.5V23.5a2 2 0 0 0-2-2z"
  fill="#202020"></path>
</svg>