<svg xmlns="http://www.w3.org/2000/svg" viewBox="0 0 64 64" aria-labelledby="title"
aria-describedby="desc" role="img" xmlns:xlink="http://www.w3.org/1999/xlink">
  <title>Sales Up</title>
  <desc>A solid styled icon from Orion Icon Library.</desc>
  <path data-name="layer2"
  d="M59 60h-2V18h-8v42h-6V38h-8v22h-6V30h-8v30h-6V50H7v10H5a2 2 0 1 0 0 4h54a2 2 0 0 0 0-4z"
  fill="#202020"></path>
  <path data-name="layer1" d="M8 32a2 2 0 0 0 1.3-.5l17-15.1 10.8 5.4a2 2 0 0 0 2.3-.4L54 6.8v3.7a2 2 0 1 0 4 0V0H47.5a2 2 0 1 0 0 4h3.7L37.6 17.6l-10.7-5.4a2 2 0 0 0-2.2.3l-18 16A2 2 0 0 0 8 32z"
  fill="#202020"></path>
</svg>