<svg xmlns="http://www.w3.org/2000/svg" viewBox="0 0 64 64" aria-labelledby="title"
aria-describedby="desc" role="img" xmlns:xlink="http://www.w3.org/1999/xlink">
  <title>Save To Cart</title>
  <desc>A solid styled icon from Orion Icon Library.</desc>
  <path data-name="layer2"
  d="M37 38.224l12.12-12.101a3 3 0 1 0-4.24-4.246L40 26.75V6a3 3 0 0 0-6 0v20.75l-4.88-4.873a3 3 0 0 0-4.24 4.246z"
  fill="#202020"></path>
  <path data-name="layer1" d="M59 43H19.406l-8-36H3a3 3 0 0 0 0 6h3.594l8 36H59a3 3 0 0 0 0-6z"
  fill="#202020"></path>
  <circle data-name="layer1" cx="23" cy="58" r="6" fill="#202020"></circle>
  <circle data-name="layer1" cx="49" cy="58" r="6" fill="#202020"></circle>
</svg>