<svg xmlns="http://www.w3.org/2000/svg" viewBox="0 0 64 64" aria-labelledby="title"
aria-describedby="desc" role="img" xmlns:xlink="http://www.w3.org/1999/xlink">
  <title>Search Product</title>
  <desc>A solid styled icon from Orion Icon Library.</desc>
  <path data-name="layer2"
  d="M63.4 31.6L55.8 24a12 12 0 1 0-2.8 2.8l7.6 7.6a2 2 0 0 0 2.8-2.8zM38 17a8 8 0 1 1 8 8 8 8 0 0 1-8-8z"
  fill="#202020"></path>
  <circle data-name="layer2" cx="20" cy="55" r="4" fill="#202020"></circle>
  <circle data-name="layer2" cx="46" cy="55" r="4" fill="#202020"></circle>
  <path data-name="layer1" d="M52.2 31.7A15.8 15.8 0 0 1 46 33a16 16 0 0 1-14.8-10H15.8L11.9 6.5A2 2 0 0 0 10 5H2a2 2 0 0 0 0 4h6.4l9 38h33l4.2-12.9z"
  fill="#202020"></path>
</svg>