<svg xmlns="http://www.w3.org/2000/svg" viewBox="0 0 64 64" aria-labelledby="title"
aria-describedby="desc" role="img" xmlns:xlink="http://www.w3.org/1999/xlink">
  <title>Search Cart</title>
  <desc>A solid styled icon from Orion Icon Library.</desc>
  <path data-name="layer1"
  d="M59 19.5h-5.1L37.5 1.2a2 2 0 1 0-3 2.7l14 15.7h-35l14-15.7a2 2 0 1 0-3-2.7L8.2 19.5H3a2 2 0 0 0 0 4h56a2 2 0 0 0 0-4z"
  fill="#202020"></path>
  <path data-name="layer2" d="M62.4 60.1l-7.6-7.6a12 12 0 1 0-2.8 2.8l7.6 7.6a2 2 0 0 0 2.8-2.8zM37 45.5a8 8 0 1 1 8 8 8 8 0 0 1-8-8z"
  fill="#202020"></path>
  <path data-name="layer1" d="M29 45.5a16 16 0 0 1 25.7-12.7l1.1-5.3H6.2l4.8 24h19.2a15.9 15.9 0 0 1-1.2-6z"
  fill="#202020"></path>
</svg>