<svg xmlns="http://www.w3.org/2000/svg" viewBox="0 0 64 64" aria-labelledby="title"
aria-describedby="desc" role="img" xmlns:xlink="http://www.w3.org/1999/xlink">
  <title>Secure E-commerce</title>
  <desc>A solid styled icon from Orion Icon Library.</desc>
  <path data-name="layer1"
  d="M60 20.5h-5.1L38.5 2.2a2 2 0 0 0-3 2.7l14 15.7h-35l14-15.7a2 2 0 1 0-3-2.7L9.2 20.5H4a2 2 0 0 0 0 4h56a2 2 0 0 0 0-4z"
  fill="#202020"></path>
  <path data-name="layer2" d="M58 46.5v-10a8 8 0 0 0-16 0v10h-4v16h24v-16zm-6 10a2 2 0 0 1-4 0v-4a2 2 0 0 1 4 0zm2-10h-8v-10a4 4 0 0 1 8 0z"
  fill="#202020"></path>
  <path data-name="layer1" d="M34 46.5v-4h4v-6a11.9 11.9 0 0 1 3.1-8H7.3l4.8 24H34z"
  fill="#202020"></path>
</svg>