<svg xmlns="http://www.w3.org/2000/svg" viewBox="0 0 64 64" aria-labelledby="title"
aria-describedby="desc" role="img" xmlns:xlink="http://www.w3.org/1999/xlink">
  <title>Secure Shopping</title>
  <desc>A solid styled icon from Orion Icon Library.</desc>
  <path data-name="layer1"
  d="M35 7v11.8A22.4 22.4 0 0 0 49 39a22.4 22.4 0 0 0 14-20.2V7zm23 11L48 28l-6.3-6.3a2 2 0 1 1 2.8-2.8l3.4 3.4 7.2-7.2A2 2 0 1 1 58 18z"
  fill="#202020"></path>
  <path data-name="layer2" d="M50.5 42.7l-1.5.6-1.5-.6A26.5 26.5 0 0 1 31.4 23H16.8L12.9 6.5A2 2 0 0 0 11 5H3a2 2 0 0 0 0 4h6.4l9 38h33l1.9-5.7z"
  fill="#202020"></path>
  <circle data-name="layer1" cx="21" cy="55" r="4" fill="#202020"></circle>
  <circle data-name="layer1" cx="47" cy="55" r="4" fill="#202020"></circle>
</svg>