<svg xmlns="http://www.w3.org/2000/svg" viewBox="0 0 64 64" aria-labelledby="title"
aria-describedby="desc" role="img" xmlns:xlink="http://www.w3.org/1999/xlink">
  <title>Secured Purchase</title>
  <desc>A solid styled icon from Orion Icon Library.</desc>
  <path data-name="layer2"
  d="M57.6 24.5H60a2 2 0 0 0 0-4h-5.1L38.5 2.2a2 2 0 1 0-3 2.7l14 15.7h-35l14-15.7a2 2 0 1 0-3-2.7L9.2 20.5H4a2 2 0 0 0 0 4h53.6zm-.8 4h-2.1l1.9 1.1zm-19.5 0h-30l4.8 24h14.8a20 20 0 0 1 10.4-24z"
  fill="#202020"></path>
  <path data-name="layer1" d="M46 30.5a16 16 0 1 0 16 16 16 16 0 0 0-16-16zm8.5 13.3l-9.4 10.6-6.5-6.5a2 2 0 1 1 2.8-2.8l3.5 3.5 6.6-7.4a2 2 0 1 1 3 2.7z"
  fill="#202020"></path>
</svg>