<svg xmlns="http://www.w3.org/2000/svg" viewBox="0 0 64 64" aria-labelledby="title"
aria-describedby="desc" role="img" xmlns:xlink="http://www.w3.org/1999/xlink">
  <title>Settings E-commerce</title>
  <desc>A solid styled icon from Orion Icon Library.</desc>
  <path data-name="layer1"
  d="M59.9 20.5h-5.1L38.4 2.2a2 2 0 1 0-3 2.7l14 15.7h-35l14-15.7a2 2 0 1 0-3-2.7L9.1 20.5H3.9a2 2 0 0 0 0 4h56a2 2 0 0 0 0-4z"
  fill="#202020"></path>
  <path data-name="layer2" d="M58.7 49.6a11.8 11.8 0 0 0 .2-2.1 11.9 11.9 0 0 0-.2-2.3l3.1-1.8-4-6.9-3.1 1.8a12 12 0 0 0-3.7-2.1v-3.7h-8v3.7a12 12 0 0 0-3.7 2.1l-3.1-1.8-4 6.9 3 1.7a11.7 11.7 0 0 0-.2 2.3 11.9 11.9 0 0 0 .2 2.1l-3.3 1.9 4 6.9 3.1-1.7a12 12 0 0 0 3.8 2.2v3.7h8v-3.7a12.1 12.1 0 0 0 3.9-2.3l3.3 1.9 4-6.9zm-11.8 2.9a5 5 0 1 1 5-5 5 5 0 0 1-5 5z"
  fill="#202020"></path>
  <path data-name="layer1" d="M54.9 32.5v1.1l.9-.5h.1l.9-4.5H51a4 4 0 0 1 3.9 3.9zm-27 18a4 4 0 0 1 1.9-2.4l1.1-.6-.8-.5a4 4 0 0 1-1.5-5.5l4-6.9a4 4 0 0 1 2.4-1.9h1a4 4 0 0 1 2 .5l.8.5v-1a4 4 0 0 1 3.9-4H7.2l4.8 24h16a4 4 0 0 1-.1-2.2z"
  fill="#202020"></path>
</svg>