<svg xmlns="http://www.w3.org/2000/svg" viewBox="0 0 64 64" aria-labelledby="title"
aria-describedby="desc" role="img" xmlns:xlink="http://www.w3.org/1999/xlink">
  <title>Settings</title>
  <desc>A solid styled icon from Orion Icon Library.</desc>
  <path data-name="layer2"
  d="M59.6 21.1a11.8 11.8 0 0 0 .2-2.1 11.9 11.9 0 0 0-.2-2.3l3.1-1.7-4-7-3.2 1.8a12 12 0 0 0-3.7-2.1V4h-8v3.7a12 12 0 0 0-3.7 2.1L37 8l-4 7 3 1.7a11.7 11.7 0 0 0-.2 2.3 11.9 11.9 0 0 0 .2 2.1L32.7 23l4 6.9 3.3-1.8a12 12 0 0 0 3.8 2.2V34h8v-3.7a12.1 12.1 0 0 0 3.9-2.3l3.3 2 4-7zM47.8 24a5 5 0 1 1 5-5 5 5 0 0 1-5 5z"
  fill="#202020"></path>
  <circle data-name="layer2" cx="21" cy="56" r="4" fill="#202020"></circle>
  <circle data-name="layer2" cx="47" cy="56" r="4" fill="#202020"></circle>
  <path data-name="layer1" d="M51.8 38h-8a4 4 0 0 1-4-4v-1.2h-.1l-1.1.6a4 4 0 0 1-2 .5h-1a4 4 0 0 1-2.4-1.9l-4-6.9a4 4 0 0 1-.4-1h-12L12.9 7.5A2 2 0 0 0 11 6H3a2 2 0 0 0 0 4h6.4l9 38h33l3.7-11.7a4 4 0 0 1-3.3 1.7z"
  fill="#202020"></path>
</svg>