<svg xmlns="http://www.w3.org/2000/svg" viewBox="0 0 64 64" aria-labelledby="title"
aria-describedby="desc" role="img" xmlns:xlink="http://www.w3.org/1999/xlink">
  <title>Shipping Address</title>
  <desc>A solid styled icon from Orion Icon Library.</desc>
  <path data-name="layer2"
  d="M45.4 4a12 12 0 0 0-12 12 12.2 12.2 0 0 0 .1 1.5c1.1 9.9 11.9 22.9 11.9 22.9s10.8-13 11.9-22.9a12.2 12.2 0 0 0 .1-1.5 12 12 0 0 0-12-12zm0 15a3 3 0 1 1 3-3 3 3 0 0 1-3 3z"
  fill="#202020"></path>
  <circle data-name="layer2" cx="23.4" cy="56" r="4" fill="#202020"></circle>
  <circle data-name="layer2" cx="49.4" cy="56" r="4" fill="#202020"></circle>
  <path data-name="layer1" d="M48.5 42.9l-3.1 3.7-3.1-3.7c-.4-.5-8-9.6-11.3-18.9H19.2L15.4 7.5a2 2 0 0 0-2-1.5h-8a2 2 0 0 0 0 4h6.4l9 38h33l6.7-24.1h-.7c-3.3 9.4-10.9 18.6-11.3 19z"
  fill="#202020"></path>
</svg>