<svg xmlns="http://www.w3.org/2000/svg" viewBox="0 0 64 64" aria-labelledby="title"
aria-describedby="desc" role="img" xmlns:xlink="http://www.w3.org/1999/xlink">
  <title>Shopping Basket</title>
  <desc>A solid styled icon from Orion Icon Library.</desc>
  <path data-name="layer2"
  d="M60 28h-5A22.1 22.1 0 0 0 37.7 6.5 4 4 0 0 0 34 4h-4a4 4 0 0 0-3.7 2.5A22.1 22.1 0 0 0 9 28H4a2 2 0 0 0 0 4h56a2 2 0 0 0 0-4zm-47 0a18 18 0 0 1 13.9-17.5A4 4 0 0 0 30 12h4a4 4 0 0 0 3.1-1.5A18 18 0 0 1 51 28H13z"
  fill="#202020"></path>
  <path data-name="layer1" d="M46 52a2 2 0 0 1-4 0V36h-8v16a2 2 0 0 1-4 0V36h-8v16a2 2 0 0 1-4 0V36H7.3L12 60h40l4.8-24H46z"
  fill="#202020"></path>
</svg>