<svg xmlns="http://www.w3.org/2000/svg" viewBox="0 0 64 64" aria-labelledby="title"
aria-describedby="desc" role="img" xmlns:xlink="http://www.w3.org/1999/xlink">
  <title>Shopping Cart Error</title>
  <desc>A solid styled icon from Orion Icon Library.</desc>
  <path data-name="layer1"
  d="M60 20.5h-5.1L38.5 2.2a2 2 0 0 0-3 2.7l14 15.7h-35l14-15.7a2 2 0 1 0-3-2.7L9.2 20.5H4a2 2 0 1 0 0 4h56a2 2 0 0 0 0-4z"
  fill="#202020"></path>
  <path data-name="layer2" d="M46 32.5l-16 30h32zm-2 12a2 2 0 1 1 4 0v6a2 2 0 1 1-4 0zm2 14a2 2 0 0 1-2-2 2 2 0 0 1 .6-1.4 2.1 2.1 0 0 1 2.8 0 2 2 0 0 1 .6 1.4 2 2 0 0 1-2 2z"
  fill="#202020"></path>
  <path data-name="layer1" d="M49.5 30.6l5 9.3 2.3-11.5H46a4 4 0 0 1 3.5 2.2zm-7 0a4 4 0 0 1 3.5-2.1H7.3l4.8 24h18.7z"
  fill="#202020"></path>
</svg>