<svg xmlns="http://www.w3.org/2000/svg" viewBox="0 0 64 64" aria-labelledby="title"
aria-describedby="desc" role="img" xmlns:xlink="http://www.w3.org/1999/xlink">
  <title>Shopping Bag</title>
  <desc>A solid styled icon from Orion Icon Library.</desc>
  <path data-name="layer1"
  fill="#202020" d="M56 15v39.2l6 6V15h-6z"></path>
  <path data-name="layer2" d="M52.6 56.4l-.2-.3v-.7a2 2 0 0 1 0-.4V15H48v48h11.2l-6.6-6.6z"
  fill="#202020"></path>
  <path data-name="layer1" d="M36 9a8 8 0 0 0-8-8h-6a8 8 0 0 0-8 8v6H2v48h42V15h-8zm-18 6V9a4 4 0 0 1 4-4h6a4 4 0 0 1 4 4v6zm26-6v6h4V9a8 8 0 0 0-8-8h-2a2 2 0 0 0 0 4h2a4 4 0 0 1 4 4z"
  fill="#202020"></path>
</svg>