<svg xmlns="http://www.w3.org/2000/svg" viewBox="0 0 64 64" aria-labelledby="title"
aria-describedby="desc" role="img" xmlns:xlink="http://www.w3.org/1999/xlink">
  <title>SSL E-commerce</title>
  <desc>A solid styled icon from Orion Icon Library.</desc>
  <path data-name="layer2"
  d="M59 20V10a8 8 0 1 0-16 0v10h-4v16h24V20zm-6 10a2 2 0 1 1-4 0v-4a2 2 0 1 1 4 0zm2-10h-8V10a4 4 0 1 1 8 0z"
  fill="#202020"></path>
  <circle data-name="layer2" cx="21" cy="58" r="4" fill="#202020"></circle>
  <circle data-name="layer2" cx="47" cy="58" r="4" fill="#202020"></circle>
  <path data-name="layer1" d="M35 40V26H16.8L12.9 9.5A2 2 0 0 0 11 8H3a2 2 0 0 0 0 4h6.4l9 38h33l3.3-10H35z"
  fill="#202020"></path>
</svg>