<svg xmlns="http://www.w3.org/2000/svg" viewBox="0 0 64 64" aria-labelledby="title"
aria-describedby="desc" role="img" xmlns:xlink="http://www.w3.org/1999/xlink">
  <title>Store</title>
  <desc>A solid styled icon from Orion Icon Library.</desc>
  <path data-name="layer1"
  fill="#202020" d="M44.1 20l-4-13.4-.2-.6H34v14h10.1zm-28.4 0l4.2-14h-8.5l-8 14h12.3zm32.6 0h12.3l-8-14h-8.5l4.2 14zm-28.5 0H30V6h-5.9l-.2.6L19.8 20z"></path>
  <path data-name="layer2" d="M47.2 24a7.5 7.5 0 0 0 14.7 0zm-45 0a7.5 7.5 0 0 0 14.7 0zm30 0a7.5 7.5 0 0 0 14.7 0zm-15 0a7.5 7.5 0 0 0 14.7 0z"
  fill="#202020"></path>
  <path data-name="layer1" d="M54.5 34a11.5 11.5 0 0 1-7.5-2.8 11.5 11.5 0 0 1-15 0 11.5 11.5 0 0 1-15 0A11.5 11.5 0 0 1 9.5 34H8v24h28V36h12v22h8V33.9zM30 48H16V36h14z"
  fill="#202020"></path>
</svg>