<svg xmlns="http://www.w3.org/2000/svg" viewBox="0 0 64 64" aria-labelledby="title"
aria-describedby="desc" role="img" xmlns:xlink="http://www.w3.org/1999/xlink">
  <title>Store Helpline</title>
  <desc>A solid styled icon from Orion Icon Library.</desc>
  <path data-name="layer1"
  d="M60 21.5h-5.1L38.5 3.2a2 2 0 1 0-3 2.7l14 15.7h-35l14-15.7a2 2 0 0 0-3-2.7L9.2 21.5H4a2 2 0 0 0 0 4h56a2 2 0 0 0 0-4z"
  fill="#202020"></path>
  <path data-name="layer2" d="M55.3 50.6a2.4 2.4 0 0 0-3.3.6c-1.2 1.5-1.7 3.4-7.2-2.1s-4-6.5-2.6-7.7a2.4 2.4 0 0 0 .6-3.3L39.5 33c-.4-.7-1.1-1.7-2.5-1.5a7.2 7.2 0 0 0-5 6.8c0 4.5 3.5 10 8.4 14.8s10.3 8.4 14.8 8.4a7.2 7.2 0 0 0 6.8-5c.2-1.4-.9-2-1.5-2.5z"
  fill="#202020"></path>
  <path data-name="layer1" d="M42.7 30.7h.1l2.6 3.9.9 1.3a6.4 6.4 0 0 1-.7 7.9 26.2 26.2 0 0 0 2.2 2.4l1.8 1.7a6.4 6.4 0 0 1 3.9-1.8l3.4-16.8h-15zM28 38.3a11 11 0 0 1 4.4-8.8H7.3l4.8 24h23.2C31.9 49.6 28 44 28 38.3z"
  fill="#202020"></path>
</svg>