<svg xmlns="http://www.w3.org/2000/svg" viewBox="0 0 64 64" aria-labelledby="title"
aria-describedby="desc" role="img" xmlns:xlink="http://www.w3.org/1999/xlink">
  <title>This Way Up</title>
  <desc>A solid styled icon from Orion Icon Library.</desc>
  <path data-name="layer1"
  d="M2 2v60h60V2zm32.6 16.6l8-8L44 9.2l9.4 9.4a2 2 0 1 1-2.8 2.8L46 16.8V44a2 2 0 1 1-4 0V16.8l-4.6 4.6a2 2 0 0 1-2.8-2.8zm-24 0l8-8L20 9.2l9.4 9.4a2 2 0 1 1-2.8 2.8L22 16.8V44a2 2 0 1 1-4 0V16.8l-4.6 4.6a2 2 0 0 1-2.8-2.8zM54 56H10a2 2 0 0 1 0-4h44a2 2 0 0 1 0 4z"
  fill="#202020"></path>
</svg>