<svg xmlns="http://www.w3.org/2000/svg" viewBox="0 0 64 64" aria-labelledby="title"
aria-describedby="desc" role="img" xmlns:xlink="http://www.w3.org/1999/xlink">
  <title>Total Cart</title>
  <desc>A solid styled icon from Orion Icon Library.</desc>
  <path data-name="layer2"
  fill="#202020" d="M12 61h40l4.8-24H7.3L12 61z"></path>
  <path data-name="layer1" d="M60 29H44.5a16 16 0 1 0-24.9 0H4a2 2 0 0 0 0 4h56a2 2 0 0 0 0-4zm-30 0v-.8a6.7 6.7 0 0 1-5-5.6 2 2 0 1 1 4-.5 2.8 2.8 0 0 0 3 2.3c.5 0 3-.1 3-1.6s0-1.2-3.1-2.2-6.4-2.1-6.4-5.8 1.9-4.5 4.6-5.1V9a2 2 0 0 1 4 0v.8a6.7 6.7 0 0 1 4.7 4.9 2 2 0 1 1-3.8 1.1 2.7 2.7 0 0 0-3-2.3c-1.4 0-2.6.6-2.6 1.4s0 .8 3.7 2c1.9.6 5.9 1.9 5.9 6 0 2.3-1.6 4.7-5 5.4v.7h-4z"
  fill="#202020"></path>
</svg>