<svg xmlns="http://www.w3.org/2000/svg" viewBox="0 0 64 64" aria-labelledby="title"
aria-describedby="desc" role="img" xmlns:xlink="http://www.w3.org/1999/xlink">
  <title>Tribunal</title>
  <desc>A solid styled icon from Orion Icon Library.</desc>
  <path data-name="layer2"
  fill="#202020" d="M32 .7L-1.8 27.3h67.6L32 .7z"></path>
  <path data-name="layer1" d="M60 35.3a2 2 0 1 0 0-4H46a2 2 0 0 0 0 4v16h-8v-16h2a2 2 0 1 0 0-4H24a2 2 0 0 0 0 4h2v16h-8v-16a2 2 0 1 0 0-4H4a2 2 0 0 0 0 4h2v16H4a2 2 0 1 0 0 4h56a2 2 0 0 0 0-4h-2v-16zm2 24H2a2 2 0 0 0 0 4h60a2 2 0 0 0 0-4z"
  fill="#202020"></path>
</svg>