<svg xmlns="http://www.w3.org/2000/svg" viewBox="0 0 64 64" aria-labelledby="title"
aria-describedby="desc" role="img" xmlns:xlink="http://www.w3.org/1999/xlink">
  <title>Truck</title>
  <desc>A solid styled icon from Orion Icon Library.</desc>
  <circle data-name="layer1"
  cx="14" cy="50" r="6" fill="#202020"></circle>
  <circle data-name="layer1" cx="50" cy="50" r="6" fill="#202020"></circle>
  <path data-name="layer2" d="M14 40a9.9 9.9 0 0 1 6 2h20V8H2v34h6a9.9 9.9 0 0 1 6-2z"
  fill="#202020"></path>
  <path data-name="layer1" d="M23.8 48h16.4a9.9 9.9 0 0 1 .6-2H23.2a10 10 0 0 1 .6 2zM60 50h2v-4h-2.8a9.9 9.9 0 0 1 .8 4zm2-8V28a10 10 0 0 0-10-10h-8v24a9.9 9.9 0 0 1 12 0h6zM2 50h2a9.9 9.9 0 0 1 .8-4H2z"
  fill="#202020"></path>
</svg>