<svg xmlns="http://www.w3.org/2000/svg" viewBox="0 0 64 64" aria-labelledby="title"
aria-describedby="desc" role="img" xmlns:xlink="http://www.w3.org/1999/xlink">
  <title>US Dollar</title>
  <desc>A solid styled icon from Orion Icon Library.</desc>
  <path data-name="layer1"
  d="M45 41.903c0-3.68-1.704-10.234-13.104-12.818-.01-.002-.018-.007-.027-.009-8.469-1.935-8.469-5.728-8.469-6.975 0-4.74 4.043-6.9 7.8-6.9a7.77 7.77 0 0 1 7.692 6.496 3 3 0 0 0 5.917-.994A13.733 13.733 0 0 0 34.2 9.54V5a3 3 0 0 0-6 0v4.488c-6.326 1.214-10.8 6.229-10.8 12.613 0 3.668 1.706 10.21 13.12 12.822l.02.007c5.615 1.265 8.46 3.61 8.46 6.973 0 4.74-4.043 6.899-7.8 6.899a7.809 7.809 0 0 1-7.8-7.8 3 3 0 0 0-6 0 13.817 13.817 0 0 0 10.8 13.461V59a3 3 0 0 0 6 0v-4.485C40.526 53.302 45 48.287 45 41.903z"
  fill="#202020"></path>
</svg>