<svg xmlns="http://www.w3.org/2000/svg" viewBox="0 0 64 64" aria-labelledby="title"
aria-describedby="desc" role="img" xmlns:xlink="http://www.w3.org/1999/xlink">
  <title>Vault</title>
  <desc>A solid styled icon from Orion Icon Library.</desc>
  <path data-name="layer1"
  d="M34 26a6 6 0 1 0 6 6 6 6 0 0 0-6-6zm1.4 7.4a2 2 0 0 1-1.4.6 2 2 0 0 1-1.4-3.4 2.1 2.1 0 0 1 2.8 0 2 2 0 0 1 0 2.8z"
  fill="#202020"></path>
  <path data-name="layer2" d="M12 12v2a2 2 0 0 1 2 2v8a2 2 0 0 1-2 2v12a2 2 0 0 1 2 2v8a2 2 0 0 1-2 2v2h40V12zm34 22h-2.2a9.9 9.9 0 0 1-1.5 3.5l1.6 1.6a2 2 0 1 1-2.8 2.8l-1.6-1.6a9.9 9.9 0 0 1-3.5 1.5V44a2 2 0 1 1-4 0v-2.2a9.9 9.9 0 0 1-3.5-1.5l-1.6 1.6a2 2 0 0 1-2.8-2.8l1.6-1.6a9.9 9.9 0 0 1-1.5-3.5H22a2 2 0 0 1 0-4h2.2a9.9 9.9 0 0 1 1.5-3.5l-1.6-1.6a2 2 0 0 1 2.8-2.8l1.6 1.6a9.9 9.9 0 0 1 3.5-1.5V20a2 2 0 1 1 4 0v2.2a9.9 9.9 0 0 1 3.5 1.5l1.6-1.6a2 2 0 0 1 2.8 2.8l-1.6 1.6a9.9 9.9 0 0 1 1.5 3.5H46a2 2 0 0 1 0 4z"
  fill="#202020"></path>
  <path data-name="layer1" d="M59 2H5a3 3 0 0 0-3 3v54a3 3 0 0 0 3 3h54a3 3 0 0 0 3-3V5a3 3 0 0 0-3-3zm-3 54H8v-6a2 2 0 0 1-2-2v-8a2 2 0 0 1 2-2V26a2 2 0 0 1-2-2v-8a2 2 0 0 1 2-2V8h48z"
  fill="#202020"></path>
</svg>