<svg xmlns="http://www.w3.org/2000/svg" viewBox="0 0 64 64" aria-labelledby="title"
aria-describedby="desc" role="img" xmlns:xlink="http://www.w3.org/1999/xlink">
  <title>Wallet</title>
  <desc>A solid styled icon from Orion Icon Library.</desc>
  <path data-name="layer2"
  d="M58.4 4.6h-.1l-1.3.2L23 18a5.2 5.2 0 0 0-3 5v34c0 1.7 1 3.9 4 2.6L59 46a5.4 5.4 0 0 0 3-5V7c0-1.3-1.8-2.4-3.6-2.4zM32 40.2a4 4 0 1 1 4-4 4 4 0 0 1-4 4z"
  fill="#202020"></path>
  <path data-name="layer1" d="M10 14a2 2 0 0 1 2-2h15.4L48 4H5a3 3 0 0 0-3 3v36a3 3 0 0 0 3 3h11V28h-4a2 2 0 1 1 0-4h4v-1a9.4 9.4 0 0 1 2.9-7H12a2 2 0 0 1-2-2z"
  fill="#202020"></path>
</svg>