<svg xmlns="http://www.w3.org/2000/svg" viewBox="0 0 64 64" aria-labelledby="title"
aria-describedby="desc" role="img" xmlns:xlink="http://www.w3.org/1999/xlink">
  <title>Wallet</title>
  <desc>A solid styled icon from Orion Icon Library.</desc>
  <path data-name="layer2"
  d="M38 41v-8a6 6 0 0 1 6-6h14v-9a3 3 0 0 0-3-3H5a3 3 0 0 0-3 3v38a3 3 0 0 0 3 3h50a3 3 0 0 0 3-3v-9H44a6 6 0 0 1-6-6zm4-22h2a2 2 0 0 1 0 4h-2a2 2 0 0 1 0-4zm-30 4a2 2 0 0 1 0-4h2a2 2 0 0 1 0 4zm6 32h-2a2 2 0 0 1 0-4h2a2 2 0 0 1 0 4zm4-32a2 2 0 0 1 0-4h2a2 2 0 0 1 0 4zm6 32h-2a2 2 0 0 1 0-4h2a2 2 0 0 1 0 4zm4-32a2 2 0 0 1 0-4h2a2 2 0 0 1 0 4zm6 32h-2a2 2 0 0 1 0-4h2a2 2 0 0 1 0 4zm8-4h2a2 2 0 0 1 0 4h-2a2 2 0 0 1 0-4z"
  fill="#202020"></path>
  <path data-name="layer1" fill="#202020" d="M48 5l-16.5 6h18.7L48 5zm12 26H44a2 2 0 0 0-2 2v8a2 2 0 0 0 2 2h16a2 2 0 0 0 2-2v-8a2 2 0 0 0-2-2zm-13 8a2 2 0 1 1 2-2 2 2 0 0 1-2 2z"></path>
</svg>