<svg xmlns="http://www.w3.org/2000/svg" viewBox="0 0 64 64" aria-labelledby="title"
aria-describedby="desc" role="img" xmlns:xlink="http://www.w3.org/1999/xlink">
  <title>Wishlist</title>
  <desc>A solid styled icon from Orion Icon Library.</desc>
  <path data-name="layer2"
  fill="#202020" d="M47 26.9L37.1 34l3.8-11.5L31 16h12.2L47 4l3.8 12H63l-9.9 6.5L56.9 34 47 26.9z"></path>
  <circle data-name="layer2" cx="21" cy="56" r="4" fill="#202020"></circle>
  <circle data-name="layer2" cx="47" cy="56" r="4" fill="#202020"></circle>
  <path data-name="layer1" d="M54.6 37.2L47 31.8l-7.6 5.4a4 4 0 0 1-6.1-4.5l2.8-8.6-.3-.2h-19L12.9 7.5A2 2 0 0 0 11 6H3a2 2 0 0 0 0 4h6.4l9 38h33l4.2-10.2zm3.8-11.4L59 24h-.9l-.3.2.6 1.6z"
  fill="#202020"></path>
</svg>