<svg xmlns="http://www.w3.org/2000/svg" viewBox="0 0 64 64" aria-labelledby="title"
aria-describedby="desc" role="img" xmlns:xlink="http://www.w3.org/1999/xlink">
  <title>Woman Bag</title>
  <desc>A solid styled icon from Orion Icon Library.</desc>
  <path data-name="layer2"
  d="M34 57h-4.5L2 49.1V61a2 2 0 0 0 2 2h56a2 2 0 0 0 2-2V49.1l-27.5 7.8z"
  fill="#202020"></path>
  <path data-name="layer1" d="M62 31a30 30 0 1 0-60 0 2 2 0 0 0 .3 1 2 2 0 0 0-.3 1v11.9L30.3 53h3.4L62 45V33a2 2 0 0 0-.3-1 2 2 0 0 0 .3-1zM6 31a26 26 0 1 1 52 0z"
  fill="#202020"></path>
</svg>