<svg xmlns="http://www.w3.org/2000/svg" viewBox="0 0 64 64" aria-labelledby="title"
aria-describedby="desc" role="img" xmlns:xlink="http://www.w3.org/1999/xlink">
  <title>Woman Handbag</title>
  <desc>A solid styled icon from Orion Icon Library.</desc>
  <path data-name="layer2"
  d="M54 27h-2v-6a20 20 0 1 0-40 0v6h-2a4 4 0 0 0-4 4l.2 1.6 21.3 15.1a8.6 8.6 0 0 0 9 0L57.7 33l.3-2c.3-2-1.8-4-4-4zM34 43a2 2 0 1 1-4 0v-4a2 2 0 1 1 4 0zM16 27v-6a16 16 0 1 1 32 0v6z"
  fill="#202020"></path>
  <path data-name="layer1" d="M32 53a12 12 0 0 1-6.8-2L7 38.1 10 59c.4 2 1.8 4 4 4h36c2.2 0 3.7-2 4-4l2.9-20.6L38.8 51a12 12 0 0 1-6.8 2z"
  fill="#202020"></path>
</svg>