<svg xmlns="http://www.w3.org/2000/svg" viewBox="0 0 64 64" aria-labelledby="title"
aria-describedby="desc" role="img" xmlns:xlink="http://www.w3.org/1999/xlink">
  <title>Yen Bill</title>
  <desc>A solid styled icon from Orion Icon Library.</desc>
  <path data-name="layer1"
  d="M62 24V14H2v10a8 8 0 1 1 0 16v10h60V40a8 8 0 0 1 0-16zm-21.1-2.9L34.7 30h2.6a2 2 0 0 1 0 4H34v2h3.3a2 2 0 0 1 0 4H34v4a2 2 0 1 1-4 0v-4h-3.3a2 2 0 0 1 0-4H30v-2h-3.3a2 2 0 0 1 0-4h2.6l-6.1-8.9a2 2 0 0 1 3.3-2.3l5.6 8 5.6-8a2 2 0 1 1 3.3 2.3z"
  fill="#202020"></path>
</svg>