<svg xmlns="http://www.w3.org/2000/svg" viewBox="0 0 64 64" aria-labelledby="title"
aria-describedby="desc" role="img" xmlns:xlink="http://www.w3.org/1999/xlink">
  <title>Yen Sign</title>
  <desc>A solid styled icon from Orion Icon Library.</desc>
  <path data-name="layer1"
  d="M32 2a30 30 0 1 0 30 30A30 30 0 0 0 32 2zm12.5 15.1L34.1 32H40a2 2 0 0 1 0 4h-6v4h6a2 2 0 0 1 0 4h-6v8a2 2 0 1 1-4 0v-8h-6a2 2 0 0 1 0-4h6v-4h-6a2 2 0 0 1 0-4h5.8L19.5 17.1a2 2 0 1 1 3.3-2.3L32 28.1l9.2-13.2a2 2 0 1 1 3.3 2.3z"
  fill="#202020"></path>
</svg>