<svg xmlns="http://www.w3.org/2000/svg" viewBox="0 0 64 64" aria-labelledby="title"
aria-describedby="desc" role="img" xmlns:xlink="http://www.w3.org/1999/xlink">
  <title>Add to Shopping Cart</title>
  <desc>A flat styled icon from Orion Icon Library.</desc>
  <circle data-name="layer5"
  cx="45.5" cy="46.5" r="16" fill="#49bcff"></circle>
  <path data-name="layer4" d="M45.5 30.5a15.9 15.9 0 0 1 9.728 3.318l.009-.008L57.5 22.5H5.566l5.951 30h19.155a15.987 15.987 0 0 1 14.828-22z"
  fill="#a7c5f2"></path>
  <path data-name="layer3" d="M7.565 23.5a1 1 0 0 1-.744-1.668l17.934-20a1 1 0 0 1 1.489 1.336l-17.934 20a1 1 0 0 1-.745.332zm47.935 0a1 1 0 0 1-.743-.331l-18-20a1 1 0 1 1 1.486-1.337l18 20A1 1 0 0 1 55.5 23.5z"
  fill="#7b8baf"></path>
  <path data-name="layer2" d="M59.5 23.5h-56a1 1 0 0 1 0-2h56a1 1 0 0 1 0 2z"
  fill="#c3d6f9"></path>
  <path data-name="layer1" d="M53.5 45.5h-7v-7a1 1 0 0 0-2 0v7h-7a1 1 0 0 0 0 2h7v7a1 1 0 1 0 2 0v-7h7a1 1 0 0 0 0-2z"
  fill="#fff"></path>
  <path data-name="opacity" d="M30.666 52.5h.006a15.975 15.975 0 0 1 3.515-17.31L16.872 52.5z"
  fill="#000064" opacity=".1"></path>
</svg>