<svg xmlns="http://www.w3.org/2000/svg" viewBox="0 0 64 64" aria-labelledby="title"
aria-describedby="desc" role="img" xmlns:xlink="http://www.w3.org/1999/xlink">
  <title>Add to Cart</title>
  <desc>A flat styled icon from Orion Icon Library.</desc>
  <path data-name="layer5"
  d="M13 23.5a1 1 0 0 1-.97-.758L8.22 7.5H3a1 1 0 0 1 0-2h6a1 1 0 0 1 .971.759l4 16a1 1 0 0 1-.728 1.213.949.949 0 0 1-.243.028z"
  fill="#8fa9d8"></path>
  <circle data-name="layer4" cx="20.001" cy="54.5" r="4" fill="#7b8baf"></circle>
  <circle data-name="layer4" cx="46.001" cy="54.5" r="4" fill="#7b8baf"></circle>
  <circle data-name="layer3" cx="46.001" cy="22.5" r="16" fill="#49bcff"></circle>
  <path data-name="layer2" d="M29.993 22.5H12l5.992 24h32l3.244-9.732-.012-.006A15.981 15.981 0 0 1 29.993 22.5z"
  fill="#a7c5f2"></path>
  <path data-name="layer1" d="M54 21.5h-7v-7a1 1 0 0 0-2 0v7h-7a1 1 0 0 0 0 2h7v7a1 1 0 0 0 2 0v-7h7a1 1 0 1 0 0-2z"
  fill="#fff"></path>
  <path data-name="opacity" d="M15.6 36.9l2.4 9.6h32l3.244-9.732-.012-.006a15.981 15.981 0 0 1-23.239-14.254z"
  fill="#000064" opacity=".1"></path>
</svg>