<svg xmlns="http://www.w3.org/2000/svg" viewBox="0 0 64 64" aria-labelledby="title"
aria-describedby="desc" role="img" xmlns:xlink="http://www.w3.org/1999/xlink">
  <title>Add to Wishlist</title>
  <desc>A flat styled icon from Orion Icon Library.</desc>
  <path data-name="layer4"
  fill="#a7c5f2" d="M37.5 52.5l-25.982-.001-5.951-30h51.934L55.239 33.81 50.5 52.5h-13z"></path>
  <path data-name="layer3" d="M7.566 23.5a.987.987 0 0 1-.667-.255 1 1 0 0 1-.077-1.413l17.934-20a1 1 0 0 1 1.489 1.336l-17.934 20a1 1 0 0 1-.745.332zm47.934 0a1 1 0 0 1-.744-.331l-18-20a1 1 0 1 1 1.486-1.337l18 20A1 1 0 0 1 55.5 23.5z"
  fill="#7b8baf"></path>
  <path data-name="layer2" d="M59.5 23.5h-56a1 1 0 1 1 0-2h56a1 1 0 0 1 0 2z"
  fill="#c3d6f9"></path>
  <path data-name="opacity" fill="#000064" opacity=".1" d="M32.539 45.46l-3.039-.961-8 8.001h27.242l-.205-1.264.315-.616-.437-.138L45.5 32.499 32.539 45.46z"></path>
  <path data-name="layer1" fill="#ffdea5" d="M45.5 55.387l-9.887 7.112 3.808-11.469-9.921-6.531h12.242L45.5 32.5l3.758 11.999H61.5l-9.918 6.531 3.809 11.47-9.891-7.113z"></path>
</svg>