<svg xmlns="http://www.w3.org/2000/svg" viewBox="0 0 64 64" aria-labelledby="title"
aria-describedby="desc" role="img" xmlns:xlink="http://www.w3.org/1999/xlink">
  <title>Add Item To Cart</title>
  <desc>A flat styled icon from Orion Icon Library.</desc>
  <circle data-name="layer5"
  cx="46" cy="22" r="16" fill="#1bd466"></circle>
  <path data-name="layer4" d="M13 23a1 1 0 0 1-.97-.758L8.22 7H3a1 1 0 1 1 0-2h6a1 1 0 0 1 .971.759l4 16a1 1 0 0 1-.728 1.212A.971.971 0 0 1 13 23z"
  fill="#8fa9d8"></path>
  <circle data-name="layer3" cx="20.001" cy="54" r="4" fill="#7b8baf"></circle>
  <circle data-name="layer3" cx="46.001" cy="54" r="4" fill="#7b8baf"></circle>
  <path data-name="layer2" d="M29.993 22H12l5.992 24h32l3.244-9.732-.012-.006A15.982 15.982 0 0 1 29.993 22z"
  fill="#a7c5f2"></path>
  <path data-name="opacity" d="M15.6 36.4L18 46h32l3.244-9.732-.012-.006a15.982 15.982 0 0 1-23.239-14.254z"
  fill="#000064" opacity=".1"></path>
  <path data-name="layer1" d="M52.715 23.29a1 1 0 0 0-1.414 0l-4.3 4.3V14a1 1 0 0 0-2 0v13.587l-4.3-4.3a1 1 0 1 0-1.416 1.413l6.008 6a1 1 0 0 0 1.414 0l6.008-6a1 1 0 0 0 0-1.41z"
  fill="#fff"></path>
</svg>