<svg xmlns="http://www.w3.org/2000/svg" viewBox="0 0 64 64" aria-labelledby="title"
aria-describedby="desc" role="img" xmlns:xlink="http://www.w3.org/1999/xlink">
  <title>Airport Trolley</title>
  <desc>A flat styled icon from Orion Icon Library.</desc>
  <path data-name="layer1"
  d="M46 15a1 1 0 0 1-1-1V8a1 1 0 0 0-1-1h-8a1 1 0 0 0-1 1v6a1 1 0 0 1-2 0V8a3 3 0 0 1 3-3h8a3 3 0 0 1 3 3v6a1 1 0 0 1-1 1z"
  fill="#f7c98a"></path>
  <rect data-name="layer4" x="20" y="12" width="40" height="26" rx="3"
  ry="3" fill="#de9372"></rect>
  <path data-name="opacity" d="M20 35a3 3 0 0 0 3 3h34a3 3 0 0 0 3-3V24H20z"
  fill="#000064" opacity=".1"></path>
  <circle data-name="layer3" cx="22" cy="57" r="4" fill="#7b8baf"></circle>
  <circle data-name="layer3" cx="48" cy="57" r="4" fill="#7b8baf"></circle>
  <path data-name="layer2" d="M58 46H16a1 1 0 0 1-.976-.783L7.2 10H2a1 1 0 0 1 0-2h6a1 1 0 0 1 .976.783L16.8 44H58a1 1 0 0 1 0 2z"
  fill="#8fa9d8"></path>
  <path data-name="layer1" d="M40 29a1 1 0 0 1-1-1v-6a1 1 0 0 1 2 0v6a1 1 0 0 1-1 1z"
  fill="#f7c98a"></path>
</svg>