<svg xmlns="http://www.w3.org/2000/svg" viewBox="0 0 64 64" aria-labelledby="title"
aria-describedby="desc" role="img" xmlns:xlink="http://www.w3.org/1999/xlink">
  <title>ATM</title>
  <desc>A flat styled icon from Orion Icon Library.</desc>
  <path data-name="layer4"
  d="M14 56H5a3 3 0 0 1-3-3V5a3 3 0 0 1 3-3h54a3 3 0 0 1 3 3v48a3 3 0 0 1-3 3H34"
  fill="#8fa9d8"></path>
  <path data-name="layer3" fill="#8adfff" d="M10 10.004h26v25.999H10z"></path>
  <path data-name="layer2" d="M38 45H10a1 1 0 0 1 0-2h28a1 1 0 0 1 0 2z"
  fill="#7b8baf"></path>
  <path data-name="layer1" d="M44 24a1 1 0 0 1 0-2h2a1 1 0 0 1 0 2h-2zm8.025 0a1 1 0 0 1 0-2h2a1 1 0 0 1 0 2h-2zM44 32a1 1 0 0 1 0-2h2a1 1 0 0 1 0 2h-2zm8.025 0a1 1 0 0 1 0-2h2a1 1 0 0 1 0 2h-2z"
  fill="#e6edf7"></path>
  <path data-name="layer1" d="M46 21h-2a2 2 0 0 0 0 4h2a2 2 0 1 0 0-4zm8.022 0h-2a2 2 0 0 0 .006 4h2a2 2 0 0 0 2-2 2 2 0 0 0-2.006-2zM46 29h-2a2 2 0 0 0 0 4h2a2 2 0 1 0 0-4zm8.023 0h-2a2 2 0 0 0 0 4h2a2 2 0 1 0 0-4z"
  fill="#e6edf7"></path>
  <path d="M53 14H43a2 2 0 0 0 0 4h10a2 2 0 0 0 0-4zm-8 8h-2a2 2 0 0 0 0 4h2a2 2 0 1 0 0-4zm8.022 0h-2a2 2 0 0 0 .006 4h2a2 2 0 0 0 2-2 2 2 0 0 0-2.006-2zM45 30h-2a2 2 0 0 0 0 4h2a2 2 0 1 0 0-4zm8.023 0h-2a2 2 0 0 0 0 4h2a2 2 0 1 0 0-4z"
  fill="#000064" opacity=".15"></path>
  <path data-name="layer1" d="M54 13H44a2 2 0 0 0 0 4h10a2 2 0 0 0 0-4zm-8 8h-2a2 2 0 0 0 0 4h2a2 2 0 1 0 0-4zm8.022 0h-2a2 2 0 0 0 .006 4h2a2 2 0 0 0 2-2 2 2 0 0 0-2.006-2zM46 29h-2a2 2 0 0 0 0 4h2a2 2 0 1 0 0-4zm8.023 0h-2a2 2 0 0 0 0 4h2a2 2 0 1 0 0-4z"
  fill="#e6edf7"></path>
  <path data-name="opacity" fill="#fff" opacity=".4" d="M36 36.003L10 10.004h26v25.999z"></path>
  <path data-name="layer1" fill="#e6edf7" d="M14 44.003h19.998V62H14z"></path>
  <path data-name="opacity" d="M2.878 55.125A2.99 2.99 0 0 0 5 56h9V44z"
  fill="#000064" opacity=".15"></path>
</svg>