<svg xmlns="http://www.w3.org/2000/svg" viewBox="0 0 64 64" aria-labelledby="title"
aria-describedby="desc" role="img" xmlns:xlink="http://www.w3.org/1999/xlink">
  <title>Bank Check</title>
  <desc>A flat styled icon from Orion Icon Library.</desc>
  <path data-name="layer3"
  fill="#c3d6f9" d="M1.993 24.008h60.014v34H1.993z"></path>
  <path data-name="layer2" d="M24.9 41H9.011a1 1 0 1 1 0-2H24.9a1 1 0 0 1 0 2zm10.012 8H9.011a1 1 0 0 1 0-2h25.9a1 1 0 1 1 0 2z"
  fill="#7b8baf"></path>
  <path data-name="opacity" fill="#000064" opacity=".1" d="M30.025 24.008H1.993v34l38.025.001 12.003-12.004-21.996-21.997z"></path>
  <path data-name="layer2" d="M34.893 18.825a1 1 0 0 1-.707-.293L24.5 8.846a2.678 2.678 0 0 0-1.9-.785 2.664 2.664 0 0 0-1.9.789l-1.261 1.25a1 1 0 1 1-1.412-1.417l1.257-1.251A4.653 4.653 0 0 1 22.6 6.061a4.661 4.661 0 0 1 3.315 1.371l9.685 9.686a1 1 0 0 1-.707 1.707z"
  fill="#7b8baf"></path>
  <path data-name="layer1" d="M13.115 12.4a3.758 3.758 0 0 1 5.315-5.308l30.338 30.332L52.021 46l-8.565-3.267-30.334-30.32z"
  fill="#f06365"></path>
  <path data-name="opacity" fill="#000064" opacity=".1" d="M22.538 21.825l5.315-5.313 1.413 1.414-5.314 5.313z"></path>
</svg>