<svg xmlns="http://www.w3.org/2000/svg" viewBox="0 0 64 64" aria-labelledby="title"
aria-describedby="desc" role="img" xmlns:xlink="http://www.w3.org/1999/xlink">
  <title>Bank Cards</title>
  <desc>A flat styled icon from Orion Icon Library.</desc>
  <path data-name="layer3"
  d="M62 56.6a2.4 2.4 0 0 1-2.4 2.4H16.4a2.4 2.4 0 0 1-2.4-2.4V31.4a2.4 2.4 0 0 1 2.4-2.4h43.2a2.4 2.4 0 0 1 2.4 2.4z"
  fill="#ffdda4"></path>
  <path data-name="layer1" d="M10.874 6.575a2.4 2.4 0 0 1 3.068-1.43l40.481 14.733a2.394 2.394 0 0 1 1.429 3.07l-1.907 5.245-44.98-16.372z"
  fill="#7b8baf"></path>
  <path data-name="layer2" d="M2.146 30.562l6.82-18.741 44.98 16.372-.295.807H16.4a2.4 2.4 0 0 0-2.4 2.4v6.025L3.574 33.63a2.4 2.4 0 0 1-1.428-3.068z"
  fill="#c3d6f9"></path>
  <path data-name="layer1" d="M17.274 22.636a1 1 0 0 1-.342-.06l-4.492-1.635a1 1 0 1 1 .684-1.879l4.492 1.638a1 1 0 0 1-.342 1.939zM36 44H22a1 1 0 1 1 0-2h14a1 1 0 1 1 0 2zm18.006-6h-6a1 1 0 1 1 0-2h6a1 1 0 1 1 0 2z"
  fill="#7b8baf"></path>
  <path data-name="opacity" d="M24 53h-2a1 1 0 0 1 0-2h2a1 1 0 1 1 0 2zm10 0h-2a1 1 0 0 1 0-2h2a1 1 0 0 1 0 2zm10 0h-2a1 1 0 1 1 0-2h2a1 1 0 0 1 0 2zm10 0h-2a1 1 0 0 1 0-2h2a1 1 0 0 1 0 2z"
  fill="#211f5e" opacity=".15"></path>
  <path data-name="opacity" d="M14 37.425V31.4a2.389 2.389 0 0 1 .663-1.65l-5.81 5.801z"
  fill="#000064" opacity=".1"></path>
</svg>