<svg xmlns="http://www.w3.org/2000/svg" viewBox="0 0 64 64" aria-labelledby="title"
aria-describedby="desc" role="img" xmlns:xlink="http://www.w3.org/1999/xlink">
  <title>Basket</title>
  <desc>A flat styled icon from Orion Icon Library.</desc>
  <path data-name="layer3"
  fill="#f7c98a" d="M58 27l-6 30H12.018L6.066 27H58z"></path>
  <path data-name="layer2" d="M8.068 28a1 1 0 0 1-.744-1.668l17.932-20a1 1 0 0 1 1.489 1.335l-17.932 20a1 1 0 0 1-.745.333zM56 28a.994.994 0 0 1-.744-.331l-18-20a1 1 0 1 1 1.486-1.337l18 20A1 1 0 0 1 56 28z"
  fill="#7b8baf"></path>
  <path data-name="layer1" d="M60 28H4a1 1 0 0 1 0-2h56a1 1 0 0 1 0 2z"
  fill="#ffdda4"></path>
  <path data-name="opacity" d="M32 50a1 1 0 0 1-1-1V35a1 1 0 0 1 2 0v14a1 1 0 0 1-1 1zm-11 0a1 1 0 0 1-1-1V35a1 1 0 0 1 2 0v14a1 1 0 0 1-1 1zm22 0a1 1 0 0 1-1-1V35a1 1 0 0 1 2 0v14a1 1 0 0 1-1 1z"
  fill="#000064" opacity=".1"></path>
</svg>