<svg xmlns="http://www.w3.org/2000/svg" viewBox="0 0 64 64" aria-labelledby="title"
aria-describedby="desc" role="img" xmlns:xlink="http://www.w3.org/1999/xlink">
  <title>Bill</title>
  <desc>A flat styled icon from Orion Icon Library.</desc>
  <path data-name="layer3"
  fill="#cce3ff" d="M48.001 6.499l-4-4H44l-3.999 4-4-4H36l-3.999 4-4-4H28l-3.999 4-4-4H20l-3.999 4-4-4H12v59l4-4 4 4.001h.001L20 61.499l4-4 4 4.001h.001L28 61.499l4-4 4 4.001h.001L36 61.499l4-4 4 4.001h.001L44 61.499l4-4 4 4.001V2.499l-3.999 4z"></path>
  <path data-name="layer2" d="M29 21H19a1 1 0 0 1 0-2h10a1 1 0 0 1 0 2zm-2 16h-8a1 1 0 0 1 0-2h8a1 1 0 1 1 0 2zm0-8h-8a1 1 0 0 1 0-2h8a1 1 0 0 1 0 2zm-4 16h-4a1 1 0 0 1 0-2h4a1 1 0 0 1 0 2z"
  fill="#7b8baf"></path>
  <path data-name="layer1" d="M46 36.25c0-1.94-1-4.478-5.776-5.557-2.8-.64-4.223-1.854-4.223-3.609 0-2.077 1.682-3.584 4-3.584a3.989 3.989 0 0 1 3.948 3.332 1 1 0 1 0 1.972-.333A5.976 5.976 0 0 0 41 21.588V20a1 1 0 1 0-2 0v1.578a5.567 5.567 0 0 0-5 5.506c0 1.934 1 4.469 5.778 5.559 2.8.631 4.22 1.845 4.22 3.606a4.239 4.239 0 0 1-4 4.25 4 4 0 0 1-4-4 1 1 0 0 0-2 0 6 6 0 0 0 5 5.91V44a1 1 0 0 0 2 0v-1.6A6.278 6.278 0 0 0 46 36.25z"
  fill="#f27e7c"></path>
</svg>