<svg xmlns="http://www.w3.org/2000/svg" viewBox="0 0 64 64" aria-labelledby="title"
aria-describedby="desc" role="img" xmlns:xlink="http://www.w3.org/1999/xlink">
  <title>Bitcoin Unit</title>
  <desc>A flat styled icon from Orion Icon Library.</desc>
  <path data-name="layer2"
  d="M54 32a8 8 0 0 1 8-8V14H2v10a8 8 0 1 1 0 16v10h60V40a8 8 0 0 1-8-8z"
  fill="#f27e7c"></path>
  <path data-name="opacity" d="M62 40a8 8 0 0 1-8-8H10a8 8 0 0 1-8 8v10h60z"
  fill="#000064" opacity=".1"></path>
  <path data-name="layer1" d="M40 37a7.141 7.141 0 0 0-2-5.055 6.341 6.341 0 0 0-1.467-1.1q.224-.168.431-.357a5.248 5.248 0 0 0 1.721-3.883 5.518 5.518 0 0 0-3.686-5.257V18a1 1 0 0 0-2 0v3l-4-.016V18a1 1 0 1 0-2 0v2.979h-.994a1 1 0 0 0-1 1V42a1 1 0 0 0 1 1h1v2.972a1 1 0 0 0 2 0V43h4v2.974a1 1 0 0 0 2 0v-3.049A5.694 5.694 0 0 0 40 37zm-3.308-10.4a3.267 3.267 0 0 1-1.074 2.418 3.814 3.814 0 0 1-2.59.981h-6.022v-7.022l6.12.023a3.58 3.58 0 0 1 3.567 3.6zM34.028 41H27v-9h6.023a4.916 4.916 0 0 1 3.562 1.36A5.13 5.13 0 0 1 38 37a3.746 3.746 0 0 1-3.972 4z"
  fill="#ffdda4"></path>
</svg>