<svg xmlns="http://www.w3.org/2000/svg" viewBox="0 0 64 64" aria-labelledby="title"
aria-describedby="desc" role="img" xmlns:xlink="http://www.w3.org/1999/xlink">
  <title>Bitcoin</title>
  <desc>A flat styled icon from Orion Icon Library.</desc>
  <path data-name="layer2"
  d="M49 41.626a14.384 14.384 0 0 0-6.972-12.318A12.608 12.608 0 0 0 35 8.194V3h-6v5h-4V3h-6v5h-4v48h4v5h6v-5h4v5h6v-5.02a14.219 14.219 0 0 0 14-14.354zm-9.5-21a6.633 6.633 0 0 1-6.625 6.625L21 27.248V14h11.872a6.632 6.632 0 0 1 6.628 6.625zM34.621 50H21V33.248h12.062c.593 0 .938-.041 1.938-.121v.121a8.649 8.649 0 0 1 8.19 8.376A8.55 8.55 0 0 1 34.621 50z"
  fill="#c3d6f9"></path>
  <path data-name="layer1" fill="#a7c5f2" d="M19 3h6v5h-6zm0 53h6v5h-6zm10 0h6v5h-6zm6-47.806C33.438 7.985 29 8 29 8V3h6z"></path>
  <path data-name="opacity" fill="#000064" opacity=".1" d="M19 61v-5h6l-6 5zm10 0v-5h6l-6 5z"></path>
</svg>