<svg xmlns="http://www.w3.org/2000/svg" viewBox="0 0 64 64" aria-labelledby="title"
aria-describedby="desc" role="img" xmlns:xlink="http://www.w3.org/1999/xlink">
  <title>Briefcase</title>
  <desc>A flat styled icon from Orion Icon Library.</desc>
  <path data-name="layer2"
  d="M22 18a1 1 0 0 1-1-1v-4a9.01 9.01 0 0 1 9-9h4a9.01 9.01 0 0 1 9 9v3.916a1 1 0 0 1-2 0V13a7.008 7.008 0 0 0-7-7h-4a7.008 7.008 0 0 0-7 7v4a1 1 0 0 1-1 1z"
  fill="#de9372"></path>
  <path data-name="layer2" d="M36 43h26V21a4 4 0 0 0-4-4H6a4 4 0 0 0-4 4v22h26v-4h8z"
  fill="#de9372"></path>
  <path data-name="layer2" fill="#de9372" d="M59.998 42.997v16h-56v-16h23.998v4.002h8.002v-4.002h24z"></path>
  <path data-name="opacity" d="M22 18a1 1 0 0 1-1-1v-4a9.01 9.01 0 0 1 9-9h4a9.01 9.01 0 0 1 9 9v3.916a1 1 0 0 1-2 0V13a7.008 7.008 0 0 0-7-7h-4a7.008 7.008 0 0 0-7 7v4a1 1 0 0 1-1 1zm37.998 24.997v16h-56v-16h23.998v4.002h8.002v-4.002h24z"
  fill="#000064" opacity=".15"></path>
  <path data-name="opacity" fill="#000064" opacity=".1" d="M32.998 50.002h-8v-8l2.998-3.003 8.002 8-3 3.003z"></path>
  <path data-name="layer1" fill="#ffdda4" d="M27.991 46.994l.013-8 8 .012-.013 8z"></path>
</svg>