<svg xmlns="http://www.w3.org/2000/svg" viewBox="0 0 64 64" aria-labelledby="title"
aria-describedby="desc" role="img" xmlns:xlink="http://www.w3.org/1999/xlink">
  <title>British Pound Sign</title>
  <desc>A flat styled icon from Orion Icon Library.</desc>
  <circle data-name="layer1"
  cx="32" cy="32" r="30" fill="#ffdda4"></circle>
  <path data-name="opacity" d="M2 32a30 30 0 0 0 30 30V2A30 30 0 0 0 2 32z"
  fill="#000064" opacity=".1"></path>
  <path data-name="opacity" d="M34 13a9.011 9.011 0 0 0-9 9l.008 9H20a1 1 0 0 0 0 2h5.01l.006 6.616c0 3.772-1.607 5.382-5.375 5.382a1 1 0 0 0 0 2h21.308a1 1 0 0 0 0-2H25.292a7.64 7.64 0 0 0 1.724-5.383L27.01 33H41a1 1 0 0 0 0-2H27.008L27 22a7 7 0 0 1 14 0 1 1 0 0 0 2 0 9.01 9.01 0 0 0-9-9z"
  fill="#000064" opacity=".1"></path>
</svg>