<svg xmlns="http://www.w3.org/2000/svg" viewBox="0 0 64 64" aria-labelledby="title"
aria-describedby="desc" role="img" xmlns:xlink="http://www.w3.org/1999/xlink">
  <title>British Pound Bill</title>
  <desc>A flat styled icon from Orion Icon Library.</desc>
  <path data-name="layer2"
  d="M54.009 32a8 8 0 0 1 8-8V14H2v10a8 8 0 1 1 0 16v10h60.01V40a8 8 0 0 1-8.001-8z"
  fill="#f27e7c"></path>
  <path data-name="opacity" d="M62.009 40a8 8 0 0 1-8-8H10a8 8 0 0 1-8 8v10h60.01z"
  fill="#000064" opacity=".1"></path>
  <path data-name="layer1" d="M38 41h-9.7a5.725 5.725 0 0 0 .7-2.99V35h9a1 1 0 0 0 0-2h-9l-.006-6a4 4 0 0 1 8 0 1 1 0 0 0 2 0 6 6 0 1 0-12 0L27 33h-3a1 1 0 0 0 0 2h3v3.013C27 40.162 26.168 41 24.021 41a1 1 0 0 0 0 2H38a1 1 0 0 0 0-2z"
  fill="#ffdda4"></path>
</svg>