<svg xmlns="http://www.w3.org/2000/svg" viewBox="0 0 64 64" aria-labelledby="title"
aria-describedby="desc" role="img" xmlns:xlink="http://www.w3.org/1999/xlink">
  <title>Calc</title>
  <desc>A flat styled icon from Orion Icon Library.</desc>
  <path data-name="layer3"
  d="M32 4H12a8 8 0 0 0-8 8v20h28z" fill="#8fa9d8"></path>
  <path data-name="opacity" d="M32 4H12a8 8 0 0 0-8 8v20h28z" fill="#000064"
  opacity=".15"></path>
  <path data-name="layer3" d="M60 32V12a8 8 0 0 0-8-8H32v28z" fill="#8fa9d8"></path>
  <path data-name="layer4" d="M32 32v28h20a8 8 0 0 0 8-8V32z" fill="#cce3ff"></path>
  <path data-name="layer3" d="M4 32v20a8.005 8.005 0 0 0 8 8h20V32z"
  fill="#8fa9d8"></path>
  <path data-name="layer2" d="M24 17h-5v-5a1 1 0 1 0-2 0v5h-5a1 1 0 1 0 0 2h5v5a1 1 0 0 0 2 0v-5h5a1 1 0 0 0 0-2zm-1.291 24.295a1 1 0 0 0-1.414 0L18 44.587l-3.293-3.293a1 1 0 0 0-1.414 1.414L16.587 46l-3.292 3.291a1 1 0 1 0 1.414 1.413L18 47.416l3.291 3.291a1 1 0 0 0 1.414-1.413L19.416 46l3.293-3.293a1 1 0 0 0 0-1.412zM52 17H40a1 1 0 0 0 0 2h12a1 1 0 0 0 0-2z"
  fill="#fff"></path>
  <path data-name="layer1" d="M50 42h-8a1 1 0 0 0 0 2h8a1 1 0 0 0 0-2zm0 6h-8a1 1 0 0 0 0 2h8a1 1 0 0 0 0-2z"
  fill="#7b8baf"></path>
</svg>