<svg xmlns="http://www.w3.org/2000/svg" viewBox="0 0 64 64" aria-labelledby="title"
aria-describedby="desc" role="img" xmlns:xlink="http://www.w3.org/1999/xlink">
  <title>Cash Dispenser</title>
  <desc>A flat styled icon from Orion Icon Library.</desc>
  <path data-name="layer3"
  d="M14 27.5H5a3 3 0 0 1-3-3v-18a3 3 0 0 1 3-3h54a3 3 0 0 1 3 3v18a3 3 0 0 1-3 3h-9"
  fill="#8fa9d8"></path>
  <path data-name="layer2" fill="#7b8baf" d="M14 19.496h-4V11.5h43.998v7.996h-3.996"></path>
  <path data-name="opacity" fill="#000064" opacity=".15" d="M12.998 13.5h37.998v5.996H12.998z"></path>
  <path data-name="layer1" d="M49 53.5a1 1 0 0 0-1 1H16a1 1 0 0 0-2 0v5a1 1 0 0 0 1 1h34a1 1 0 0 0 1-1v-5a1 1 0 0 0-1-1z"
  fill="#72b292"></path>
  <path data-name="opacity" d="M49 53.5a1 1 0 0 0-1 1H16a1 1 0 0 0-2 0v5a1 1 0 0 0 1 1h34a1 1 0 0 0 1-1v-5a1 1 0 0 0-1-1z"
  fill="#000064" opacity=".15"></path>
  <path data-name="layer1" d="M15 13.5h-2v41a1 1 0 0 0 1 1h36a1 1 0 0 0 1-1v-41h-2"
  fill="#72b292"></path>
  <path data-name="opacity" d="M21.516 53.492h20.962A9.985 9.985 0 0 1 49 46.975V13.5H15v33.475a9.987 9.987 0 0 1 6.516 6.517z"
  fill="#fff" opacity=".3"></path>
  <path data-name="layer1" d="M38 34.4c0-1.94-1-4.48-5.78-5.557-2.8-.642-4.22-1.857-4.22-3.609 0-2.077 1.682-3.584 4-3.584a3.989 3.989 0 0 1 3.948 3.332 1 1 0 1 0 1.972-.332A5.976 5.976 0 0 0 33 19.743v-1.589a1 1 0 0 0-2 0v1.577a5.567 5.567 0 0 0-5 5.507c0 1.932 1 4.465 5.777 5.56C34.576 31.43 36 32.643 36 34.4c0 2.077-1.682 3.584-4 3.584a4 4 0 0 1-4-4 1 1 0 0 0-2 0 6 6 0 0 0 5 5.91v1.59a1 1 0 0 0 2 0v-1.573a5.567 5.567 0 0 0 5-5.511z"
  fill="#72b292"></path>
</svg>