<svg xmlns="http://www.w3.org/2000/svg" viewBox="0 0 64 64" aria-labelledby="title"
aria-describedby="desc" role="img" xmlns:xlink="http://www.w3.org/1999/xlink">
  <title>Coins</title>
  <desc>A flat styled icon from Orion Icon Library.</desc>
  <path data-name="layer1"
  d="M20.011 2c9.946 0 18.007 2.024 18.007 4.825 0 .142-.035.175-.075.175H38v29.154c-6.982.7-12 2.567-12 4.773v10.784c-1.875.187-3.89.287-5.994.288-9.947 0-18-2.272-18-5.073V7.069C2 4.269 10.064 2 20.011 2z"
  fill="#f7c98a"></path>
  <path data-name="opacity" d="M20.011 2c9.946 0 18.007 2.024 18.007 4.825 0 .142-.035.175-.075.175H38v29.154c-6.982.7-12 2.567-12 4.773v10.784c-1.875.187-3.89.287-5.994.288-9.947 0-18-2.272-18-5.073V7.069C2 4.269 10.064 2 20.011 2z"
  fill="#000064" opacity=".1"></path>
  <path data-name="opacity" d="M19.992 18.992c9.942 0 18-2.273 18-5.074v2c0 2.8-8.058 5.073-18 5.073s-18-2.273-18-5.073v-2c-.003 2.802 8.059 5.073 18 5.074zm0 8c9.942 0 18-2.273 18-5.074v2c0 2.8-8.06 5.072-18 5.072s-18-2.271-18-5.072v-2c-.004 2.801 8.059 5.074 18 5.074zm.001 8c9.941 0 18-2.273 18-5.074v2c0 2.8-8.059 5.073-18 5.073s-18-2.273-18-5.073v-2c-.005 2.801 8.058 5.073 18 5.074zm0 8c9.941 0 18-2.272 18-5.073v2c0 2.8-8.06 5.073-18 5.073s-18-2.273-18-5.073v-2c-.005 2.801 8.058 5.072 18 5.073z"
  fill="#000064" opacity=".1"></path>
  <path data-name="layer1" d="M44.014 35.856c9.941 0 18 2.1 18 4.895 0 .143-.031.247-.071.247H62v15.934C62 59.731 53.946 62 44 62s-18-2.272-18-5.071V40.926c0-2.8 8.072-5.07 18.014-5.07z"
  fill="#f7c98a"></path>
  <path data-name="opacity" d="M44 53c9.941 0 18-2.273 18-5.074v2C62 52.724 53.943 55 44 55s-18-2.273-18-5.073v-2C26 50.724 34.061 53 44 53z"
  fill="#000064" opacity=".1"></path>
  <ellipse data-name="opacity" cx="19.991" cy="7.069" rx="18.008"
  ry="5.072" fill="#fff" opacity=".3"></ellipse>
  <ellipse data-name="opacity" cx="44.001" cy="40.927" rx="18.002"
  ry="5.072" fill="#fff" opacity=".3"></ellipse>
  <path data-name="opacity" d="M26 40.942v15.99C26 59.731 34.061 62 44 62V46c-9.921 0-17.966-2.265-18-5.058z"
  fill="#000064" opacity=".1"></path>
  <path data-name="opacity" d="M20.007 52c2.1 0 4.119-.1 5.994-.288V40.926a1.589 1.589 0 0 1 .191-.72l-.007-.007-11.568 11.568c1.701.151 3.512.233 5.39.233z"
  fill="#000064" opacity=".1"></path>
</svg>