<svg xmlns="http://www.w3.org/2000/svg" viewBox="0 0 64 64" aria-labelledby="title"
aria-describedby="desc" role="img" xmlns:xlink="http://www.w3.org/1999/xlink">
  <title>Credit Card</title>
  <desc>A flat styled icon from Orion Icon Library.</desc>
  <path data-name="layer1"
  d="M62 16a2.988 2.988 0 0 0-2.986-3H5a3 3 0 0 0-3 3v7h60z" fill="#7b8baf"></path>
  <path data-name="layer2" d="M2 23v25a3 3 0 0 0 3 3h54.014A2.989 2.989 0 0 0 62 48V23"
  fill="#c3d6f9"></path>
  <path data-name="layer1" d="M30 32H10a1 1 0 0 1 0-2h20a1 1 0 0 1 0 2zm24.01 0h-6a1 1 0 0 1 0-2h6a1 1 0 0 1 0 2zm-36.018 8H10a1 1 0 0 1 0-2h7.992a1 1 0 1 1 0 2z"
  fill="#7b8baf"></path>
  <path data-name="opacity" d="M59.014 13H20l38 38h1.014A2.989 2.989 0 0 0 62 48V16a2.988 2.988 0 0 0-2.986-3z"
  fill="#fff" opacity=".2"></path>
</svg>