<svg xmlns="http://www.w3.org/2000/svg" viewBox="0 0 64 64" aria-labelledby="title"
aria-describedby="desc" role="img" xmlns:xlink="http://www.w3.org/1999/xlink">
  <title>Discount</title>
  <desc>A flat styled icon from Orion Icon Library.</desc>
  <circle data-name="layer2"
  cx="32" cy="32" r="30" fill="#f27e7c"></circle>
  <path data-name="opacity" d="M2 32a30 30 0 0 0 30 30V2A30 30 0 0 0 2 32z"
  fill="#000064" opacity=".1"></path>
  <path data-name="layer1" d="M28 24a6 6 0 1 0-6 6 6.007 6.007 0 0 0 6-6zm-10 0a4 4 0 1 1 4 4 4 4 0 0 1-4-4zm24 10a6 6 0 1 0 6 6 6.007 6.007 0 0 0-6-6zm0 10a4 4 0 1 1 4-4 4 4 0 0 1-4 4zm4.711-26.705a1 1 0 0 0-1.414 0l-28 28a1 1 0 1 0 1.414 1.414l28-28a1 1 0 0 0 0-1.414z"
  fill="#fff"></path>
</svg>