<svg xmlns="http://www.w3.org/2000/svg" viewBox="0 0 64 64" aria-labelledby="title"
aria-describedby="desc" role="img" xmlns:xlink="http://www.w3.org/1999/xlink">
  <title>Dollar Bill</title>
  <desc>A flat styled icon from Orion Icon Library.</desc>
  <path data-name="layer2"
  d="M54 32a8 8 0 0 1 8-8V14H2v10a8 8 0 1 1 0 16v10h60V40a8 8 0 0 1-8-8z"
  fill="#f27e7c"></path>
  <path data-name="opacity" d="M62 40a8 8 0 0 1-8-8H10a8 8 0 0 1-8 8v10h60z"
  fill="#000064" opacity=".1"></path>
  <path data-name="layer1" d="M38 36.585c0-1.94-1-4.48-5.78-5.559-2.8-.64-4.219-1.854-4.219-3.607 0-2.077 1.682-3.584 4-3.584a3.987 3.987 0 0 1 3.944 3.331 1 1 0 1 0 1.972-.332A5.975 5.975 0 0 0 33 21.924v-1.59a1 1 0 1 0-2 0v1.579a5.567 5.567 0 0 0-5 5.506c0 1.934 1 4.467 5.777 5.558 2.8.633 4.22 1.846 4.22 3.608 0 2.077-1.682 3.584-4 3.584a4.005 4.005 0 0 1-4-4 1 1 0 0 0-2 0 6.006 6.006 0 0 0 5 5.911v1.59a1 1 0 0 0 2 0v-1.578A5.568 5.568 0 0 0 38 36.585z"
  fill="#ffdda4"></path>
</svg>