<svg xmlns="http://www.w3.org/2000/svg" viewBox="0 0 64 64" aria-labelledby="title"
aria-describedby="desc" role="img" xmlns:xlink="http://www.w3.org/1999/xlink">
  <title>Entrance</title>
  <desc>A flat styled icon from Orion Icon Library.</desc>
  <path data-name="layer3"
  d="M54.953 18.675a6.873 6.873 0 0 1-9.625-9.626L38.279 2 2 38.281l7.047 7.049a6.871 6.871 0 0 1 9.625 9.623L25.721 62 62 25.723z"
  fill="#a0dff7"></path>
  <path data-name="opacity" d="M45.944 18.037a6.885 6.885 0 0 1-.616-8.988L38.279 2 2 38.281l7.047 7.049a6.882 6.882 0 0 1 8.99.615z"
  fill="#000064" opacity=".15"></path>
  <path data-name="layer2" d="M33.367 15.248l-1.394-1.394a1 1 0 1 1 1.415-1.414l1.395 1.394a1 1 0 0 1-1.415 1.414zm4.187 4.188a1 1 0 0 1 1.414-1.415l1.395 1.394a1 1 0 0 1-1.414 1.415z"
  fill="#46b1f0"></path>
  <path data-name="layer1" d="M44.529 26.411l-1.395-1.4a1 1 0 0 1 1.415-1.411l1.395 1.4a1 1 0 0 1-1.415 1.413zm5.58 5.58L48.715 30.6a1 1 0 1 1 1.414-1.414l1.394 1.395a1 1 0 1 1-1.414 1.415z"
  fill="#71c3f3"></path>
  <path data-name="layer2" d="M13.867 34.818l-1.394-1.394a1 1 0 0 1 1.415-1.414l1.393 1.395a1 1 0 1 1-1.415 1.413zm5.582 5.582L18.055 39a1 1 0 1 1 1.414-1.414l1.395 1.4a1 1 0 1 1-1.415 1.414z"
  fill="#46b1f0"></path>
  <path data-name="layer1" d="M25.031 45.982l-1.394-1.4a1 1 0 1 1 1.414-1.413l1.394 1.4a1 1 0 1 1-1.415 1.414zm5.583 5.582l-1.394-1.4a1 1 0 1 1 1.415-1.413l1.393 1.4a1 1 0 1 1-1.413 1.413z"
  fill="#71c3f3"></path>
</svg>