<svg xmlns="http://www.w3.org/2000/svg" viewBox="0 0 64 64" aria-labelledby="title"
aria-describedby="desc" role="img" xmlns:xlink="http://www.w3.org/1999/xlink">
  <title>Euro Bill</title>
  <desc>A flat styled icon from Orion Icon Library.</desc>
  <path data-name="layer2"
  d="M54 32a8 8 0 0 1 8-8V14H2v10a8 8 0 1 1 0 16v10h60V40a8 8 0 0 1-8-8z"
  fill="#f27e7c"></path>
  <path data-name="opacity" d="M62 40a8 8 0 0 1-8-8H10a8 8 0 0 1-8 8v10h60z"
  fill="#000064" opacity=".1"></path>
  <path data-name="layer1" d="M39 42h-2a10.011 10.011 0 0 1-9.16-6H36a1 1 0 0 0 0-2h-8.8a10.026 10.026 0 0 1 0-4H38a1 1 0 0 0 0-2H27.843A10.011 10.011 0 0 1 37 22h2a1 1 0 0 0 0-2h-2a12.009 12.009 0 0 0-11.3 8H22a1 1 0 0 0 0 2h3.177a11.166 11.166 0 0 0 0 4H24a1 1 0 0 0 0 2h1.7A12.011 12.011 0 0 0 37 44h2a1 1 0 0 0 0-2z"
  fill="#ffdda4"></path>
</svg>