<svg xmlns="http://www.w3.org/2000/svg" viewBox="0 0 64 64" aria-labelledby="title"
aria-describedby="desc" role="img" xmlns:xlink="http://www.w3.org/1999/xlink">
  <title>Euro Sign</title>
  <desc>A flat styled icon from Orion Icon Library.</desc>
  <circle data-name="layer1"
  cx="32" cy="32" r="30" fill="#ffdda4"></circle>
  <path data-name="opacity" d="M2 32a30 30 0 0 0 30 30V2A30 30 0 0 0 2 32z"
  fill="#000064" opacity=".1"></path>
  <path data-name="opacity" d="M39 47h-2.135A15.013 15.013 0 0 1 22.74 37H33a1 1 0 0 0 0-2H22.168a15 15 0 0 1-.3-3c0-.337.028-.668.051-1H37a1 1 0 0 0 0-2H22.168a15.025 15.025 0 0 1 14.7-12H39a1 1 0 0 0 0-2h-2.135a17.016 17.016 0 0 0-16.718 14H17a1 1 0 0 0 0 2h2.916c-.02.332-.051.662-.051 1a16.969 16.969 0 0 0 .281 3H19a1 1 0 0 0 0 2h1.618a17.028 17.028 0 0 0 16.247 12H39a1 1 0 0 0 0-2z"
  fill="#000064" opacity=".1"></path>
</svg>