<svg xmlns="http://www.w3.org/2000/svg" viewBox="0 0 64 64" aria-labelledby="title"
aria-describedby="desc" role="img" xmlns:xlink="http://www.w3.org/1999/xlink">
  <title>Giftbox</title>
  <desc>A flat styled icon from Orion Icon Library.</desc>
  <path data-name="layer2"
  d="M41.5 3a9.5 9.5 0 0 0-9.5 9.5V22h9.5a9.5 9.5 0 0 0 0-19zm-19 0a9.5 9.5 0 0 1 9.5 9.5V22h-9.5a9.5 9.5 0 0 1 0-19z"
  fill="#f7c98a"></path>
  <path data-name="opacity" d="M22.5 3a9.5 9.5 0 0 1 9.5 9.5V22h-9.5a9.5 9.5 0 0 1 0-19z"
  opacity=".15"></path>
  <path data-name="layer3" fill="#f27e7c" d="M24 21.999H4v12h20v-12z"></path>
  <path data-name="layer2" fill="#f7c98a" d="M24 21.999h16v12H24z"></path>
  <path data-name="opacity" fill="#fff" opacity=".15" d="M24 21.999h16v12H24z"></path>
  <path data-name="layer3" fill="#f27e7c" d="M40 21.999v12h20v-12H40z"></path>
  <path data-name="layer1" fill="#d35e5e" d="M8 33.999h16v28H8z"></path>
  <path data-name="layer2" fill="#f7c98a" d="M24 33.999h16v28H24z"></path>
  <path data-name="layer1" fill="#d35e5e" d="M40 33.999h16v28H40z"></path>
  <path data-name="opacity" opacity=".15" d="M8 33.999h48V38H8z"></path>
</svg>