<svg xmlns="http://www.w3.org/2000/svg" viewBox="0 0 64 64" aria-labelledby="title"
aria-describedby="desc" role="img" xmlns:xlink="http://www.w3.org/1999/xlink">
  <title>Grocery Basket</title>
  <desc>A flat styled icon from Orion Icon Library.</desc>
  <path data-name="layer5"
  fill="#a7c5f2" d="M58 27l-6 30H12.02L6.068 27H58z"></path>
  <circle data-name="layer4" cx="58" cy="9" r="2" fill="#fc6"></circle>
  <path data-name="layer3" d="M60 28H4a1 1 0 0 1 0-2h56a1 1 0 0 1 0 2z"
  fill="#c3d6f9"></path>
  <path data-name="layer2" d="M32 36a1 1 0 0 1-.707-1.707l26-26a1 1 0 1 1 1.414 1.414l-26 26A1 1 0 0 1 32 36z"
  fill="#7b8baf"></path>
  <path data-name="layer1" d="M58 12a3 3 0 1 1 3-3 3 3 0 0 1-3 3zm0-4a1 1 0 1 0 1 1 1 1 0 0 0-1-1z"
  fill="#556685"></path>
</svg>