<svg xmlns="http://www.w3.org/2000/svg" viewBox="0 0 64 64" aria-labelledby="title"
aria-describedby="desc" role="img" xmlns:xlink="http://www.w3.org/1999/xlink">
  <title>Grocery Cart</title>
  <desc>A flat styled icon from Orion Icon Library.</desc>
  <path data-name="layer1"
  d="M19 46h32a4 4 0 0 0 4-4 4 4 0 0 0-4-4H23a4 4 0 0 1-4-4 4 4 0 0 1 4-4h34a4 4 0 0 0 4-4 4 4 0 0 0-4-4H15z"
  fill="#a7c5f2"></path>
  <circle data-name="layer3" cx="23" cy="54" r="4" fill="#7b8baf"></circle>
  <circle data-name="layer3" cx="49" cy="54" r="4" fill="#7b8baf"></circle>
  <path data-name="layer2" d="M51 38H23a4 4 0 0 1 0-8h34a3.971 3.971 0 0 0 3.032-1.419L61 26a4 4 0 0 0-4-4H14l4 24h33a4 4 0 0 0 0-8z"
  fill="#c8daf8"></path>
  <path data-name="layer1" d="M15 23a1 1 0 0 1-.969-.757L10.219 7H3a1 1 0 0 1 0-2h8a1 1 0 0 1 .97.758l4 16a1 1 0 0 1-.728 1.213A1.021 1.021 0 0 1 15 23z"
  fill="#a7c5f2"></path>
  <path data-name="layer1" d="M51 47H19a1 1 0 0 1 0-2h32a3 3 0 0 0 0-6H23a5 5 0 0 1 0-10h34a3 3 0 0 0 0-6H15a1 1 0 0 1 0-2h42a5 5 0 0 1 0 10H23a3 3 0 0 0 0 6h28a5 5 0 0 1 0 10z"
  fill="#a7c5f2"></path>
</svg>