<svg xmlns="http://www.w3.org/2000/svg" viewBox="0 0 64 64" aria-labelledby="title"
aria-describedby="desc" role="img" xmlns:xlink="http://www.w3.org/1999/xlink">
  <title>Hand Purse</title>
  <desc>A flat styled icon from Orion Icon Library.</desc>
  <path data-name="layer3"
  d="M50 23a1 1 0 0 1-1-1v-2a17 17 0 0 0-34 0v2a1 1 0 0 1-2 0v-2a19 19 0 0 1 38 0v2a1 1 0 0 1-1 1z"
  fill="#7b8baf"></path>
  <path data-name="layer2" d="M54 22H10S4 44 4 50a12 12 0 0 0 12 12h32a12 12 0 0 0 12-12c0-6-6-28-6-28z"
  fill="#f27e7c"></path>
  <path data-name="opacity" d="M48 33H16a1 1 0 0 1 0-2h32a1 1 0 0 1 0 2z"
  fill="#000064" opacity=".1"></path>
  <path data-name="layer1" d="M45 37a1 1 0 0 0 2 0v-5h-2z" fill="#ffdda4"></path>
</svg>