<svg xmlns="http://www.w3.org/2000/svg" viewBox="0 0 64 64" aria-labelledby="title"
aria-describedby="desc" role="img" xmlns:xlink="http://www.w3.org/1999/xlink">
  <title>Hand Truck</title>
  <desc>A flat styled icon from Orion Icon Library.</desc>
  <path data-name="layer5"
  d="M32.96 50.266a1 1 0 0 1-.336-1.942l22.039-7.856a1 1 0 0 1 .653-.006l6 2a1 1 0 1 1-.633 1.9l-5.673-1.893-21.71 7.738a1 1 0 0 1-.34.059zM23 43.355a1 1 0 0 1-.937-.651L10.3 11.146H3a1 1 0 0 1 0-2h8a1 1 0 0 1 .937.65L23.936 42A1 1 0 0 1 23 43.355z"
  fill="#7b8baf"></path>
  <circle data-name="layer4" cx="25.006" cy="50.101" r="8" fill="#8fa9d8"></circle>
  <path data-name="layer3" fill="#d8a16f" d="M59.001 32.1L30.928 42.608l-9.493-26.509 28.071-10.2L59.001 32.1z"></path>
  <circle data-name="layer2" cx="25.001" cy="50.101" r="2" fill="#d2ddf0"></circle>
  <path data-name="opacity" fill="#000064" opacity=".15" d="M44.722 22.36l-10.8-10.799-12.487 4.538 7.792 21.757L44.722 22.36z"></path>
  <path data-name="layer1" fill="#ffdda4" d="M40.217 9.474l4.504 12.886-9.008 3.478-4.714-13.214"></path>
</svg>