<svg xmlns="http://www.w3.org/2000/svg" viewBox="0 0 64 64" aria-labelledby="title"
aria-describedby="desc" role="img" xmlns:xlink="http://www.w3.org/1999/xlink">
  <title>Law</title>
  <desc>A flat styled icon from Orion Icon Library.</desc>
  <path data-name="layer2"
  d="M32 57a1 1 0 0 1-1-1V16a1 1 0 1 1 2 0v40a1 1 0 0 1-1 1z" fill="#d2ddf0"></path>
  <path data-name="layer2" d="M42 57H22a1 1 0 1 1 0-2h20a1 1 0 0 1 0 2zm10-44H12a1 1 0 0 1 0-2h40a1 1 0 0 1 0 2z"
  fill="#d2ddf0"></path>
  <path data-name="opacity" d="M32 57a1 1 0 0 1-1-1V16a1 1 0 1 1 2 0v40a1 1 0 0 1-1 1zm20-44H12a1 1 0 0 1 0-2h40a1 1 0 0 1 0 2z"
  fill="#000064" opacity=".1"></path>
  <circle data-name="layer1" cx="31.999" cy="11.998" r="4" fill="#f7c98a"></circle>
  <path data-name="layer2" d="M21 33a1 1 0 0 1-.912-.589l-9.006-20a1 1 0 1 1 1.823-.821l9.006 20A1 1 0 0 1 21 33z"
  fill="#d2ddf0"></path>
  <path data-name="layer2" d="M3 33a1 1 0 0 0 .912-.589l9.006-20a1 1 0 1 0-1.823-.821l-9.006 20A1 1 0 0 0 3 33z"
  fill="#d2ddf0"></path>
  <path data-name="layer1" d="M12 42a10 10 0 0 0 10-10H2a10 10 0 0 0 10 10z"
  fill="#f7c98a"></path>
  <path data-name="layer2" d="M61 33a1 1 0 0 1-.912-.589l-9.006-20a1 1 0 1 1 1.823-.821l9.006 20A1 1 0 0 1 61 33z"
  fill="#d2ddf0"></path>
  <path data-name="layer2" d="M43 33a1 1 0 0 0 .912-.589l9.006-20a1 1 0 1 0-1.823-.821l-9.006 20A1 1 0 0 0 43 33z"
  fill="#d2ddf0"></path>
  <path data-name="layer1" d="M52 42a10 10 0 0 0 10-10H42a10 10 0 0 0 10 10z"
  fill="#f7c98a"></path>
  <path data-name="opacity" d="M2 32a10 10 0 0 0 10 10V32zm40 0a10 10 0 0 0 10 10V32zM32 8a4 4 0 0 0 0 8z"
  fill="#000064" opacity=".1"></path>
</svg>