<svg xmlns="http://www.w3.org/2000/svg" viewBox="0 0 64 64" aria-labelledby="title"
aria-describedby="desc" role="img" xmlns:xlink="http://www.w3.org/1999/xlink">
  <title>Merchandise Bag</title>
  <desc>A flat styled icon from Orion Icon Library.</desc>
  <path data-name="layer3"
  fill="#78d1f4" d="M52.029 26L54 60H4l2-40h41.94"></path>
  <path data-name="opacity" fill="#000064" opacity=".1" d="M52.029 26l-4.089-6H42v2l8 8 2.137-2.137L52.029 26zM40.94 39h-24a1 1 0 1 1 0-2h24a1 1 0 1 1 0 2zm0 10h-24a1 1 0 1 1 0-2h24a1 1 0 1 1 0 2z"></path>
  <path data-name="layer2" d="M39 29a1 1 0 0 1-1-1V14a9 9 0 0 0-18 0v14a1 1 0 0 1-2 0V14a11 11 0 0 1 22 0v14a1 1 0 0 1-1 1z"
  fill="#e6edf7"></path>
  <path data-name="layer1" fill="#ffdda4" d="M58 22l-6 6-8-8v-6h6l8 8z"></path>
</svg>