<svg xmlns="http://www.w3.org/2000/svg" viewBox="0 0 64 64" aria-labelledby="title"
aria-describedby="desc" role="img" xmlns:xlink="http://www.w3.org/1999/xlink">
  <title>Money Box</title>
  <desc>A flat styled icon from Orion Icon Library.</desc>
  <path data-name="layer2"
  d="M5.584 43.679A3.29 3.29 0 0 1 2.69 41.7a3.453 3.453 0 0 1 .422-3.71A4.483 4.483 0 0 1 5.5 36.57a10.759 10.759 0 0 0-3.313-1.622 1 1 0 0 1 .605-1.908 10.615 10.615 0 0 1 5.276 3.26 20.743 20.743 0 0 1 4.67.726 1 1 0 0 1-.5 1.937 21.5 21.5 0 0 0-3.117-.59 4.7 4.7 0 0 1 .1 1.9 3.817 3.817 0 0 1-3.637 3.406zm1.411-5.338a3.327 3.327 0 0 0-2.343.928 1.487 1.487 0 0 0-.152 1.583 1.3 1.3 0 0 0 1.083.827 1.864 1.864 0 0 0 1.664-1.709 2.846 2.846 0 0 0-.252-1.629z"
  fill="#edb0cc"></path>
  <path data-name="opacity" d="M5.584 43.679A3.29 3.29 0 0 1 2.69 41.7a3.453 3.453 0 0 1 .422-3.71A4.483 4.483 0 0 1 5.5 36.57a10.759 10.759 0 0 0-3.313-1.622 1 1 0 0 1 .605-1.908 10.615 10.615 0 0 1 5.276 3.26 20.743 20.743 0 0 1 4.67.726 1 1 0 0 1-.5 1.937 21.5 21.5 0 0 0-3.117-.59 4.7 4.7 0 0 1 .1 1.9 3.817 3.817 0 0 1-3.637 3.406zm1.411-5.338a3.327 3.327 0 0 0-2.343.928 1.487 1.487 0 0 0-.152 1.583 1.3 1.3 0 0 0 1.083.827 1.864 1.864 0 0 0 1.664-1.709 2.846 2.846 0 0 0-.252-1.629z"
  fill="#000064" opacity=".1"></path>
  <path data-name="layer2" d="M60.266 37a6.78 6.78 0 0 1-3-1c-.41-.48-1.578-4.708-3.773-8a11.707 11.707 0 0 1 4.139-5.244c-2.811-1.44-5.674-2.314-11.365-1.628C44.768 20.8 39.859 20 39.859 20h-.029a38.045 38.045 0 0 0-5.565-.654c-2.27 0-5.769.254-5.769.254a35.589 35.589 0 0 0-7.071 2.128c-7.887 4.214-9.184 11.009-9.184 16.289S14.623 51.078 23.127 58h7.385v-4s7.221.5 8.729.5a22.882 22.882 0 0 0 2.277 3.5h6.994v-6a49.54 49.54 0 0 0 5.877-5c2.879.273 5.841-2 6.938-8.721 0-.989-.512-1.279-1.061-1.279z"
  fill="#edb0cc"></path>
  <circle data-name="opacity" cx="48.528" cy="33.998" r="1" fill="#000064"
  opacity=".15"></circle>
  <path data-name="opacity" d="M28.2 24.062a1 1 0 0 1-.322-1.946 21.188 21.188 0 0 1 13.3-.088 1 1 0 1 1-.62 1.9 19.18 19.18 0 0 0-12.032.08 1 1 0 0 1-.326.054z"
  fill="#000064" opacity=".1"></path>
  <path data-name="layer2" d="M2.791 33.041a1 1 0 0 0-.6 1.908c4.1 1.3 5.3 3.446 5.061 5.022a1.864 1.864 0 0 1-1.663 1.709v2a3.817 3.817 0 0 0 3.64-3.4c.365-2.398-1.129-5.556-6.438-7.239z"
  fill="#edb0cc"></path>
  <circle data-name="layer1" cx="34.512" cy="13.998" r="8" fill="#ffdda4"></circle>
</svg>