<svg xmlns="http://www.w3.org/2000/svg" viewBox="0 0 64 64" aria-labelledby="title"
aria-describedby="desc" role="img" xmlns:xlink="http://www.w3.org/1999/xlink">
  <title>Money</title>
  <desc>A flat styled icon from Orion Icon Library.</desc>
  <circle data-name="layer2"
  cx="21.992" cy="42" r="20" fill="#f7c98a"></circle>
  <path data-name="opacity" d="M28.009 46.584c0-1.94-1-4.48-5.772-5.557-2.8-.642-4.224-1.858-4.223-3.611 0-2.075 1.682-3.583 4-3.583a3.988 3.988 0 0 1 3.946 3.333 1 1 0 1 0 1.972-.331 5.972 5.972 0 0 0-4.917-4.912V30a1 1 0 1 0-2 0v1.909a5.565 5.565 0 0 0-5 5.5c0 1.932 1 4.465 5.774 5.559h.005c2.8.63 4.22 1.843 4.22 3.607 0 2.077-1.682 3.584-4 3.584a4.005 4.005 0 0 1-4-4 1 1 0 0 0-2 0 6 6 0 0 0 5 5.91V54a1 1 0 0 0 2 0v-1.909a5.566 5.566 0 0 0 4.995-5.507z"
  fill="#000064" opacity=".1"></path>
  <path data-name="opacity" d="M21.992 62a20 20 0 0 0 0-40l-20 20a20 20 0 0 0 20 20z"
  fill="#000064" opacity=".1"></path>
  <circle data-name="layer1" cx="42.009" cy="22" r="20" fill="#ffdda4"></circle>
  <path data-name="opacity" d="M48.027 26.584c0-1.94-1-4.479-5.772-5.557-2.8-.642-4.223-1.857-4.223-3.611 0-2.075 1.682-3.583 4-3.583a3.989 3.989 0 0 1 3.945 3.333 1 1 0 1 0 1.972-.332 5.975 5.975 0 0 0-4.918-4.912V10a1 1 0 0 0-2 0v1.909a5.565 5.565 0 0 0-5 5.5c0 1.933 1 4.465 5.774 5.558h.005c2.8.63 4.22 1.843 4.22 3.607 0 2.077-1.683 3.584-4 3.584a4 4 0 0 1-4-4 1 1 0 0 0-2 0 6 6 0 0 0 5 5.909V34a1 1 0 0 0 2 0v-1.909a5.567 5.567 0 0 0 4.997-5.507z"
  fill="#000064" opacity=".1"></path>
</svg>