<svg xmlns="http://www.w3.org/2000/svg" viewBox="0 0 64 64" aria-labelledby="title"
aria-describedby="desc" role="img" xmlns:xlink="http://www.w3.org/1999/xlink">
  <title>Money Bag</title>
  <desc>A flat styled icon from Orion Icon Library.</desc>
  <path data-name="layer1"
  d="M50 24.159a.994.994 0 0 1-.625-.22 18.235 18.235 0 0 0-12.264-3.819 1 1 0 1 1-.223-1.987 20.036 20.036 0 0 1 13.735 4.246 1 1 0 0 1-.623 1.78z"
  fill="#f27e7c"></path>
  <path data-name="opacity" d="M50 24.159a.994.994 0 0 1-.625-.22 18.235 18.235 0 0 0-12.264-3.819 1 1 0 1 1-.223-1.987 20.036 20.036 0 0 1 13.735 4.246 1 1 0 0 1-.623 1.78z"
  fill="#000064" opacity=".15"></path>
  <path data-name="layer2" d="M38 18.032S56 32 56 52a10 10 0 0 1-10 10H18A10 10 0 0 1 8 52c0-20 18-33.968 18-33.968S14 7.582 14 4s8 2 12 2c5.668 0 6.334-4 10-4s4.082 4.06 10 4.06c2.248 0-2 6.005-8 11.972z"
  fill="#ffdda4"></path>
  <path data-name="layer1" d="M38.19 19.083c-.643 0-1.079-.035-1.241-.051H24a1 1 0 0 1 0-2h13c.036 0 .074 0 .11.006a18.347 18.347 0 0 0 12.262-3.818 1 1 0 1 1 1.252 1.56 20.129 20.129 0 0 1-12.434 4.303z"
  fill="#f27e7c"></path>
  <path data-name="opacity" d="M39 46.5c0-2.256-1.175-5.209-6.765-6.471l-.012-.006C28.757 39.229 27 37.707 27 35.5c0-2.607 2.1-4.5 5-4.5a4.982 4.982 0 0 1 4.932 4.165 1 1 0 0 0 1.973-.332A6.968 6.968 0 0 0 33 29.076V27a1 1 0 1 0-2 0v2.066a6.5 6.5 0 0 0-6 6.434c0 2.246 1.175 5.19 6.773 6.474h.007c3.464.78 5.22 2.302 5.22 4.526 0 2.607-2.1 4.5-5 4.5a5.005 5.005 0 0 1-5-5 1 1 0 0 0-2 0 7 7 0 0 0 6 6.92V55a1 1 0 1 0 2 0v-2.069a6.5 6.5 0 0 0 6-6.431z"
  fill="#000064" opacity=".15"></path>
</svg>