<svg xmlns="http://www.w3.org/2000/svg" viewBox="0 0 64 64" aria-labelledby="title"
aria-describedby="desc" role="img" xmlns:xlink="http://www.w3.org/1999/xlink">
  <title>Money Bag Bitcoin</title>
  <desc>A flat styled icon from Orion Icon Library.</desc>
  <path data-name="layer1"
  d="M50 24.159a.994.994 0 0 1-.625-.22 18.235 18.235 0 0 0-12.264-3.819 1 1 0 1 1-.223-1.987 20.036 20.036 0 0 1 13.735 4.246 1 1 0 0 1-.623 1.78z"
  fill="#f27e7c"></path>
  <path data-name="opacity" d="M50 24.159a.994.994 0 0 1-.625-.22 18.235 18.235 0 0 0-12.264-3.819 1 1 0 1 1-.223-1.987 20.036 20.036 0 0 1 13.735 4.246 1 1 0 0 1-.623 1.78z"
  fill="#000064" opacity=".15"></path>
  <path data-name="layer2" d="M38 18.032S56 32 56 52a10 10 0 0 1-10 10H18A10 10 0 0 1 8 52c0-20 18-33.968 18-33.968S14 7.582 14 4s8 2 12 2c5.668 0 6.334-4 10-4s4.082 4.06 10 4.06c2.248 0-2 6.005-8 11.972z"
  fill="#ffdda4"></path>
  <path data-name="layer1" d="M38.19 19.083c-.643 0-1.079-.035-1.241-.051H24a1 1 0 0 1 0-2h13c.036 0 .074 0 .11.006a18.347 18.347 0 0 0 12.262-3.818 1 1 0 1 1 1.252 1.56 20.128 20.128 0 0 1-12.434 4.303z"
  fill="#f27e7c"></path>
  <path data-name="opacity" d="M37.767 39.629a5.32 5.32 0 0 0 1.848-4.056 5.571 5.571 0 0 0-5.564-5.564H33V27a1 1 0 0 0-2 0v3.011h-4a1 1 0 0 0-1 1V51a1 1 0 0 0 1 1h4v3a1 1 0 1 0 2 0v-3h2a6.59 6.59 0 0 0 6.395-6.607 6.4 6.4 0 0 0-3.628-5.764zm-3.716-7.62a3.569 3.569 0 0 1 3.564 3.564A3.486 3.486 0 0 1 34 39h-6v-6.99zM35 50h-7v-9h7a4.4 4.4 0 0 1 4.395 4.393A4.565 4.565 0 0 1 35 50z"
  fill="#000064" opacity=".15"></path>
</svg>