<svg xmlns="http://www.w3.org/2000/svg" viewBox="0 0 64 64" aria-labelledby="title"
aria-describedby="desc" role="img" xmlns:xlink="http://www.w3.org/1999/xlink">
  <title>Money</title>
  <desc>A flat styled icon from Orion Icon Library.</desc>
  <path data-name="layer1"
  d="M61.563 15.087A62.256 62.256 0 0 1 46 17.5a35.066 35.066 0 0 1-14-2.98c-3.857-1.485-7.845-3.02-14-3.02-12.467 0-16.9 4.513-17.087 4.706L.5 16.64V50.9l2.152-1.04A44.082 44.082 0 0 1 20 46.5c5.3 0 9.907 1.553 14.366 3.055C38.86 51.069 43.106 52.5 48 52.5c9.858 0 14.543-2.573 14.737-2.682l.765-.431V14.5z"
  fill="#72b292"></path>
  <path data-name="opacity" d="M62 41.225V23.786a9.993 9.993 0 0 1-7.092-5.639A52.856 52.856 0 0 1 46 19c-12.848 0-16.031-6-28-6a38.906 38.906 0 0 0-8.036.769A9.978 9.978 0 0 1 2 22.775v17.441a10 10 0 0 1 7.239 5.971A49.212 49.212 0 0 1 20 45c10.773 0 18.426 6 28 6a47.482 47.482 0 0 0 6.02-.365 9.976 9.976 0 0 1 7.98-9.41z"
  fill="#fff" opacity=".3"></path>
  <path data-name="layer1" d="M41.922 31.559c.967 5.523-2.656 10-8.094 10s-10.629-4.477-11.6-10 2.658-10 8.094-10 10.633 4.476 11.6 10z"
  fill="#72b292"></path>
  <path data-name="opacity" d="M32 16.127C27.984 14.585 24.151 13 18 13a38.906 38.906 0 0 0-8.036.769A9.978 9.978 0 0 1 2 22.775v17.441a10 10 0 0 1 7.239 5.971A49.212 49.212 0 0 1 20 45a38.547 38.547 0 0 1 12 2.2z"
  fill="#000064" opacity=".1"></path>
  <path data-name="opacity" d="M32 21.71a10.173 10.173 0 0 0-1.674-.151c-5.436 0-9.059 4.477-8.094 10A12.488 12.488 0 0 0 32 41.385z"
  fill="#000064" opacity=".1"></path>
</svg>