<svg xmlns="http://www.w3.org/2000/svg" viewBox="0 0 64 64" aria-labelledby="title"
aria-describedby="desc" role="img" xmlns:xlink="http://www.w3.org/1999/xlink">
  <title>Money Bag Euro</title>
  <desc>A flat styled icon from Orion Icon Library.</desc>
  <path data-name="layer1"
  d="M50 24.159a.994.994 0 0 1-.625-.22 18.235 18.235 0 0 0-12.264-3.819 1 1 0 1 1-.223-1.987 20.036 20.036 0 0 1 13.735 4.246 1 1 0 0 1-.623 1.78z"
  fill="#f27e7c"></path>
  <path data-name="opacity" d="M50 24.159a.994.994 0 0 1-.625-.22 18.235 18.235 0 0 0-12.264-3.819 1 1 0 1 1-.223-1.987 20.036 20.036 0 0 1 13.735 4.246 1 1 0 0 1-.623 1.78z"
  fill="#000064" opacity=".15"></path>
  <path data-name="layer2" d="M38 18.032S56 32 56 52a10 10 0 0 1-10 10H18A10 10 0 0 1 8 52c0-20 18-33.968 18-33.968S14 7.582 14 4s8 2 12 2c5.668 0 6.334-4 10-4s4.082 4.06 10 4.06c2.248 0-2 6.005-8 11.972z"
  fill="#ffdda4"></path>
  <path data-name="layer1" d="M38.19 19.083c-.643 0-1.079-.035-1.241-.051H24a1 1 0 0 1 0-2h13c.036 0 .074 0 .11.006a18.347 18.347 0 0 0 12.262-3.818 1 1 0 1 1 1.252 1.56 20.129 20.129 0 0 1-12.434 4.303z"
  fill="#f27e7c"></path>
  <path data-name="opacity" d="M39.023 54h-1.714a12.479 12.479 0 0 1-11.547-7.961H35a1 1 0 0 0 0-2h-9.8A10.487 10.487 0 0 1 25.193 40H35a1 1 0 1 0 0-2h-9.253a12.457 12.457 0 0 1 11.538-8H39a1 1 0 0 0 0-2h-1.715a14.482 14.482 0 0 0-13.659 10h-2.6a1 1 0 1 0 0 2h2.148a11.8 11.8 0 0 0 .005 4.039h-2.156a1 1 0 1 0 0 2h2.612A14.506 14.506 0 0 0 37.309 56h1.715a1 1 0 0 0 0-2z"
  fill="#000064" opacity=".15"></path>
</svg>