<svg xmlns="http://www.w3.org/2000/svg" viewBox="0 0 64 64" aria-labelledby="title"
aria-describedby="desc" role="img" xmlns:xlink="http://www.w3.org/1999/xlink">
  <title>New Sticker</title>
  <desc>A flat styled icon from Orion Icon Library.</desc>
  <path data-name="layer1"
  d="M32 2a30 30 0 1 0 30 30" fill="#46b1f0"></path>
  <path data-name="layer2" d="M20.265 26a1 1 0 0 0-1 1v8.874l-6.129-9.405a1.053 1.053 0 0 0-.867-.454 1 1 0 0 0-1 1V39a1 1 0 0 0 2 0v-8.664l6 9.21a1 1 0 0 0 .838.454h.156a1 1 0 0 0 1-1V27a1 1 0 0 0-.998-1zm12.998 2a1 1 0 0 0 0-2h-6.994a1 1 0 0 0-1 1v12a1 1 0 0 0 1 1h6.994a1 1 0 0 0 0-2h-5.994v-4h3.992a1 1 0 1 0 0-2h-3.992v-4zm18.76-1.956a1 1 0 0 0-1.248.665L48.039 35.7l-2.323-7.013a1 1 0 0 0-.949-.687h-.157a1 1 0 0 0-.942.665l-2.5 7.03-2.5-8.963a1 1 0 0 0-1.927.538l3.348 12a1 1 0 0 0 .928.731 1.018 1.018 0 0 0 .977-.664l2.667-7.487 2.473 7.465a1 1 0 0 0 .949.685h.012a1 1 0 0 0 .944-.708l3.652-12a1 1 0 0 0-.668-1.248z"
  fill="#fff"></path>
  <path data-name="opacity" d="M62 32s-18.5 16.5-33 2 3-32 3-32z"
  fill="#000064" opacity=".15"></path>
  <path data-name="layer1" d="M62 32L32 2c-3.99 22 8.01 34 30 30z"
  fill="#46b1f0"></path>
  <path data-name="opacity" d="M62 32L32 2c-3.99 22 8.01 34 30 30z"
  fill="#fff" opacity=".5"></path>
</svg>