<svg xmlns="http://www.w3.org/2000/svg" viewBox="0 0 64 64" aria-labelledby="title"
aria-describedby="desc" role="img" xmlns:xlink="http://www.w3.org/1999/xlink">
  <title>New</title>
  <desc>A flat styled icon from Orion Icon Library.</desc>
  <circle data-name="layer2"
  cx="32" cy="32" r="30" fill="#71c3f3"></circle>
  <path data-name="opacity" d="M2 32a30 30 0 0 0 30 30V2A30 30 0 0 0 2 32z"
  fill="#000064" opacity=".1"></path>
  <path data-name="layer1" d="M20.265 25a1 1 0 0 0-1 1v8.874l-6.129-9.405a1.052 1.052 0 0 0-.867-.454 1 1 0 0 0-1 1V38a1 1 0 0 0 2 0v-8.664l6 9.21a1 1 0 0 0 .838.454h.156a1 1 0 0 0 1-1V26a1 1 0 0 0-.998-1zm12.998 2a1 1 0 0 0 0-2h-6.994a1 1 0 0 0-1 1v12a1 1 0 0 0 1 1h6.994a1 1 0 0 0 0-2h-5.994v-4h3.992a1 1 0 0 0 0-2h-3.992v-4zm18.76-1.957a1 1 0 0 0-1.248.666L48.039 34.7l-2.323-7.012a1 1 0 0 0-.949-.688h-.157a1 1 0 0 0-.942.664l-2.5 7.031-2.5-8.963a1 1 0 0 0-1.927.538l3.348 12a1 1 0 0 0 .928.73 1.017 1.017 0 0 0 .977-.664l2.667-7.487 2.473 7.466a1 1 0 0 0 .949.685h.012a1 1 0 0 0 .944-.709l3.652-12a1 1 0 0 0-.668-1.248z"
  fill="#fff"></path>
</svg>