<svg xmlns="http://www.w3.org/2000/svg" viewBox="0 0 64 64" aria-labelledby="title"
aria-describedby="desc" role="img" xmlns:xlink="http://www.w3.org/1999/xlink">
  <title>Old Cash Register</title>
  <desc>A flat styled icon from Orion Icon Library.</desc>
  <path data-name="layer1"
  d="M36.948 24.617a1 1 0 0 1-.839-1.544l4.281-6.618a1 1 0 0 1 1.68 1.085l-4.281 6.619a1 1 0 0 1-.841.458zM44.36 31.4a1 1 0 0 1-.632-1.776l6.641-5.4a1 1 0 1 1 1.262 1.551l-6.641 5.4a1 1 0 0 1-.63.225zm5.847 8.319a1 1 0 0 1-.355-1.934l6.388-2.419a1 1 0 1 1 .708 1.87l-6.387 2.418a.964.964 0 0 1-.354.065z"
  fill="#e6edf7"></path>
  <path data-name="opacity" d="M36.948 24.617a1 1 0 0 1-.839-1.544l4.281-6.618a1 1 0 0 1 1.68 1.085l-4.281 6.619a1 1 0 0 1-.841.458zM44.36 31.4a1 1 0 0 1-.632-1.776l6.641-5.4a1 1 0 1 1 1.262 1.551l-6.641 5.4a1 1 0 0 1-.63.225zm5.847 8.319a1 1 0 0 1-.355-1.934l6.388-2.419a1 1 0 1 1 .708 1.87l-6.387 2.418a.964.964 0 0 1-.354.065z"
  fill="#000064" opacity=".15"></path>
  <path data-name="layer3" d="M32 20.219V5a3 3 0 0 0-3-3H4.994A2.994 2.994 0 0 0 2 5v41h51.44A33.817 33.817 0 0 0 32 20.219z"
  fill="#c3d6f9"></path>
  <path data-name="opacity" d="M32 20.219V5a3 3 0 0 0-3-3H4.994A2.994 2.994 0 0 0 2 5v41h51.44A33.817 33.817 0 0 0 32 20.219z"
  fill="#000064" opacity=".15"></path>
  <circle data-name="layer4" cx="36" cy="35.999" r="2" fill="#efbc8b"></circle>
  <path data-name="layer3" d="M59 46H2v13a2.99 2.99 0 0 0 2.993 3H59a3 3 0 0 0 3-3V49a3.005 3.005 0 0 0-3-3z"
  fill="#c3d6f9"></path>
  <path data-name="opacity" d="M10.4 24.271L2 32.668V59a2.99 2.99 0 0 0 2.993 3h9L38.7 37.3z"
  fill="#000064" opacity=".15"></path>
  <path data-name="layer2" d="M36 33a2.985 2.985 0 0 0-2.17.941l-15.853-7.05a1 1 0 1 0-.812 1.827l15.859 7.053c-.006.077-.022.151-.023.229a3 3 0 1 0 3-3z"
  fill="#556685"></path>
  <circle data-name="layer1" cx="13.998" cy="26.01" r="4.002" fill="#e6edf7"></circle>
  <path data-name="layer1" d="M44.011 19.67a1 1 0 0 1-.517-.144l-5.738-3.478a1 1 0 1 1 1.036-1.71l5.738 3.477a1 1 0 0 1-.52 1.855zm9.254 9.037a.994.994 0 0 1-.767-.359l-4.53-5.416a1 1 0 0 1 1.532-1.284l4.529 5.418a1 1 0 0 1-.767 1.641zm4.462 11.688a1 1 0 0 1-.938-.656l-2.265-6.189a1 1 0 1 1 1.878-.686l2.264 6.188a1 1 0 0 1-.6 1.283 1.024 1.024 0 0 1-.339.06z"
  fill="#e6edf7"></path>
</svg>