<svg xmlns="http://www.w3.org/2000/svg" viewBox="0 0 64 64" aria-labelledby="title"
aria-describedby="desc" role="img" xmlns:xlink="http://www.w3.org/1999/xlink">
  <title>On Sale Sticker</title>
  <desc>A flat styled icon from Orion Icon Library.</desc>
  <path data-name="layer1"
  d="M32 2a30 30 0 1 0 30 30" fill="#d35e5e"></path>
  <path data-name="opacity" d="M62 32s-18.5 16.5-33 2 3-32 3-32z"
  fill="#000064" opacity=".15"></path>
  <path data-name="layer2" d="M23.014 29a6 6 0 1 1 6-6 6.008 6.008 0 0 1-6 6zm0-10a4 4 0 1 0 4 4 4.005 4.005 0 0 0-4-4zm17.998 28a6 6 0 1 1 6-6 6.007 6.007 0 0 1-6 6zm0-10a4 4 0 1 0 4 4 4 4 0 0 0-4-4zm-23 10a1 1 0 0 1-.707-1.707l19.25-19.25a1 1 0 0 1 1.414 1.414l-19.25 19.25a1 1 0 0 1-.707.293z"
  fill="#fff"></path>
  <path data-name="layer1" d="M62 32L32 2c-3.99 22 8.01 34 30 30z"
  fill="#d35e5e"></path>
  <path data-name="opacity" d="M62 32L32 2c-3.99 22 8.01 34 30 30z"
  fill="#fff" opacity=".2"></path>
</svg>