<svg xmlns="http://www.w3.org/2000/svg" viewBox="0 0 64 64" aria-labelledby="title"
aria-describedby="desc" role="img" xmlns:xlink="http://www.w3.org/1999/xlink">
  <title>Online Payment</title>
  <desc>A flat styled icon from Orion Icon Library.</desc>
  <path data-name="layer2"
  d="M58 43a3.861 3.861 0 0 1-4 3H25a3 3 0 0 1-3-3l4-22a3.9 3.9 0 0 1 4-3h29a3 3 0 0 1 3 3z"
  fill="#f7c98a"></path>
  <path data-name="opacity" d="M26 21l-.188 1.037L49.975 46H54a4.6 4.6 0 0 0 1.7-.3L28.321 18.321A3.631 3.631 0 0 0 26 21zm36 0a3 3 0 0 0-3-3H37.982l20.724 21.108z"
  fill="#fff" opacity=".3"></path>
  <path data-name="layer1" d="M18 23H2a1 1 0 0 1 0-2h16a1 1 0 0 1 0 2zm-2 8H6a1 1 0 1 1 0-2h10a1 1 0 0 1 0 2zm-2 8h-4a1 1 0 0 1 0-2h4a1 1 0 0 1 0 2z"
  fill="#fe6363"></path>
</svg>