<svg xmlns="http://www.w3.org/2000/svg" viewBox="0 0 64 64" aria-labelledby="title"
aria-describedby="desc" role="img" xmlns:xlink="http://www.w3.org/1999/xlink">
  <title>Open 24</title>
  <desc>A flat styled icon from Orion Icon Library.</desc>
  <path data-name="layer4"
  d="M13 23.708a1 1 0 0 1-.97-.76L8.208 7.5H3a1 1 0 0 1 0-2h5.99a1 1 0 0 1 .972.761l4.007 16.208a1 1 0 0 1-.729 1.21 1.014 1.014 0 0 1-.24.029z"
  fill="#8fa9d8"></path>
  <circle data-name="layer3" cx="19.991" cy="54.5" r="4" fill="#7b8baf"></circle>
  <circle data-name="layer3" cx="45.991" cy="54.5" r="4" fill="#7b8baf"></circle>
  <path data-name="layer2" fill="#c3d6f9" d="M58 22.5l-46.001.001 5.992 24h32L58 22.5z"></path>
  <path data-name="layer1" d="M62 22.5h-3v-5a1 1 0 0 0-2 0v5h-7.483l5.4-12.606a1 1 0 0 0-1.838-.787l-6 14A1 1 0 0 0 48 24.5h9v5a1 1 0 0 0 2 0v-5h3a1 1 0 0 0 0-2zm-18 6h-9.839l7.251-8.537a7 7 0 0 0-10.08-9.656 1 1 0 1 0 1.335 1.488 5 5 0 0 1 7.209 6.887l-8.638 10.171A1 1 0 0 0 32 30.5h12a1 1 0 0 0 0-2z"
  fill="#556685"></path>
</svg>