<svg xmlns="http://www.w3.org/2000/svg" viewBox="0 0 64 64" aria-labelledby="title"
aria-describedby="desc" role="img" xmlns:xlink="http://www.w3.org/1999/xlink">
  <title>Pay</title>
  <desc>A flat styled icon from Orion Icon Library.</desc>
  <path data-name="layer4"
  fill="#c3d6f9" d="M52 36.998h10V59H52z"></path>
  <circle data-name="layer2" cx="34.055" cy="11.001" r="8" fill="#ffdda4"></circle>
  <circle data-name="layer2" cx="20.008" cy="29.002" r="8" fill="#ffdda4"></circle>
  <path data-name="layer1" d="M36.051 53h-10a4 4 0 0 1-4-4 4 4 0 0 1 4-4h4C42 45 38 39 52 39v16.187C50 55.187 37.063 61 30 61c-4.24 0-7.949-2.17-16-6-3.82-1.82-12-6.613-12-10 0-4 10.893 1.062 20.051 4"
  fill="#f3cfc9"></path>
  <path d="M37.051 54a1 1 0 0 0-1-1h-10a4 4 0 0 1-4-4c-.647-.207-1.3-.426-1.963-.651A5.986 5.986 0 0 0 26.051 55h10a1 1 0 0 0 1-1z"
  fill="#211f5e" data-name="opacity" opacity=".15"></path>
</svg>