<svg xmlns="http://www.w3.org/2000/svg" viewBox="0 0 64 64" aria-labelledby="title"
aria-describedby="desc" role="img" xmlns:xlink="http://www.w3.org/1999/xlink">
  <title>Pie Chart</title>
  <desc>A flat styled icon from Orion Icon Library.</desc>
  <path data-name="layer3"
  d="M34 2v26h26A26 26 0 0 0 34 2z" fill="#92d5b5"></path>
  <path data-name="layer2" d="M28 8a26 26 0 1 0 18.381 44.385L28 34z"
  fill="#4db9e8"></path>
  <path data-name="layer1" d="M37 34l16.553 15.883A25.846 25.846 0 0 0 59 34z"
  fill="#f27e7c"></path>
  <path data-name="layer3" fill="#92d5b5" d="M33.999 28.002h25.998V30H33.999z"></path>
  <path data-name="opacity" fill="#000064" opacity=".15" d="M33.999 28.002h25.998V30H33.999z"></path>
  <path data-name="layer2" d="M46.383 52.385A26 26 0 0 1 2.044 35.5C2.016 36 2 36.5 2 37a26 26 0 0 0 44.381 18.385l-.01-.01h.012z"
  fill="#4db9e8"></path>
  <path data-name="opacity" d="M46.383 52.385A26 26 0 0 1 2.044 35.5C2.016 36 2 36.5 2 37a26 26 0 0 0 44.381 18.385l-.01-.01h.012z"
  fill="#000064" opacity=".15"></path>
  <path data-name="layer1" d="M53.553 49.883L37 34v2l16.553 16.883A25.847 25.847 0 0 0 59 37v-3a25.847 25.847 0 0 1-5.447 15.883z"
  fill="#f27e7c"></path>
  <path data-name="opacity" d="M53.553 49.883L37 34v2l16.553 16.883A25.847 25.847 0 0 0 59 37v-3a25.847 25.847 0 0 1-5.447 15.883z"
  fill="#000064" opacity=".15"></path>
</svg>