<svg xmlns="http://www.w3.org/2000/svg" viewBox="0 0 64 64" aria-labelledby="title"
aria-describedby="desc" role="img" xmlns:xlink="http://www.w3.org/1999/xlink">
  <title>POS Terminal</title>
  <desc>A flat styled icon from Orion Icon Library.</desc>
  <path data-name="layer3"
  d="M27.5 2h31a3 3 0 0 1 3 3v54a3 3 0 0 1-3 3h-31a3 3 0 0 1-3-3V5a3 3 0 0 1 3-3z"
  fill="#7b8baf"></path>
  <path data-name="layer5" fill="#8adfff" d="M32.501 10H53.5v16H32.501z"></path>
  <path data-name="layer4" fill="#c3d6f9" d="M10.5 18h14v36h-14z"></path>
  <path data-name="layer3" d="M5.486 18H10.5v36H5.486A2.99 2.99 0 0 1 2.5 51V21a2.987 2.987 0 0 1 2.986-3z"
  fill="#7b8baf"></path>
  <path data-name="layer2" d="M34.48 39h-1a2 2 0 0 1 0-4h1a2 2 0 0 1 0 4zm8 0h-1a2 2 0 0 1 0-4h1a2 2 0 0 1 0 4zm8.001 0h-1a2 2 0 0 1 0-4h1a2 2 0 1 1 0 4zM34.48 47h-1a2 2 0 0 1 0-4h1a2 2 0 0 1 0 4zm8 0h-1a2 2 0 0 1 0-4h1a2 2 0 0 1 0 4zm8.001 0h-1a2 2 0 0 1 0-4h1a2 2 0 0 1 0 4zM34.48 55h-1a2 2 0 0 1 0-4h1a2 2 0 0 1 0 4zm8 0h-1a2 2 0 0 1 0-4h1a2 2 0 0 1 0 4zm8.001 0h-1a2 2 0 0 1 0-4h1a2 2 0 1 1 0 4z"
  fill="#000064" opacity=".15"></path>
  <path data-name="layer1" d="M35.48 38h-1a2 2 0 0 1 0-4h1a2 2 0 0 1 0 4zm8 0h-1a2 2 0 0 1 0-4h1a2 2 0 0 1 0 4zm8.001 0h-1a2 2 0 0 1 0-4h1a2 2 0 1 1 0 4zM35.48 46h-1a2 2 0 0 1 0-4h1a2 2 0 0 1 0 4zm8 0h-1a2 2 0 0 1 0-4h1a2 2 0 0 1 0 4zm8.001 0h-1a2 2 0 0 1 0-4h1a2 2 0 0 1 0 4zM35.48 54h-1a2 2 0 0 1 0-4h1a2 2 0 0 1 0 4zm8 0h-1a2 2 0 0 1 0-4h1a2 2 0 0 1 0 4zm8.001 0h-1a2 2 0 0 1 0-4h1a2 2 0 1 1 0 4z"
  fill="#e6edf7"></path>
  <path data-name="opacity" fill="#fff" opacity=".4" d="M53.5 26L32.501 10H53.5v16z"></path>
  <path data-name="opacity" d="M2.5 40v11a2.99 2.99 0 0 0 2.986 3H24.5V18z"
  fill="#000064" opacity=".15"></path>
</svg>