<svg xmlns="http://www.w3.org/2000/svg" viewBox="0 0 64 64" aria-labelledby="title"
aria-describedby="desc" role="img" xmlns:xlink="http://www.w3.org/1999/xlink">
  <title>Return Purchase</title>
  <desc>A flat styled icon from Orion Icon Library.</desc>
  <path data-name="layer4"
  fill="#c3d6f9" d="M17.996 44h34l8-24H13.004l4.992 24z"></path>
  <circle data-name="layer3" cx="22.004" cy="54" r="4" fill="#7b8baf"></circle>
  <circle data-name="layer3" cx="48.004" cy="54" r="4" fill="#7b8baf"></circle>
  <path data-name="layer2" d="M46.711 15.293l-10-10a.99.99 0 0 0-.325-.217 1 1 0 0 0-.764 0 .99.99 0 0 0-.325.217l-10 10a1 1 0 0 0 1.414 1.413L35 8.414V34a1 1 0 0 0 2 0V8.414l8.3 8.293a1 1 0 0 0 1.414-1.413z"
  fill="#556685"></path>
  <path data-name="layer1" d="M52 45H18a1 1 0 0 1-.976-.783L9.2 9H4a1 1 0 0 1 0-2h6a1 1 0 0 1 .976.783L18.806 43H52a1 1 0 0 1 0 2z"
  fill="#8fa9d8"></path>
</svg>