<svg xmlns="http://www.w3.org/2000/svg" viewBox="0 0 64 64" aria-labelledby="title"
aria-describedby="desc" role="img" xmlns:xlink="http://www.w3.org/1999/xlink">
  <title>Safe</title>
  <desc>A flat styled icon from Orion Icon Library.</desc>
  <path data-name="layer1"
  d="M10 62.5a2 2 0 0 1-2-2v-4a2 2 0 0 1 4 0v4a2 2 0 0 1-2 2zm44 0a2 2 0 0 1-2-2v-4a2 2 0 0 1 4 0v4a2 2 0 0 1-2 2z"
  fill="#7b8baf"></path>
  <path data-name="layer4" d="M62 54.5a3 3 0 0 1-3 3H5a3 3 0 0 1-3-3v-50a3 3 0 0 1 3-3h54a3 3 0 0 1 3 3z"
  fill="#8fa9d8"></path>
  <path data-name="layer4" d="M62 54.5a3 3 0 0 1-3 3H5a3 3 0 0 1-3-3v-50a3 3 0 0 1 3-3h54a3 3 0 0 1 3 3z"
  fill="#8fa9d8"></path>
  <path data-name="opacity" d="M10.587 10.091L2 18.679V54.5a3 3 0 0 0 3 3h3v3a2 2 0 0 0 4 0v-3h32.828l8.807-8.807z"
  fill="#000064" opacity=".15"></path>
  <path data-name="layer3" d="M52 9.5H12a2.006 2.006 0 0 0-2 2v6H8a2 2 0 1 0 0 4h2v16H8a2 2 0 1 0 0 4h2v6a2.006 2.006 0 0 0 2 2h40a2.005 2.005 0 0 0 2-2v-36a2.006 2.006 0 0 0-2-2z"
  fill="#a7c5f2"></path>
  <path data-name="opacity" d="M10 37.507H8a2 2 0 1 0 0 4h2v6a2.006 2.006 0 0 0 2 2h18.966l11.74-11.74L25.742 20.8 10 35.69z"
  fill="#000064" opacity=".15"></path>
  <circle data-name="layer2" cx="34" cy="29.498" r="12" fill="#c8daf8"></circle>
  <path data-name="opacity" d="M27.917 39.829l8.207-8.207-1.806-1.807L22 29.451v.046a11.982 11.982 0 0 0 5.917 10.332z"
  fill="#000064" opacity=".15"></path>
  <path data-name="layer1" d="M34 26.508a3 3 0 0 0-2.816 2H18a1 1 0 0 0 0 2h13.185a2.995 2.995 0 1 0 2.815-4z"
  fill="#7b8baf"></path>
</svg>