<svg xmlns="http://www.w3.org/2000/svg" viewBox="0 0 64 64" aria-labelledby="title"
aria-describedby="desc" role="img" xmlns:xlink="http://www.w3.org/1999/xlink">
  <title>Secure E-commerce</title>
  <desc>A flat styled icon from Orion Icon Library.</desc>
  <path data-name="layer5"
  fill="#a7c5f2" d="M35.5 52.499H9.518L3.567 22.498h51.934L53.239 33.81 48.5 52.499h-13z"></path>
  <path data-name="layer3" d="M5.566 23.5a.99.99 0 0 1-.667-.255 1 1 0 0 1-.077-1.413l17.934-20a1 1 0 0 1 1.489 1.336l-17.934 20a1 1 0 0 1-.745.332zm47.934 0a1 1 0 0 1-.744-.332l-18-20a1 1 0 1 1 1.486-1.337l18 20A1 1 0 0 1 53.5 23.5z"
  fill="#7b8baf"></path>
  <path data-name="layer4" d="M57.5 23.5h-56a1 1 0 0 1 0-2h56a1 1 0 1 1 0 2z"
  fill="#c3d6f9"></path>
  <path data-name="opacity" fill="#000064" opacity=".1" d="M53.239 33.81l.6-3-7.25.708-20.983 20.981h22.31l.783-.782 4.54-17.907z"></path>
  <path data-name="layer3" d="M57.5 47.5a1 1 0 0 1-1-1v-10a5 5 0 0 0-10 0v10a1 1 0 1 1-2 0v-10a7 7 0 0 1 14 0v10a1 1 0 0 1-1 1z"
  fill="#7b8baf"></path>
  <path data-name="layer2" fill="#ffdea5" d="M39.5 46.499h24v16h-24z"></path>
  <path data-name="layer1" d="M51.5 57.5a1 1 0 0 1-1-1v-4a1 1 0 0 1 2 0v4a1 1 0 0 1-1 1z"
  fill="#556685"></path>
</svg>