<svg xmlns="http://www.w3.org/2000/svg" viewBox="0 0 64 64" aria-labelledby="title"
aria-describedby="desc" role="img" xmlns:xlink="http://www.w3.org/1999/xlink">
  <title>Shopping Bag</title>
  <desc>A flat styled icon from Orion Icon Library.</desc>
  <path data-name="layer2"
  d="M46.006 15a1 1 0 0 1-1-1V8a5.006 5.006 0 0 0-5-5h-6a5.007 5.007 0 0 0-5 5v6a1 1 0 0 1-2 0V8a7.009 7.009 0 0 1 7-7h6a7.008 7.008 0 0 1 7 7v6a1 1 0 0 1-1 1z"
  fill="#e6edf7"></path>
  <path data-name="opacity" d="M46.006 15a1 1 0 0 1-1-1V8a5.006 5.006 0 0 0-5-5h-6a5.007 5.007 0 0 0-5 5v6a1 1 0 0 1-2 0V8a7.009 7.009 0 0 1 7-7h6a7.008 7.008 0 0 1 7 7v6a1 1 0 0 1-1 1z"
  fill="#000064" opacity=".15"></path>
  <path data-name="layer2" d="M34 15a1 1 0 0 1-1-1V8a5.006 5.006 0 0 0-5-5h-6a5.007 5.007 0 0 0-5 5v6a1 1 0 0 1-2 0V8a7.009 7.009 0 0 1 7-7h6a7.008 7.008 0 0 1 7 7v6a1 1 0 0 1-1 1z"
  fill="#e6edf7"></path>
  <path data-name="layer1" fill="#a0dff7" d="M54.005 14h-52v48h60V14h-8z"></path>
  <path data-name="opacity" fill="#000064" opacity=".15" d="M46.005 14h16v48h-16z"></path>
  <path data-name="opacity" fill="#000064" opacity=".3" d="M54.005 54V14h8v48l-8-8"></path>
</svg>