<svg xmlns="http://www.w3.org/2000/svg" viewBox="0 0 64 64" aria-labelledby="title"
aria-describedby="desc" role="img" xmlns:xlink="http://www.w3.org/1999/xlink">
  <title>Shop Sign</title>
  <desc>A flat styled icon from Orion Icon Library.</desc>
  <path data-name="layer2"
  d="M8.553 31.872a1 1 0 0 1-1.139-1.466l14-23.93a1 1 0 1 1 1.726 1.01l-14 23.93a.994.994 0 0 1-.587.456z"
  fill="#a2b8df"></path>
  <path data-name="opacity" d="M8.553 31.872a1 1 0 0 1-1.139-1.466l14-23.93a1 1 0 1 1 1.726 1.01l-14 23.93a.994.994 0 0 1-.587.456z"
  fill="#000064" opacity=".15"></path>
  <path data-name="layer2" d="M48.457 20.357a1 1 0 0 1-.708-.059L21.843 7.883a1 1 0 0 1 .865-1.8l25.906 12.411a1 1 0 0 1-.157 1.863z"
  fill="#a2b8df"></path>
  <path data-name="layer1" d="M61.883 40.447a3 3 0 0 1-2.055 3.7L11.871 57.9a3 3 0 0 1-3.7-2.053l-6.051-21.1a2.989 2.989 0 0 1 2.053-3.7L52.129 17.29a3 3 0 0 1 3.7 2.054z"
  fill="#e9f4ff"></path>
  <path data-name="opacity" d="M28.149 24.168l-23.98 6.878a2.989 2.989 0 0 0-2.053 3.7l6.051 21.1a3 3 0 0 0 3.7 2.053l23.98-6.877z"
  fill="#000064" opacity=".15"></path>
</svg>