<svg xmlns="http://www.w3.org/2000/svg" viewBox="0 0 64 64" aria-labelledby="title"
aria-describedby="desc" role="img" xmlns:xlink="http://www.w3.org/1999/xlink">
  <title>Shopping Cart Error</title>
  <desc>A flat styled icon from Orion Icon Library.</desc>
  <path data-name="layer5"
  fill="#a7c5f2" d="M37.5 52.5H11.517L5.568 22.499l51.933.001-2.261 11.31L50.5 52.5h-13z"></path>
  <path data-name="opacity" fill="#000064" opacity=".1" d="M37.5 52.5h13l.46-1.814-5.46-18.185L25.501 52.5H37.5z"></path>
  <path data-name="layer4" d="M7.566 23.5a.988.988 0 0 1-.667-.255 1 1 0 0 1-.077-1.412l17.933-20a1 1 0 0 1 1.49 1.335l-17.934 20a1 1 0 0 1-.745.332zm47.934 0a1 1 0 0 1-.745-.331l-18-20a1 1 0 1 1 1.487-1.337l18 20A1 1 0 0 1 55.5 23.5z"
  fill="#7b8baf"></path>
  <path data-name="layer3" d="M59.5 23.5h-56a1 1 0 1 1 0-2h56a1 1 0 0 1 0 2z"
  fill="#c3d6f9"></path>
  <path data-name="layer2" fill="#fe6363" d="M29.5 62.5l16-29.999 16 29.999h-32z"></path>
  <path data-name="layer1" d="M45.5 53.5a1 1 0 0 1-1-1v-7a1 1 0 1 1 2 0v7a1 1 0 0 1-1 1m0 4.5a1.5 1.5 0 1 1 1.5-1.5 1.5 1.5 0 0 1-1.5 1.5"
  fill="#fff"></path>
</svg>