<svg xmlns="http://www.w3.org/2000/svg" viewBox="0 0 64 64" aria-labelledby="title"
aria-describedby="desc" role="img" xmlns:xlink="http://www.w3.org/1999/xlink">
  <title>Shopping Cart</title>
  <desc>A flat styled icon from Orion Icon Library.</desc>
  <path data-name="layer3"
  d="M15.983 21.5a1 1 0 0 1-.969-.756L11.181 5.5h-7.22a1 1 0 0 1 0-2h8a1 1 0 0 1 .97.756l4.023 16a1 1 0 0 1-.726 1.213.984.984 0 0 1-.245.031z"
  fill="#71c3f3"></path>
  <path data-name="layer2" d="M53.961 51h-30a3 3 0 1 1 0-6h29.078l8-24H15.063s3.987 27.925 3.988 27.887A5 5 0 0 0 23.961 53h30a1 1 0 1 0 0-2z"
  fill="#78d1f4"></path>
  <circle data-name="layer1" cx="23.961" cy="58" r="4" fill="#7b8baf"></circle>
  <circle data-name="layer1" cx="49.961" cy="58" r="4" fill="#7b8baf"></circle>
</svg>