<svg xmlns="http://www.w3.org/2000/svg" viewBox="0 0 64 64" aria-labelledby="title"
aria-describedby="desc" role="img" xmlns:xlink="http://www.w3.org/1999/xlink">
  <title>Special Price</title>
  <desc>A flat styled icon from Orion Icon Library.</desc>
  <path data-name="layer2"
  fill="#f27e7c" d="M32 4.471L37.967 2l4.568 4.566 6.459.001 2.471 5.967 5.969 2.473v6.458L62 26.032 59.529 32 62 37.967l-4.566 4.568v6.459l-5.969 2.471-2.471 5.967-6.459.001L37.967 62 32 59.529 26.033 62l-4.568-4.567-6.459-.001-2.471-5.967-5.969-2.471v-6.459L2 37.967 4.471 32 2 26.032l4.566-4.567v-6.458l5.969-2.473 2.471-5.967 6.459-.001L26.033 2 32 4.471z"></path>
  <path data-name="opacity" fill="#000064" opacity=".1" d="M26.033 2l-4.568 4.566-6.459.001-2.471 5.967-5.969 2.473v6.458L2 26.032 4.471 32 2 37.967l4.566 4.568v6.459l5.969 2.471 2.471 5.967 6.459.001L26.033 62 32 59.529V4.471L26.033 2z"></path>
  <path data-name="layer1" d="M22 30a6 6 0 1 1 6-6 6.006 6.006 0 0 1-6 6zm0-10a4 4 0 1 0 4 4 4 4 0 0 0-4-4zm20 26a6 6 0 1 1 6-6 6.006 6.006 0 0 1-6 6zm0-10a4 4 0 1 0 4 4 4.005 4.005 0 0 0-4-4zM18 47a1 1 0 0 1-.707-1.707l28-28a1 1 0 1 1 1.414 1.414l-28 28A1 1 0 0 1 18 47z"
  fill="#fff"></path>
</svg>