<svg xmlns="http://www.w3.org/2000/svg" viewBox="0 0 64 64" aria-labelledby="title"
aria-describedby="desc" role="img" xmlns:xlink="http://www.w3.org/1999/xlink">
  <title>SSL E-commerce</title>
  <desc>A flat styled icon from Orion Icon Library.</desc>
  <path data-name="layer5"
  d="M13 26.708a1 1 0 0 1-.969-.759L8.21 10.5H3a1 1 0 0 1 0-2h5.992a1 1 0 0 1 .971.761l4.007 16.208a1 1 0 0 1-.97 1.239z"
  fill="#8fa9d8"></path>
  <circle data-name="layer3" cx="19.993" cy="57.5" r="4" fill="#7b8baf"></circle>
  <circle data-name="layer3" cx="45.993" cy="57.5" r="4" fill="#7b8baf"></circle>
  <path data-name="layer4" fill="#c3d6f9" d="M58 25.5H12l5.992 24 32 .001L58 25.5z"></path>
  <path data-name="opacity" fill="#000064" opacity=".1" d="M47.17 25.5H38L17.195 46.306l.797 3.194 32 .001 6.067-18.185L47.17 25.5z"></path>
  <path data-name="layer3" d="M56 19.5a1 1 0 0 1-1-1v-10a5 5 0 1 0-10 0v10a1 1 0 1 1-2 0v-10a7 7 0 0 1 14 0v10a1 1 0 0 1-1 1z"
  fill="#7b8baf"></path>
  <path data-name="layer2" fill="#ffdea5" d="M38 18.5h24v16H38z"></path>
  <path data-name="layer1" d="M50 29.5a1 1 0 0 1-1-1v-4a1 1 0 0 1 2 0v4a1 1 0 0 1-1 1z"
  fill="#556685"></path>
</svg>