<svg xmlns="http://www.w3.org/2000/svg" viewBox="0 0 64 64" aria-labelledby="title"
aria-describedby="desc" role="img" xmlns:xlink="http://www.w3.org/1999/xlink">
  <title>Stock</title>
  <desc>A flat styled icon from Orion Icon Library.</desc>
  <path data-name="layer4"
  fill="#a7c5f2" d="M24 10h16v32H24z"></path>
  <circle data-name="layer3" cx="24" cy="54" r="4" fill="#7b8baf"></circle>
  <circle data-name="layer3" cx="50" cy="54" r="4" fill="#7b8baf"></circle>
  <path data-name="layer2" fill="#c8daf8" d="M40 26h16v16H40z"></path>
  <path data-name="layer1" fill="#8fa9d8" d="M40 18h12v8H40zm20 25H18a1 1 0 0 1-.976-.783L9.2 7H4a1 1 0 0 1 0-2h6a1 1 0 0 1 .976.783L18.8 41H60a1 1 0 0 1 0 2z"></path>
  <path data-name="opacity" fill="#000064" opacity=".1" d="M24 41h16V26L24 41z"></path>
</svg>