<svg xmlns="http://www.w3.org/2000/svg" viewBox="0 0 64 64" aria-labelledby="title"
aria-describedby="desc" role="img" xmlns:xlink="http://www.w3.org/1999/xlink">
  <title>Store Helpline</title>
  <desc>A flat styled icon from Orion Icon Library.</desc>
  <path data-name="layer4"
  fill="#a7c5f2" d="M37.5 53.499H11.518l-5.951-30h51.934L55.24 34.81 50.5 53.499h-13z"></path>
  <path data-name="layer3" d="M7.566 24.5a1 1 0 0 1-.744-1.668l17.934-20a1 1 0 0 1 1.489 1.335l-17.934 20a.992.992 0 0 1-.745.333zm47.934 0a1 1 0 0 1-.745-.332l-18-20a1 1 0 1 1 1.486-1.337l18 20a1 1 0 0 1-.075 1.411.984.984 0 0 1-.666.258z"
  fill="#7b8baf"></path>
  <path data-name="layer2" d="M59.5 24.5h-56a1 1 0 1 1 0-2h56a1 1 0 1 1 0 2z"
  fill="#c3d6f9"></path>
  <path data-name="opacity" fill="#000064" opacity=".1" d="M37.5 53.499h6.648L33.617 33.274 13.392 53.499H37.5z"></path>
  <path data-name="layer1" d="M54.752 50.615a2.416 2.416 0 0 0-3.265.639c-1.176 1.451-1.66 3.406-7.154-2.088s-4.039-6.48-2.588-7.655a2.419 2.419 0 0 0 .641-3.266c-.4-.6-2.957-4.544-3.407-5.2s-1.055-1.725-2.46-1.522a7.168 7.168 0 0 0-5.02 6.755c0 4.493 3.543 10 8.379 14.841s10.348 8.38 14.84 8.38a7.173 7.173 0 0 0 6.757-5.02c.2-1.4-.865-2.013-1.521-2.462s-4.596-3.005-5.202-3.402z"
  fill="#ed5451"></path>
</svg>