<svg xmlns="http://www.w3.org/2000/svg" viewBox="0 0 64 64" aria-labelledby="title"
aria-describedby="desc" role="img" xmlns:xlink="http://www.w3.org/1999/xlink">
  <title>Total Cart</title>
  <desc>A flat styled icon from Orion Icon Library.</desc>
  <circle data-name="layer3"
  cx="32" cy="18" r="16" fill="#ffdda4"></circle>
  <path data-name="layer2" fill="#a7c5f2" d="M58 33l-6 30H12.018L6.066 33H58z"></path>
  <path data-name="layer1" d="M60 34H4a1 1 0 0 1 0-2h56a1 1 0 0 1 0 2z"
  fill="#c3d6f9"></path>
  <path data-name="opacity" d="M38 21.889c0-2.96-2.5-4.179-5.191-5.055-3.951-1.284-4.352-1.7-4.352-2.945 0-1.487 1.818-2.376 3.576-2.376a3.676 3.676 0 0 1 3.832 2.987 1 1 0 0 0 1.919-.563 5.637 5.637 0 0 0-4.753-4.355V8a1 1 0 0 0-2 0v1.584c-2.367.328-4.576 1.813-4.576 4.306 0 2.983 2.281 3.725 5.734 4.847C35.375 19.772 36 20.677 36 21.889c0 1.581-1.52 2.562-3.967 2.562a3.808 3.808 0 0 1-4.037-3.225 1 1 0 1 0-1.985.24 5.676 5.676 0 0 0 5.022 4.911V28a1 1 0 0 0 2 0v-1.62C36.437 26.032 38 23.963 38 21.889zM6.265 34l5.753 29H28.8l29-29H6.265z"
  fill="#000064" opacity=".1"></path>
</svg>