<svg xmlns="http://www.w3.org/2000/svg" viewBox="0 0 64 64" aria-labelledby="title"
aria-describedby="desc" role="img" xmlns:xlink="http://www.w3.org/1999/xlink">
  <title>Tribunal</title>
  <desc>A flat styled icon from Orion Icon Library.</desc>
  <path data-name="layer1"
  fill="#d2ddf0" d="M4.001 23l28-22 27 22h-55z"></path>
  <path data-name="opacity" fill="#000064" opacity=".1" d="M4.001 23l28-22 27 22h-55z"></path>
  <path data-name="layer1" fill="#d2ddf0" d="M61.001 61H2.999l.002-6h2v-4.943h54V55h2v6zm-57-38h55v7h-55zm24 27.057V30h8v20.057m10 0V30h8v20.057m-44.004 0V30h8v20.057"></path>
  <path data-name="opacity" fill="#000064" opacity=".1" d="M28.001 50.057V30h8v20.057m10 0V30h8v20.057m-44.004 0V30h8v20.057"></path>
  <path data-name="opacity" fill="#fff" opacity=".3" d="M3.001 55h58v6h-58z"></path>
  <path data-name="opacity" fill="#000064" opacity=".1" d="M46.001 38v-8h8l-8 8zm-18 0v-8h8l-8 8zm-18 0v-8h8l-8 8z"></path>
</svg>