<svg xmlns="http://www.w3.org/2000/svg" viewBox="0 0 64 64" aria-labelledby="title"
aria-describedby="desc" role="img" xmlns:xlink="http://www.w3.org/1999/xlink">
  <title>Truck</title>
  <desc>A flat styled icon from Orion Icon Library.</desc>
  <circle data-name="layer1"
  cx="50" cy="50" r="6" fill="#8fa9d8"></circle>
  <path data-name="layer5" d="M42 8H2v42h4c0-8 8-8 8-8h28V8z" fill="#f27e7c"></path>
  <path data-name="layer4" d="M52 18H42v24h20V28a10 10 0 0 0-10-10z"
  fill="#d2ddf0"></path>
  <path data-name="layer3" d="M60 31v-3a8.01 8.01 0 0 0-8-8h-8v11z"
  fill="#8adfff"></path>
  <path data-name="layer2" d="M42 42H14s-8 0-8 8h2a6 6 0 0 1 6-6c2.651 0 3.063 4 3.063 4H44l.329.055A6 6 0 0 1 56 50h6v-8z"
  fill="#7b8baf"></path>
  <circle data-name="layer1" cx="14" cy="50" r="6" fill="#8fa9d8"></circle>
  <path data-name="opacity" d="M52 20h-8l16 11v-3a8.01 8.01 0 0 0-8-8z"
  fill="#fff" opacity=".4"></path>
</svg>