<svg xmlns="http://www.w3.org/2000/svg" viewBox="0 0 64 64" aria-labelledby="title"
aria-describedby="desc" role="img" xmlns:xlink="http://www.w3.org/1999/xlink">
  <title>Update Shopping Cart</title>
  <desc>A flat styled icon from Orion Icon Library.</desc>
  <path data-name="layer4"
  fill="#a7c5f2" d="M38.033 52.001H12.051L6.101 22h51.933l-2.261 11.31-4.74 18.691h-13z"></path>
  <path data-name="layer3" d="M8.1 23a1 1 0 0 1-.744-1.668l17.934-20a1 1 0 0 1 1.489 1.335l-17.934 20A1 1 0 0 1 8.1 23zm47.934 0a1 1 0 0 1-.744-.332l-18-20a1 1 0 0 1 1.486-1.338l18 20a1 1 0 0 1-.742 1.67z"
  fill="#7b8baf"></path>
  <path data-name="layer2" d="M60.033 23h-56a1 1 0 0 1 0-2h56a1 1 0 1 1 0 2z"
  fill="#c3d6f9"></path>
  <path data-name="layer1" d="M62.707 49.292a1 1 0 0 0-1.414 0l-3.523 3.524a13.156 13.156 0 0 0-3.457-12 12.869 12.869 0 0 0-15.241-2.249 1 1 0 1 0 .958 1.755 10.861 10.861 0 0 1 12.861 1.9 11.142 11.142 0 0 1 2.952 10.046l-2.7-2.941a1 1 0 1 0-1.473 1.354l4.6 5a1 1 0 0 0 .715.323H57a1 1 0 0 0 .707-.294l5-5a1 1 0 0 0 0-1.418zM50.376 59.681a10.867 10.867 0 0 1-12.864-1.9 11.141 11.141 0 0 1-2.986-9.847l2.774 2.773a1 1 0 1 0 1.413-1.415l-3.916-3.913a.936.936 0 0 0-.2-.2l-.884-.884a.986.986 0 0 0-.734-.295 1 1 0 0 0-.714.323l-4.6 5a1 1 0 0 0 1.472 1.354l3.6-3.911a13.157 13.157 0 0 0 3.353 12.425 12.879 12.879 0 0 0 9.146 3.794 12.7 12.7 0 0 0 6.1-1.55 1 1 0 1 0-.959-1.754z"
  fill="#556685"></path>
</svg>