<svg xmlns="http://www.w3.org/2000/svg" viewBox="0 0 64 64" aria-labelledby="title"
aria-describedby="desc" role="img" xmlns:xlink="http://www.w3.org/1999/xlink">
  <title>Update Cart</title>
  <desc>A flat styled icon from Orion Icon Library.</desc>
  <path data-name="layer4"
  d="M12.495 23.708a1 1 0 0 1-.97-.759L7.7 7.5H2.5a1 1 0 0 1 0-2h5.987a1 1 0 0 1 .972.761l4.007 16.208a1 1 0 0 1-.728 1.21 1.061 1.061 0 0 1-.243.029z"
  fill="#8fa9d8"></path>
  <path data-name="layer3" fill="#c3d6f9" d="M57.497 22.5l-46.001.001 5.992 24h32L57.497 22.5z"></path>
  <circle data-name="layer2" cx="19.488" cy="54.5" r="4" fill="#7b8baf"></circle>
  <circle data-name="layer2" cx="45.488" cy="54.5" r="4" fill="#7b8baf"></circle>
  <path data-name="layer1" d="M62.212 17.816a1 1 0 0 0-1.414 0l-3.524 3.524a13.153 13.153 0 0 0-3.458-12 12.868 12.868 0 0 0-15.24-2.249 1 1 0 1 0 .957 1.756 10.861 10.861 0 0 1 12.861 1.9 11.14 11.14 0 0 1 2.954 10.043l-2.705-2.942a1 1 0 1 0-1.472 1.352l4.6 5a1 1 0 0 0 .716.323h.02a1 1 0 0 0 .707-.293l5-5a1 1 0 0 0-.002-1.414zm-12.331 10.39a10.867 10.867 0 0 1-12.865-1.9 11.142 11.142 0 0 1-2.986-9.846l2.77 2.771a1 1 0 0 0 1.414-1.415L34.3 13.907a.959.959 0 0 0-.208-.207l-.882-.881a1 1 0 0 0-1.443.029l-4.6 5a1 1 0 1 0 1.471 1.352l3.6-3.911A13.159 13.159 0 0 0 35.6 27.717a12.874 12.874 0 0 0 9.145 3.793 12.707 12.707 0 0 0 6.1-1.55 1 1 0 1 0-.959-1.755z"
  fill="#556685"></path>
</svg>