<svg xmlns="http://www.w3.org/2000/svg" viewBox="0 0 64 64" aria-labelledby="title"
aria-describedby="desc" role="img" xmlns:xlink="http://www.w3.org/1999/xlink">
  <title>US Dollar</title>
  <desc>A flat styled icon from Orion Icon Library.</desc>
  <path data-name="layer2"
  d="M45.8 41.9c0-3.68-1.7-10.234-13.1-12.817a.269.269 0 0 0-.028-.01C24.2 27.142 24.2 23.348 24.2 22.1c0-4.741 4.043-6.9 7.8-6.9a7.771 7.771 0 0 1 7.692 6.5 3 3 0 1 0 5.916-.994A13.733 13.733 0 0 0 35 9.54V5a3 3 0 0 0-6 0v4.488C22.674 10.7 18.2 15.717 18.2 22.1c0 3.667 1.705 10.208 13.12 12.821l.021.008C36.954 36.2 39.8 38.542 39.8 41.9c0 4.739-4.043 6.9-7.8 6.9a7.809 7.809 0 0 1-7.8-7.8 3 3 0 0 0-6 0A13.817 13.817 0 0 0 29 54.464V59a3 3 0 0 0 6 0v-4.484C41.326 53.3 45.8 48.287 45.8 41.9z"
  fill="#c3d6f9"></path>
  <path data-name="layer1" d="M31.8 9.163a15.725 15.725 0 0 1 3.2.377V5a3 3 0 0 0-6 0v4.444a10.067 10.067 0 0 1 2.8-.281zm.4 45.673a15.665 15.665 0 0 1-3.2-.377V59a3 3 0 0 0 6 0v-4.444a10.053 10.053 0 0 1-2.8.28z"
  fill="#a7c5f2"></path>
  <path data-name="opacity" d="M29.275 60.241l5.675-5.675a9.949 9.949 0 0 1-2.75.27 15.665 15.665 0 0 1-3.2-.377V59a2.979 2.979 0 0 0 .275 1.241z"
  fill="#000064" opacity=".1"></path>
</svg>