<svg xmlns="http://www.w3.org/2000/svg" viewBox="0 0 64 64" aria-labelledby="title"
aria-describedby="desc" role="img" xmlns:xlink="http://www.w3.org/1999/xlink">
  <title>Vault</title>
  <desc>A flat styled icon from Orion Icon Library.</desc>
  <path data-name="layer4"
  d="M62 59a3 3 0 0 1-3 3H5a3 3 0 0 1-3-3V5a3 3 0 0 1 3-3h54a3 3 0 0 1 3 3z"
  fill="#8fa9d8"></path>
  <path data-name="opacity" d="M10.588 10.587L2 19.174V59a3 3 0 0 0 3 3h39.823l8.589-8.589z"
  fill="#000064" opacity=".15"></path>
  <path data-name="layer3" d="M12 10a2.006 2.006 0 0 0-2 2v40a2.006 2.006 0 0 0 2 2h40a2.006 2.006 0 0 0 2-2V12a2 2 0 0 0-2-2z"
  fill="#a7c5f2"></path>
  <path data-name="layer2" fill="#ffdda4" d="M8 15.998h3.998v8H8zm0 24.003h3.998v7.997H8z"></path>
  <path data-name="layer1" d="M34 25a1 1 0 0 1-1-1v-4a1 1 0 0 1 2 0v4a1 1 0 0 1-1 1z"
  fill="#f7c98a"></path>
  <path data-name="opacity" d="M34.475 32.236l-.111.129-3.778-3.778 3.564-1.98-.5-7.677-6.36 6.359-2.49-2.482L10 37.612V40H8v8h2v4a2.006 2.006 0 0 0 2 2h18.384L43.19 41.191l-2.49-2.486 6-6z"
  fill="#000064" opacity=".15"></path>
  <path data-name="layer1" d="M34 45a1 1 0 0 1-1-1v-4a1 1 0 1 1 2 0v4a1 1 0 0 1-1 1zm-8-12h-4a1 1 0 1 1 0-2h4a1 1 0 0 1 0 2zm20 0h-4a1 1 0 0 1 0-2h4a1 1 0 0 1 0 2zm-17.66-5.658a1 1 0 0 1-.707-.294L24.8 24.221a1 1 0 0 1 1.414-1.414l2.828 2.829a1 1 0 0 1-.707 1.707zm14.142 14.142a1 1 0 0 1-.707-.293l-2.828-2.826a1 1 0 0 1 1.414-1.415l2.827 2.826a1 1 0 0 1-.706 1.708zm-16.97-.001a1 1 0 0 1-.707-1.706l2.828-2.828a1 1 0 1 1 1.415 1.416l-2.828 2.827a1 1 0 0 1-.708.291zm14.142-14.141a1 1 0 0 1-.706-1.706l2.828-2.828a1 1 0 0 1 1.414 1.414l-2.828 2.828a1 1 0 0 1-.708.292z"
  fill="#f7c98a"></path>
  <circle data-name="layer2" cx="33.996" cy="31.998" r="9" fill="#ffdda4"></circle>
  <circle data-name="layer1" cx="34" cy="32" r="2" fill="#f7c98a"></circle>
</svg>