<svg xmlns="http://www.w3.org/2000/svg" viewBox="0 0 64 64" aria-labelledby="title"
aria-describedby="desc" role="img" xmlns:xlink="http://www.w3.org/1999/xlink">
  <title>Wallet</title>
  <desc>A flat styled icon from Orion Icon Library.</desc>
  <path data-name="layer3"
  d="M58.938 4H4.992a3 3 0 0 0-3 3v36a3 3 0 0 0 3 3h15V23.007a5.175 5.175 0 0 1 3-5L56.946 4.795a4.342 4.342 0 0 1 1.992-.195z"
  fill="#cd7b5a"></path>
  <path data-name="opacity" d="M33.318 15H12.009a1 1 0 0 1 0-2h21.308a1 1 0 1 1 0 2zM20.009 27h-8a1 1 0 0 1 0-2h8a1 1 0 1 1 0 2z"
  fill="#000064" opacity=".15"></path>
  <path data-name="opacity" d="M1.991 43a3 3 0 0 0 3 3h15V23.007a5.559 5.559 0 0 1 1.563-4.045l-.274-.274-19.288 19.29z"
  fill="#000064" opacity=".15"></path>
  <path data-name="layer2" d="M62.009 41a5.423 5.423 0 0 1-3 5l-35 13.624c-3.032 1.284-3.991-.959-3.991-2.614V22.445a5.171 5.171 0 0 1 3-5L56.966 4.234c2.231-.8 5.043.547 5.043 2.2z"
  fill="#de9372"></path>
  <ellipse data-name="layer1" cx="30.004" cy="37.17" rx="2.996" ry="4"
  fill="#fc6"></ellipse>
</svg>