<svg xmlns="http://www.w3.org/2000/svg" viewBox="0 0 64 64" aria-labelledby="title"
aria-describedby="desc" role="img" xmlns:xlink="http://www.w3.org/1999/xlink">
  <title>Wallet</title>
  <desc>A flat styled icon from Orion Icon Library.</desc>
  <path data-name="layer4"
  fill="#92d5b5" d="M51.653 14.999l-3.641-10-27.477 10.003"></path>
  <rect data-name="layer3" x="42" y="30.999" width="18" height="11.998"
  rx="2" ry="2" fill="#de9372"></rect>
  <circle data-name="layer2" cx="49" cy="37.001" r="2" fill="#f7c98a"></circle>
  <path data-name="layer1" d="M42 41v-8a2 2 0 0 1 2-2h14V18a3 3 0 0 0-3-3H5a3 3 0 0 0-3 3v38a3 3 0 0 0 3 3h50a3 3 0 0 0 3-3V43H44a2 2 0 0 1-2-2z"
  fill="#cd7b5a"></path>
  <path data-name="opacity" d="M14 22h-2a1 1 0 1 1 0-2h2a1 1 0 1 1 0 2zm10 0h-2a1 1 0 1 1 0-2h2a1 1 0 1 1 0 2zm10 0h-2a1 1 0 1 1 0-2h2a1 1 0 0 1 0 2zm10 0h-2a1 1 0 0 1 0-2h2a1 1 0 0 1 0 2zM18 54h-2a1 1 0 1 1 0-2h2a1 1 0 0 1 0 2zm10 0h-2a1 1 0 1 1 0-2h2a1 1 0 1 1 0 2zm10 0h-2a1 1 0 1 1 0-2h2a1 1 0 0 1 0 2zm10.006 0h-2a1 1 0 1 1 0-2h2a1 1 0 0 1 0 2z"
  fill="#000064" opacity=".15"></path>
  <path data-name="opacity" d="M42 33a1.991 1.991 0 0 1 .584-1.411L15.171 59H55a3 3 0 0 0 3-3V43H44a2 2 0 0 1-2-2z"
  fill="#000064" opacity=".15"></path>
</svg>