<svg xmlns="http://www.w3.org/2000/svg" viewBox="0 0 64 64" aria-labelledby="title"
aria-describedby="desc" role="img" xmlns:xlink="http://www.w3.org/1999/xlink">
  <title>Wallet</title>
  <desc>A flat styled icon from Orion Icon Library.</desc>
  <path data-name="layer2"
  d="M55 14V9a3 3 0 0 0-3-3H7a4 4 0 0 0-4 4 4 4 0 0 0 4 4z" fill="#cd7b5a"></path>
  <path data-name="opacity" d="M55 14V9a3 3 0 0 0-3-3H7a4 4 0 0 0-4 4 4 4 0 0 0 4 4z"
  fill="#000064" opacity=".15"></path>
  <rect data-name="layer4" x="43" y="29.998" width="18" height="12"
  rx="2" ry="2" fill="#de9372"></rect>
  <circle data-name="layer3" cx="50" cy="36" r="1" fill="#efbc8b"></circle>
  <path data-name="layer2" d="M43 40v-8a2 2 0 0 1 2-2h14V17a3 3 0 0 0-3-3H7a4 4 0 0 1-4-4v45a3 3 0 0 0 3 3h50a3 3 0 0 0 3-3V42H45a2 2 0 0 1-2-2z"
  fill="#cd7b5a"></path>
  <path data-name="opacity" d="M15 21h-2a1 1 0 0 1 0-2h2a1 1 0 1 1 0 2zm10 0h-2a1 1 0 0 1 0-2h2a1 1 0 0 1 0 2zm10 0h-2a1 1 0 1 1 0-2h2a1 1 0 0 1 0 2zm10 0h-2a1 1 0 0 1 0-2h2a1 1 0 1 1 0 2zM19 53h-2a1 1 0 1 1 0-2h2a1 1 0 1 1 0 2zm10 0h-2a1 1 0 1 1 0-2h2a1 1 0 0 1 0 2zm10 0h-2a1 1 0 0 1 0-2h2a1 1 0 0 1 0 2zm10.008 0h-2a1 1 0 0 1 0-2h2a1 1 0 0 1 0 2z"
  fill="#000064" opacity=".15"></path>
  <circle data-name="layer1" cx="50" cy="36" r="2" fill="#f7c98a"></circle>
  <path data-name="opacity" d="M43 32a1.98 1.98 0 0 1 .4-1.186L16.209 58H56a3 3 0 0 0 3-3V42H45a2 2 0 0 1-2-2z"
  fill="#000064" opacity=".15"></path>
</svg>