<svg xmlns="http://www.w3.org/2000/svg" viewBox="0 0 64 64" aria-labelledby="title"
aria-describedby="desc" role="img" xmlns:xlink="http://www.w3.org/1999/xlink">
  <title>Wishlist</title>
  <desc>A flat styled icon from Orion Icon Library.</desc>
  <path data-name="layer4"
  d="M13 24.52a1 1 0 0 1-.97-.759L8.209 8.313H3a1 1 0 0 1 0-2h5.991a1 1 0 0 1 .972.761l4.007 16.207a1 1 0 0 1-.729 1.21 1.02 1.02 0 0 1-.241.029z"
  fill="#8fa9d8"></path>
  <circle data-name="layer3" cx="19.992" cy="55.312" r="4" fill="#7b8baf"></circle>
  <circle data-name="layer3" cx="45.992" cy="55.312" r="4" fill="#7b8baf"></circle>
  <path data-name="layer2" fill="#c3d6f9" d="M58.001 23.311L12 23.313l5.991 24h32l8.01-24.002z"></path>
  <path data-name="opacity" fill="#000064" opacity=".1" d="M17.991 47.313h32l8.01-24.002H39.828L17.56 45.581l.431 1.732z"></path>
  <path data-name="layer1" fill="#ffdea5" d="M46 27.574l-9.887 7.112 3.809-11.467L30 16.686h12.242l3.758-12 3.759 12H62l-9.918 6.533 3.809 11.467L46 27.574z"></path>
</svg>