<svg xmlns="http://www.w3.org/2000/svg" viewBox="0 0 64 64" aria-labelledby="title"
aria-describedby="desc" role="img" xmlns:xlink="http://www.w3.org/1999/xlink">
  <title>Woman Bag</title>
  <desc>A flat styled icon from Orion Icon Library.</desc>
  <path data-name="layer1"
  d="M61 33a1 1 0 0 1-1-1 28 28 0 0 0-56 0 1 1 0 0 1-2 0 30 30 0 0 1 60 0 1 1 0 0 1-1 1z"
  fill="#de9372"></path>
  <path data-name="opacity" d="M61 33a1 1 0 0 1-1-1 28 28 0 0 0-56 0 1 1 0 0 1-2 0 30 30 0 0 1 60 0 1 1 0 0 1-1 1z"
  fill="#000064" opacity=".15"></path>
  <rect data-name="layer1" x="2" y="31" width="60" height="32" rx="2"
  ry="2" fill="#de9372"></rect>
  <path data-name="opacity" d="M30 55L2 47v14a2 2 0 0 0 2 2h56a2 2 0 0 0 2-2V47l-28 8z"
  fill="#000064" opacity=".15"></path>
</svg>