<svg xmlns="http://www.w3.org/2000/svg" viewBox="0 0 64 64" aria-labelledby="title"
aria-describedby="desc" role="img" xmlns:xlink="http://www.w3.org/1999/xlink">
  <title>ATM</title>
  <desc>A line styled icon from Orion Icon Library.</desc>
  <path data-name="layer1"
  fill="none" stroke="#202020" stroke-miterlimit="10" stroke-width="2" d="M10 10h26v26H10z"
  stroke-linejoin="round" stroke-linecap="round"></path>
  <path data-name="layer2" d="M14 56H5a3 3 0 0 1-3-3V5a3 3 0 0 1 3-3h54a3 3 0 0 1 3 3v48a3 3 0 0 1-3 3H34M10 44h28"
  fill="none" stroke="#202020" stroke-miterlimit="10" stroke-width="2" stroke-linejoin="round"
  stroke-linecap="round"></path>
  <path data-name="layer2" fill="none" stroke="#202020" stroke-miterlimit="10"
  stroke-width="2" d="M14 44h20v18H14z" stroke-linejoin="round" stroke-linecap="round"></path>
  <path data-name="layer1" fill="none" stroke="#202020" stroke-miterlimit="10"
  stroke-width="2" d="M42 16h14m-12 8h2m6 0h2m-10 8h2m6 0h2" stroke-linejoin="round"
  stroke-linecap="round"></path>
</svg>