<svg xmlns="http://www.w3.org/2000/svg" viewBox="0 0 64 64" aria-labelledby="title"
aria-describedby="desc" role="img" xmlns:xlink="http://www.w3.org/1999/xlink">
  <title>Bill</title>
  <desc>A line styled icon from Orion Icon Library.</desc>
  <path data-name="layer1"
  fill="none" stroke="#202020" stroke-miterlimit="10" stroke-width="2" d="M19 20h10M19 36h8m-8-8h8m-8 16h4"
  stroke-linejoin="round" stroke-linecap="round"></path>
  <path data-name="layer2" fill="none" stroke="#202020" stroke-miterlimit="10"
  stroke-width="2" d="M23 2zm12 0zm11.9 0zM53 8l-6.1-6L41 6l-6-4-6 4-6-4-6 4-6-4v54l6.1 6 5.9-4 6 4 6-4 6 4 6-4 6 4V8zM41 62zm-12 0zm-11.9 0z"
  stroke-linejoin="round" stroke-linecap="round"></path>
  <path data-name="layer1" d="M44.9 22.7a5 5 0 0 0-4.9-4.2c-2.8 0-5 1.8-5 4.6s2.5 4 5 4.6"
  fill="none" stroke="#202020" stroke-miterlimit="10" stroke-width="2" stroke-linejoin="round"
  stroke-linecap="round"></path>
  <path data-name="layer1" d="M35 32.5a5 5 0 0 0 5 5 5.2 5.2 0 0 0 5-5.2c0-2.8-2.5-4-5-4.6m0-9.2V16m0 24v-2.5"
  fill="none" stroke="#202020" stroke-miterlimit="10" stroke-width="2" stroke-linejoin="round"
  stroke-linecap="round"></path>
</svg>