<svg xmlns="http://www.w3.org/2000/svg" viewBox="0 0 64 64" aria-labelledby="title"
aria-describedby="desc" role="img" xmlns:xlink="http://www.w3.org/1999/xlink">
  <title>Bitcoin Unit</title>
  <desc>A line styled icon from Orion Icon Library.</desc>
  <path data-name="layer2"
  d="M26 31h7a4.5 4.5 0 0 0 4.7-4.4 4.6 4.6 0 0 0-4.6-4.6H26v20h8a4.7 4.7 0 0 0 5-5 5.8 5.8 0 0 0-6-6m-5-9v-4m6 4v-4m-6 28v-4m6 4v-4"
  fill="none" stroke="#202020" stroke-miterlimit="10" stroke-width="2" stroke-linejoin="round"
  stroke-linecap="round"></path>
  <path data-name="layer1" d="M54 32a8 8 0 0 1 8-8V14H2v10a8 8 0 1 1 0 16v10h60V40a8 8 0 0 1-8-8z"
  fill="none" stroke="#202020" stroke-miterlimit="10" stroke-width="2" stroke-linejoin="round"
  stroke-linecap="round"></path>
</svg>