<svg viewBox="0 0 64 64" xmlns="http://www.w3.org/2000/svg" aria-labelledby="title"
aria-describedby="desc" role="img" xmlns:xlink="http://www.w3.org/1999/xlink">
  <title>Cash Dispenser</title>
  <desc>A line styled icon from Orion Icon Library.</desc>
  <path stroke-width="2"
  stroke-miterlimit="10" stroke="#202020" fill="none" d="M14 26H5a3 3 0 0 1-3-3V5a3 3 0 0 1 3-3h54a3 3 0 0 1 3 3v18a3 3 0 0 1-3 3h-9"
  data-name="layer2" stroke-linejoin="round" stroke-linecap="round"></path>
  <path d="M14 17.996h-4V10h43.998v7.996h-3.996" stroke-width="2"
  stroke-miterlimit="10" stroke="#202020" fill="none" data-name="layer2"
  stroke-linejoin="round" stroke-linecap="round"></path>
  <path d="M49.996 10.004v43.992H13.998V10.004M40 54a10 10 0 0 1 10-10m-36 0a10 10 0 0 1 10 10"
  stroke-width="2" stroke-miterlimit="10" stroke="#202020" fill="none" data-name="layer2"
  stroke-linejoin="round" stroke-linecap="round"></path>
  <path d="M12 62h40" stroke-width="2" stroke-miterlimit="10" stroke="#202020"
  fill="none" data-name="layer1" stroke-linejoin="round" stroke-linecap="round"></path>
  <path stroke-width="2" stroke-miterlimit="10" stroke="#202020"
  fill="none" d="M27 30.488a5 5 0 0 0 5 5c2.762 0 5-1.821 5-4.584s-2.5-4.018-5-4.582-5-1.824-5-4.584 2.238-4.584 5-4.584a5.006 5.006 0 0 1 4.93 4.166"
  stroke-linejoin="round" stroke-linecap="round"></path>
  <path d="M31.996 17.154v-2.5m0 23.334v-2.5" stroke-width="2" stroke-miterlimit="10"
  stroke="#202020" fill="none" data-name="layer1" stroke-linejoin="round"
  stroke-linecap="round"></path>
</svg>