<svg xmlns="http://www.w3.org/2000/svg" viewBox="0 0 64 64" aria-labelledby="title"
aria-describedby="desc" role="img" xmlns:xlink="http://www.w3.org/1999/xlink">
  <title>Cash Register</title>
  <desc>A line styled icon from Orion Icon Library.</desc>
  <rect data-name="layer2"
  x="36" y="2" width="16" height="8" rx="3" ry="3" fill="none" stroke="#202020"
  stroke-miterlimit="10" stroke-width="2" stroke-linejoin="round" stroke-linecap="round"></rect>
  <path data-name="layer2" fill="none" stroke="#202020" stroke-miterlimit="10"
  stroke-width="2" d="M44 10v8" stroke-linejoin="round" stroke-linecap="round"></path>
  <path data-name="layer1" d="M2 50l6-18h48l6 18M2 50h60v12H2zm26-32h24a4 4 0 0 1 4 4v10M8 32V22a4 4 0 0 1 4-4h4"
  fill="none" stroke="#202020" stroke-miterlimit="10" stroke-width="2" stroke-linejoin="round"
  stroke-linecap="round"></path>
  <path data-name="layer2" fill="none" stroke="#202020" stroke-miterlimit="10"
  stroke-width="2" d="M16 10h12v14H16zm20 16h12" stroke-linejoin="round"
  stroke-linecap="round"></path>
  <path data-name="layer1" fill="none" stroke="#202020" stroke-miterlimit="10"
  stroke-width="2" d="M15 44h4m6 0h4m6 0h4m6 0h4m-29-6h4m6 0h4m6 0h4" stroke-linejoin="round"
  stroke-linecap="round"></path>
  <circle data-name="layer1" cx="32" cy="56" r="1" fill="none" stroke="#202020"
  stroke-miterlimit="10" stroke-width="2" stroke-linejoin="round" stroke-linecap="round"></circle>
</svg>