<svg xmlns="http://www.w3.org/2000/svg" viewBox="0 0 64 64" aria-labelledby="title"
aria-describedby="desc" role="img" xmlns:xlink="http://www.w3.org/1999/xlink">
  <title>Coins</title>
  <desc>A line styled icon from Orion Icon Library.</desc>
  <path data-name="layer1"
  fill="none" stroke="#202020" stroke-miterlimit="10" stroke-width="2" d="M32 52h26v10H32zm4 0V42h26v10h-4M36 42h-4V32h26v10"
  stroke-linejoin="round" stroke-linecap="round"></path>
  <path data-name="layer2" fill="none" stroke="#202020" stroke-miterlimit="10"
  stroke-width="2" d="M26 52H6v10h20m0-20H2v10h4m20-20H6v10" stroke-linejoin="round"
  stroke-linecap="round"></path>
  <path data-name="layer1" fill="none" stroke="#202020" stroke-miterlimit="10"
  stroke-width="2" d="M36 32V22h26v10h-4M36 22h-4V12h26v10M36 12V2h26v10h-4"
  stroke-linejoin="round" stroke-linecap="round"></path>
  <path data-name="layer2" fill="none" stroke="#202020" stroke-miterlimit="10"
  stroke-width="2" d="M14 32v10m-4 0v10m4 0v10" stroke-linejoin="round" stroke-linecap="round"></path>
  <path data-name="layer1" fill="none" stroke="#202020" stroke-miterlimit="10"
  stroke-width="2" d="M40 32v10m4 0v10m0-30v10m-4-20v10m4-20v10m-4 40v10"
  stroke-linejoin="round" stroke-linecap="round"></path>
</svg>