<svg xmlns="http://www.w3.org/2000/svg" viewBox="0 0 64 64" aria-labelledby="title"
aria-describedby="desc" role="img" xmlns:xlink="http://www.w3.org/1999/xlink">
  <title>Coins</title>
  <desc>A line styled icon from Orion Icon Library.</desc>
  <ellipse data-name="layer2"
  cx="44" cy="7.1" rx="18" ry="5.1" fill="none" stroke="#202020" stroke-miterlimit="10"
  stroke-width="2" stroke-linejoin="round" stroke-linecap="round"></ellipse>
  <path data-name="layer2" d="M26 14.9c0 2.8 8.1 5.1 18 5.1s18-2.3 18-5.1m-36 8c0 2.8 8.1 5.1 18 5.1s18-2.3 18-5.1m-36 8c0 2.8 8.1 5.1 18 5.1s18-2.3 18-5.1M38 43.7c1.9.2 3.9.3 6 .3 9.9 0 18-2.3 18-5.1m-36-2.8V7.5"
  fill="none" stroke="#202020" stroke-miterlimit="10" stroke-width="2" stroke-linejoin="round"
  stroke-linecap="round"></path>
  <path data-name="layer2" d="M62 7.1v39.8c0 2.8-8.1 5.1-18 5.1-2.1 0-4.1-.1-6-.3"
  fill="none" stroke="#202020" stroke-miterlimit="10" stroke-width="2" stroke-linejoin="round"
  stroke-linecap="round"></path>
  <ellipse data-name="layer1" cx="20" cy="40.9" rx="18" ry="5.1"
  fill="none" stroke="#202020" stroke-miterlimit="10" stroke-width="2" stroke-linejoin="round"
  stroke-linecap="round"></ellipse>
  <path data-name="layer1" d="M2 48.9c0 2.8 8 5.1 18 5.1s18-2.3 18-5.1"
  fill="none" stroke="#202020" stroke-miterlimit="10" stroke-width="2" stroke-linejoin="round"
  stroke-linecap="round"></path>
  <path data-name="layer1" d="M38 40.9v16c0 2.8-8.1 5.1-18 5.1S2 59.7 2 56.9V41.3"
  fill="none" stroke="#202020" stroke-miterlimit="10" stroke-width="2" stroke-linejoin="round"
  stroke-linecap="round"></path>
</svg>