<svg viewBox="0 0 64 64" xmlns="http://www.w3.org/2000/svg" aria-labelledby="title"
aria-describedby="desc" role="img" xmlns:xlink="http://www.w3.org/1999/xlink">
  <title>Dollar Bill</title>
  <desc>A line styled icon from Orion Icon Library.</desc>
  <path stroke-width="2"
  stroke-miterlimit="10" stroke="#202020" fill="none" d="M54 32a8 8 0 0 1 8-8V14H2v10a8 8 0 1 1 0 16v10h60V40a8 8 0 0 1-8-8z"
  data-name="layer2" stroke-linejoin="round" stroke-linecap="round"></path>
  <path stroke-width="2" stroke-miterlimit="10" stroke="#202020"
  fill="none" d="M36.93 27A5 5 0 0 0 32 22.835c-2.762 0-5 1.821-5 4.584s2.5 4.012 5 4.581 5 1.823 5 4.583-2.238 4.584-5 4.584a5 5 0 0 1-5-5"
  stroke-linejoin="round" stroke-linecap="round"></path>
  <path d="M32 22.835v-2.501m0 23.335v-2.5" stroke-width="2" stroke-miterlimit="10"
  stroke="#202020" fill="none" data-name="layer1" stroke-linejoin="round"
  stroke-linecap="round"></path>
</svg>