<svg xmlns="http://www.w3.org/2000/svg" viewBox="0 0 64 64" aria-labelledby="title"
aria-describedby="desc" role="img" xmlns:xlink="http://www.w3.org/1999/xlink">
  <title>Money Bag Pound</title>
  <desc>A line styled icon from Orion Icon Library.</desc>
  <path data-name="layer2"
  d="M38 18s18 14 18 34a10 10 0 0 1-10 10H18A10 10 0 0 1 8 52c0-20 18-34 18-34S14 7.6 14 4s8 2 12 2c5.7 0 6.3-4 10-4s4.1 4.1 10 4.1c2.2 0-2 6-8 11.9z"
  fill="none" stroke="#202020" stroke-miterlimit="10" stroke-width="2" stroke-linejoin="round"
  stroke-linecap="round"></path>
  <path data-name="layer2" d="M26 18h13a19.2 19.2 0 0 0 13-4m-2 8c2.8 0 5 1 6 3"
  fill="none" stroke="#202020" stroke-miterlimit="10" stroke-width="2" stroke-linejoin="round"
  stroke-linecap="round"></path>
  <path data-name="layer1" fill="none" stroke="#202020" stroke-miterlimit="10"
  stroke-width="2" d="M23.2 52h16M24 42h14m2-8a6 6 0 0 0-12 0v13.2c0 2.4-.8 4.8-4.8 4.8"
  stroke-linejoin="round" stroke-linecap="round"></path>
</svg>