<svg viewBox="0 0 64 64" xmlns="http://www.w3.org/2000/svg" aria-labelledby="title"
aria-describedby="desc" role="img" xmlns:xlink="http://www.w3.org/1999/xlink">
  <title>Money</title>
  <desc>A line styled icon from Orion Icon Library.</desc>
  <path stroke-width="2"
  stroke-miterlimit="10" stroke="#202020" fill="none" d="M42 22a20 20 0 1 1-20 20"
  data-name="layer1" stroke-linejoin="round" stroke-linecap="round"></path>
  <circle stroke-width="2" stroke-miterlimit="10" stroke="#202020"
  fill="none" r="20" cy="22.001" cx="22" data-name="layer2" stroke-linejoin="round"
  stroke-linecap="round"></circle>
  <path stroke-width="2" stroke-miterlimit="10" stroke="#202020"
  fill="none" d="M26.949 17a5.006 5.006 0 0 0-4.932-4.167c-2.762 0-5 1.822-5 4.583s2.5 4.012 5 4.584 5 1.822 5 4.584-2.238 4.584-5 4.584a5 5 0 0 1-5-5"
  stroke-linejoin="round" stroke-linecap="round"></path>
  <path d="M22.018 12.832v-2.831m0 23.998v-2.832" stroke-width="2"
  stroke-miterlimit="10" stroke="#202020" fill="none" data-name="layer2"
  stroke-linejoin="round" stroke-linecap="round"></path>
  <path d="M42 53.999v-2.834" stroke-width="2" stroke-miterlimit="10"
  stroke="#202020" fill="none" data-name="layer1" stroke-linejoin="round"
  stroke-linecap="round"></path>
  <path stroke-width="2" stroke-miterlimit="10" stroke="#202020"
  fill="none" d="M37 46.165a5 5 0 0 0 5 5c2.762 0 5-1.822 5-4.582S44.5 42.562 42 42a9.814 9.814 0 0 1-2.887-1.1"
  stroke-linejoin="round" stroke-linecap="round"></path>
  <path stroke-width="2" stroke-miterlimit="10" stroke="#202020"
  fill="none" d="M46.93 37a4.993 4.993 0 0 0-1.535-2.835" data-name="layer1"
  stroke-linejoin="round" stroke-linecap="round"></path>
</svg>