<svg viewBox="0 0 64 64" xmlns="http://www.w3.org/2000/svg" aria-labelledby="title"
aria-describedby="desc" role="img" xmlns:xlink="http://www.w3.org/1999/xlink">
  <title>Money Bag Bitcoin</title>
  <desc>A line styled icon from Orion Icon Library.</desc>
  <path stroke-width="2"
  stroke-miterlimit="10" stroke="#202020" fill="none" d="M38 18.031S56 32 56 52a10 10 0 0 1-10 10H18A10 10 0 0 1 8 52c0-20 18-33.969 18-33.969S14 7.582 14 4s8 2 12 2c5.666 0 6.334-4 10-4s4.084 4.06 10 4.06c2.248 0-2 6.006-8 11.971z"
  data-name="layer2" stroke-linejoin="round" stroke-linecap="round"></path>
  <path stroke-width="2" stroke-miterlimit="10" stroke="#202020"
  fill="none" d="M26 18.031h13A19.166 19.166 0 0 0 52 14m-2 8a6.479 6.479 0 0 1 6 3"
  data-name="layer2" stroke-linejoin="round" stroke-linecap="round"></path>
  <path stroke-width="2" stroke-miterlimit="10" stroke="#202020"
  fill="none" d="M26 39h7a4.492 4.492 0 0 0 4.615-4.426 4.564 4.564 0 0 0-4.564-4.564H26V50h8a5.359 5.359 0 0 0 5.275-5.469A5.514 5.514 0 0 0 33.881 39H33m-1 14.998v-4.09m0-19.899v-4.011"
  data-name="layer1" stroke-linejoin="round" stroke-linecap="round"></path>
</svg>