<svg xmlns="http://www.w3.org/2000/svg" viewBox="0 0 64 64" aria-labelledby="title"
aria-describedby="desc" role="img" xmlns:xlink="http://www.w3.org/1999/xlink">
  <title>Old Cash Register</title>
  <desc>A line styled icon from Orion Icon Library.</desc>
  <circle data-name="layer2"
  cx="14" cy="26" r="4" fill="none" stroke="#202020" stroke-miterlimit="10"
  stroke-width="2" stroke-linejoin="round" stroke-linecap="round"></circle>
  <path data-name="layer2" fill="none" stroke="#202020" stroke-miterlimit="10"
  stroke-width="2" d="M17.6 27.8L36 36" stroke-linejoin="round" stroke-linecap="round"></path>
  <circle data-name="layer2" cx="36" cy="36" r="2" fill="none" stroke="#202020"
  stroke-miterlimit="10" stroke-width="2" stroke-linejoin="round" stroke-linecap="round"></circle>
  <path data-name="layer2" fill="none" stroke="#202020" stroke-miterlimit="10"
  stroke-width="2" d="M37 22.6l4.2-6.6m-2.9-1.8l5.7 3.5m1.4 11.7L52 24m-2.3-2.7l4.6 5.4m-3.1 12l6.4-2.4m-1.1-3.1l2.2 6.2"
  stroke-linejoin="round" stroke-linecap="round"></path>
  <path data-name="layer1" d="M59 46h-5.6A34 34 0 0 0 32 20.2V5a3 3 0 0 0-3-3H5a3 3 0 0 0-3 3v54a3 3 0 0 0 3 3h54a3 3 0 0 0 3-3V49a3 3 0 0 0-3-3zm-5.6 0H2"
  fill="none" stroke="#202020" stroke-miterlimit="10" stroke-width="2" stroke-linejoin="round"
  stroke-linecap="round"></path>
</svg>