<svg xmlns="http://www.w3.org/2000/svg" viewBox="0 0 64 64" aria-labelledby="title"
aria-describedby="desc" role="img" xmlns:xlink="http://www.w3.org/1999/xlink">
  <title>Purse</title>
  <desc>A line styled icon from Orion Icon Library.</desc>
  <path data-name="layer2"
  d="M36 4a4 4 0 0 0-4 4v4h4a4 4 0 0 0 0-8zm-8 0a4 4 0 0 1 4 4v4h-4a4 4 0 0 1 0-8zM3 18a4 4 0 0 1 4-4h50a4 4 0 0 1 4 4"
  fill="none" stroke="#202020" stroke-miterlimit="10" stroke-width="2" stroke-linejoin="round"
  stroke-linecap="round"></path>
  <path data-name="layer1" d="M56 22H8c0 8-6 12-6 26a12 12 0 0 0 12 12h36a12 12 0 0 0 12-12c0-14-6-14-6-26z"
  fill="none" stroke="#202020" stroke-miterlimit="10" stroke-width="2" stroke-linejoin="round"
  stroke-linecap="round"></path>
</svg>