<svg xmlns="http://www.w3.org/2000/svg" viewBox="0 0 64 64" aria-labelledby="title"
aria-describedby="desc" role="img" xmlns:xlink="http://www.w3.org/1999/xlink">
  <title>Secure Payment</title>
  <desc>A line styled icon from Orion Icon Library.</desc>
  <path data-name="layer2"
  d="M38 42H4.4A2.4 2.4 0 0 1 2 39.6V12.4A2.4 2.4 0 0 1 4.4 10h43.2a2.4 2.4 0 0 1 2.4 2.4V22M2 18h48m-39.9 8H26m-16 8h7"
  fill="none" stroke="#202020" stroke-miterlimit="10" stroke-width="2" stroke-linejoin="round"
  stroke-linecap="round"></path>
  <path data-name="layer1" fill="none" stroke="#202020" stroke-miterlimit="10"
  stroke-width="2" d="M38 38h24v16H38zm6 0V28a6 6 0 0 1 6-6 6 6 0 0 1 6 6v10m-6 6v4"
  stroke-linejoin="round" stroke-linecap="round"></path>
</svg>