<svg xmlns="http://www.w3.org/2000/svg" viewBox="0 0 64 64" aria-labelledby="title"
aria-describedby="desc" role="img" xmlns:xlink="http://www.w3.org/1999/xlink">
  <title>Settings E-commerce</title>
  <desc>A line styled icon from Orion Icon Library.</desc>
  <path data-name="layer2"
  fill="none" stroke="#202020" stroke-miterlimit="10" stroke-width="2" d="M55 37.6L58 22M6.1 22L12 52h20M26 2L8.1 22M38 2l18 20M2 22h60"
  stroke-linejoin="round" stroke-linecap="round"></path>
  <circle data-name="layer1" cx="47" cy="47" r="5" fill="none" stroke="#202020"
  stroke-miterlimit="10" stroke-width="2" stroke-linejoin="round" stroke-linecap="round"></circle>
  <path data-name="layer1" d="M62 51l-3.4-2a11.8 11.8 0 0 0 .2-2.1 11.9 11.9 0 0 0-.2-2.3l3.1-1.6-4-6.9-3.1 1.8a11 11 0 0 0-3.6-2.2V32h-8v3.7a13 13 0 0 0-3.9 2.1L36 36l-4 7 3 1.7a11.7 11.7 0 0 0-.2 2.3 11.9 11.9 0 0 0 .2 2.1L31.7 51l4 6.9 3.3-1.8a12.3 12.3 0 0 0 4 1.9v4h8v-4a10.5 10.5 0 0 0 3.7-2l3.3 2z"
  fill="none" stroke="#202020" stroke-miterlimit="10" stroke-width="2" stroke-linejoin="round"
  stroke-linecap="round"></path>
</svg>