<svg xmlns="http://www.w3.org/2000/svg" viewBox="0 0 64 64" aria-labelledby="title"
aria-describedby="desc" role="img" xmlns:xlink="http://www.w3.org/1999/xlink">
  <title>Store Helpline</title>
  <desc>A line styled icon from Orion Icon Library.</desc>
  <path data-name="layer2"
  fill="none" stroke="#202020" stroke-miterlimit="10" stroke-width="2" d="M52.4 50.3L58 23M6.1 23L12 53h28.5M26 3L8.1 23M38 3l18 20M2 23h60"
  stroke-linejoin="round" stroke-linecap="round"></path>
  <path data-name="layer1" d="M55.3 50.1a2.4 2.4 0 0 0-3.3.6c-1.2 1.5-1.7 3.4-7.2-2.1s-4-6.5-2.6-7.7a2.4 2.4 0 0 0 .6-3.3l-3.4-5.2c-.4-.7-1.1-1.7-2.5-1.5a7.2 7.2 0 0 0-5 6.8c0 4.5 3.5 10 8.4 14.8S50.7 61 55.2 61a7.2 7.2 0 0 0 6.8-5c.2-1.4-.9-2-1.5-2.5z"
  fill="none" stroke="#202020" stroke-miterlimit="10" stroke-width="2" stroke-linejoin="round"
  stroke-linecap="round"></path>
</svg>