<svg xmlns="http://www.w3.org/2000/svg" viewBox="0 0 64 64" aria-labelledby="title"
aria-describedby="desc" role="img" xmlns:xlink="http://www.w3.org/1999/xlink">
  <title>Store</title>
  <desc>A line styled icon from Orion Icon Library.</desc>
  <path data-name="layer2"
  fill="none" stroke="#202020" stroke-miterlimit="10" stroke-width="2" d="M36 36h12v22H36z"
  stroke-linejoin="round" stroke-linecap="round"></path>
  <path data-name="layer2" fill="none" stroke="#202020" stroke-miterlimit="10"
  stroke-width="2" d="M56 30v28H8V30" stroke-linejoin="round" stroke-linecap="round"></path>
  <path data-name="layer2" fill="none" stroke="#202020" stroke-miterlimit="10"
  stroke-width="2" d="M16 36h14v12H16z" stroke-linejoin="round" stroke-linecap="round"></path>
  <path data-name="layer1" d="M52.6 6H11.4L2 22.5a7.5 7.5 0 0 0 15 0 7.5 7.5 0 0 0 15 0 7.5 7.5 0 0 0 15 0 7.5 7.5 0 0 0 15 0zM2 22h60M32 6v16.5m-15 0L22 6m25 16.5L42 6"
  fill="none" stroke="#202020" stroke-miterlimit="10" stroke-width="2" stroke-linejoin="round"
  stroke-linecap="round"></path>
</svg>