<svg xmlns="http://www.w3.org/2000/svg" viewBox="0 0 64 64" aria-labelledby="title"
aria-describedby="desc" role="img" xmlns:xlink="http://www.w3.org/1999/xlink">
  <title>Update Cart</title>
  <desc>A line styled icon from Orion Icon Library.</desc>
  <path data-name="layer2"
  fill="none" stroke="#202020" stroke-miterlimit="10" stroke-width="2" d="M52.4 18l4.6 5 5-5m-24 0l-5-5-4.6 5"
  stroke-linejoin="round" stroke-linecap="round"></path>
  <path data-name="layer2" d="M50.9 28.6a11.8 11.8 0 0 1-14.1-2.1A12.1 12.1 0 0 1 34 14m5.6-6.6a11.8 11.8 0 0 1 14 2.1A12.1 12.1 0 0 1 56.4 22"
  fill="none" stroke="#202020" stroke-miterlimit="10" stroke-width="2" stroke-linejoin="round"
  stroke-linecap="round"></path>
  <path data-name="layer1" fill="none" stroke="#202020" stroke-miterlimit="10"
  stroke-width="2" d="M24 22H12M2 6h6l10 40h32l3.7-11.5" stroke-linejoin="round"
  stroke-linecap="round"></path>
  <circle data-name="layer1" cx="20" cy="54" r="4" fill="none" stroke="#202020"
  stroke-miterlimit="10" stroke-width="2" stroke-linejoin="round" stroke-linecap="round"></circle>
  <circle data-name="layer1" cx="46" cy="54" r="4" fill="none"
  stroke="#202020" stroke-miterlimit="10" stroke-width="2" stroke-linejoin="round"
  stroke-linecap="round"></circle>
</svg>