<svg xmlns="http://www.w3.org/2000/svg" viewBox="0 0 64 64" aria-labelledby="title"
aria-describedby="desc" role="img" xmlns:xlink="http://www.w3.org/1999/xlink">
  <title>Wallet</title>
  <desc>A line styled icon from Orion Icon Library.</desc>
  <path data-name="layer2"
  d="M20.2 46H5a3 3 0 0 1-3-3V7a3 3 0 0 1 3-3h54a3 3 0 0 1 3 3m-50 7h21.3M12 26h8"
  fill="none" stroke="#202020" stroke-miterlimit="10" stroke-width="2" stroke-linejoin="round"
  stroke-linecap="round"></path>
  <path data-name="layer1" d="M62 41a5.4 5.4 0 0 1-3 5L24 59.6c-3 1.3-4-1-4-2.6V23a5.2 5.2 0 0 1 3-5L57 4.8c2.2-.8 5 .5 5 2.2z"
  fill="none" stroke="#202020" stroke-miterlimit="10" stroke-width="2" stroke-linejoin="round"
  stroke-linecap="round"></path>
  <circle data-name="layer1" cx="32" cy="36.2" r="4" fill="none"
  stroke="#202020" stroke-miterlimit="10" stroke-width="2" stroke-linejoin="round"
  stroke-linecap="round"></circle>
</svg>