<svg xmlns="http://www.w3.org/2000/svg" viewBox="0 0 64 64" aria-labelledby="title"
aria-describedby="desc" role="img" xmlns:xlink="http://www.w3.org/1999/xlink">
  <title>Wallet</title>
  <desc>A line styled icon from Orion Icon Library.</desc>
  <path data-name="layer1"
  fill="none" stroke="#202020" stroke-miterlimit="10" stroke-width="2" d="M51.7 15L48 5 20.5 15"
  stroke-linejoin="round" stroke-linecap="round"></path>
  <path data-name="layer2" d="M58 43v13a3 3 0 0 1-3 3H5a3 3 0 0 1-3-3V18a3 3 0 0 1 3-3h50a3 3 0 0 1 3 3v13"
  fill="none" stroke="#202020" stroke-miterlimit="10" stroke-width="2" stroke-linejoin="round"
  stroke-linecap="round"></path>
  <rect data-name="layer1" x="42" y="31" width="20" height="12" rx="2"
  ry="2" fill="none" stroke="#202020" stroke-miterlimit="10" stroke-width="2"
  stroke-linejoin="round" stroke-linecap="round"></rect>
  <path data-name="layer2" fill="none" stroke="#202020" stroke-miterlimit="10"
  stroke-width="2" d="M12 21h2m8 0h2m8 0h2m8 0h2M16 53h2m8 0h2m8 0h2m8 0h2"
  stroke-linejoin="round" stroke-linecap="round"></path>
  <circle data-name="layer1" cx="49" cy="37" r="1" fill="none" stroke="#202020"
  stroke-miterlimit="10" stroke-width="2" stroke-linejoin="round" stroke-linecap="round"></circle>
</svg>